<svg xmlns="http://www.w3.org/2000/svg" xmlns:xlink="http://www.w3.org/1999/xlink" width="113" height="113" viewBox="0 0 113 113">
  <defs>
    <filter id="Trazado_982547" x="0" y="0" width="113" height="113" filterUnits="userSpaceOnUse">
      <feOffset dy="3" input="SourceAlpha"/>
      <feGaussianBlur stdDeviation="3" result="blur"/>
      <feFlood flood-opacity="0.161"/>
      <feComposite operator="in" in2="blur"/>
      <feComposite in="SourceGraphic"/>
    </filter>
  </defs>
  <g id="Grupo_1224549" data-name="Grupo 1224549" transform="translate(-1163.5 -8650.653)">
    <g id="Grupo_1224243" data-name="Grupo 1224243" transform="translate(1172.5 8656.653)">
      <g id="Grupo_1224091" data-name="Grupo 1224091">
        <g id="Grupo_1223183" data-name="Grupo 1223183" transform="translate(0)">
          <g id="Grupo_1211217" data-name="Grupo 1211217">
            <g id="Grupo_1210736" data-name="Grupo 1210736">
              <g id="Grupo_1210537" data-name="Grupo 1210537">
                <g id="Grupo_1164202" data-name="Grupo 1164202">
                  <g id="Grupo_1158168" data-name="Grupo 1158168">
                    <g id="Grupo_1152576" data-name="Grupo 1152576">
                      <g id="Grupo_1148633" data-name="Grupo 1148633">
                        <g id="Grupo_1148525" data-name="Grupo 1148525">
                          <g transform="matrix(1, 0, 0, 1, -9, -6)" filter="url(#Trazado_982547)">
                            <g id="Trazado_982547-2" data-name="Trazado 982547" transform="translate(9 6)" fill="#fcf5f0">
                              <path d="M 47.49999618530273 93.5 C 41.28936767578125 93.5 35.26533126831055 92.28396606445312 29.59518241882324 89.88570404052734 C 24.11771583557129 87.56893157958984 19.19812965393066 84.251953125 14.97308921813965 80.02690124511719 C 10.74803638458252 75.80186462402344 7.431062698364258 70.88227844238281 5.114289283752441 65.40480804443359 C 2.716022968292236 59.73466110229492 1.499996185302734 53.71062469482422 1.499996185302734 47.49999618530273 C 1.499996185302734 41.28936767578125 2.716022968292236 35.26533126831055 5.114289283752441 29.59518241882324 C 7.431062698364258 24.11771583557129 10.74803638458252 19.19812965393066 14.97308921813965 14.97308921813965 C 19.19812965393066 10.74803638458252 24.11771583557129 7.431062698364258 29.59518241882324 5.114289283752441 C 35.26533126831055 2.716022968292236 41.28936767578125 1.499996185302734 47.49999618530273 1.499996185302734 C 53.71062469482422 1.499996185302734 59.73466110229492 2.716022968292236 65.40480804443359 5.114289283752441 C 70.88227844238281 7.431062698364258 75.80186462402344 10.74803638458252 80.02690124511719 14.97308921813965 C 84.251953125 19.19812965393066 87.56893157958984 24.11771583557129 89.88570404052734 29.59518241882324 C 92.28396606445312 35.26533126831055 93.5 41.28936767578125 93.5 47.49999618530273 C 93.5 53.71062469482422 92.28396606445312 59.73466110229492 89.88570404052734 65.40480804443359 C 87.56893157958984 70.88227844238281 84.251953125 75.80186462402344 80.02690124511719 80.02690124511719 C 75.80186462402344 84.251953125 70.88227844238281 87.56893157958984 65.40480804443359 89.88570404052734 C 59.73466110229492 92.28396606445312 53.71062469482422 93.5 47.49999618530273 93.5 Z" stroke="none"/>
                              <path d="M 47.49999618530273 2.999992370605469 C 41.4912109375 2.999992370605469 35.66376495361328 4.1761474609375 30.17950439453125 6.495796203613281 C 24.88084411621094 8.736953735351562 20.12152099609375 11.94598388671875 16.03375244140625 16.03375244140625 C 11.94598388671875 20.12152099609375 8.736953735351562 24.88084411621094 6.495796203613281 30.17950439453125 C 4.1761474609375 35.66376495361328 2.999992370605469 41.4912109375 2.999992370605469 47.49999618530273 C 2.999992370605469 53.50878143310547 4.1761474609375 59.33622741699219 6.495796203613281 64.82048797607422 C 8.736953735351562 70.11914825439453 11.94598388671875 74.87847137451172 16.03375244140625 78.96623992919922 C 20.12152099609375 83.05400848388672 24.88084411621094 86.26304626464844 30.17950439453125 88.50419616699219 C 35.66376495361328 90.82384490966797 41.4912109375 92 47.49999618530273 92 C 53.50878143310547 92 59.33622741699219 90.82384490966797 64.82048797607422 88.50419616699219 C 70.11914825439453 86.26304626464844 74.87847137451172 83.05400848388672 78.96623992919922 78.96623992919922 C 83.05400848388672 74.87847137451172 86.26304626464844 70.11914825439453 88.50419616699219 64.82048797607422 C 90.82384490966797 59.33622741699219 92 53.50878143310547 92 47.49999618530273 C 92 41.4912109375 90.82384490966797 35.66376495361328 88.50419616699219 30.17950439453125 C 86.26304626464844 24.88084411621094 83.05400848388672 20.12152099609375 78.96623992919922 16.03375244140625 C 74.87847137451172 11.94598388671875 70.11914825439453 8.736953735351562 64.82048797607422 6.495796203613281 C 59.33622741699219 4.1761474609375 53.50878143310547 2.999992370605469 47.49999618530273 2.999992370605469 M 47.49999618530273 -7.62939453125e-06 C 73.7335205078125 -7.62939453125e-06 95 21.26647186279297 95 47.49999618530273 C 95 73.7335205078125 73.7335205078125 95 47.49999618530273 95 C 21.26647186279297 95 -7.62939453125e-06 73.7335205078125 -7.62939453125e-06 47.49999618530273 C -7.62939453125e-06 21.26647186279297 21.26647186279297 -7.62939453125e-06 47.49999618530273 -7.62939453125e-06 Z" stroke="none" fill="#eca675"/>
                            </g>
                          </g>
                        </g>
                      </g>
                    </g>
                  </g>
                </g>
              </g>
            </g>
          </g>
        </g>
      </g>
    </g>
    <g id="scorecard_11726434" transform="translate(1173.195 8665.675)">
      <g id="Grupo_1224548" data-name="Grupo 1224548" transform="translate(9.267 -4.669)">
        <g id="Grupo_1224543" data-name="Grupo 1224543" transform="translate(24.349)">
          <circle id="Elipse_14756" data-name="Elipse 14756" cx="10.477" cy="10.477" r="10.477" transform="translate(0 19.361) rotate(-67.486)" fill="#ffc338"/>
          <path id="Trazado_1180675" data-name="Trazado 1180675" d="M251.237,15.635a10.477,10.477,0,1,1,0,20.953c-.3,0-.6-.014-.9-.039a10.476,10.476,0,0,0,0-20.876c.3-.025.595-.039.9-.039Z" transform="translate(-237.559 -12.418)" fill="#f5b829" fill-rule="evenodd"/>
        </g>
        <g id="Grupo_1224544" data-name="Grupo 1224544" transform="translate(55.102 30.768)">
          <path id="Trazado_1180676" data-name="Trazado 1180676" d="M376.325,191.253a8.942,8.942,0,0,1,2.618,1.085l1.7-.756,2.005,2.005-.755,1.7a8.942,8.942,0,0,1,1.086,2.619l1.736.668v2.836l-1.736.668a8.944,8.944,0,0,1-1.086,2.618l.756,1.7-2.005,2.005-1.7-.755a8.939,8.939,0,0,1-2.619,1.086l-.668,1.736h-2.836l-.668-1.736a8.942,8.942,0,0,1-2.618-1.085l-1.7.756-2.005-2,.755-1.7a8.938,8.938,0,0,1-1.086-2.619l-1.736-.668v-2.836l1.736-.668a8.937,8.937,0,0,1,1.086-2.618l-.756-1.7,2.005-2.005,1.7.756a8.942,8.942,0,0,1,2.618-1.085l.668-1.736h2.836Z" transform="translate(-363.763 -189.517)" fill="#ffe177" fill-rule="evenodd"/>
          <path id="Trazado_1180677" data-name="Trazado 1180677" d="M389.764,207.646l-1.7.756-.262-.262,1.6-.708q.182.112.368.215Zm6.79-16.4a8.943,8.943,0,0,1,2.618,1.085l-.484.215a11.8,11.8,0,0,0-2.986-1.3l-.668-1.736h.852Zm2.619,16.4a8.937,8.937,0,0,1-2.619,1.086l-.668,1.736h-.852l.668-1.736a11.787,11.787,0,0,0,2.987-1.3Zm-11.372-15.8.262-.262,1.7.756q-.186.1-.368.215Zm12.483,0,.59-.262,2.005,2.005-.755,1.7a8.942,8.942,0,0,1,1.086,2.619l1.736.668v2.836l-1.736.668a8.944,8.944,0,0,1-1.086,2.618l.756,1.7-2.005,2.005-.59-.262,1.743-1.743-.756-1.7a8.941,8.941,0,0,0,1.085-2.618l1.736-.668v-2.836l-1.736-.668a8.938,8.938,0,0,0-1.086-2.619l.755-1.7Z" transform="translate(-383.992 -189.514)" fill="#ffd064" fill-rule="evenodd"/>
          <circle id="Elipse_14757" data-name="Elipse 14757" cx="4.753" cy="4.753" r="4.753" transform="matrix(0.987, -0.16, 0.16, 0.987, 5.011, 6.554)" fill="#eceff1"/>
          <path id="Trazado_1180678" data-name="Trazado 1180678" d="M404.635,225.636a4.753,4.753,0,0,0,0,9.507q.191,0,.378-.015a4.754,4.754,0,0,1,0-9.477Q404.826,225.636,404.635,225.636Z" transform="translate(-394.159 -219.913)" fill="#d1d1d6" fill-rule="evenodd"/>
        </g>
        <g id="Grupo_1224545" data-name="Grupo 1224545" transform="translate(0 30.631)">
          <path id="Trazado_1180679" data-name="Trazado 1180679" d="M16.864,269.767H37.02a.862.862,0,0,0,.848-1.038,11.153,11.153,0,0,0-21.852,0A.862.862,0,0,0,16.864,269.767Z" transform="translate(-15.998 -248.54)" fill="#8ac9fe" fill-rule="evenodd"/>
          <path id="Trazado_1180680" data-name="Trazado 1180680" d="M87.942,269.766h1.971a.862.862,0,0,0,.848-1.038,11.155,11.155,0,0,0-10.926-8.913q-.5,0-.985.043a11.158,11.158,0,0,1,9.941,8.87A.862.862,0,0,1,87.942,269.766Z" transform="translate(-68.891 -248.539)" fill="#60b7ff" fill-rule="evenodd"/>
          <circle id="Elipse_14758" data-name="Elipse 14758" cx="5.638" cy="5.638" r="5.638" transform="translate(5.306)" fill="#f6dccd"/>
          <path id="Trazado_1180681" data-name="Trazado 1180681" d="M80.9,188.65a5.638,5.638,0,0,1,0,11.276,5.708,5.708,0,0,1-.785-.055,5.638,5.638,0,0,0,0-11.166A5.708,5.708,0,0,1,80.9,188.65Z" transform="translate(-69.952 -188.65)" fill="#f1cbbc" fill-rule="evenodd"/>
        </g>
        <g id="Grupo_1224546" data-name="Grupo 1224546" transform="translate(27.551 30.768)">
          <circle id="Elipse_14759" data-name="Elipse 14759" cx="10.477" cy="10.477" r="10.477" fill="#8ac9fe"/>
          <path id="Trazado_1180682" data-name="Trazado 1180682" d="M250.028,189.515a10.477,10.477,0,1,1,0,20.953,10.584,10.584,0,0,1-1.124-.06,10.477,10.477,0,0,0,0-20.833A10.584,10.584,0,0,1,250.028,189.515Z" transform="translate(-239.552 -189.515)" fill="#60b7ff" fill-rule="evenodd"/>
        </g>
        <g id="Grupo_1224547" data-name="Grupo 1224547" transform="translate(27.614 61.715)">
          <path id="Trazado_1180683" data-name="Trazado 1180683" d="M297.783,384.834h-3.468a.476.476,0,0,0-.475.475v16.605a.476.476,0,0,0,.475.475h3.468a.476.476,0,0,0,.475-.475V385.309A.476.476,0,0,0,297.783,384.834Z" transform="translate(-277.43 -384.834)" fill="#8ac9fe" fill-rule="evenodd"/>
          <path id="Trazado_1180684" data-name="Trazado 1180684" d="M310.311,384.834h-1.584a.476.476,0,0,1,.475.475v16.605a.476.476,0,0,1-.475.475h1.584a.476.476,0,0,0,.475-.475V385.309A.476.476,0,0,0,310.311,384.834Z" transform="translate(-289.958 -384.834)" fill="#60b7ff" fill-rule="evenodd"/>
          <path id="Trazado_1180685" data-name="Trazado 1180685" d="M246,414.1h-3.468a.476.476,0,0,0-.475.475v11.968a.476.476,0,0,0,.475.475H246a.476.476,0,0,0,.475-.475V414.578A.476.476,0,0,0,246,414.1Z" transform="translate(-233.851 -409.465)" fill="#6cf5c2" fill-rule="evenodd"/>
          <path id="Trazado_1180686" data-name="Trazado 1180686" d="M258.528,414.1h-1.584a.476.476,0,0,1,.475.475v11.968a.476.476,0,0,1-.475.475h1.584a.476.476,0,0,0,.475-.475V414.578A.476.476,0,0,0,258.528,414.1Z" transform="translate(-246.38 -409.465)" fill="#00e499" fill-rule="evenodd"/>
          <path id="Trazado_1180687" data-name="Trazado 1180687" d="M190.749,442.134h3.468a.476.476,0,0,1,.475.475v7.526a.476.476,0,0,1-.475.475h-3.468a.476.476,0,0,1-.475-.475v-7.526A.476.476,0,0,1,190.749,442.134Z" transform="translate(-190.274 -433.055)" fill="#ffe177" fill-rule="evenodd"/>
          <path id="Trazado_1180688" data-name="Trazado 1180688" d="M205.161,442.134h1.584a.476.476,0,0,1,.475.475v7.526a.476.476,0,0,1-.475.475h-1.584a.476.476,0,0,0,.475-.475v-7.526A.476.476,0,0,0,205.161,442.134Z" transform="translate(-202.802 -433.055)" fill="#ffd064" fill-rule="evenodd"/>
        </g>
      </g>
      <path id="Trazado_1180689" data-name="Trazado 1180689" d="M47.4,23.623a2.1,2.1,0,0,1-2.237-1.369,1.268,1.268,0,0,0-2.46.613,4.339,4.339,0,0,0,3.323,3.143v.361a1.268,1.268,0,1,0,2.535,0v-.339a4.617,4.617,0,0,0,2.567-1.4,3.257,3.257,0,0,0,.766-2.592c-.236-1.941-1.711-3.149-4.386-3.587-1.915-.315-1.948-.985-1.96-1.237-.045-.932.931-1.227,1.231-1.3a2.064,2.064,0,0,1,2.43,1.129,1.268,1.268,0,1,0,2.337-.981,4.334,4.334,0,0,0-2.985-2.583v-.373a1.268,1.268,0,1,0-2.535,0V13.5a3.8,3.8,0,0,0-3.01,3.842c.054,1.109.655,3.053,4.082,3.616,2.154.354,2.242,1.081,2.28,1.392a.73.73,0,0,1-.167.629,2.624,2.624,0,0,1-1.81.647Zm30.93,23.671a3.486,3.486,0,1,0-3.486,3.486,3.49,3.49,0,0,0,3.486-3.486Zm2.535,0a6.021,6.021,0,1,1-6.021-6.021,6.027,6.027,0,0,1,6.021,6.021Zm3.187-.547v1.095l-.924.356a1.268,1.268,0,0,0-.778.89,7.663,7.663,0,0,1-.931,2.246,1.267,1.267,0,0,0-.079,1.179l.4.906-.774.773-.906-.4a1.265,1.265,0,0,0-1.179.08,7.7,7.7,0,0,1-2.248.932,1.265,1.265,0,0,0-.889.778l-.355.923H74.3l-.355-.924a1.271,1.271,0,0,0-.89-.778,7.671,7.671,0,0,1-2.247-.932,1.268,1.268,0,0,0-1.179-.078l-.906.4-.774-.773.4-.905a1.268,1.268,0,0,0-.079-1.179,7.664,7.664,0,0,1-.932-2.248,1.268,1.268,0,0,0-.778-.889l-.924-.356V46.746l.924-.356a1.269,1.269,0,0,0,.778-.89,7.672,7.672,0,0,1,.931-2.247,1.266,1.266,0,0,0,.079-1.179l-.4-.905.774-.774.906.4a1.269,1.269,0,0,0,1.179-.079,7.65,7.65,0,0,1,2.247-.932,1.269,1.269,0,0,0,.89-.778l.355-.924h1.1l.356.924a1.268,1.268,0,0,0,.889.778,7.647,7.647,0,0,1,2.247.932,1.268,1.268,0,0,0,1.179.079l.906-.4.774.774-.4.905a1.267,1.267,0,0,0,.079,1.179,7.648,7.648,0,0,1,.932,2.248,1.268,1.268,0,0,0,.778.889ZM72.291,58.322A27.439,27.439,0,0,1,58.976,71.991V67.764A1.269,1.269,0,0,0,57.709,66.5H53.29a1.269,1.269,0,0,0-1.268,1.268V74.2q-.622.106-1.251.186V72.4A1.268,1.268,0,0,0,49.5,71.134H45.085A1.268,1.268,0,0,0,43.818,72.4v1.984A26.923,26.923,0,0,1,38.65,73.2a87.674,87.674,0,0,0,17.611-8.832,1.267,1.267,0,0,0,2.328-.234l.645-2.125a1.169,1.169,0,0,0,.031-.12,1.183,1.183,0,0,0,.019-.119,1.263,1.263,0,0,0-.219-.866l-.019-.026a1.263,1.263,0,0,0-.773-.493h0l-.056-.01h0c-.026,0-.052-.007-.079-.01l-2.217-.212a1.268,1.268,0,0,0-1.066,2.106q-3.028,1.987-6.293,3.725V58.968A11.764,11.764,0,0,0,58.969,48.562H63.1v.15a1.268,1.268,0,0,0,.812,1.183l1.138.438a10.2,10.2,0,0,0,.72,1.736l-.5,1.116a1.268,1.268,0,0,0,.262,1.411l2,2a1.269,1.269,0,0,0,1.411.263l1.116-.5a10.174,10.174,0,0,0,1.736.72l.438,1.139a1.066,1.066,0,0,0,.046.1ZM56.441,84.054V69.031H54.558V84.054Zm-16.41,0V78.11H38.148v5.943Zm3.786-7.11c-.42-.049-.838-.106-1.254-.172,0,.024,0,.048,0,.072v7.21h1.251Zm4.419-3.275H46.353V84.054h1.884Zm2.535,10.384h1.251V76.769c-.415.066-.832.125-1.251.174ZM35.421,71.876A1.263,1.263,0,0,1,36,71.462a89.767,89.767,0,0,0,10.028-4.18V58.968A11.764,11.764,0,0,1,35.62,48.561H26.755a12.227,12.227,0,0,1,5.66,9.073,1.267,1.267,0,0,1-1.26,1.4H22.626a27.525,27.525,0,0,0,12.8,12.839ZM10.781,56.5a9.716,9.716,0,0,1,9.428-7.289h0A9.716,9.716,0,0,1,29.641,56.5ZM20.21,46.68h0a4.3,4.3,0,1,0-4.3-4.3A4.3,4.3,0,0,0,20.213,46.68Zm2.239-10.753A27.451,27.451,0,0,1,35.875,22.473a11.769,11.769,0,0,0,10.153,8.944v4.2A11.764,11.764,0,0,0,35.62,46.026H25.987a6.825,6.825,0,0,0-3.539-10.1ZM38.086,19.743a9.209,9.209,0,1,1,9.209,9.209A9.219,9.219,0,0,1,38.086,19.743ZM56.5,47.294a9.209,9.209,0,1,0-9.209,9.21,9.219,9.219,0,0,0,9.209-9.21Zm2.211-24.821A27.45,27.45,0,0,1,72.291,36.264a1.043,1.043,0,0,0-.046.1L71.807,37.5a10.183,10.183,0,0,0-1.736.72l-1.116-.5a1.269,1.269,0,0,0-1.411.263l-2,2a1.267,1.267,0,0,0-.262,1.411l.5,1.116a10.186,10.186,0,0,0-.72,1.736l-1.138.439a1.267,1.267,0,0,0-.812,1.183v.15H58.969A11.764,11.764,0,0,0,48.562,35.619v-4.2a11.769,11.769,0,0,0,10.153-8.944Zm27.875,23.4v2.836a1.268,1.268,0,0,1-.812,1.183l-1.139.438a10.1,10.1,0,0,1-.72,1.735l.5,1.116a1.269,1.269,0,0,1-.262,1.411l-2.005,2a1.269,1.269,0,0,1-1.411.263l-1.115-.5a10.177,10.177,0,0,1-1.737.72l-.438,1.139a1.266,1.266,0,0,1-1.183.811H74.746a29.983,29.983,0,0,1-15.77,15.736v9.281h.582a1.268,1.268,0,1,1,0,2.536H35.031a1.268,1.268,0,0,1,0-2.536h.582v-7.21a1.268,1.268,0,0,1,1.268-1.268h.842A29.9,29.9,0,0,1,19.845,59.037l-10.577,0a1.269,1.269,0,0,1-1.26-1.4,12.238,12.238,0,0,1,7.712-10.111,6.828,6.828,0,0,1,4.12-11.964A29.983,29.983,0,0,1,35.553,19.841c0-.033,0-.066,0-.1a11.744,11.744,0,0,1,23.488,0c0,.033,0,.066,0,.1A29.986,29.986,0,0,1,74.746,35.55h1.517a1.268,1.268,0,0,1,1.183.812l.438,1.139a10.174,10.174,0,0,1,1.735.72l1.116-.5a1.269,1.269,0,0,1,1.411.263l2.005,2a1.268,1.268,0,0,1,.262,1.411l-.5,1.116a10.163,10.163,0,0,1,.72,1.736l1.139.439a1.266,1.266,0,0,1,.812,1.182Zm-33.431-2.6a1.267,1.267,0,0,0-1.79-.087L45.285,48.71l-2.019-2.02a1.268,1.268,0,1,0-1.793,1.793l2.873,2.873a1.267,1.267,0,0,0,1.748.042l6.978-6.332a1.268,1.268,0,0,0,.087-1.791Z" transform="translate(0 -10.661)" fill-rule="evenodd"/>
    </g>
  </g>
</svg>
