<svg xmlns="http://www.w3.org/2000/svg" xmlns:xlink="http://www.w3.org/1999/xlink" width="108" height="108" viewBox="0 0 108 108">
  <defs>
    <filter id="Trazado_904820" x="0" y="0" width="108" height="108" filterUnits="userSpaceOnUse">
      <feOffset dy="3" input="SourceAlpha"/>
      <feGaussianBlur stdDeviation="3" result="blur"/>
      <feFlood flood-opacity="0.161"/>
      <feComposite operator="in" in2="blur"/>
      <feComposite in="SourceGraphic"/>
    </filter>
  </defs>
  <g id="Grupo_1224079" data-name="Grupo 1224079" transform="translate(9 6)">
    <g id="Grupo_1173585" data-name="Grupo 1173585" transform="translate(0 0)">
      <g id="Grupo_1173428" data-name="Grupo 1173428">
        <g id="Grupo_1171958" data-name="Grupo 1171958">
          <g id="Grupo_1167341" data-name="Grupo 1167341">
            <g id="Grupo_1166792" data-name="Grupo 1166792">
              <g transform="matrix(1, 0, 0, 1, -9, -6)" filter="url(#Trazado_904820)">
                <g id="Trazado_904820-2" data-name="Trazado 904820" transform="translate(9 6)" fill="#e7f2f8">
                  <path d="M 44.99999618530273 88.50010681152344 C 39.12687301635742 88.50010681152344 33.43022155761719 87.35018157958984 28.06829643249512 85.08226776123047 C 22.88852119445801 82.89140319824219 18.23629570007324 79.75467681884766 14.24084663391113 75.75923156738281 C 10.24540901184082 71.76377868652344 7.108683586120605 67.11154174804688 4.917821407318115 61.93176651000977 C 2.649921178817749 56.56982803344727 1.499996185302734 50.87317657470703 1.499996185302734 45.00005340576172 C 1.499996185302734 39.12693023681641 2.649921178817749 33.43026733398438 4.917821407318115 28.06832885742188 C 7.108683586120605 22.88855361938477 10.24540901184082 18.236328125 14.24084663391113 14.24087810516357 C 18.23629570007324 10.24541568756104 22.88852119445801 7.10870361328125 28.06829643249512 4.917840957641602 C 33.43022155761719 2.649928331375122 39.12687301635742 1.500003457069397 44.99999618530273 1.500003457069397 C 50.87311935424805 1.500003457069397 56.56977081298828 2.649928331375122 61.93169784545898 4.917840957641602 C 67.11147308349609 7.10870361328125 71.76369476318359 10.24541568756104 75.75914764404297 14.24087810516357 C 79.75458526611328 18.236328125 82.89131164550781 22.88855361938477 85.08216857910156 28.06832885742188 C 87.35007476806641 33.43026733398438 88.5 39.12693023681641 88.5 45.00005340576172 C 88.5 50.87317657470703 87.35007476806641 56.56982803344727 85.08216857910156 61.93176651000977 C 82.89131164550781 67.11154174804688 79.75458526611328 71.76377868652344 75.75914764404297 75.75923156738281 C 71.76369476318359 79.75467681884766 67.11147308349609 82.89140319824219 61.93169784545898 85.08226776123047 C 56.56977081298828 87.35018157958984 50.87311935424805 88.50010681152344 44.99999618530273 88.50010681152344 Z" stroke="none"/>
                  <path d="M 44.99999618530273 3 C 39.32870864868164 3 33.82865142822266 4.110054016113281 28.65262603759766 6.299339294433594 C 23.65165710449219 8.414566040039062 19.15968322753906 11.44335174560547 15.301513671875 15.30152130126953 C 11.44333648681641 19.15971374511719 8.414566040039062 23.65167999267578 6.299339294433594 28.65265274047852 C 4.110054016113281 33.82869720458984 2.999992370605469 39.32875442504883 2.999992370605469 45.00005340576172 C 2.999992370605469 50.67134094238281 4.110054016113281 56.1713981628418 6.299339294433594 61.34743881225586 C 8.414566040039062 66.34842681884766 11.44333648681641 70.84039306640625 15.301513671875 74.69857025146484 C 19.15968322753906 78.55675506591797 23.65165710449219 81.58552551269531 28.65262603759766 83.70076751708984 C 33.82866668701172 85.89005279541016 39.32870864868164 87.00010681152344 44.99999618530273 87.00010681152344 C 50.67128372192383 87.00010681152344 56.17132568359375 85.89005279541016 61.34736633300781 83.70076751708984 C 66.34834289550781 81.58552551269531 70.84030914306641 78.55675506591797 74.69847869873047 74.69857025146484 C 78.55665588378906 70.84039306640625 81.58542633056641 66.34842681884766 83.70065307617188 61.34743881225586 C 85.88993835449219 56.1713981628418 87 50.67134094238281 87 45.00005340576172 C 87 39.32875442504883 85.88993835449219 33.82869720458984 83.70065307617188 28.65265274047852 C 81.58542633056641 23.65167999267578 78.55665588378906 19.15971374511719 74.69847869873047 15.30152130126953 C 70.84030914306641 11.44335174560547 66.34834289550781 8.414566040039062 61.34736633300781 6.299339294433594 C 56.17134094238281 4.110054016113281 50.67128372192383 3 44.99999618530273 3 M 44.99999618530273 0 C 69.85281372070312 0 90 20.14720916748047 90 45.00005340576172 C 90 69.85288238525391 69.85281372070312 90.00010681152344 44.99999618530273 90.00010681152344 C 20.14717864990234 90.00010681152344 -7.62939453125e-06 69.85288238525391 -7.62939453125e-06 45.00005340576172 C -7.62939453125e-06 20.14720916748047 20.14717864990234 0 44.99999618530273 0 Z" stroke="none" fill="#248abf"/>
                </g>
              </g>
            </g>
          </g>
        </g>
      </g>
    </g>
    <g id="continuous-improvement_9809682" transform="translate(5.398 5.398)">
      <g id="Grupo_1224550" data-name="Grupo 1224550" transform="translate(7.5 7.5)">
        <circle id="Elipse_14760" data-name="Elipse 14760" cx="28.42" cy="28.42" r="28.42" transform="translate(3.682 3.682)" fill="#fff4e5"/>
        <path id="Trazado_1180690" data-name="Trazado 1180690" d="M50.935,66.071A45.392,45.392,0,0,1,60.682,37.9a28.423,28.423,0,0,0,0,56.351A45.392,45.392,0,0,1,50.935,66.071Z" transform="translate(-32.318 -33.969)" fill="#ffe0b7"/>
        <path id="Trazado_1180691" data-name="Trazado 1180691" d="M140.621,273.268h-7.245V262.736a1.187,1.187,0,0,1,1.187-1.187h4.871a1.187,1.187,0,0,1,1.187,1.187Z" transform="translate(-117.115 -228.73)" fill="#358cd9"/>
        <path id="Trazado_1180692" data-name="Trazado 1180692" d="M235.2,229.548h-7.245V212.53a1.187,1.187,0,0,1,1.187-1.187h4.871a1.187,1.187,0,0,1,1.187,1.187Z" transform="translate(-199.478 -185.01)" fill="#29ce69"/>
        <path id="Trazado_1180693" data-name="Trazado 1180693" d="M318.086,144.772l-3.592-6.106a2.209,2.209,0,0,0-3.808,0l-3.592,6.106a1,1,0,0,0,.862,1.507h1.012v19.033h7.245V146.279h1.012A1,1,0,0,0,318.086,144.772Z" transform="translate(-268.27 -120.774)" fill="#ff5f7f"/>
        <rect id="Rectángulo_422089" data-name="Rectángulo 422089" width="7.245" height="46.628" transform="translate(55.876 44.474) rotate(90)" fill="#fdc072"/>
        <path id="Trazado_1180694" data-name="Trazado 1180694" d="M57.093,107.817c-.485-.689-.975-1.378-1.434-2.085a26.017,26.017,0,0,1-35.78-37.444v-8.36a32.1,32.1,0,0,0,39.279,50.786C58.5,109.72,57.762,108.766,57.093,107.817Z" transform="translate(-7.5 -53.156)" fill="#68a2df"/>
        <path id="Trazado_1180695" data-name="Trazado 1180695" d="M144.067,7.5a31.951,31.951,0,0,0-16.6,4.623v7.448a26.018,26.018,0,0,1,33.662,39.678l.075.116c.528.812,1.091,1.6,1.649,2.392.577.818,1.207,1.642,1.782,2.5A32.1,32.1,0,0,0,144.067,7.5Z" transform="translate(-111.965 -7.5)" fill="#93bce8"/>
        <path id="Trazado_1180696" data-name="Trazado 1180696" d="M67.812,35.416,76.3,33.3a2.721,2.721,0,0,0,1.192-4.632l-6.992-6.5a2.721,2.721,0,0,0-4.533,1.528l-1.493,8.618A2.721,2.721,0,0,0,67.812,35.416Z" transform="translate(-57.076 -19.635)" fill="#2a4f95"/>
        <path id="Trazado_1180697" data-name="Trazado 1180697" d="M352.68,386.116l-2.12,8.486a2.721,2.721,0,0,1-4.632,1.192l-6.5-6.992a2.721,2.721,0,0,1,1.528-4.533l8.618-1.493A2.721,2.721,0,0,1,352.68,386.116Z" transform="translate(-295.914 -334.26)" fill="#00388b"/>
      </g>
      <g id="Grupo_1224552" data-name="Grupo 1224552" transform="translate(7.5 7.5)">
        <path id="Trazado_1180698" data-name="Trazado 1180698" d="M133.38,273.2V262.737a1.186,1.186,0,0,1,1.187-1.187h4.87a1.186,1.186,0,0,1,1.187,1.187V273.2" transform="translate(-117.118 -228.731)" fill="none" stroke="#000" stroke-linecap="round" stroke-linejoin="round" stroke-miterlimit="10" stroke-width="1.5"/>
        <path id="Trazado_1180699" data-name="Trazado 1180699" d="M227.96,229.481V212.527a1.187,1.187,0,0,1,1.187-1.187h4.87a1.187,1.187,0,0,1,1.187,1.187v16.954" transform="translate(-199.48 -185.007)" fill="none" stroke="#000" stroke-linecap="round" stroke-linejoin="round" stroke-miterlimit="10" stroke-width="1.5"/>
        <path id="Trazado_1180700" data-name="Trazado 1180700" d="M112.809,359.016H84.852a26.185,26.185,0,0,1-5.762-7.166v-.08h45.75" transform="translate(-69.842 -307.296)" fill="none" stroke="#000" stroke-linecap="round" stroke-linejoin="round" stroke-miterlimit="10" stroke-width="1.5"/>
        <path id="Trazado_1180701" data-name="Trazado 1180701" d="M95.846,446.013a32.111,32.111,0,0,0,36.966,3.126" transform="translate(-84.433 -389.365)" fill="none" stroke="#000" stroke-linecap="round" stroke-linejoin="round" stroke-miterlimit="10" stroke-width="1.5"/>
        <path id="Trazado_1180702" data-name="Trazado 1180702" d="M15.13,95.19a32.1,32.1,0,0,0,.543,42.173" transform="translate(-7.5 -83.862)" fill="none" stroke="#000" stroke-linecap="round" stroke-linejoin="round" stroke-miterlimit="10" stroke-width="1.5"/>
        <path id="Trazado_1180703" data-name="Trazado 1180703" d="M60.552,126.98A25.983,25.983,0,0,0,57.677,156.1a26.185,26.185,0,0,0,5.762,7.166,25.987,25.987,0,0,0,29.108,3.469" transform="translate(-48.428 -111.545)" fill="none" stroke="#000" stroke-linecap="round" stroke-linejoin="round" stroke-miterlimit="10" stroke-width="1.5"/>
        <path id="Trazado_1180704" data-name="Trazado 1180704" d="M163.894,13.8A32.119,32.119,0,0,0,128.3,12.059" transform="translate(-112.695 -7.5)" fill="none" stroke="#000" stroke-linecap="round" stroke-linejoin="round" stroke-miterlimit="10" stroke-width="1.5"/>
        <path id="Trazado_1180705" data-name="Trazado 1180705" d="M432.273,122.747h0A32.1,32.1,0,0,0,430.424,79" transform="translate(-375.789 -69.766)" fill="none" stroke="#000" stroke-linecap="round" stroke-linejoin="round" stroke-miterlimit="10" stroke-width="1.5"/>
        <path id="Trazado_1180706" data-name="Trazado 1180706" d="M164.54,57.339a26.017,26.017,0,0,1,31.775,39.881" transform="translate(-144.253 -48.428)" fill="none" stroke="#000" stroke-linecap="round" stroke-linejoin="round" stroke-miterlimit="10" stroke-width="1.5"/>
        <g id="Grupo_1224551" data-name="Grupo 1224551" transform="translate(7.355 1.8)">
          <path id="Trazado_1180707" data-name="Trazado 1180707" d="M76.3,33.3l-7.1,1.774-1.387.346a2.683,2.683,0,0,1-1.788-.163,2.718,2.718,0,0,1-1.553-2.941l.234-1.349,1.26-7.269A2.721,2.721,0,0,1,70.5,22.167L72.682,24.2l4.682,4.352.127.118A2.721,2.721,0,0,1,76.3,33.3Z" transform="translate(-64.432 -21.437)" fill="none" stroke="#000" stroke-linecap="round" stroke-linejoin="round" stroke-miterlimit="10" stroke-width="1.5"/>
          <path id="Trazado_1180708" data-name="Trazado 1180708" d="M352.68,386.116l-2.12,8.486a2.721,2.721,0,0,1-4.632,1.192l-6.5-6.992a2.721,2.721,0,0,1,1.528-4.533l8.618-1.493A2.721,2.721,0,0,1,352.68,386.116Z" transform="translate(-303.269 -336.06)" fill="none" stroke="#000" stroke-linecap="round" stroke-linejoin="round" stroke-miterlimit="10" stroke-width="1.5"/>
        </g>
        <path id="Trazado_1180709" data-name="Trazado 1180709" d="M316.211,165.25V146.282h1.013a1,1,0,0,0,.862-1.508l-3.593-6.105a2.209,2.209,0,0,0-3.808,0l-3.593,6.105a1,1,0,0,0,.863,1.508h1.012V165.25" transform="translate(-268.268 -120.776)" fill="none" stroke="#000" stroke-linecap="round" stroke-linejoin="round" stroke-miterlimit="10" stroke-width="1.5"/>
      </g>
    </g>
  </g>
</svg>
