<svg xmlns="http://www.w3.org/2000/svg" xmlns:xlink="http://www.w3.org/1999/xlink" width="113" height="113" viewBox="0 0 113 113">
  <defs>
    <filter id="Trazado_982547" x="0" y="0" width="113" height="113" filterUnits="userSpaceOnUse">
      <feOffset dy="3" input="SourceAlpha"/>
      <feGaussianBlur stdDeviation="3" result="blur"/>
      <feFlood flood-opacity="0.161"/>
      <feComposite operator="in" in2="blur"/>
      <feComposite in="SourceGraphic"/>
    </filter>
  </defs>
  <g id="Grupo_1224209" data-name="Grupo 1224209" transform="translate(9 6)">
    <g id="Grupo_1224085" data-name="Grupo 1224085" transform="translate(0 0)">
      <g id="Grupo_1223184" data-name="Grupo 1223184" transform="translate(0)">
        <g id="Grupo_1211216" data-name="Grupo 1211216">
          <g id="Grupo_1210737" data-name="Grupo 1210737">
            <g id="Grupo_1210537" data-name="Grupo 1210537">
              <g id="Grupo_1164202" data-name="Grupo 1164202">
                <g id="Grupo_1158168" data-name="Grupo 1158168">
                  <g id="Grupo_1152576" data-name="Grupo 1152576">
                    <g id="Grupo_1148633" data-name="Grupo 1148633">
                      <g id="Grupo_1148525" data-name="Grupo 1148525">
                        <g transform="matrix(1, 0, 0, 1, -9, -6)" filter="url(#Trazado_982547)">
                          <g id="Trazado_982547-2" data-name="Trazado 982547" transform="translate(9 6)" fill="#fcf5f0">
                            <path d="M 47.49999618530273 93.5 C 41.28936767578125 93.5 35.26533126831055 92.28396606445312 29.59518241882324 89.88570404052734 C 24.11771583557129 87.56893157958984 19.19812965393066 84.251953125 14.97308921813965 80.02690124511719 C 10.74803638458252 75.80186462402344 7.431062698364258 70.88227844238281 5.114289283752441 65.40480804443359 C 2.716022968292236 59.73466110229492 1.499996185302734 53.71062469482422 1.499996185302734 47.49999618530273 C 1.499996185302734 41.28936767578125 2.716022968292236 35.26533126831055 5.114289283752441 29.59518241882324 C 7.431062698364258 24.11771583557129 10.74803638458252 19.19812965393066 14.97308921813965 14.97308921813965 C 19.19812965393066 10.74803638458252 24.11771583557129 7.431062698364258 29.59518241882324 5.114289283752441 C 35.26533126831055 2.716022968292236 41.28936767578125 1.499996185302734 47.49999618530273 1.499996185302734 C 53.71062469482422 1.499996185302734 59.73466110229492 2.716022968292236 65.40480804443359 5.114289283752441 C 70.88227844238281 7.431062698364258 75.80186462402344 10.74803638458252 80.02690124511719 14.97308921813965 C 84.251953125 19.19812965393066 87.56893157958984 24.11771583557129 89.88570404052734 29.59518241882324 C 92.28396606445312 35.26533126831055 93.5 41.28936767578125 93.5 47.49999618530273 C 93.5 53.71062469482422 92.28396606445312 59.73466110229492 89.88570404052734 65.40480804443359 C 87.56893157958984 70.88227844238281 84.251953125 75.80186462402344 80.02690124511719 80.02690124511719 C 75.80186462402344 84.251953125 70.88227844238281 87.56893157958984 65.40480804443359 89.88570404052734 C 59.73466110229492 92.28396606445312 53.71062469482422 93.5 47.49999618530273 93.5 Z" stroke="none"/>
                            <path d="M 47.49999618530273 2.999992370605469 C 41.4912109375 2.999992370605469 35.66376495361328 4.1761474609375 30.17950439453125 6.495796203613281 C 24.88084411621094 8.736953735351562 20.12152099609375 11.94598388671875 16.03375244140625 16.03375244140625 C 11.94598388671875 20.12152099609375 8.736953735351562 24.88084411621094 6.495796203613281 30.17950439453125 C 4.1761474609375 35.66376495361328 2.999992370605469 41.4912109375 2.999992370605469 47.49999618530273 C 2.999992370605469 53.50878143310547 4.1761474609375 59.33622741699219 6.495796203613281 64.82048797607422 C 8.736953735351562 70.11914825439453 11.94598388671875 74.87847137451172 16.03375244140625 78.96623992919922 C 20.12152099609375 83.05400848388672 24.88084411621094 86.26304626464844 30.17950439453125 88.50419616699219 C 35.66376495361328 90.82384490966797 41.4912109375 92 47.49999618530273 92 C 53.50878143310547 92 59.33622741699219 90.82384490966797 64.82048797607422 88.50419616699219 C 70.11914825439453 86.26304626464844 74.87847137451172 83.05400848388672 78.96623992919922 78.96623992919922 C 83.05400848388672 74.87847137451172 86.26304626464844 70.11914825439453 88.50419616699219 64.82048797607422 C 90.82384490966797 59.33622741699219 92 53.50878143310547 92 47.49999618530273 C 92 41.4912109375 90.82384490966797 35.66376495361328 88.50419616699219 30.17950439453125 C 86.26304626464844 24.88084411621094 83.05400848388672 20.12152099609375 78.96623992919922 16.03375244140625 C 74.87847137451172 11.94598388671875 70.11914825439453 8.736953735351562 64.82048797607422 6.495796203613281 C 59.33622741699219 4.1761474609375 53.50878143310547 2.999992370605469 47.49999618530273 2.999992370605469 M 47.49999618530273 -7.62939453125e-06 C 73.7335205078125 -7.62939453125e-06 95 21.26647186279297 95 47.49999618530273 C 95 73.7335205078125 73.7335205078125 95 47.49999618530273 95 C 21.26647186279297 95 -7.62939453125e-06 73.7335205078125 -7.62939453125e-06 47.49999618530273 C -7.62939453125e-06 21.26647186279297 21.26647186279297 -7.62939453125e-06 47.49999618530273 -7.62939453125e-06 Z" stroke="none" fill="#eca675"/>
                          </g>
                        </g>
                      </g>
                    </g>
                  </g>
                </g>
              </g>
            </g>
          </g>
        </g>
      </g>
    </g>
    <g id="law_18091998_1_" data-name="law_18091998 (1)" transform="translate(-9.533 -18.272)">
      <g id="Grupo_1224171" data-name="Grupo 1224171" transform="translate(26.918 33.598)">
        <path id="Trazado_1180096" data-name="Trazado 1180096" d="M122.31,39.63H92.988L80.66,53.13v38.8a3.673,3.673,0,0,0,3.485,3.818H122.31a3.673,3.673,0,0,0,3.485-3.818V43.444a3.672,3.672,0,0,0-3.485-3.814Z" transform="translate(-74.062 -39.63)" fill="#5ac0ee" fill-rule="evenodd"/>
        <path id="Trazado_1180097" data-name="Trazado 1180097" d="M112.62,39.63H92.988L80.66,53.13V74.219a24.035,24.035,0,0,0,10.948,2.622A24.729,24.729,0,0,0,112.62,39.63Z" transform="translate(-74.062 -39.63)" fill="#b5e4fa" fill-rule="evenodd"/>
        <path id="Trazado_1180098" data-name="Trazado 1180098" d="M80.66,53.131H89.5a3.673,3.673,0,0,0,3.485-3.818V39.63Z" transform="translate(-74.062 -39.63)" fill="#2387c9" fill-rule="evenodd"/>
        <path id="Trazado_1180099" data-name="Trazado 1180099" d="M324.249,193.58l12.743,10.267a2.367,2.367,0,0,1-2.972,3.685L321.28,197.265Z" transform="translate(-281.407 -172.29)" fill="#4d4d4e" fill-rule="evenodd"/>
        <path id="Trazado_1180100" data-name="Trazado 1180100" d="M249.163,119.94l8.393,6.761-8.487,10.529-8.389-6.758Z" transform="translate(-211.953 -108.834)" fill="#666766" fill-rule="evenodd"/>
        <path id="Trazado_1180101" data-name="Trazado 1180101" d="M279.493,144.4l4.2,3.378L275.2,158.308l-4.194-3.378Z" transform="translate(-238.089 -129.911)" fill="gray" fill-rule="evenodd"/>
        <path id="Trazado_1180102" data-name="Trazado 1180102" d="M301.13,85.21,309.557,92a2.548,2.548,0,1,1-3.194,3.972l-8.431-6.793a2.55,2.55,0,0,1,3.2-3.972Z" transform="translate(-260.471 -78.424)" fill="#4d4d4e" fill-rule="evenodd"/>
        <path id="Trazado_1180103" data-name="Trazado 1180103" d="M311.09,85.212,319.517,92a2.548,2.548,0,0,1,.917,2.376,2.542,2.542,0,0,1-2.513-.391L309.49,87.2a2.541,2.541,0,0,1-.917-2.372A2.549,2.549,0,0,1,311.09,85.212Z" transform="translate(-270.432 -78.426)" fill="#6f6f70" fill-rule="evenodd"/>
        <path id="Trazado_1180104" data-name="Trazado 1180104" d="M214.71,192.47l8.431,6.8a2.548,2.548,0,0,1-3.2,3.968l-8.431-6.793a2.55,2.55,0,0,1,3.2-3.972Z" transform="translate(-186.002 -170.851)" fill="#4d4d4e" fill-rule="evenodd"/>
        <path id="Trazado_1180105" data-name="Trazado 1180105" d="M224.672,192.481l8.431,6.8a1.469,1.469,0,1,1-1.6,1.983l-8.431-6.793a2.558,2.558,0,0,1-.917-2.376A2.563,2.563,0,0,1,224.672,192.481Z" transform="translate(-195.964 -170.863)" fill="#6f6f70" fill-rule="evenodd"/>
        <path id="Trazado_1180106" data-name="Trazado 1180106" d="M350.912,218.607l3.183-3.947a2.051,2.051,0,0,1,2.881-.31l11.047,8.9a2.057,2.057,0,0,1,.31,2.885l-3.179,3.944a2.061,2.061,0,0,1-2.885.314l-11.047-8.9A2.059,2.059,0,0,1,350.912,218.607Z" transform="translate(-306.553 -189.799)" fill="#666766" fill-rule="evenodd"/>
        <path id="Trazado_1180107" data-name="Trazado 1180107" d="M365.23,216.623l1.592-1.972a2.051,2.051,0,0,1,2.881-.31l11.047,8.9a2.057,2.057,0,0,1,.31,2.885l-1.588,1.972Z" transform="translate(-319.279 -189.79)" fill="#8f8f8f" fill-rule="evenodd"/>
        <path id="Trazado_1180108" data-name="Trazado 1180108" d="M162.58,295.29h22.477v3.771H162.58Z" transform="translate(-144.654 -259.935)" fill="#748994" fill-rule="evenodd"/>
        <path id="Trazado_1180109" data-name="Trazado 1180109" d="M189.57,295.29h18.745v3.771h-16.82A12.06,12.06,0,0,1,189.57,295.29Z" transform="translate(-167.911 -259.935)" fill="#9daeb7" fill-rule="evenodd"/>
        <path id="Trazado_1180110" data-name="Trazado 1180110" d="M151.328,330.9c5.32-2.846,10.11-4.449,14.845-3.583V322.55H136.48v4.771C141.215,326.455,146.009,328.058,151.328,330.9Z" transform="translate(-122.163 -283.425)" fill="#556f78" fill-rule="evenodd"/>
        <path id="Trazado_1180111" data-name="Trazado 1180111" d="M212.505,329.222c3.987-1.752,7.715-2.579,11.412-1.9V322.55H203.49A20.8,20.8,0,0,0,212.505,329.222Z" transform="translate(-179.906 -283.425)" fill="#82969d" fill-rule="evenodd"/>
        <path id="Trazado_1180112" data-name="Trazado 1180112" d="M32.95,420.41H91.276v4.532H65.816v1.25A1.907,1.907,0,0,1,63.91,428.1H60.319a1.91,1.91,0,0,1-1.908-1.906v-1.25H32.95Z" transform="translate(-32.95 -367.752)" fill="#fcc02d" fill-rule="evenodd"/>
        <path id="Trazado_1180113" data-name="Trazado 1180113" d="M67.08,356.12c8.145-.572,17.593-5.284,24.445,1.96v5.179H67.08Z" transform="translate(-62.36 -310.601)" fill="#feea3a" fill-rule="evenodd"/>
        <path id="Trazado_1180114" data-name="Trazado 1180114" d="M67.08,356.123c5.617-.4,11.854-2.756,17.433-1.812v.035c0,3.6-5.491,6.523-12.266,6.523a21.619,21.619,0,0,1-5.166-.6Z" transform="translate(-62.36 -310.604)" fill="#faf391" fill-rule="evenodd"/>
        <path id="Trazado_1180115" data-name="Trazado 1180115" d="M268.3,356.12c-8.149-.572-17.593-5.284-24.445,1.96v5.179H268.3Z" transform="translate(-214.685 -310.601)" fill="#feea3a" fill-rule="evenodd"/>
        <path id="Trazado_1180116" data-name="Trazado 1180116" d="M311.975,356.123c-5.621-.4-11.858-2.756-17.435-1.812v.035c0,3.6,5.491,6.523,12.266,6.523a21.68,21.68,0,0,0,5.171-.6v-4.142Z" transform="translate(-258.365 -310.604)" fill="#faf391" fill-rule="evenodd"/>
      </g>
      <path id="Trazado_1180117" data-name="Trazado 1180117" d="M37.413,66.487a.968.968,0,1,1,0-1.936H51.455a.968.968,0,0,1,0,1.936ZM45.158,59.4a.968.968,0,0,1,0-1.936h3.923a.968.968,0,1,1,0,1.936Zm-7.746,0a.968.968,0,0,1,0-1.936H42.43a.968.968,0,0,1,0,1.936Zm10.412-7.089a.968.968,0,0,1,0-1.936h5.97a.968.968,0,0,1,0,1.936Zm-10.412,0a.968.968,0,1,1,0-1.936h7.26a.968.968,0,0,1,0,1.936ZM79.56,85.288v-5.28c-1.882-.2-3.7-.549-5.594-.91-6.017-1.152-12.2-2.333-16.914,2.368v3.822Zm-24.445,0V81.465c-4.72-4.7-10.9-3.521-16.914-2.367-1.889.361-3.716.714-5.594.91v5.28Zm.968-5.563c4.132-3.853,8.965-3.987,13.877-3.289V73.692H42.2v2.744C47.118,75.737,51.948,75.872,56.083,79.724ZM71.9,76.746c1.917.337,3.88.756,5.786,1.058V71.438l-6.7-5.4a3.024,3.024,0,0,1-.874-3.551l-3.171-2.556-1.626,2.019a3.513,3.513,0,0,1-5.056,4.783q-4.227-3.381-8.431-6.793a3.513,3.513,0,0,1,3.594-5.962l7.7-9.561a3.513,3.513,0,0,1,5.06-4.782l8.431,6.793a3.514,3.514,0,0,1,1.07,1.462V37.412a2.712,2.712,0,0,0-2.517-2.846H46.812v8.718a4.642,4.642,0,0,1-4.453,4.782H34.484V77.8c1.9-.3,3.865-.722,5.782-1.058V72.724a.967.967,0,0,1,.968-.964h2.643V68.953a.966.966,0,0,1,.968-.968H67.322a.967.967,0,0,1,.968.968V71.76h2.639a.965.965,0,0,1,.968.964Zm7.722,1.321c.31.036.62.062.925.086a.97.97,0,0,1,.953.968v6.166h3.748a.97.97,0,0,1,.968.968v4.532a.968.968,0,0,1-.968.968H60.752v.282a2.882,2.882,0,0,1-2.874,2.878H54.287a2.885,2.885,0,0,1-2.878-2.878v-.282H26.918a.967.967,0,0,1-.968-.968V86.254a.971.971,0,0,1,.968-.968H30.67V79.12a.967.967,0,0,1,.953-.968c.306-.024.615-.051.925-.086V47.1a.953.953,0,0,1,.295-.694l12.25-13.418a.971.971,0,0,1,.752-.357H75.166a4.646,4.646,0,0,1,4.453,4.782V58.74l9.373,7.553a3.023,3.023,0,0,1,.459,4.241l-3.179,3.947a3.023,3.023,0,0,1-4.241.459L79.62,73v5.07Zm4.658,9.157H27.887v2.6H52.38a.968.968,0,0,1,.968.968v1.25a.943.943,0,0,0,.94.94H57.88a.942.942,0,0,0,.936-.94v-1.25a.97.97,0,0,1,.968-.968H84.276ZM45.812,71.759H66.354V69.921H45.812ZM71.238,60.917l1.756-2.179-3.085-2.489-1.76,2.179ZM74.292,57.3a3.029,3.029,0,0,1,3.391-.094V50.437a3.527,3.527,0,0,1-4.669,1.953l-1.893,2.352Zm.878,1.82-3.141,3.893a1.093,1.093,0,0,0,.165,1.525l11.047,8.9a1.093,1.093,0,0,0,1.525-.165l3.179-3.944a1.1,1.1,0,0,0-.16-1.529L76.7,58.872a1.1,1.1,0,0,0-1.455.156c-.024.03-.047.058-.075.09ZM57,55.091l6.888,5.547,7.542-9.357q-3.452-2.769-6.888-5.551Zm6.448,7.676-8.431-6.793a1.582,1.582,0,1,0-1.933,2.5l8.326,6.707a1.555,1.555,0,0,0,1.216.38,1.581,1.581,0,0,0,.823-2.8ZM75.4,47.933,66.969,41.14a1.582,1.582,0,1,0-1.933,2.5l8.326,6.707a1.555,1.555,0,0,0,1.216.38A1.581,1.581,0,0,0,75.4,47.933Zm-39.693-1.8h6.652a2.709,2.709,0,0,0,2.517-2.846V36.091Z" transform="translate(0 0)"/>
    </g>
  </g>
</svg>
