<svg xmlns="http://www.w3.org/2000/svg" xmlns:xlink="http://www.w3.org/1999/xlink" width="113" height="113" viewBox="0 0 113 113">
  <defs>
    <filter id="Trazado_982547" x="0" y="0" width="113" height="113" filterUnits="userSpaceOnUse">
      <feOffset dy="3" input="SourceAlpha"/>
      <feGaussianBlur stdDeviation="3" result="blur"/>
      <feFlood flood-opacity="0.161"/>
      <feComposite operator="in" in2="blur"/>
      <feComposite in="SourceGraphic"/>
    </filter>
  </defs>
  <g id="Grupo_1224462" data-name="Grupo 1224462" transform="translate(-793.98 -2654.751)">
    <g id="Grupo_1224205" data-name="Grupo 1224205" transform="translate(802.98 2660.751)">
      <g id="Grupo_1224084" data-name="Grupo 1224084" transform="translate(0 0)">
        <g id="Grupo_1223183" data-name="Grupo 1223183">
          <g id="Grupo_1211217" data-name="Grupo 1211217">
            <g id="Grupo_1210736" data-name="Grupo 1210736">
              <g id="Grupo_1210537" data-name="Grupo 1210537">
                <g id="Grupo_1164202" data-name="Grupo 1164202">
                  <g id="Grupo_1158168" data-name="Grupo 1158168">
                    <g id="Grupo_1152576" data-name="Grupo 1152576">
                      <g id="Grupo_1148633" data-name="Grupo 1148633">
                        <g id="Grupo_1148525" data-name="Grupo 1148525">
                          <g transform="matrix(1, 0, 0, 1, -9, -6)" filter="url(#Trazado_982547)">
                            <g id="Trazado_982547-2" data-name="Trazado 982547" transform="translate(9 6)" fill="#fcf5f0">
                              <path d="M 47.49999618530273 93.5 C 41.28936767578125 93.5 35.26533126831055 92.28396606445312 29.59518241882324 89.88570404052734 C 24.11771583557129 87.56893157958984 19.19812965393066 84.251953125 14.97308921813965 80.02690124511719 C 10.74803638458252 75.80186462402344 7.431062698364258 70.88227844238281 5.114289283752441 65.40480804443359 C 2.716022968292236 59.73466110229492 1.499996185302734 53.71062469482422 1.499996185302734 47.49999618530273 C 1.499996185302734 41.28936767578125 2.716022968292236 35.26533126831055 5.114289283752441 29.59518241882324 C 7.431062698364258 24.11771583557129 10.74803638458252 19.19812965393066 14.97308921813965 14.97308921813965 C 19.19812965393066 10.74803638458252 24.11771583557129 7.431062698364258 29.59518241882324 5.114289283752441 C 35.26533126831055 2.716022968292236 41.28936767578125 1.499996185302734 47.49999618530273 1.499996185302734 C 53.71062469482422 1.499996185302734 59.73466110229492 2.716022968292236 65.40480804443359 5.114289283752441 C 70.88227844238281 7.431062698364258 75.80186462402344 10.74803638458252 80.02690124511719 14.97308921813965 C 84.251953125 19.19812965393066 87.56893157958984 24.11771583557129 89.88570404052734 29.59518241882324 C 92.28396606445312 35.26533126831055 93.5 41.28936767578125 93.5 47.49999618530273 C 93.5 53.71062469482422 92.28396606445312 59.73466110229492 89.88570404052734 65.40480804443359 C 87.56893157958984 70.88227844238281 84.251953125 75.80186462402344 80.02690124511719 80.02690124511719 C 75.80186462402344 84.251953125 70.88227844238281 87.56893157958984 65.40480804443359 89.88570404052734 C 59.73466110229492 92.28396606445312 53.71062469482422 93.5 47.49999618530273 93.5 Z" stroke="none"/>
                              <path d="M 47.49999618530273 2.999992370605469 C 41.4912109375 2.999992370605469 35.66376495361328 4.1761474609375 30.17950439453125 6.495796203613281 C 24.88084411621094 8.736953735351562 20.12152099609375 11.94598388671875 16.03375244140625 16.03375244140625 C 11.94598388671875 20.12152099609375 8.736953735351562 24.88084411621094 6.495796203613281 30.17950439453125 C 4.1761474609375 35.66376495361328 2.999992370605469 41.4912109375 2.999992370605469 47.49999618530273 C 2.999992370605469 53.50878143310547 4.1761474609375 59.33622741699219 6.495796203613281 64.82048797607422 C 8.736953735351562 70.11914825439453 11.94598388671875 74.87847137451172 16.03375244140625 78.96623992919922 C 20.12152099609375 83.05400848388672 24.88084411621094 86.26304626464844 30.17950439453125 88.50419616699219 C 35.66376495361328 90.82384490966797 41.4912109375 92 47.49999618530273 92 C 53.50878143310547 92 59.33622741699219 90.82384490966797 64.82048797607422 88.50419616699219 C 70.11914825439453 86.26304626464844 74.87847137451172 83.05400848388672 78.96623992919922 78.96623992919922 C 83.05400848388672 74.87847137451172 86.26304626464844 70.11914825439453 88.50419616699219 64.82048797607422 C 90.82384490966797 59.33622741699219 92 53.50878143310547 92 47.49999618530273 C 92 41.4912109375 90.82384490966797 35.66376495361328 88.50419616699219 30.17950439453125 C 86.26304626464844 24.88084411621094 83.05400848388672 20.12152099609375 78.96623992919922 16.03375244140625 C 74.87847137451172 11.94598388671875 70.11914825439453 8.736953735351562 64.82048797607422 6.495796203613281 C 59.33622741699219 4.1761474609375 53.50878143310547 2.999992370605469 47.49999618530273 2.999992370605469 M 47.49999618530273 -7.62939453125e-06 C 73.7335205078125 -7.62939453125e-06 95 21.26647186279297 95 47.49999618530273 C 95 73.7335205078125 73.7335205078125 95 47.49999618530273 95 C 21.26647186279297 95 -7.62939453125e-06 73.7335205078125 -7.62939453125e-06 47.49999618530273 C -7.62939453125e-06 21.26647186279297 21.26647186279297 -7.62939453125e-06 47.49999618530273 -7.62939453125e-06 Z" stroke="none" fill="#eca675"/>
                            </g>
                          </g>
                        </g>
                      </g>
                    </g>
                  </g>
                </g>
              </g>
            </g>
          </g>
        </g>
      </g>
    </g>
    <g id="peace_15418881" transform="translate(814.771 2670.906)">
      <path id="Trazado_1180431" data-name="Trazado 1180431" d="M35.112,28.945,24,35l.322,10,1.9,20H21.778L18.445,47.223,14,65H9.556l3.333-20L14,35,7.333,46.112,4,45l6.545-11.989a4.467,4.467,0,0,1,3.978-2.456H22.89L35.112,25Z" transform="translate(0.111 2.557)" fill="#83abe6"/>
      <circle id="Elipse_14742" data-name="Elipse 14742" cx="3.889" cy="3.889" r="3.889" transform="translate(14.667 24.223)" fill="#f8d6a9"/>
      <path id="Trazado_1180432" data-name="Trazado 1180432" d="M43.223,35,31,28.333,32.111,25l12.223,5.556H52.7a4.445,4.445,0,0,1,3.976,2.457L63.224,45,59.89,46.112,53.223,35l1.111,10,3.333,20H53.223L48.778,47.223,45.445,65H41l1.9-20Z" transform="translate(3.112 2.557)" fill="#83abe6"/>
      <circle id="Elipse_14743" data-name="Elipse 14743" cx="3.889" cy="3.889" r="3.889" transform="translate(48.002 24.223)" fill="#f8d6a9"/>
      <path id="Trazado_1180433" data-name="Trazado 1180433" d="M40.778,18.556H36.334L33,23l-3.333-4.445H25.222A2.222,2.222,0,0,1,23,16.334V5.222A2.222,2.222,0,0,1,25.222,3H40.778A2.222,2.222,0,0,1,43,5.222V16.334A2.222,2.222,0,0,1,40.778,18.556Z" transform="translate(2.223 0.111)" fill="#51cc98"/>
      <path id="Trazado_1180434" data-name="Trazado 1180434" d="M40.478,42.82a7.022,7.022,0,0,0,0-2.085l-1.093-.563a6.727,6.727,0,0,0-.8-1.929l.374-1.172A7.864,7.864,0,0,0,37.485,35.6l-1.172.374a6.727,6.727,0,0,0-1.929-.8l-.563-1.093a7.023,7.023,0,0,0-2.085,0l-.563,1.093a6.727,6.727,0,0,0-1.929.8L28.071,35.6A7.863,7.863,0,0,0,26.6,37.071l.374,1.172a6.727,6.727,0,0,0-.8,1.929l-1.093.563a7.023,7.023,0,0,0,0,2.085l1.093.563a6.727,6.727,0,0,0,.8,1.929L26.6,46.485a7.864,7.864,0,0,0,1.476,1.476l1.172-.374a6.727,6.727,0,0,0,1.929.8l.563,1.093a7.023,7.023,0,0,0,2.085,0l.563-1.093a6.727,6.727,0,0,0,1.929-.8l1.172.374a7.864,7.864,0,0,0,1.476-1.476l-.374-1.172a6.727,6.727,0,0,0,.8-1.929Z" transform="translate(2.445 3.557)" fill="#84ade8"/>
      <circle id="Elipse_14744" data-name="Elipse 14744" cx="3.457" cy="3.457" r="3.457" transform="translate(31.767 41.878)" fill="#fff"/>
      <path id="Trazado_1180435" data-name="Trazado 1180435" d="M32.523,16.059a.952.952,0,0,0,.126-.008,1.111,1.111,0,0,0,.817-.514l5.556-8.889L37.132,5.47l-4.811,7.7L28.864,9.718l-1.571,1.571,4.445,4.445A1.111,1.111,0,0,0,32.523,16.059Z" transform="translate(2.7 0.386)"/>
      <path id="Trazado_1180436" data-name="Trazado 1180436" d="M9.68,32.926,3.136,44.916A1.111,1.111,0,0,0,3.76,46.5l3.333,1.111a1.111,1.111,0,0,0,1.3-.481l4.048-6.749L11.9,45.266l-3.333,20a1.111,1.111,0,0,0,1.1,1.293h4.445a1.111,1.111,0,0,0,1.078-.842L18.4,52.873l2.4,12.778a1.111,1.111,0,0,0,1.092.909h4.445a1.111,1.111,0,0,0,1.111-1.217l-1.9-19.931-.3-9.317,9.978-5.44L45.2,36.1l-.3,9.247-1.9,20a1.111,1.111,0,0,0,1.111,1.217h4.445a1.111,1.111,0,0,0,1.092-.906l2.4-12.778,3.211,12.845a1.111,1.111,0,0,0,1.078.839H60.78a1.111,1.111,0,0,0,1.1-1.293L58.551,45.326,58,40.385l4.048,6.747a1.111,1.111,0,0,0,1.3.481L66.687,46.5a1.111,1.111,0,0,0,.623-1.586L60.78,32.964a5.526,5.526,0,0,0-4.969-3.071H55a5,5,0,1,0-6.209,0h-1.1l-12-5.456a1.111,1.111,0,0,0-.9-.008l-.014.01h0L22.76,29.892h-1.1a5,5,0,1,0-6.209,0h-.818A5.6,5.6,0,0,0,9.68,32.926Zm42.211-9.7A2.778,2.778,0,1,1,49.113,26a2.778,2.778,0,0,1,2.778-2.778Zm-33.335,0A2.778,2.778,0,1,1,15.778,26,2.778,2.778,0,0,1,18.556,23.225ZM35.89,26.97l11.1,5.045a1.1,1.1,0,0,0,.458.1h8.365a3.333,3.333,0,0,1,3,1.878l5.912,10.823-1.222.409L57.292,34.876a1.111,1.111,0,0,0-2.057.694l1.12,10.06,3.112,18.707H57.2L52.969,47.4a1.111,1.111,0,0,0-2.17.063L47.635,64.338h-2.3l1.788-18.854.324-10a1.111,1.111,0,0,0-.579-1.011L35.461,28.25ZM23,32.115a1.1,1.1,0,0,0,.46-.1l9.9-4.5-.306.917a1.1,1.1,0,0,0,.07.839l-9.548,5.2A1.111,1.111,0,0,0,23,35.484l.327,10.07,1.785,18.784h-2.3L19.648,47.465a1.111,1.111,0,0,0-2.17-.063L13.244,64.338H10.978L14.1,45.571l1.111-10a1.111,1.111,0,0,0-2.057-.694L6.95,45.226l-1.222-.409,5.925-10.856a3.371,3.371,0,0,1,2.981-1.847Z" transform="translate(0 2.109)"/>
      <path id="Trazado_1180437" data-name="Trazado 1180437" d="M29.223,19.778l3,4a1.111,1.111,0,0,0,1.778,0l3-4H40.89a3.333,3.333,0,0,0,3.333-3.333V5.333A3.333,3.333,0,0,0,40.89,2H25.333A3.333,3.333,0,0,0,22,5.333V16.445a3.333,3.333,0,0,0,3.333,3.333Zm-5-3.333V5.333a1.111,1.111,0,0,1,1.111-1.111H40.89A1.111,1.111,0,0,1,42,5.333V16.445a1.111,1.111,0,0,1-1.111,1.111H36.445a1.111,1.111,0,0,0-.889.444L33.112,21.26,30.667,18a1.111,1.111,0,0,0-.889-.444H25.333A1.111,1.111,0,0,1,24.222,16.445Z" transform="translate(2.112)"/>
      <path id="Trazado_1180438" data-name="Trazado 1180438" d="M32.457,46.025a4.568,4.568,0,1,0-4.568-4.568A4.568,4.568,0,0,0,32.457,46.025Zm0-6.914a2.346,2.346,0,1,1-2.346,2.346A2.346,2.346,0,0,1,32.457,39.111Z" transform="translate(2.767 3.878)"/>
      <path id="Trazado_1180439" data-name="Trazado 1180439" d="M24.68,39.86a1.111,1.111,0,0,0-.592.839,8.126,8.126,0,0,0,0,2.382,1.111,1.111,0,0,0,.592.839l.667.342a7.9,7.9,0,0,0,.533,1.286l-.222.71a1.111,1.111,0,0,0,.176,1.012,8.909,8.909,0,0,0,1.687,1.686,1.111,1.111,0,0,0,1.01.174l.711-.222a7.735,7.735,0,0,0,1.287.533l.341.667a1.111,1.111,0,0,0,.838.592,8.14,8.14,0,0,0,2.385,0,1.111,1.111,0,0,0,.838-.592l.341-.667a7.736,7.736,0,0,0,1.287-.533l.711.222a1.1,1.1,0,0,0,1.011-.174,8.845,8.845,0,0,0,1.686-1.687,1.111,1.111,0,0,0,.174-1.011l-.222-.709a7.871,7.871,0,0,0,.533-1.287l.667-.342a1.111,1.111,0,0,0,.592-.839,8.126,8.126,0,0,0,0-2.382,1.111,1.111,0,0,0-.592-.839l-.667-.342a8,8,0,0,0-.532-1.286l.222-.71a1.111,1.111,0,0,0-.176-1.012,8.909,8.909,0,0,0-1.687-1.686,1.111,1.111,0,0,0-1.01-.174l-.711.222a7.737,7.737,0,0,0-1.287-.533l-.341-.667a1.111,1.111,0,0,0-.838-.592,8.166,8.166,0,0,0-2.385,0,1.111,1.111,0,0,0-.838.592l-.341.667a7.736,7.736,0,0,0-1.287.533l-.711-.222a1.111,1.111,0,0,0-1.011.174,8.845,8.845,0,0,0-1.686,1.687,1.111,1.111,0,0,0-.174,1.011l.222.709a7.871,7.871,0,0,0-.533,1.287Zm1.556,1.7.556-.288a1.1,1.1,0,0,0,.57-.726,5.647,5.647,0,0,1,.667-1.612,1.111,1.111,0,0,0,.111-.917l-.189-.593a6.515,6.515,0,0,1,.472-.471l.593.189a1.118,1.118,0,0,0,.917-.111,5.654,5.654,0,0,1,1.611-.667,1.1,1.1,0,0,0,.726-.57l.289-.556a4.673,4.673,0,0,1,.66,0l.289.556a1.1,1.1,0,0,0,.726.57,5.654,5.654,0,0,1,1.611.667,1.111,1.111,0,0,0,.917.111l.594-.189a6.457,6.457,0,0,1,.472.472l-.19.593a1.111,1.111,0,0,0,.111.917,5.667,5.667,0,0,1,.667,1.611,1.1,1.1,0,0,0,.57.726l.556.288c.008.111.011.222.011.333s0,.222-.011.333l-.556.288a1.1,1.1,0,0,0-.57.726,5.647,5.647,0,0,1-.667,1.612,1.111,1.111,0,0,0-.111.917l.189.593a6.516,6.516,0,0,1-.472.471l-.593-.189a1.1,1.1,0,0,0-.917.111,5.654,5.654,0,0,1-1.611.667,1.1,1.1,0,0,0-.726.57l-.289.556a4.673,4.673,0,0,1-.66,0l-.289-.556a1.1,1.1,0,0,0-.726-.57,5.654,5.654,0,0,1-1.611-.667,1.111,1.111,0,0,0-.917-.111l-.594.189a6.454,6.454,0,0,1-.472-.472l.19-.593a1.111,1.111,0,0,0-.111-.917,5.667,5.667,0,0,1-.667-1.611,1.1,1.1,0,0,0-.57-.726l-.556-.288a2.844,2.844,0,0,1-.013-.336c0-.111,0-.222.011-.333Z" transform="translate(2.334 3.445)"/>
    </g>
  </g>
</svg>
