<svg xmlns="http://www.w3.org/2000/svg" xmlns:xlink="http://www.w3.org/1999/xlink" width="113" height="113" viewBox="0 0 113 113">
  <defs>
    <filter id="Trazado_982547" x="0" y="0" width="113" height="113" filterUnits="userSpaceOnUse">
      <feOffset dy="3" input="SourceAlpha"/>
      <feGaussianBlur stdDeviation="3" result="blur"/>
      <feFlood flood-opacity="0.161"/>
      <feComposite operator="in" in2="blur"/>
      <feComposite in="SourceGraphic"/>
    </filter>
  </defs>
  <g id="Grupo_1224467" data-name="Grupo 1224467" transform="translate(-1977.49 -2654.751)">
    <g id="Grupo_1224210" data-name="Grupo 1224210" transform="translate(1986.49 2660.751)">
      <g id="Grupo_1224085" data-name="Grupo 1224085" transform="translate(0 0)">
        <g id="Grupo_1223184" data-name="Grupo 1223184" transform="translate(0)">
          <g id="Grupo_1211216" data-name="Grupo 1211216">
            <g id="Grupo_1210737" data-name="Grupo 1210737">
              <g id="Grupo_1210537" data-name="Grupo 1210537">
                <g id="Grupo_1164202" data-name="Grupo 1164202">
                  <g id="Grupo_1158168" data-name="Grupo 1158168">
                    <g id="Grupo_1152576" data-name="Grupo 1152576">
                      <g id="Grupo_1148633" data-name="Grupo 1148633">
                        <g id="Grupo_1148525" data-name="Grupo 1148525">
                          <g transform="matrix(1, 0, 0, 1, -9, -6)" filter="url(#Trazado_982547)">
                            <g id="Trazado_982547-2" data-name="Trazado 982547" transform="translate(9 6)" fill="#fcf5f0">
                              <path d="M 47.49999618530273 93.5 C 41.28936767578125 93.5 35.26533126831055 92.28396606445312 29.59518241882324 89.88570404052734 C 24.11771583557129 87.56893157958984 19.19812965393066 84.251953125 14.97308921813965 80.02690124511719 C 10.74803638458252 75.80186462402344 7.431062698364258 70.88227844238281 5.114289283752441 65.40480804443359 C 2.716022968292236 59.73466110229492 1.499996185302734 53.71062469482422 1.499996185302734 47.49999618530273 C 1.499996185302734 41.28936767578125 2.716022968292236 35.26533126831055 5.114289283752441 29.59518241882324 C 7.431062698364258 24.11771583557129 10.74803638458252 19.19812965393066 14.97308921813965 14.97308921813965 C 19.19812965393066 10.74803638458252 24.11771583557129 7.431062698364258 29.59518241882324 5.114289283752441 C 35.26533126831055 2.716022968292236 41.28936767578125 1.499996185302734 47.49999618530273 1.499996185302734 C 53.71062469482422 1.499996185302734 59.73466110229492 2.716022968292236 65.40480804443359 5.114289283752441 C 70.88227844238281 7.431062698364258 75.80186462402344 10.74803638458252 80.02690124511719 14.97308921813965 C 84.251953125 19.19812965393066 87.56893157958984 24.11771583557129 89.88570404052734 29.59518241882324 C 92.28396606445312 35.26533126831055 93.5 41.28936767578125 93.5 47.49999618530273 C 93.5 53.71062469482422 92.28396606445312 59.73466110229492 89.88570404052734 65.40480804443359 C 87.56893157958984 70.88227844238281 84.251953125 75.80186462402344 80.02690124511719 80.02690124511719 C 75.80186462402344 84.251953125 70.88227844238281 87.56893157958984 65.40480804443359 89.88570404052734 C 59.73466110229492 92.28396606445312 53.71062469482422 93.5 47.49999618530273 93.5 Z" stroke="none"/>
                              <path d="M 47.49999618530273 2.999992370605469 C 41.4912109375 2.999992370605469 35.66376495361328 4.1761474609375 30.17950439453125 6.495796203613281 C 24.88084411621094 8.736953735351562 20.12152099609375 11.94598388671875 16.03375244140625 16.03375244140625 C 11.94598388671875 20.12152099609375 8.736953735351562 24.88084411621094 6.495796203613281 30.17950439453125 C 4.1761474609375 35.66376495361328 2.999992370605469 41.4912109375 2.999992370605469 47.49999618530273 C 2.999992370605469 53.50878143310547 4.1761474609375 59.33622741699219 6.495796203613281 64.82048797607422 C 8.736953735351562 70.11914825439453 11.94598388671875 74.87847137451172 16.03375244140625 78.96623992919922 C 20.12152099609375 83.05400848388672 24.88084411621094 86.26304626464844 30.17950439453125 88.50419616699219 C 35.66376495361328 90.82384490966797 41.4912109375 92 47.49999618530273 92 C 53.50878143310547 92 59.33622741699219 90.82384490966797 64.82048797607422 88.50419616699219 C 70.11914825439453 86.26304626464844 74.87847137451172 83.05400848388672 78.96623992919922 78.96623992919922 C 83.05400848388672 74.87847137451172 86.26304626464844 70.11914825439453 88.50419616699219 64.82048797607422 C 90.82384490966797 59.33622741699219 92 53.50878143310547 92 47.49999618530273 C 92 41.4912109375 90.82384490966797 35.66376495361328 88.50419616699219 30.17950439453125 C 86.26304626464844 24.88084411621094 83.05400848388672 20.12152099609375 78.96623992919922 16.03375244140625 C 74.87847137451172 11.94598388671875 70.11914825439453 8.736953735351562 64.82048797607422 6.495796203613281 C 59.33622741699219 4.1761474609375 53.50878143310547 2.999992370605469 47.49999618530273 2.999992370605469 M 47.49999618530273 -7.62939453125e-06 C 73.7335205078125 -7.62939453125e-06 95 21.26647186279297 95 47.49999618530273 C 95 73.7335205078125 73.7335205078125 95 47.49999618530273 95 C 21.26647186279297 95 -7.62939453125e-06 73.7335205078125 -7.62939453125e-06 47.49999618530273 C -7.62939453125e-06 21.26647186279297 21.26647186279297 -7.62939453125e-06 47.49999618530273 -7.62939453125e-06 Z" stroke="none" fill="#eca675"/>
                            </g>
                          </g>
                        </g>
                      </g>
                    </g>
                  </g>
                </g>
              </g>
            </g>
          </g>
        </g>
      </g>
    </g>
    <g id="diversity_8091389" transform="translate(1992.402 2647.15)">
      <g id="Grupo_1224463" data-name="Grupo 1224463" transform="translate(7.5 60.694)">
        <path id="Trazado_1180440" data-name="Trazado 1180440" d="M35.514,286.876l-2.722.784a2.537,2.537,0,0,1-2.867-1.115l-.016-.026,11.2-6.468a2.555,2.555,0,0,0,.935-3.49h0a2.555,2.555,0,0,0-3.49-.935l1.657-.956a2.555,2.555,0,0,0,.935-3.49h0a2.555,2.555,0,0,0-3.49-.935l-1.578.911a2.555,2.555,0,0,0,.935-3.49h0a2.555,2.555,0,0,0-3.49-.935l-1.292.746a2.555,2.555,0,0,0,.935-3.49h0a2.555,2.555,0,0,0-3.49-.935l-13.57,7.835a14.25,14.25,0,0,0-3.588,2.945h0a14.241,14.241,0,0,1-3.588,2.945l-.9.521a1.06,1.06,0,0,0-.388,1.448l8.63,14.947a1.06,1.06,0,0,0,1.448.388l1.954-1.128a3.072,3.072,0,0,1,2.105-.358l6.434,1.214a3.707,3.707,0,0,0,1.988-.172l6.715-2.518a2.234,2.234,0,0,0,1.266-2.981h0A2.235,2.235,0,0,0,35.514,286.876Z" transform="translate(-7.501 -262.707)" fill="#eaa998"/>
        <path id="Trazado_1180441" data-name="Trazado 1180441" d="M12.274,277.916a10.2,10.2,0,0,1,1.261-2.334,14.242,14.242,0,0,1,3.588-2.945L30.693,264.8a2.558,2.558,0,0,1,2.8.162,2.555,2.555,0,0,0-3.816-1.916l-13.569,7.834a14.246,14.246,0,0,0-3.588,2.945,14.2,14.2,0,0,1-1.673,1.62,14.269,14.269,0,0,1-1.914,1.325l-.9.521a1.06,1.06,0,0,0-.388,1.447l1.308,2.265,1.821-1.051A4.366,4.366,0,0,0,12.274,277.916Z" transform="translate(-7.502 -262.707)" fill="#e49280"/>
        <path id="Trazado_1180442" data-name="Trazado 1180442" d="M132.034,289.908a2.555,2.555,0,0,0-3.49-.935l-10.307,5.951q.619.81,1.2,1.647l10.123-5.844a2.559,2.559,0,0,1,2.8.162A2.55,2.55,0,0,0,132.034,289.908Z" transform="translate(-102.518 -284.951)" fill="#e49280"/>
        <path id="Trazado_1180443" data-name="Trazado 1180443" d="M168.2,352.576a2.555,2.555,0,0,0-3.49-.935l-10.187,5.881q.4.94.756,1.9l10.443-6.029a2.558,2.558,0,0,1,2.8.162A2.551,2.551,0,0,0,168.2,352.576Z" transform="translate(-133.654 -338.723)" fill="#e49280"/>
        <path id="Trazado_1180444" data-name="Trazado 1180444" d="M153.406,314.662a2.555,2.555,0,0,0-3.49-.935l-11.587,6.69q.511.874.977,1.774l11.622-6.71a2.558,2.558,0,0,1,2.8.162A2.549,2.549,0,0,0,153.406,314.662Z" transform="translate(-119.757 -306.191)" fill="#e49280"/>
        <path id="Trazado_1180445" data-name="Trazado 1180445" d="M125.573,415.06a2.227,2.227,0,0,0-1.658-.169l-2.722.784a2.537,2.537,0,0,1-2.866-1.114h0l-.055-.1a5.816,5.816,0,0,0-6.393-2.748,2.277,2.277,0,0,1-2.518-1.06l-.224-.388a5.813,5.813,0,0,1,7.941,2.128l.055.1h0A2.537,2.537,0,0,0,120,413.608l2.722-.784a2.229,2.229,0,0,1,2.669,1.259A2.211,2.211,0,0,1,125.573,415.06Z" transform="translate(-94.708 -388.654)" fill="#e49280"/>
        <path id="Trazado_1180446" data-name="Trazado 1180446" d="M38.556,275.631l.075-.043a2.559,2.559,0,0,1,2.152-.116,2.353,2.353,0,0,1,.407.21h0a2.5,2.5,0,0,1,.85.883,2.555,2.555,0,0,1-.934,3.49l-11.2,6.467.016.027a2.537,2.537,0,0,0,2.867,1.116l2.723-.785a2.235,2.235,0,0,1,1.4,4.24L30.2,293.64a3.74,3.74,0,0,1-1.787.2m-4.826-.9-1.81-.342a3.07,3.07,0,0,0-2.105.358l-1.955,1.128a1.058,1.058,0,0,1-1.446-.389l-8.63-14.947a1.058,1.058,0,0,1,.388-1.446l.9-.522a14.234,14.234,0,0,0,1.915-1.324,14.187,14.187,0,0,0,1.672-1.62,14.281,14.281,0,0,1,3.588-2.945l13.57-7.834a2.536,2.536,0,0,1,1.275-.342,2.424,2.424,0,0,1,.336.023" transform="translate(-7.5 -262.713)" fill="none" stroke="#000" stroke-linecap="round" stroke-linejoin="round" stroke-miterlimit="10" stroke-width="1"/>
        <path id="Trazado_1180447" data-name="Trazado 1180447" d="M117.073,412.395a5.814,5.814,0,0,0-7.942-2.128" transform="translate(-94.705 -388.652)" fill="none" stroke="#000" stroke-linecap="round" stroke-linejoin="round" stroke-miterlimit="10" stroke-width="1"/>
        <line id="Línea_3742" data-name="Línea 3742" y1="5.205" x2="9.015" transform="translate(15.719 4.768)" fill="none" stroke="#000" stroke-linecap="round" stroke-linejoin="round" stroke-miterlimit="10" stroke-width="1"/>
        <line id="Línea_3743" data-name="Línea 3743" y1="5.779" x2="10.01" transform="translate(18.57 8.447)" fill="none" stroke="#000" stroke-linecap="round" stroke-linejoin="round" stroke-miterlimit="10" stroke-width="1"/>
        <line id="Línea_3744" data-name="Línea 3744" y1="5.881" x2="10.187" transform="translate(20.869 12.918)" fill="none" stroke="#000" stroke-linecap="round" stroke-linejoin="round" stroke-miterlimit="10" stroke-width="1"/>
        <path id="Trazado_1180448" data-name="Trazado 1180448" d="M110.486,323.281q.565.676,1.1,1.375.619.81,1.2,1.647.878,1.271,1.655,2.606.511.874.977,1.773.713,1.372,1.321,2.8.12.28.235.561" transform="translate(-95.868 -314.683)" fill="none" stroke="#000" stroke-linecap="round" stroke-linejoin="round" stroke-miterlimit="10" stroke-width="1"/>
      </g>
      <g id="Grupo_1224464" data-name="Grupo 1224464" transform="translate(44.415 54.241)">
        <path id="Trazado_1180449" data-name="Trazado 1180449" d="M282.741,221.437l2.479,1.37a2.537,2.537,0,0,1,1.239,2.816l-.007.03-12.5-3.348a2.555,2.555,0,0,0-3.129,1.807h0a2.555,2.555,0,0,0,1.807,3.129l-1.848-.5a2.555,2.555,0,0,0-3.129,1.807h0a2.555,2.555,0,0,0,1.807,3.129l1.76.472a2.555,2.555,0,0,0-3.129,1.807h0a2.555,2.555,0,0,0,1.807,3.129l1.441.386a2.555,2.555,0,0,0-3.129,1.807h0a2.555,2.555,0,0,0,1.806,3.129l15.135,4.055a14.246,14.246,0,0,0,4.619.455h0a14.245,14.245,0,0,1,4.619.455l1.007.27a1.06,1.06,0,0,0,1.3-.749l4.467-16.671a1.06,1.06,0,0,0-.749-1.3l-2.179-.584a3.072,3.072,0,0,1-1.742-1.235L292.8,221.7a3.707,3.707,0,0,0-1.527-1.285l-6.529-2.968a2.234,2.234,0,0,0-3,1.213h0A2.235,2.235,0,0,0,282.741,221.437Z" transform="translate(-267.568 -217.246)" fill="#e49280"/>
        <path id="Trazado_1180450" data-name="Trazado 1180450" d="M296.193,371.822a10.211,10.211,0,0,1-2.542.759,14.249,14.249,0,0,1-4.62-.455L273.9,368.071a2.558,2.558,0,0,1-1.868-2.1,2.555,2.555,0,0,0,1.344,4.053l15.135,4.055a14.238,14.238,0,0,0,4.62.455,14.228,14.228,0,0,1,4.619.455l1.007.27a1.06,1.06,0,0,0,1.3-.749l.677-2.526-2.031-.544A4.365,4.365,0,0,0,296.193,371.822Z" transform="translate(-270.922 -344.863)" fill="#dd7f66"/>
        <path id="Trazado_1180451" data-name="Trazado 1180451" d="M270.735,329.4a2.555,2.555,0,0,0,1.807,3.129l11.5,3.08q.134-1.01.319-2.011l-11.29-3.025a2.558,2.558,0,0,1-1.868-2.1A2.549,2.549,0,0,0,270.735,329.4Z" transform="translate(-270.209 -312.692)" fill="#dd7f66"/>
        <path id="Trazado_1180452" data-name="Trazado 1180452" d="M289.988,260.032a2.555,2.555,0,0,0,1.807,3.129l11.362,3.044q.38-.949.81-1.879l-11.648-3.121a2.558,2.558,0,0,1-1.868-2.1A2.551,2.551,0,0,0,289.988,260.032Z" transform="translate(-286.73 -253.166)" fill="#dd7f66"/>
        <path id="Trazado_1180453" data-name="Trazado 1180453" d="M267.652,291.316a2.555,2.555,0,0,0,1.807,3.129l12.924,3.463q.256-.98.563-1.945l-12.963-3.473a2.558,2.558,0,0,1-1.868-2.1A2.549,2.549,0,0,0,267.652,291.316Z" transform="translate(-267.564 -280.009)" fill="#dd7f66"/>
        <path id="Trazado_1180454" data-name="Trazado 1180454" d="M367.038,221.425a2.228,2.228,0,0,0,1.053,1.293l2.479,1.37a2.537,2.537,0,0,1,1.239,2.815v0l-.029.106a5.816,5.816,0,0,0,2.578,6.464A2.277,2.277,0,0,1,375.39,236l-.116.432a5.814,5.814,0,0,1-4.111-7.12l.029-.106v0a2.537,2.537,0,0,0-1.239-2.815l-2.479-1.37a2.235,2.235,0,0,1-.435-3.6Z" transform="translate(-352.301 -220.832)" fill="#dd7f66"/>
        <path id="Trazado_1180455" data-name="Trazado 1180455" d="M270.751,234.89a2.554,2.554,0,0,0,1.879,2.2l1.441.386a2.555,2.555,0,1,0-1.323,4.935l15.136,4.055a14.276,14.276,0,0,0,4.619.456c.311-.02.623-.031.935-.031a14.234,14.234,0,0,1,3.683.485l1.008.27a1.059,1.059,0,0,0,1.3-.749l4.467-16.672a1.058,1.058,0,0,0-.749-1.3l-2.179-.583a3.071,3.071,0,0,1-1.742-1.236l-3.691-5.407a3.706,3.706,0,0,0-1.527-1.285l-6.529-2.968a2.235,2.235,0,0,0-2.006,3.99l2.48,1.37a2.537,2.537,0,0,1,1.238,2.816l-.007.03-3.042-.815m-4.689-1.256-2.987-.8" transform="translate(-270.299 -217.246)" fill="none" stroke="#000" stroke-linecap="round" stroke-linejoin="round" stroke-miterlimit="10" stroke-width="1"/>
        <path id="Trazado_1180456" data-name="Trazado 1180456" d="M399.244,277.015a5.814,5.814,0,0,0,4.111,7.121" transform="translate(-380.381 -268.531)" fill="none" stroke="#000" stroke-linecap="round" stroke-linejoin="round" stroke-miterlimit="10" stroke-width="1"/>
        <line id="Línea_3745" data-name="Línea 3745" x1="10.055" y1="2.694" transform="translate(3.773 20.228)" fill="none" stroke="#000" stroke-linecap="round" stroke-linejoin="round" stroke-miterlimit="10" stroke-width="1"/>
        <line id="Línea_3746" data-name="Línea 3746" x1="11.164" y1="2.992" transform="translate(3.655 14.907)" fill="none" stroke="#000" stroke-linecap="round" stroke-linejoin="round" stroke-miterlimit="10" stroke-width="1"/>
        <line id="Línea_3747" data-name="Línea 3747" x1="9.103" y1="2.439" transform="translate(7.324 10.6)" fill="none" stroke="#000" stroke-linecap="round" stroke-linejoin="round" stroke-miterlimit="10" stroke-width="1"/>
        <path id="Trazado_1180457" data-name="Trazado 1180457" d="M363.612,317.873q.078-.878.194-1.75.134-1.01.319-2.011.278-1.519.672-3.013.256-.98.563-1.945.466-1.475,1.045-2.914.1-.238.194-.474" transform="translate(-349.978 -293.2)" fill="none" stroke="#000" stroke-linecap="round" stroke-linejoin="round" stroke-miterlimit="10" stroke-width="1"/>
      </g>
      <g id="Grupo_1224465" data-name="Grupo 1224465" transform="translate(23.363 27.275)">
        <path id="Trazado_1180458" data-name="Trazado 1180458" d="M123.662,47.349l.682-2.749a2.537,2.537,0,0,1,2.4-1.925h.031V55.61a2.555,2.555,0,0,0,2.555,2.555h0a2.555,2.555,0,0,0,2.555-2.555v1.913a2.555,2.555,0,0,0,2.555,2.555h0a2.555,2.555,0,0,0,2.555-2.555V55.7a2.555,2.555,0,0,0,2.555,2.555h0A2.555,2.555,0,0,0,142.1,55.7V54.21a2.555,2.555,0,0,0,2.555,2.555h0a2.555,2.555,0,0,0,2.555-2.555V38.541a14.244,14.244,0,0,0-.756-4.58h0a14.244,14.244,0,0,1-.756-4.58V28.339a1.06,1.06,0,0,0-1.06-1.06H127.382a1.06,1.06,0,0,0-1.06,1.06v2.256a3.071,3.071,0,0,1-.742,2l-4.268,4.965a3.707,3.707,0,0,0-.846,1.808l-1.177,7.074a2.234,2.234,0,0,0,1.949,2.587h0A2.235,2.235,0,0,0,123.662,47.349Z" transform="translate(-119.258 -27.278)" fill="#ffdfcf"/>
        <path id="Trazado_1180459" data-name="Trazado 1180459" d="M127.382,27.275a1.06,1.06,0,0,0-1.06,1.06v2.257a3.072,3.072,0,0,1-.742,2l-4.268,4.965a3.718,3.718,0,0,0-.847,1.808l-1.177,7.075a2.234,2.234,0,0,0,1.949,2.586,2.348,2.348,0,0,0,.259.015,2.091,2.091,0,0,0,.246-.014,2.2,2.2,0,0,1-.121-1.173L122.8,40.78a3.7,3.7,0,0,1,.845-1.808l4.268-4.965a3.072,3.072,0,0,0,.742-2V27.3a.177.177,0,0,1,0-.028Z" transform="translate(-119.258 -27.275)" fill="#ffcebf"/>
        <path id="Trazado_1180460" data-name="Trazado 1180460" d="M283.769,155.21a2.556,2.556,0,0,1-3.567-2.346v-10.41c.454-.059,1.37-.127,2.025-.2v10.611a2.556,2.556,0,0,0,1.542,2.346Z" transform="translate(-257.357 -125.932)" fill="#ffcebf"/>
        <path id="Trazado_1180461" data-name="Trazado 1180461" d="M247.771,157.917a2.558,2.558,0,0,1-1.542-2.347V143.882q-1.014-.08-2.025-.212v11.9a2.556,2.556,0,0,0,3.567,2.347Z" transform="translate(-226.468 -127.147)" fill="#ffcebf"/>
        <path id="Trazado_1180462" data-name="Trazado 1180462" d="M175.775,149.225a2.558,2.558,0,0,1-1.542-2.347V133.646q-1.01.174-2.025.3v12.936a2.556,2.556,0,0,0,3.567,2.347Z" transform="translate(-164.692 -118.547)" fill="#ffcebf"/>
        <path id="Trazado_1180463" data-name="Trazado 1180463" d="M211.773,161.566a2.558,2.558,0,0,1-1.542-2.347V145.8q-1.013.047-2.025.04v13.38a2.556,2.556,0,0,0,3.567,2.347Z" transform="translate(-195.58 -128.975)" fill="#ffcebf"/>
        <path id="Trazado_1180464" data-name="Trazado 1180464" d="M128.18,57.9a2.551,2.551,0,0,1-1.407-2.281V42.678h-.031a2.539,2.539,0,0,0-2.4,1.926l-.681,2.749a2.235,2.235,0,0,1-4.373-.906l1.178-7.073a3.7,3.7,0,0,1,.845-1.808l4.268-4.965a3.065,3.065,0,0,0,.742-2V28.343a1.059,1.059,0,0,1,1.06-1.059H144.64a1.059,1.059,0,0,1,1.059,1.059v1.043a14.174,14.174,0,0,0,.166,2.166m1.181,4.826a14.176,14.176,0,0,1,.166,2.166V54.214a2.553,2.553,0,0,1-1.1,2.1" transform="translate(-119.257 -27.283)" fill="none" stroke="#000" stroke-linecap="round" stroke-linejoin="round" stroke-miterlimit="10" stroke-width="1"/>
        <path id="Trazado_1180465" data-name="Trazado 1180465" d="M172.768,100.589a5.814,5.814,0,0,0,5.814-5.814" transform="translate(-165.172 -85.194)" fill="none" stroke="#000" stroke-linecap="round" stroke-linejoin="round" stroke-miterlimit="10" stroke-width="1"/>
        <line id="Línea_3748" data-name="Línea 3748" y2="10.41" transform="translate(22.845 16.521)" fill="none" stroke="#000" stroke-linecap="round" stroke-linejoin="round" stroke-miterlimit="10" stroke-width="1"/>
        <line id="Línea_3749" data-name="Línea 3749" y2="11.558" transform="translate(17.736 16.864)" fill="none" stroke="#000" stroke-linecap="round" stroke-linejoin="round" stroke-miterlimit="10" stroke-width="1"/>
        <line id="Línea_3750" data-name="Línea 3750" y1="11.445" transform="translate(12.627 16.569)" fill="none" stroke="#000" stroke-linecap="round" stroke-linejoin="round" stroke-miterlimit="10" stroke-width="1"/>
        <path id="Trazado_1180466" data-name="Trazado 1180466" d="M217.152,141.8q-.868.151-1.741.265-1.011.132-2.025.212-1.539.125-3.085.131-1.013.006-2.025-.04-1.545-.068-3.085-.255-.25-.03-.5-.063" transform="translate(-192.566 -125.542)" fill="none" stroke="#000" stroke-linecap="round" stroke-linejoin="round" stroke-miterlimit="10" stroke-width="1"/>
      </g>
      <g id="Grupo_1224466" data-name="Grupo 1224466" transform="translate(31.26 55.106)">
        <path id="Trazado_1180467" data-name="Trazado 1180467" d="M196.414,229.6a6.241,6.241,0,0,1-1.833,4.43l-7.357,7.357a2.243,2.243,0,0,1-3.174,0l-7.269-7.268a6.347,6.347,0,0,1-.179-8.856,6.26,6.26,0,0,1,8.95-.092l.085.084.084-.084a6.263,6.263,0,0,1,10.693,4.429Z" transform="translate(-174.889 -223.339)" fill="#fd8087"/>
        <path id="Trazado_1180468" data-name="Trazado 1180468" d="M184.051,241.392l-7.269-7.268a6.347,6.347,0,0,1-.179-8.856,6.26,6.26,0,0,1,8.95-.092l.085.084S173.225,224.693,184.051,241.392Z" transform="translate(-174.889 -223.339)" fill="#fe646f"/>
        <path id="Trazado_1180469" data-name="Trazado 1180469" d="M194.578,225.175a6.264,6.264,0,0,0-8.86,0l-.085.085-.085-.085a6.262,6.262,0,0,0-8.95.092,6.346,6.346,0,0,0,.179,8.856l7.268,7.268a2.245,2.245,0,0,0,3.174,0l7.357-7.357a6.269,6.269,0,0,0,0-8.86Z" transform="translate(-174.886 -223.339)" fill="none" stroke="#000" stroke-linecap="round" stroke-linejoin="round" stroke-miterlimit="10" stroke-width="1"/>
      </g>
    </g>
  </g>
</svg>
