<svg xmlns="http://www.w3.org/2000/svg" xmlns:xlink="http://www.w3.org/1999/xlink" width="113" height="113" viewBox="0 0 113 113">
  <defs>
    <filter id="Trazado_982547" x="0" y="0" width="113" height="113" filterUnits="userSpaceOnUse">
      <feOffset dy="3" input="SourceAlpha"/>
      <feGaussianBlur stdDeviation="3" result="blur"/>
      <feFlood flood-opacity="0.161"/>
      <feComposite operator="in" in2="blur"/>
      <feComposite in="SourceGraphic"/>
    </filter>
  </defs>
  <g id="Grupo_1224494" data-name="Grupo 1224494" transform="translate(-1215.509 -4347.154)">
    <g id="Grupo_1224240" data-name="Grupo 1224240" transform="translate(0 2392.403)">
      <g id="Grupo_1224094" data-name="Grupo 1224094" transform="translate(541.51 -2620.317)">
        <g id="Grupo_1223184" data-name="Grupo 1223184" transform="translate(683 4581.069)">
          <g id="Grupo_1211216" data-name="Grupo 1211216" transform="translate(0)">
            <g id="Grupo_1210737" data-name="Grupo 1210737">
              <g id="Grupo_1210537" data-name="Grupo 1210537">
                <g id="Grupo_1164202" data-name="Grupo 1164202">
                  <g id="Grupo_1158168" data-name="Grupo 1158168">
                    <g id="Grupo_1152576" data-name="Grupo 1152576">
                      <g id="Grupo_1148633" data-name="Grupo 1148633">
                        <g id="Grupo_1148525" data-name="Grupo 1148525">
                          <g transform="matrix(1, 0, 0, 1, -9, -6)" filter="url(#Trazado_982547)">
                            <g id="Trazado_982547-2" data-name="Trazado 982547" transform="translate(9 6)" fill="#fcf5f0">
                              <path d="M 47.49999618530273 93.5 C 41.28936767578125 93.5 35.26533126831055 92.28396606445312 29.59518241882324 89.88570404052734 C 24.11771583557129 87.56893157958984 19.19812965393066 84.251953125 14.97308921813965 80.02690124511719 C 10.74803638458252 75.80186462402344 7.431062698364258 70.88227844238281 5.114289283752441 65.40480804443359 C 2.716022968292236 59.73466110229492 1.499996185302734 53.71062469482422 1.499996185302734 47.49999618530273 C 1.499996185302734 41.28936767578125 2.716022968292236 35.26533126831055 5.114289283752441 29.59518241882324 C 7.431062698364258 24.11771583557129 10.74803638458252 19.19812965393066 14.97308921813965 14.97308921813965 C 19.19812965393066 10.74803638458252 24.11771583557129 7.431062698364258 29.59518241882324 5.114289283752441 C 35.26533126831055 2.716022968292236 41.28936767578125 1.499996185302734 47.49999618530273 1.499996185302734 C 53.71062469482422 1.499996185302734 59.73466110229492 2.716022968292236 65.40480804443359 5.114289283752441 C 70.88227844238281 7.431062698364258 75.80186462402344 10.74803638458252 80.02690124511719 14.97308921813965 C 84.251953125 19.19812965393066 87.56893157958984 24.11771583557129 89.88570404052734 29.59518241882324 C 92.28396606445312 35.26533126831055 93.5 41.28936767578125 93.5 47.49999618530273 C 93.5 53.71062469482422 92.28396606445312 59.73466110229492 89.88570404052734 65.40480804443359 C 87.56893157958984 70.88227844238281 84.251953125 75.80186462402344 80.02690124511719 80.02690124511719 C 75.80186462402344 84.251953125 70.88227844238281 87.56893157958984 65.40480804443359 89.88570404052734 C 59.73466110229492 92.28396606445312 53.71062469482422 93.5 47.49999618530273 93.5 Z" stroke="none"/>
                              <path d="M 47.49999618530273 2.999992370605469 C 41.4912109375 2.999992370605469 35.66376495361328 4.1761474609375 30.17950439453125 6.495796203613281 C 24.88084411621094 8.736953735351562 20.12152099609375 11.94598388671875 16.03375244140625 16.03375244140625 C 11.94598388671875 20.12152099609375 8.736953735351562 24.88084411621094 6.495796203613281 30.17950439453125 C 4.1761474609375 35.66376495361328 2.999992370605469 41.4912109375 2.999992370605469 47.49999618530273 C 2.999992370605469 53.50878143310547 4.1761474609375 59.33622741699219 6.495796203613281 64.82048797607422 C 8.736953735351562 70.11914825439453 11.94598388671875 74.87847137451172 16.03375244140625 78.96623992919922 C 20.12152099609375 83.05400848388672 24.88084411621094 86.26304626464844 30.17950439453125 88.50419616699219 C 35.66376495361328 90.82384490966797 41.4912109375 92 47.49999618530273 92 C 53.50878143310547 92 59.33622741699219 90.82384490966797 64.82048797607422 88.50419616699219 C 70.11914825439453 86.26304626464844 74.87847137451172 83.05400848388672 78.96623992919922 78.96623992919922 C 83.05400848388672 74.87847137451172 86.26304626464844 70.11914825439453 88.50419616699219 64.82048797607422 C 90.82384490966797 59.33622741699219 92 53.50878143310547 92 47.49999618530273 C 92 41.4912109375 90.82384490966797 35.66376495361328 88.50419616699219 30.17950439453125 C 86.26304626464844 24.88084411621094 83.05400848388672 20.12152099609375 78.96623992919922 16.03375244140625 C 74.87847137451172 11.94598388671875 70.11914825439453 8.736953735351562 64.82048797607422 6.495796203613281 C 59.33622741699219 4.1761474609375 53.50878143310547 2.999992370605469 47.49999618530273 2.999992370605469 M 47.49999618530273 -7.62939453125e-06 C 73.7335205078125 -7.62939453125e-06 95 21.26647186279297 95 47.49999618530273 C 95 73.7335205078125 73.7335205078125 95 47.49999618530273 95 C 21.26647186279297 95 -7.62939453125e-06 73.7335205078125 -7.62939453125e-06 47.49999618530273 C -7.62939453125e-06 21.26647186279297 21.26647186279297 -7.62939453125e-06 47.49999618530273 -7.62939453125e-06 Z" stroke="none" fill="#eca675"/>
                            </g>
                          </g>
                        </g>
                      </g>
                    </g>
                  </g>
                </g>
              </g>
            </g>
          </g>
        </g>
      </g>
    </g>
    <g id="sustainable_9306664" transform="translate(1183.974 4363.193)">
      <path id="Trazado_1180549" data-name="Trazado 1180549" d="M109.481,67.422H66.59a1.582,1.582,0,0,1-1.582-1.582V9.082A1.582,1.582,0,0,1,66.59,7.5h42.891a1.582,1.582,0,0,1,1.582,1.582V65.84A1.582,1.582,0,0,1,109.481,67.422Z" fill="#faf7f8"/>
      <path id="Trazado_1180550" data-name="Trazado 1180550" d="M411.979,7.5h-3a1.582,1.582,0,0,1,1.582,1.582V65.84a1.582,1.582,0,0,1-1.582,1.582h3a1.582,1.582,0,0,0,1.582-1.582V9.082A1.582,1.582,0,0,0,411.979,7.5Z" transform="translate(-302.498)" fill="#f0eef0"/>
      <path id="Trazado_1180551" data-name="Trazado 1180551" d="M202.885,273.04l-.657-1.3-1.5-.019-1.753-1.092-2.889-1.1-1.553-.269-.394-.027h0a11.713,11.713,0,0,0-6.609,2.607h0s-.972,3.426-.958,3.392,1.1,4.9,1.1,4.9l1.544,4.015.587,6.116,1.778,1.956q.473.141.964.243h0l.1.009,1.025-.025,2.54-.461,3.417-.248,2.142-4.87,1.491-9.615Z" transform="translate(-106.904 -230.174)" fill="#a2dbff"/>
      <g id="Grupo_1224492" data-name="Grupo 1224492" transform="translate(85.636 39.029)">
        <path id="Trazado_1180552" data-name="Trazado 1180552" d="M249.331,269.033a11.765,11.765,0,0,1,9.016,8.7l.105-.677-.37-4.212-.657-1.3a11.7,11.7,0,0,0-6.484-2.505A11.867,11.867,0,0,0,249.331,269.033Z" transform="translate(-247.736 -269.006)" fill="#64caff"/>
        <path id="Trazado_1180553" data-name="Trazado 1180553" d="M245.324,415.507a11.763,11.763,0,0,1-9.225,5.6,11.855,11.855,0,0,0,1.594.219,11.7,11.7,0,0,0,5.489-.944h0l2.142-4.87Z" transform="translate(-236.099 -397.844)" fill="#64caff"/>
      </g>
      <path id="Trazado_1180554" data-name="Trazado 1180554" d="M166.34,292.977l-1.638.922a.927.927,0,0,1-1.365-.628l-.479-2.418a11.753,11.753,0,0,0,4.05,20.382l-.85-3.888a.928.928,0,0,1,.4-.976l3.029-1.965a.927.927,0,0,0,.417-.671l.163-1.4a.927.927,0,0,0-.757-1.02l-.644-.116a.927.927,0,0,1-.762-.869l-.035-.74a.928.928,0,0,1,.58-.9l2.211-.89a.928.928,0,0,0,.579-.8l.106-1.547a.928.928,0,0,0-.347-.789l-1.42-1.132a.927.927,0,0,0-.386-.182l-2.206-.468A.927.927,0,0,0,166.34,292.977Z" transform="translate(-82.236 -249.19)" fill="#6ce79a"/>
      <path id="Trazado_1180555" data-name="Trazado 1180555" d="M166.34,292.977l-1.638.922a.927.927,0,0,1-1.365-.628l-.479-2.418a11.753,11.753,0,0,0,4.05,20.382l-.85-3.888a.928.928,0,0,1,.4-.976l3.029-1.965a.927.927,0,0,0,.417-.671l.163-1.4a.927.927,0,0,0-.757-1.02l-.644-.116a.927.927,0,0,1-.762-.869l-.035-.74a.928.928,0,0,1,.58-.9l2.211-.89a.928.928,0,0,0,.579-.8l.106-1.547a.928.928,0,0,0-.347-.789l-1.42-1.132a.927.927,0,0,0-.386-.182l-2.206-.468A.927.927,0,0,0,166.34,292.977Z" transform="translate(-82.236 -249.19)" fill="none" stroke="#000" stroke-linecap="round" stroke-linejoin="round" stroke-miterlimit="10" stroke-width="1.2"/>
      <path id="Trazado_1180556" data-name="Trazado 1180556" d="M279.761,306.331l2.337-6.763-1.511-6.371-1.111-3.181h0l-.155,2.264a.766.766,0,0,1-.6.7l-1.436.306a.766.766,0,0,0-.574.966l.786,2.648a.766.766,0,0,1-.1.649l-.959,1.406a.766.766,0,0,0,.117,1l1.752,1.595a.766.766,0,0,1,.214.8l-.6,1.9a.766.766,0,0,1-.566.517l-2.336.512a.766.766,0,0,0-.477,1.167l2.339,3.577.915-1.489Z" transform="translate(-184.151 -248.453)" fill="#6ce79a"/>
      <path id="Trazado_1180557" data-name="Trazado 1180557" d="M290.326,290.015l-.155,2.264a.763.763,0,0,1-.329.574,11.753,11.753,0,0,1-3.1,15.668l.978,1.495a11.755,11.755,0,0,0,2.6-20Z" transform="translate(-195.002 -248.453)" fill="#00d8a2"/>
      <path id="Trazado_1180558" data-name="Trazado 1180558" d="M283.911,300.04a11.739,11.739,0,0,0-4.436-10.025l-.155,2.264a.766.766,0,0,1-.6.7l-1.436.306a.766.766,0,0,0-.574.966l.786,2.648a.766.766,0,0,1-.1.649l-.959,1.405a.766.766,0,0,0,.117,1l1.752,1.595a.766.766,0,0,1,.214.8l-.6,1.9a.766.766,0,0,1-.566.516l-2.336.512a.766.766,0,0,0-.477,1.167l2.34,3.577A11.751,11.751,0,0,0,283.911,300.04Z" transform="translate(-184.151 -248.453)" fill="none" stroke="#000" stroke-linecap="round" stroke-linejoin="round" stroke-miterlimit="10" stroke-width="1.2"/>
      <g id="Grupo_1224493" data-name="Grupo 1224493" transform="translate(69.013 62.296)">
        <line id="Línea_3751" data-name="Línea 3751" x2="6.722" transform="translate(0)" fill="none" stroke="#000" stroke-linecap="round" stroke-linejoin="round" stroke-miterlimit="10" stroke-width="1.2"/>
        <line id="Línea_3752" data-name="Línea 3752" x2="6.722" transform="translate(31.322)" fill="none" stroke="#000" stroke-linecap="round" stroke-linejoin="round" stroke-miterlimit="10" stroke-width="1.2"/>
      </g>
      <path id="Trazado_1180559" data-name="Trazado 1180559" d="M109.412,159.218l1.558.248,1.739-.823,1.381-1.659-.252-2.535-.624-1.606-1.3-.383h0a3.842,3.842,0,0,0-2.5,6.758Z" transform="translate(-37.871 -127.483)" fill="#ffe270"/>
      <path id="Trazado_1180560" data-name="Trazado 1180560" d="M121.693,152.46h-.011a3.842,3.842,0,0,1-2.491,6.758,3.842,3.842,0,1,0,2.5-6.758Z" transform="translate(-47.65 -127.483)" fill="#ffd250"/>
      <path id="Trazado_1180561" data-name="Trazado 1180561" d="M349.624,162.612h-5.471a.715.715,0,0,1-.715-.715v-5.471a.715.715,0,0,1,.715-.715h5.471a.715.715,0,0,1,.715.715V161.9A.715.715,0,0,1,349.624,162.612Z" transform="translate(-244.86 -130.342)" fill="#ffab56"/>
      <path id="Trazado_1180562" data-name="Trazado 1180562" d="M375.577,155.712h-2.628a.715.715,0,0,1,.715.715V161.9a.715.715,0,0,1-.715.715h2.628a.715.715,0,0,0,.715-.715v-5.471A.715.715,0,0,0,375.577,155.712Z" transform="translate(-270.813 -130.343)" fill="#ff982a"/>
      <circle id="Elipse_14751" data-name="Elipse 14751" cx="3.843" cy="3.843" r="3.843" transform="translate(70.2 24.977)" fill="none" stroke="#000" stroke-linecap="round" stroke-linejoin="round" stroke-miterlimit="10" stroke-width="1.2"/>
      <path id="Trazado_1180563" data-name="Trazado 1180563" d="M198.736,184.332h2.785l.876,5.831" transform="translate(-117.605 -155.512)" fill="none" stroke="#000" stroke-linecap="round" stroke-linejoin="round" stroke-miterlimit="10" stroke-width="1.2"/>
      <path id="Trazado_1180564" data-name="Trazado 1180564" d="M286.558,184.332h-2.785l-.876,5.831" transform="translate(-191.619 -155.512)" fill="none" stroke="#000" stroke-linecap="round" stroke-linejoin="round" stroke-miterlimit="10" stroke-width="1.2"/>
      <path id="Trazado_1180565" data-name="Trazado 1180565" d="M349.624,162.612h-5.471a.715.715,0,0,1-.715-.715v-5.471a.715.715,0,0,1,.715-.715h5.471a.715.715,0,0,1,.715.715V161.9A.715.715,0,0,1,349.624,162.612Z" transform="translate(-244.86 -130.342)" fill="none" stroke="#000" stroke-linecap="round" stroke-linejoin="round" stroke-miterlimit="10" stroke-width="1.2"/>
      <path id="Trazado_1180566" data-name="Trazado 1180566" d="M167.029,52.76H140.892a.921.921,0,0,1-.921-.921V48.664a.921.921,0,0,1,.921-.921h26.137a.921.921,0,0,1,.921.921V51.84A.921.921,0,0,1,167.029,52.76Z" transform="translate(-65.925 -35.391)" fill="#6c5e69"/>
      <path id="Trazado_1180567" data-name="Trazado 1180567" d="M342.493,47.743h-3a.921.921,0,0,1,.921.921V51.84a.921.921,0,0,1-.921.921h3a.921.921,0,0,0,.921-.921V48.664A.921.921,0,0,0,342.493,47.743Z" transform="translate(-241.389 -35.391)" fill="#574d56"/>
      <path id="Trazado_1180568" data-name="Trazado 1180568" d="M168.495,270.06a11.757,11.757,0,1,0,3.5-.007" transform="translate(-82.235 -230.898)" fill="none" stroke="#000" stroke-linecap="round" stroke-linejoin="round" stroke-miterlimit="10" stroke-width="1.2"/>
      <path id="Trazado_1180569" data-name="Trazado 1180569" d="M150.244,52.76h16.784a.921.921,0,0,0,.921-.921V48.664a.921.921,0,0,0-.921-.921H140.892a.921.921,0,0,0-.921.921V51.84a.921.921,0,0,0,.921.921h5.856" transform="translate(-65.925 -35.391)" fill="none" stroke="#000" stroke-linecap="round" stroke-linejoin="round" stroke-miterlimit="10" stroke-width="1.2"/>
      <path id="Trazado_1180570" data-name="Trazado 1180570" d="M111.063,54.944V9.082A1.582,1.582,0,0,0,109.481,7.5H66.59a1.582,1.582,0,0,0-1.582,1.582V65.84a1.582,1.582,0,0,0,1.582,1.582h42.891a1.582,1.582,0,0,0,1.582-1.582v-7.4" fill="none" stroke="#000" stroke-linecap="round" stroke-linejoin="round" stroke-miterlimit="10" stroke-width="1.2"/>
    </g>
  </g>
</svg>
