<svg xmlns="http://www.w3.org/2000/svg" xmlns:xlink="http://www.w3.org/1999/xlink" width="113" height="113" viewBox="0 0 113 113">
  <defs>
    <filter id="Trazado_982547" x="0" y="0" width="113" height="113" filterUnits="userSpaceOnUse">
      <feOffset dy="3" input="SourceAlpha"/>
      <feGaussianBlur stdDeviation="3" result="blur"/>
      <feFlood flood-opacity="0.161"/>
      <feComposite operator="in" in2="blur"/>
      <feComposite in="SourceGraphic"/>
    </filter>
  </defs>
  <g id="Grupo_1224490" data-name="Grupo 1224490" transform="translate(-585.509 -4347.154)">
    <g id="Grupo_1224222" data-name="Grupo 1224222" transform="translate(0 2392.403)">
      <g id="Grupo_1224092" data-name="Grupo 1224092" transform="translate(-88.49 -2620.317)">
        <g id="Grupo_1223184" data-name="Grupo 1223184" transform="translate(683 4581.069)">
          <g id="Grupo_1211216" data-name="Grupo 1211216" transform="translate(0)">
            <g id="Grupo_1210737" data-name="Grupo 1210737">
              <g id="Grupo_1210537" data-name="Grupo 1210537">
                <g id="Grupo_1164202" data-name="Grupo 1164202">
                  <g id="Grupo_1158168" data-name="Grupo 1158168">
                    <g id="Grupo_1152576" data-name="Grupo 1152576">
                      <g id="Grupo_1148633" data-name="Grupo 1148633">
                        <g id="Grupo_1148525" data-name="Grupo 1148525">
                          <g transform="matrix(1, 0, 0, 1, -9, -6)" filter="url(#Trazado_982547)">
                            <g id="Trazado_982547-2" data-name="Trazado 982547" transform="translate(9 6)" fill="#fcf5f0">
                              <path d="M 47.49999618530273 93.5 C 41.28936767578125 93.5 35.26533126831055 92.28396606445312 29.59518241882324 89.88570404052734 C 24.11771583557129 87.56893157958984 19.19812965393066 84.251953125 14.97308921813965 80.02690124511719 C 10.74803638458252 75.80186462402344 7.431062698364258 70.88227844238281 5.114289283752441 65.40480804443359 C 2.716022968292236 59.73466110229492 1.499996185302734 53.71062469482422 1.499996185302734 47.49999618530273 C 1.499996185302734 41.28936767578125 2.716022968292236 35.26533126831055 5.114289283752441 29.59518241882324 C 7.431062698364258 24.11771583557129 10.74803638458252 19.19812965393066 14.97308921813965 14.97308921813965 C 19.19812965393066 10.74803638458252 24.11771583557129 7.431062698364258 29.59518241882324 5.114289283752441 C 35.26533126831055 2.716022968292236 41.28936767578125 1.499996185302734 47.49999618530273 1.499996185302734 C 53.71062469482422 1.499996185302734 59.73466110229492 2.716022968292236 65.40480804443359 5.114289283752441 C 70.88227844238281 7.431062698364258 75.80186462402344 10.74803638458252 80.02690124511719 14.97308921813965 C 84.251953125 19.19812965393066 87.56893157958984 24.11771583557129 89.88570404052734 29.59518241882324 C 92.28396606445312 35.26533126831055 93.5 41.28936767578125 93.5 47.49999618530273 C 93.5 53.71062469482422 92.28396606445312 59.73466110229492 89.88570404052734 65.40480804443359 C 87.56893157958984 70.88227844238281 84.251953125 75.80186462402344 80.02690124511719 80.02690124511719 C 75.80186462402344 84.251953125 70.88227844238281 87.56893157958984 65.40480804443359 89.88570404052734 C 59.73466110229492 92.28396606445312 53.71062469482422 93.5 47.49999618530273 93.5 Z" stroke="none"/>
                              <path d="M 47.49999618530273 2.999992370605469 C 41.4912109375 2.999992370605469 35.66376495361328 4.1761474609375 30.17950439453125 6.495796203613281 C 24.88084411621094 8.736953735351562 20.12152099609375 11.94598388671875 16.03375244140625 16.03375244140625 C 11.94598388671875 20.12152099609375 8.736953735351562 24.88084411621094 6.495796203613281 30.17950439453125 C 4.1761474609375 35.66376495361328 2.999992370605469 41.4912109375 2.999992370605469 47.49999618530273 C 2.999992370605469 53.50878143310547 4.1761474609375 59.33622741699219 6.495796203613281 64.82048797607422 C 8.736953735351562 70.11914825439453 11.94598388671875 74.87847137451172 16.03375244140625 78.96623992919922 C 20.12152099609375 83.05400848388672 24.88084411621094 86.26304626464844 30.17950439453125 88.50419616699219 C 35.66376495361328 90.82384490966797 41.4912109375 92 47.49999618530273 92 C 53.50878143310547 92 59.33622741699219 90.82384490966797 64.82048797607422 88.50419616699219 C 70.11914825439453 86.26304626464844 74.87847137451172 83.05400848388672 78.96623992919922 78.96623992919922 C 83.05400848388672 74.87847137451172 86.26304626464844 70.11914825439453 88.50419616699219 64.82048797607422 C 90.82384490966797 59.33622741699219 92 53.50878143310547 92 47.49999618530273 C 92 41.4912109375 90.82384490966797 35.66376495361328 88.50419616699219 30.17950439453125 C 86.26304626464844 24.88084411621094 83.05400848388672 20.12152099609375 78.96623992919922 16.03375244140625 C 74.87847137451172 11.94598388671875 70.11914825439453 8.736953735351562 64.82048797607422 6.495796203613281 C 59.33622741699219 4.1761474609375 53.50878143310547 2.999992370605469 47.49999618530273 2.999992370605469 M 47.49999618530273 -7.62939453125e-06 C 73.7335205078125 -7.62939453125e-06 95 21.26647186279297 95 47.49999618530273 C 95 73.7335205078125 73.7335205078125 95 47.49999618530273 95 C 21.26647186279297 95 -7.62939453125e-06 73.7335205078125 -7.62939453125e-06 47.49999618530273 C -7.62939453125e-06 21.26647186279297 21.26647186279297 -7.62939453125e-06 47.49999618530273 -7.62939453125e-06 Z" stroke="none" fill="#eca675"/>
                            </g>
                          </g>
                        </g>
                      </g>
                    </g>
                  </g>
                </g>
              </g>
            </g>
          </g>
        </g>
      </g>
    </g>
    <g id="help_3052592" transform="translate(607 4369)">
      <g id="Grupo_1224488" data-name="Grupo 1224488">
        <g id="Grupo_1224476" data-name="Grupo 1224476">
          <path id="Trazado_1180515" data-name="Trazado 1180515" d="M51.46,30.66a10,10,0,0,1-14.92,0A6.93,6.93,0,0,1,42,28l.55,1.11a1.626,1.626,0,0,0,2.9,0L46,28A6.93,6.93,0,0,1,51.46,30.66Z" fill="#ff826e"/>
        </g>
        <g id="Grupo_1224477" data-name="Grupo 1224477">
          <path id="Trazado_1180516" data-name="Trazado 1180516" d="M24,51.4,28,41h9L33.14,52.58A13.764,13.764,0,0,1,20.07,62,14.066,14.066,0,0,1,9.08,39.15L10,38h6.12a7.745,7.745,0,0,1,1.88.23,7.884,7.884,0,0,1,6,7.65Z" fill="#b4dd7f"/>
        </g>
        <g id="Grupo_1224478" data-name="Grupo 1224478">
          <path id="Trazado_1180517" data-name="Trazado 1180517" d="M26.59,25a1.414,1.414,0,0,0,1-2.41L26,21V20h3.51a2,2,0,0,0,1.42-3.41L28.44,14.1,34.1,8.44l2.49,2.49A2,2,0,0,0,40,9.51V6h8V9.51a2,2,0,0,0,3.41,1.42L53.9,8.44l5.66,5.66-2.49,2.49A2,2,0,0,0,58.49,20H62v8H58.49a2,2,0,0,0-1.42,3.41l2.49,2.49L53.9,39.56l-2.49-2.49A2,2,0,0,0,48,38.49V42H40V40.12A2.249,2.249,0,0,0,38.75,36H33a4.925,4.925,0,0,0-2.03.43L28.44,33.9l2.49-2.49A2,2,0,0,0,29.51,28H24V25Zm21.98-9.89a9.963,9.963,0,0,0-9.14,0,10,10,0,1,0,9.14,0Z" fill="#fcd770"/>
        </g>
        <g id="Grupo_1224479" data-name="Grupo 1224479">
          <path id="Trazado_1180518" data-name="Trazado 1180518" d="M28,9.46v3.28A3.278,3.278,0,0,1,24.74,16a3.641,3.641,0,0,1-.74-.07,4.192,4.192,0,0,1-2.23-1.16L21,14a6.835,6.835,0,0,1-4.83,2H16a1.955,1.955,0,0,1-1.41-.59,1.881,1.881,0,0,1-.53-.94l-.23.12A7.618,7.618,0,0,0,10,19H9a3,3,0,0,0,0,6h1v6.8L7.89,30.53A12.129,12.129,0,0,1,14.13,8H16a10.855,10.855,0,0,1,9.71-6H26a3.995,3.995,0,0,1,4,4,3.98,3.98,0,0,1-2,3.46Z" fill="#656d78"/>
        </g>
        <g id="Grupo_1224480" data-name="Grupo 1224480">
          <path id="Trazado_1180519" data-name="Trazado 1180519" d="M47.45,19.72,44,18l-3.45,1.72a1,1,0,0,0-.55.9V22l-.77-.77a4.184,4.184,0,0,1-.53-5.28,4.543,4.543,0,0,1,.73-.84,9.963,9.963,0,0,1,9.14,0,4.543,4.543,0,0,1,.73.84,4.184,4.184,0,0,1-.53,5.28L48,22V20.62a1,1,0,0,0-.55-.9Z" fill="#656d78"/>
        </g>
        <g id="Grupo_1224481" data-name="Grupo 1224481">
          <path id="Trazado_1180520" data-name="Trazado 1180520" d="M46,28l-.55,1.11a1.626,1.626,0,0,1-2.9,0L42,28V25.46a3.974,3.974,0,0,0,4,0Z" fill="#f0d0b4"/>
        </g>
        <g id="Grupo_1224482" data-name="Grupo 1224482">
          <path id="Trazado_1180521" data-name="Trazado 1180521" d="M48,20.62V22a3.994,3.994,0,0,1-6,3.46l-.83-.63A4.025,4.025,0,0,1,40,22V20.62a1,1,0,0,1,.55-.9L44,18l3.45,1.72A1,1,0,0,1,48,20.62Z" fill="#f0d0b4"/>
        </g>
        <g id="Grupo_1224483" data-name="Grupo 1224483">
          <path id="Trazado_1180522" data-name="Trazado 1180522" d="M40,40.12a2.2,2.2,0,0,1-.7.31L37,41H28a5,5,0,0,1,2.97-4.57A4.925,4.925,0,0,1,33,36h5.75A2.249,2.249,0,0,1,40,40.12Z" fill="#f0d0b4"/>
        </g>
        <g id="Grupo_1224484" data-name="Grupo 1224484">
          <path id="Trazado_1180523" data-name="Trazado 1180523" d="M21.09,29.75a3.99,3.99,0,0,0,2.66,1.24h.01A5.662,5.662,0,0,1,18.34,35a1.94,1.94,0,0,1-.34-.02v3.25A7.744,7.744,0,0,0,16.12,38H10V25H9a3,3,0,0,1,0-6h1a7.618,7.618,0,0,1,3.83-4.41l.23-.12a1.881,1.881,0,0,0,.53.94A1.955,1.955,0,0,0,16,16h.17A6.835,6.835,0,0,0,21,14l.77.77A4.192,4.192,0,0,0,24,15.93v1.41a4,4,0,0,0,1.17,2.83L26,21l1.59,1.59a1.414,1.414,0,0,1-1,2.41H24v2H20a4.038,4.038,0,0,0,1.09,2.75Z" fill="#f0d0b4"/>
        </g>
        <g id="Grupo_1224485" data-name="Grupo 1224485">
          <path id="Trazado_1180524" data-name="Trazado 1180524" d="M56,45l4,7H58V62H54V52H52Z" fill="#ff826e"/>
        </g>
        <g id="Grupo_1224486" data-name="Grupo 1224486">
          <path id="Trazado_1180525" data-name="Trazado 1180525" d="M44,49l4,7H46v6H42V56H40Z" fill="#ff826e"/>
        </g>
        <g id="Grupo_1224487" data-name="Grupo 1224487">
          <path id="Trazado_1180526" data-name="Trazado 1180526" d="M24,28v1.34a5.983,5.983,0,0,1-.24,1.65h-.01a3.99,3.99,0,0,1-2.66-1.24A4.038,4.038,0,0,1,20,27h4Z" fill="#ff826e"/>
        </g>
      </g>
      <g id="Grupo_1224489" data-name="Grupo 1224489">
        <path id="Trazado_1180527" data-name="Trazado 1180527" d="M20,21a1,1,0,0,1-2,0V20H16v1a3,3,0,0,0,6,0V20H20Z"/>
        <path id="Trazado_1180528" data-name="Trazado 1180528" d="M59,53h2.724L56,42.984,50.276,53H53v8H47V57h2.724L44,46.984,38.276,57H41v4H37v2H63V61H59Zm-5.276-2L56,47.016,58.276,51H57V61H55V51Zm-12,4L44,51.016,46.276,55H45v6H43V55Z"/>
        <path id="Trazado_1180529" data-name="Trazado 1180529" d="M44,13A11,11,0,1,0,55,24,11.013,11.013,0,0,0,44,13Zm3.973,2.937a3.392,3.392,0,0,1,.492.564,3.151,3.151,0,0,1,.244,3.079,1.994,1.994,0,0,0-.815-.751L44,16.882l-3.9,1.947a1.993,1.993,0,0,0-.815.751,3.157,3.157,0,0,1,.245-3.08,3.419,3.419,0,0,1,.491-.563,8.894,8.894,0,0,1,7.947,0ZM43,26.9a5,5,0,0,0,2,0v.865l-.447.894a.64.64,0,0,1-1.1,0L43,27.764ZM44,25a3,3,0,0,1-3-3V20.618l3-1.5,3,1.5V22A3,3,0,0,1,44,25Zm-6.992-6.655a5.138,5.138,0,0,0,1.511,3.587l.528.528A4.971,4.971,0,0,0,41,25.974v1.092a7.857,7.857,0,0,0-4.39,2.057,8.962,8.962,0,0,1,.4-10.778Zm.921,12.279a5.873,5.873,0,0,1,3.47-1.59l.259.519a2.619,2.619,0,0,0,4.684,0l.259-.519a5.874,5.874,0,0,1,3.47,1.591,8.945,8.945,0,0,1-12.142,0Zm13.461-1.5A7.85,7.85,0,0,0,47,27.067V25.975a4.967,4.967,0,0,0,1.953-3.514l.528-.528a5.14,5.14,0,0,0,1.511-3.588,8.963,8.963,0,0,1,.4,10.779Z"/>
        <path id="Trazado_1180530" data-name="Trazado 1180530" d="M58.485,19a1,1,0,0,1-.707-1.707L60.97,14.1,53.9,7.03l-3.192,3.192A1,1,0,0,1,49,9.515V5H39V9.515a1,1,0,0,1-1.707.707L34.1,7.03,29,12.13V9.974A4.983,4.983,0,0,0,26,1h-.292A11.784,11.784,0,0,0,15.4,7H14.13A13.131,13.131,0,0,0,7.375,31.391L9,32.366v5.283l-.7.873A15.067,15.067,0,0,0,20.066,63,14.761,14.761,0,0,0,34.089,52.892l3.685-11.055L39,41.531V43H49V38.485a1,1,0,0,1,1.707-.707L53.9,40.97,60.97,33.9l-3.192-3.192A1,1,0,0,1,58.485,29H63V19ZM39.057,39.455,36.877,40H29.142A4,4,0,0,1,33,37h5.754a1.246,1.246,0,0,1,.3,2.455ZM27.011,40.787,25,46.014v-.139a8.885,8.885,0,0,0-6-8.388V35.966a6.666,6.666,0,0,0,6-6.623V29h4.515a1,1,0,0,1,.707,1.707L27.03,33.9l2.337,2.337a5.981,5.981,0,0,0-2.356,4.551ZM22.953,29.811A3.015,3.015,0,0,1,21.172,28H23v1.343a4.522,4.522,0,0,1-.047.468ZM23,24v2H19v1a4.993,4.993,0,0,0,3.34,4.694,4.634,4.634,0,0,1-7.289.943l-.343-.343-1.416,1.413.344.344A6.617,6.617,0,0,0,17,35.864v1.181A8.732,8.732,0,0,0,16.125,37H11V24H9a2,2,0,0,1,0-4h1.721l.228-.684a6.583,6.583,0,0,1,2.7-3.476A2.981,2.981,0,0,0,16,17h.172a7.771,7.771,0,0,0,4.784-1.63l.1.1A5.168,5.168,0,0,0,23,16.683v.661a4.968,4.968,0,0,0,1.465,3.535l2.413,2.414a.413.413,0,0,1-.291.707Zm2.5-5a3.016,3.016,0,0,1-.5-1.657v-.369a4.235,4.235,0,0,0,3.172-1.731l2.05,2.05A1,1,0,0,1,29.515,19ZM8.4,29.676A11.131,11.131,0,0,1,14.131,9h2.487l.276-.553A9.8,9.8,0,0,1,25.708,3H26a3,3,0,1,1,0,6H24v2h2a5,5,0,0,0,1-.1v1.844A2.26,2.26,0,0,1,24.743,15a3.187,3.187,0,0,1-2.269-.939L21,12.585l-.707.708A5.789,5.789,0,0,1,16.172,15H16a1,1,0,0,1,0-2h1V11H16a3,3,0,0,0-2.99,2.9,8.552,8.552,0,0,0-3.7,4.1H9a4,4,0,0,0,0,8v4.034ZM32.193,52.259A12.767,12.767,0,0,1,20.066,61a13.067,13.067,0,0,1-10.2-21.228L10.48,39h5.645A6.883,6.883,0,0,1,23,45.875v4.211l-2.755-3.543A9.122,9.122,0,0,0,13,43v2a7.134,7.134,0,0,1,5.667,2.771l3.785,4.868-.386,1,1.867.718L28.687,42h6.926ZM61,27H58.485a3,3,0,0,0-2.121,5.122L58.142,33.9,53.9,38.143l-1.778-1.778A3,3,0,0,0,47,38.485V41H41v-.415A3.243,3.243,0,0,0,38.754,35H33a5.98,5.98,0,0,0-1.774.268L29.857,33.9l1.778-1.778A3,3,0,0,0,29.515,27H25V26h1.586a2.414,2.414,0,0,0,1.707-4.121L27.414,21h2.1a3,3,0,0,0,2.121-5.122L29.857,14.1,34.1,9.857l1.778,1.778A3,3,0,0,0,41,9.515V7h6V9.515a3,3,0,0,0,5.122,2.121L53.9,9.858,58.143,14.1l-1.778,1.778A3,3,0,0,0,58.485,21H61Z"/>
      </g>
    </g>
  </g>
</svg>
