<svg xmlns="http://www.w3.org/2000/svg" xmlns:xlink="http://www.w3.org/1999/xlink" width="113" height="113" viewBox="0 0 113 113">
  <defs>
    <filter id="Trazado_982547" x="0" y="0" width="113" height="113" filterUnits="userSpaceOnUse">
      <feOffset dy="3" input="SourceAlpha"/>
      <feGaussianBlur stdDeviation="3" result="blur"/>
      <feFlood flood-opacity="0.161"/>
      <feComposite operator="in" in2="blur"/>
      <feComposite in="SourceGraphic"/>
    </filter>
  </defs>
  <g id="Grupo_1224575" data-name="Grupo 1224575" transform="translate(-355.49 -7063.751)">
    <g id="Grupo_1224449" data-name="Grupo 1224449" transform="translate(364.49 7069.751)">
      <g id="Grupo_1224084" data-name="Grupo 1224084" transform="translate(0 0)">
        <g id="Grupo_1223183" data-name="Grupo 1223183">
          <g id="Grupo_1211217" data-name="Grupo 1211217">
            <g id="Grupo_1210736" data-name="Grupo 1210736">
              <g id="Grupo_1210537" data-name="Grupo 1210537">
                <g id="Grupo_1164202" data-name="Grupo 1164202">
                  <g id="Grupo_1158168" data-name="Grupo 1158168">
                    <g id="Grupo_1152576" data-name="Grupo 1152576">
                      <g id="Grupo_1148633" data-name="Grupo 1148633">
                        <g id="Grupo_1148525" data-name="Grupo 1148525">
                          <g transform="matrix(1, 0, 0, 1, -9, -6)" filter="url(#Trazado_982547)">
                            <g id="Trazado_982547-2" data-name="Trazado 982547" transform="translate(9 6)" fill="#fcf5f0">
                              <path d="M 47.49999618530273 93.5 C 41.28936767578125 93.5 35.26533126831055 92.28396606445312 29.59518241882324 89.88570404052734 C 24.11771583557129 87.56893157958984 19.19812965393066 84.251953125 14.97308921813965 80.02690124511719 C 10.74803638458252 75.80186462402344 7.431062698364258 70.88227844238281 5.114289283752441 65.40480804443359 C 2.716022968292236 59.73466110229492 1.499996185302734 53.71062469482422 1.499996185302734 47.49999618530273 C 1.499996185302734 41.28936767578125 2.716022968292236 35.26533126831055 5.114289283752441 29.59518241882324 C 7.431062698364258 24.11771583557129 10.74803638458252 19.19812965393066 14.97308921813965 14.97308921813965 C 19.19812965393066 10.74803638458252 24.11771583557129 7.431062698364258 29.59518241882324 5.114289283752441 C 35.26533126831055 2.716022968292236 41.28936767578125 1.499996185302734 47.49999618530273 1.499996185302734 C 53.71062469482422 1.499996185302734 59.73466110229492 2.716022968292236 65.40480804443359 5.114289283752441 C 70.88227844238281 7.431062698364258 75.80186462402344 10.74803638458252 80.02690124511719 14.97308921813965 C 84.251953125 19.19812965393066 87.56893157958984 24.11771583557129 89.88570404052734 29.59518241882324 C 92.28396606445312 35.26533126831055 93.5 41.28936767578125 93.5 47.49999618530273 C 93.5 53.71062469482422 92.28396606445312 59.73466110229492 89.88570404052734 65.40480804443359 C 87.56893157958984 70.88227844238281 84.251953125 75.80186462402344 80.02690124511719 80.02690124511719 C 75.80186462402344 84.251953125 70.88227844238281 87.56893157958984 65.40480804443359 89.88570404052734 C 59.73466110229492 92.28396606445312 53.71062469482422 93.5 47.49999618530273 93.5 Z" stroke="none"/>
                              <path d="M 47.49999618530273 2.999992370605469 C 41.4912109375 2.999992370605469 35.66376495361328 4.1761474609375 30.17950439453125 6.495796203613281 C 24.88084411621094 8.736953735351562 20.12152099609375 11.94598388671875 16.03375244140625 16.03375244140625 C 11.94598388671875 20.12152099609375 8.736953735351562 24.88084411621094 6.495796203613281 30.17950439453125 C 4.1761474609375 35.66376495361328 2.999992370605469 41.4912109375 2.999992370605469 47.49999618530273 C 2.999992370605469 53.50878143310547 4.1761474609375 59.33622741699219 6.495796203613281 64.82048797607422 C 8.736953735351562 70.11914825439453 11.94598388671875 74.87847137451172 16.03375244140625 78.96623992919922 C 20.12152099609375 83.05400848388672 24.88084411621094 86.26304626464844 30.17950439453125 88.50419616699219 C 35.66376495361328 90.82384490966797 41.4912109375 92 47.49999618530273 92 C 53.50878143310547 92 59.33622741699219 90.82384490966797 64.82048797607422 88.50419616699219 C 70.11914825439453 86.26304626464844 74.87847137451172 83.05400848388672 78.96623992919922 78.96623992919922 C 83.05400848388672 74.87847137451172 86.26304626464844 70.11914825439453 88.50419616699219 64.82048797607422 C 90.82384490966797 59.33622741699219 92 53.50878143310547 92 47.49999618530273 C 92 41.4912109375 90.82384490966797 35.66376495361328 88.50419616699219 30.17950439453125 C 86.26304626464844 24.88084411621094 83.05400848388672 20.12152099609375 78.96623992919922 16.03375244140625 C 74.87847137451172 11.94598388671875 70.11914825439453 8.736953735351562 64.82048797607422 6.495796203613281 C 59.33622741699219 4.1761474609375 53.50878143310547 2.999992370605469 47.49999618530273 2.999992370605469 M 47.49999618530273 -7.62939453125e-06 C 73.7335205078125 -7.62939453125e-06 95 21.26647186279297 95 47.49999618530273 C 95 73.7335205078125 73.7335205078125 95 47.49999618530273 95 C 21.26647186279297 95 -7.62939453125e-06 73.7335205078125 -7.62939453125e-06 47.49999618530273 C -7.62939453125e-06 21.26647186279297 21.26647186279297 -7.62939453125e-06 47.49999618530273 -7.62939453125e-06 Z" stroke="none" fill="#eca675"/>
                            </g>
                          </g>
                        </g>
                      </g>
                    </g>
                  </g>
                </g>
              </g>
            </g>
          </g>
        </g>
      </g>
    </g>
    <g id="Pie_Chart" data-name="Pie Chart" transform="translate(376.347 7078.364)">
      <path id="Trazado_1180762" data-name="Trazado 1180762" d="M66.027,53a6.791,6.791,0,0,1-6.781,6.781H11.781A6.786,6.786,0,0,1,5,53Z" transform="translate(0.13 6.378)" fill="#36464e"/>
      <path id="Trazado_1180763" data-name="Trazado 1180763" d="M65.586,53a6.519,6.519,0,0,1-1.593,2.532A6.718,6.718,0,0,1,59.2,57.521H11.735A6.759,6.759,0,0,1,5.35,53Z" transform="translate(0.176 6.378)" fill="#445861"/>
      <path id="Trazado_1180764" data-name="Trazado 1180764" d="M10.26,23H59.986a2.26,2.26,0,0,1,2.26,2.26V56.9H8V25.26A2.26,2.26,0,0,1,10.26,23Z" transform="translate(0.521 2.474)" fill="#778f9b"/>
      <path id="Trazado_1180765" data-name="Trazado 1180765" d="M11,26H58.466V56.514H11Z" transform="translate(0.911 2.864)" fill="#f2f2f2"/>
      <path id="Trazado_1180766" data-name="Trazado 1180766" d="M40.822,53l-2.26,3.39H27.26L25,53Z" transform="translate(2.733 6.378)" fill="#27313a"/>
      <path id="Trazado_1180767" data-name="Trazado 1180767" d="M42.025,41.163a10.051,10.051,0,0,1-1.661,5.549l-1.639-1.639L36.612,42.96a4.974,4.974,0,0,0,.328-1.8,5.081,5.081,0,0,0-3.82-4.927V31.06a10.175,10.175,0,0,1,8.905,10.1Z" transform="translate(3.789 3.522)" fill="#419e49"/>
      <path id="Trazado_1180768" data-name="Trazado 1180768" d="M30.544,31.28v5.447a4.66,4.66,0,0,0-.814.588H23.65a10.205,10.205,0,0,1,6.894-6.035Z" transform="translate(2.557 3.551)" fill="#fbd63b"/>
      <path id="Trazado_1180769" data-name="Trazado 1180769" d="M39.387,48.047A10.167,10.167,0,0,1,23,40h5.086a5.086,5.086,0,0,0,5.086,5.086,4.923,4.923,0,0,0,2.554-.7Z" transform="translate(2.473 4.686)" fill="#d1302e"/>
      <g id="Grupo_1224574" data-name="Grupo 1224574" transform="translate(15.301 33.385)">
        <path id="Trazado_1180770" data-name="Trazado 1180770" d="M41.13,34.521a1.13,1.13,0,0,1-.8-1.929l2.26-2.26a1.129,1.129,0,0,1,.8-.331h6.781a1.13,1.13,0,1,1,0,2.26H43.858l-1.929,1.929a1.126,1.126,0,0,1-.8.331Z" transform="translate(-10.617 -30)" fill="#b3b3b3"/>
        <path id="Trazado_1180771" data-name="Trazado 1180771" d="M49.651,35.26H45.13a1.13,1.13,0,1,1,0-2.26h4.521a1.13,1.13,0,1,1,0,2.26Z" transform="translate(-10.096 -29.61)" fill="#b3b3b3"/>
        <path id="Trazado_1180772" data-name="Trazado 1180772" d="M24.171,34.521a1.126,1.126,0,0,1-.8-.331L21.443,32.26H15.13a1.13,1.13,0,1,1,0-2.26h6.781a1.13,1.13,0,0,1,.8.331l2.26,2.26a1.13,1.13,0,0,1-.8,1.929Z" transform="translate(-14 -30)" fill="#b3b3b3"/>
        <path id="Trazado_1180773" data-name="Trazado 1180773" d="M46.26,38.26H45.13a1.13,1.13,0,0,1,0-2.26h1.13a1.13,1.13,0,0,1,0,2.26Z" transform="translate(-10.096 -29.219)" fill="#b3b3b3"/>
        <path id="Trazado_1180774" data-name="Trazado 1180774" d="M20.781,35.26H15.13a1.13,1.13,0,1,1,0-2.26h5.651a1.13,1.13,0,1,1,0,2.26Z" transform="translate(-14 -29.61)" fill="#b3b3b3"/>
        <path id="Trazado_1180775" data-name="Trazado 1180775" d="M18.521,38.26H15.13a1.13,1.13,0,0,1,0-2.26h3.39a1.13,1.13,0,1,1,0,2.26Z" transform="translate(-14 -29.219)" fill="#b3b3b3"/>
        <path id="Trazado_1180776" data-name="Trazado 1180776" d="M18.521,47.26H15.13a1.13,1.13,0,1,1,0-2.26h3.39a1.13,1.13,0,1,1,0,2.26Z" transform="translate(-14 -28.048)" fill="#b3b3b3"/>
        <path id="Trazado_1180777" data-name="Trazado 1180777" d="M21.911,50.26H15.13a1.13,1.13,0,0,1,0-2.26h6.781a1.13,1.13,0,0,1,0,2.26Z" transform="translate(-14 -27.658)" fill="#b3b3b3"/>
        <path id="Trazado_1180778" data-name="Trazado 1180778" d="M49.781,47.26H44.13a1.13,1.13,0,0,1,0-2.26h5.651a1.13,1.13,0,1,1,0,2.26Z" transform="translate(-10.226 -28.048)" fill="#b3b3b3"/>
        <path id="Trazado_1180779" data-name="Trazado 1180779" d="M45.26,50.26H44.13a1.13,1.13,0,0,1,0-2.26h1.13a1.13,1.13,0,0,1,0,2.26Z" transform="translate(-10.226 -27.658)" fill="#b3b3b3"/>
      </g>
      <path id="Trazado_1180780" data-name="Trazado 1180780" d="M44.6,16.3a11.3,11.3,0,0,1-9.584,11.166c-.023.011-.034.011-.045,0A10.226,10.226,0,0,1,33.3,27.6,11.3,11.3,0,0,1,33.3,5a10.226,10.226,0,0,1,1.673.136c.011-.011.023-.011.045,0A11.3,11.3,0,0,1,44.6,16.3Z" transform="translate(2.342 0.131)" fill="#1c75ce"/>
      <path id="Trazado_1180781" data-name="Trazado 1180781" d="M44.212,16.287a11.3,11.3,0,0,1-9.584,11.166c-.023.011-.034.011-.045,0a11.3,11.3,0,0,1,0-22.331c.011-.011.023-.011.045,0a11.3,11.3,0,0,1,9.584,11.166Z" transform="translate(2.733 0.146)" fill="#2795f1"/>
      <circle id="Elipse_14767" data-name="Elipse 14767" cx="2.5" cy="2.5" r="2.5" transform="translate(28.653 10.636)" fill="#e1effa"/>
      <ellipse id="Elipse_14768" data-name="Elipse 14768" cx="2.5" cy="2" rx="2.5" ry="2" transform="translate(37.654 17.636)" fill="#e1effa"/>
      <path id="Trazado_1180782" data-name="Trazado 1180782" d="M28.13,22.562a1.13,1.13,0,0,1-.882-1.836l9.041-11.3a1.13,1.13,0,1,1,1.766,1.412l-9.042,11.3a1.127,1.127,0,0,1-.884.424Z" transform="translate(2.993 0.652)" fill="#e1effa"/>
      <path id="Trazado_1180783" data-name="Trazado 1180783" d="M29.443,37.043H25.86a7.9,7.9,0,0,1,4.4-3.673v3.085a4.66,4.66,0,0,0-.814.588Z" transform="translate(2.845 3.823)" fill="#f8be31"/>
      <path id="Trazado_1180784" data-name="Trazado 1180784" d="M35.465,44.385l2.046,2.046a7.812,7.812,0,0,1-4.6,1.48A7.905,7.905,0,0,1,25,40h2.825a5.086,5.086,0,0,0,5.086,5.086,4.923,4.923,0,0,0,2.554-.7Z" transform="translate(2.733 4.686)" fill="#c32a28"/>
      <path id="Trazado_1180785" data-name="Trazado 1180785" d="M39.765,40.9a7.774,7.774,0,0,1-1.04,3.91l-2.113-2.113a4.974,4.974,0,0,0,.328-1.8,5.081,5.081,0,0,0-3.82-4.927V33.1A7.884,7.884,0,0,1,39.765,40.9Z" transform="translate(3.789 3.788)" fill="#2c7c33"/>
      <path id="Trazado_1180786" data-name="Trazado 1180786" d="M11,26h2.26V56.514H11Z" transform="translate(0.911 2.864)" fill="#ccc"/>
      <path id="Trazado_1180787" data-name="Trazado 1180787" d="M66.157,58.247H63.9V27.734a3.394,3.394,0,0,0-3.39-3.39H45.226a12.431,12.431,0,1,0-19.164,0H10.781a3.394,3.394,0,0,0-3.39,3.39V58.247H5.13A1.13,1.13,0,0,0,4,59.378a7.92,7.92,0,0,0,7.911,7.911H59.377a7.92,7.92,0,0,0,7.911-7.911,1.13,1.13,0,0,0-1.13-1.13ZM61.637,27.734V58.247h-1.13V28.864a1.13,1.13,0,0,0-1.13-1.13H40.792a12.416,12.416,0,0,0,1.976-1.13H60.507a1.131,1.131,0,0,1,1.13,1.13Zm-48.6,30.514V29.994H58.246V58.247Zm28.4,2.26-.753,1.13H30.6l-.753-1.13Zm-5.8-54.246A10.171,10.171,0,1,1,25.473,16.433,10.171,10.171,0,0,1,35.644,6.261ZM9.651,27.734a1.132,1.132,0,0,1,1.13-1.13H28.519a12.416,12.416,0,0,0,1.976,1.13H11.911a1.13,1.13,0,0,0-1.13,1.13V58.247H9.651ZM59.377,65.028H11.911a5.66,5.66,0,0,1-5.537-4.521H27.128l1.925,2.887a1.13,1.13,0,0,0,.94.5h11.3a1.13,1.13,0,0,0,.94-.5l1.925-2.887H64.913a5.66,5.66,0,0,1-5.537,4.521Z" transform="translate(0 0)"/>
      <path id="Trazado_1180788" data-name="Trazado 1180788" d="M33.389,30.068A1.131,1.131,0,0,0,32.12,31.19v5.176a1.13,1.13,0,0,0,.849,1.095,3.953,3.953,0,0,1,2.97,3.832,3.832,3.832,0,0,1-.251,1.387,1.128,1.128,0,0,0,.254,1.209L39.7,47.641a1.13,1.13,0,0,0,.8.331c.038,0,.076,0,.115-.006a1.13,1.13,0,0,0,.829-.5,11.178,11.178,0,0,0,1.848-6.171,11.313,11.313,0,0,0-9.9-11.225Zm6.844,14.915-2.208-2.209a6.237,6.237,0,0,0-3.644-7.218V32.562a9.058,9.058,0,0,1,6.645,8.732,8.94,8.94,0,0,1-.792,3.689Z" transform="translate(3.659 3.392)"/>
      <path id="Trazado_1180789" data-name="Trazado 1180789" d="M22.845,38.079a1.13,1.13,0,0,0,.937.5H29.86a1.13,1.13,0,0,0,.755-.289,3.463,3.463,0,0,1,.616-.443,1.129,1.129,0,0,0,.573-.983V31.407a1.13,1.13,0,0,0-1.414-1.094,11.354,11.354,0,0,0-7.655,6.71,1.131,1.131,0,0,0,.111,1.055ZM29.543,33v3.252l-.09.068h-3.81a9.109,9.109,0,0,1,3.9-3.32Z" transform="translate(2.427 3.421)"/>
      <path id="Trazado_1180790" data-name="Trazado 1180790" d="M36.654,43.716a1.13,1.13,0,0,0-1.385-.167,3.788,3.788,0,0,1-1.968.537,3.96,3.96,0,0,1-3.955-3.955A1.13,1.13,0,0,0,28.216,39H23.13A1.13,1.13,0,0,0,22,40.13a11.314,11.314,0,0,0,11.3,11.3,11.166,11.166,0,0,0,6.909-2.362,1.13,1.13,0,0,0,.106-1.692ZM33.3,49.171A9.056,9.056,0,0,1,24.33,41.26h2.858A6.225,6.225,0,0,0,33.3,46.346a6.133,6.133,0,0,0,2.331-.456L37.747,48A8.934,8.934,0,0,1,33.3,49.171Z" transform="translate(2.342 4.556)"/>
      <path id="Trazado_1180791" data-name="Trazado 1180791" d="M50.171,30H43.39a1.129,1.129,0,0,0-.8.331l-2.26,2.26a1.13,1.13,0,1,0,1.6,1.6l1.929-1.929h6.313a1.13,1.13,0,1,0,0-2.26Z" transform="translate(4.685 3.385)"/>
      <path id="Trazado_1180792" data-name="Trazado 1180792" d="M49.651,33H45.13a1.13,1.13,0,1,0,0,2.26h4.521a1.13,1.13,0,1,0,0-2.26Z" transform="translate(5.205 3.775)"/>
      <path id="Trazado_1180793" data-name="Trazado 1180793" d="M15.13,32.26h6.313l1.929,1.929a1.13,1.13,0,1,0,1.6-1.6l-2.26-2.26a1.13,1.13,0,0,0-.8-.331H15.13a1.13,1.13,0,1,0,0,2.26Z" transform="translate(1.301 3.385)"/>
      <path id="Trazado_1180794" data-name="Trazado 1180794" d="M46.26,38.26a1.13,1.13,0,0,0,0-2.26H45.13a1.13,1.13,0,0,0,0,2.26Z" transform="translate(5.205 4.165)"/>
      <path id="Trazado_1180795" data-name="Trazado 1180795" d="M15.13,35.26h5.651a1.13,1.13,0,1,0,0-2.26H15.13a1.13,1.13,0,1,0,0,2.26Z" transform="translate(1.301 3.775)"/>
      <path id="Trazado_1180796" data-name="Trazado 1180796" d="M15.13,38.26h3.39a1.13,1.13,0,1,0,0-2.26H15.13a1.13,1.13,0,0,0,0,2.26Z" transform="translate(1.301 4.165)"/>
      <path id="Trazado_1180797" data-name="Trazado 1180797" d="M15.13,47.26h3.39a1.13,1.13,0,1,0,0-2.26H15.13a1.13,1.13,0,1,0,0,2.26Z" transform="translate(1.301 5.337)"/>
      <path id="Trazado_1180798" data-name="Trazado 1180798" d="M21.911,48H15.13a1.13,1.13,0,0,0,0,2.26h6.781a1.13,1.13,0,0,0,0-2.26Z" transform="translate(1.301 5.727)"/>
      <path id="Trazado_1180799" data-name="Trazado 1180799" d="M49.781,45H44.13a1.13,1.13,0,0,0,0,2.26h5.651a1.13,1.13,0,1,0,0-2.26Z" transform="translate(5.075 5.337)"/>
      <path id="Trazado_1180800" data-name="Trazado 1180800" d="M45.26,48H44.13a1.13,1.13,0,0,0,0,2.26h1.13a1.13,1.13,0,0,0,0-2.26Z" transform="translate(5.075 5.727)"/>
      <path id="Trazado_1180801" data-name="Trazado 1180801" d="M28.39,15.781A3.39,3.39,0,1,0,25,12.39a3.39,3.39,0,0,0,3.39,3.39Zm0-4.521a1.13,1.13,0,1,1-1.13,1.13A1.13,1.13,0,0,1,28.39,11.26Z" transform="translate(2.733 0.652)"/>
      <path id="Trazado_1180802" data-name="Trazado 1180802" d="M33,18.39A3.39,3.39,0,1,0,36.39,15,3.39,3.39,0,0,0,33,18.39Zm4.521,0a1.13,1.13,0,1,1-1.13-1.13,1.13,1.13,0,0,1,1.13,1.13Z" transform="translate(3.774 1.433)"/>
      <path id="Trazado_1180803" data-name="Trazado 1180803" d="M27.424,22.314a1.129,1.129,0,0,0,1.588-.177l9.042-11.3a1.13,1.13,0,1,0-1.766-1.412l-9.041,11.3a1.129,1.129,0,0,0,.177,1.588Z" transform="translate(2.993 0.652)"/>
    </g>
  </g>
</svg>
