<svg xmlns="http://www.w3.org/2000/svg" xmlns:xlink="http://www.w3.org/1999/xlink" width="113" height="113" viewBox="0 0 113 113">
  <defs>
    <filter id="Trazado_982547" x="0" y="0" width="113" height="113" filterUnits="userSpaceOnUse">
      <feOffset dy="3" input="SourceAlpha"/>
      <feGaussianBlur stdDeviation="3" result="blur"/>
      <feFlood flood-opacity="0.161"/>
      <feComposite operator="in" in2="blur"/>
      <feComposite in="SourceGraphic"/>
    </filter>
  </defs>
  <g id="Grupo_1224581" data-name="Grupo 1224581" transform="translate(-5741 -7432.751)">
    <g id="Grupo_1224453" data-name="Grupo 1224453" transform="translate(5750 7438.751)">
      <g id="Grupo_1224085" data-name="Grupo 1224085" transform="translate(0 0)">
        <g id="Grupo_1223184" data-name="Grupo 1223184">
          <g id="Grupo_1211216" data-name="Grupo 1211216">
            <g id="Grupo_1210737" data-name="Grupo 1210737">
              <g id="Grupo_1210537" data-name="Grupo 1210537">
                <g id="Grupo_1164202" data-name="Grupo 1164202">
                  <g id="Grupo_1158168" data-name="Grupo 1158168">
                    <g id="Grupo_1152576" data-name="Grupo 1152576">
                      <g id="Grupo_1148633" data-name="Grupo 1148633">
                        <g id="Grupo_1148525" data-name="Grupo 1148525">
                          <g transform="matrix(1, 0, 0, 1, -9, -6)" filter="url(#Trazado_982547)">
                            <g id="Trazado_982547-2" data-name="Trazado 982547" transform="translate(9 6)" fill="#fcf5f0">
                              <path d="M 47.49999618530273 93.5 C 41.28936767578125 93.5 35.26533126831055 92.28396606445312 29.59518241882324 89.88570404052734 C 24.11771583557129 87.56893157958984 19.19812965393066 84.251953125 14.97308921813965 80.02690124511719 C 10.74803638458252 75.80186462402344 7.431062698364258 70.88227844238281 5.114289283752441 65.40480804443359 C 2.716022968292236 59.73466110229492 1.499996185302734 53.71062469482422 1.499996185302734 47.49999618530273 C 1.499996185302734 41.28936767578125 2.716022968292236 35.26533126831055 5.114289283752441 29.59518241882324 C 7.431062698364258 24.11771583557129 10.74803638458252 19.19812965393066 14.97308921813965 14.97308921813965 C 19.19812965393066 10.74803638458252 24.11771583557129 7.431062698364258 29.59518241882324 5.114289283752441 C 35.26533126831055 2.716022968292236 41.28936767578125 1.499996185302734 47.49999618530273 1.499996185302734 C 53.71062469482422 1.499996185302734 59.73466110229492 2.716022968292236 65.40480804443359 5.114289283752441 C 70.88227844238281 7.431062698364258 75.80186462402344 10.74803638458252 80.02690124511719 14.97308921813965 C 84.251953125 19.19812965393066 87.56893157958984 24.11771583557129 89.88570404052734 29.59518241882324 C 92.28396606445312 35.26533126831055 93.5 41.28936767578125 93.5 47.49999618530273 C 93.5 53.71062469482422 92.28396606445312 59.73466110229492 89.88570404052734 65.40480804443359 C 87.56893157958984 70.88227844238281 84.251953125 75.80186462402344 80.02690124511719 80.02690124511719 C 75.80186462402344 84.251953125 70.88227844238281 87.56893157958984 65.40480804443359 89.88570404052734 C 59.73466110229492 92.28396606445312 53.71062469482422 93.5 47.49999618530273 93.5 Z" stroke="none"/>
                              <path d="M 47.49999618530273 2.999992370605469 C 41.4912109375 2.999992370605469 35.66376495361328 4.1761474609375 30.17950439453125 6.495796203613281 C 24.88084411621094 8.736953735351562 20.12152099609375 11.94598388671875 16.03375244140625 16.03375244140625 C 11.94598388671875 20.12152099609375 8.736953735351562 24.88084411621094 6.495796203613281 30.17950439453125 C 4.1761474609375 35.66376495361328 2.999992370605469 41.4912109375 2.999992370605469 47.49999618530273 C 2.999992370605469 53.50878143310547 4.1761474609375 59.33622741699219 6.495796203613281 64.82048797607422 C 8.736953735351562 70.11914825439453 11.94598388671875 74.87847137451172 16.03375244140625 78.96623992919922 C 20.12152099609375 83.05400848388672 24.88084411621094 86.26304626464844 30.17950439453125 88.50419616699219 C 35.66376495361328 90.82384490966797 41.4912109375 92 47.49999618530273 92 C 53.50878143310547 92 59.33622741699219 90.82384490966797 64.82048797607422 88.50419616699219 C 70.11914825439453 86.26304626464844 74.87847137451172 83.05400848388672 78.96623992919922 78.96623992919922 C 83.05400848388672 74.87847137451172 86.26304626464844 70.11914825439453 88.50419616699219 64.82048797607422 C 90.82384490966797 59.33622741699219 92 53.50878143310547 92 47.49999618530273 C 92 41.4912109375 90.82384490966797 35.66376495361328 88.50419616699219 30.17950439453125 C 86.26304626464844 24.88084411621094 83.05400848388672 20.12152099609375 78.96623992919922 16.03375244140625 C 74.87847137451172 11.94598388671875 70.11914825439453 8.736953735351562 64.82048797607422 6.495796203613281 C 59.33622741699219 4.1761474609375 53.50878143310547 2.999992370605469 47.49999618530273 2.999992370605469 M 47.49999618530273 -7.62939453125e-06 C 73.7335205078125 -7.62939453125e-06 95 21.26647186279297 95 47.49999618530273 C 95 73.7335205078125 73.7335205078125 95 47.49999618530273 95 C 21.26647186279297 95 -7.62939453125e-06 73.7335205078125 -7.62939453125e-06 47.49999618530273 C -7.62939453125e-06 21.26647186279297 21.26647186279297 -7.62939453125e-06 47.49999618530273 -7.62939453125e-06 Z" stroke="none" fill="#eca675"/>
                            </g>
                          </g>
                        </g>
                      </g>
                    </g>
                  </g>
                </g>
              </g>
            </g>
          </g>
        </g>
      </g>
    </g>
    <g id="Layer_x0020_1" transform="translate(5766.131 7453.348)">
      <path id="Trazado_1180838" data-name="Trazado 1180838" d="M16.384,60.546V53.6c-.615.8-1.05,1.593-1.81,1.593a1.063,1.063,0,0,1-.833-.434l-3.258-4.235h-1.3a5.994,5.994,0,0,0-6.009,6.009v4.018H7.516V57.505a1.086,1.086,0,0,1,2.172,0v3.041Zm37.863,2.172a.986.986,0,0,1-.76-.326L46.1,54.971a1.078,1.078,0,0,1,.76-1.846h2.606v-6.3a1.067,1.067,0,0,1,1.086-1.086H57.94a1.089,1.089,0,0,1,1.086,1.086v6.3h2.606a1.086,1.086,0,0,1,.76,1.846l-7.384,7.421A1.042,1.042,0,0,1,54.247,62.718ZM49.469,55.3l4.778,4.778L59.026,55.3c-.76,0-2.172.181-2.172-1.086v-6.3H51.641v6.3C51.641,55.478,50.229,55.3,49.469,55.3ZM39.261,53.849a1.042,1.042,0,0,1-.76-.326L31.479,46.5a1.094,1.094,0,0,1,.8-1.846h2.389V38.718a1.089,1.089,0,0,1,1.086-1.086h7.022a1.067,1.067,0,0,1,1.086,1.086v5.936h2.425a1.083,1.083,0,0,1,.76,1.846l-7.022,7.022A.986.986,0,0,1,39.261,53.849Zm-4.38-7.022,4.38,4.416,4.416-4.416c-.688,0-1.991.145-1.991-1.086V39.8H36.836v5.936C36.836,46.972,35.533,46.827,34.881,46.827Zm7.6-28.85V13.633c0-1.267,1.376-1.086,2.136-1.086,0-1.955,2.172-1.557,2.172-.253v.253c.76,0,2.172-.181,2.172,1.086,0,1.448-1.81,1.086-3.222,1.086H44.619v2.172h3.258a1.089,1.089,0,0,1,1.086,1.086v4.344c0,1.267-1.412,1.086-2.172,1.086,0,1.991-2.172,1.557-2.172.29v-.29c-.76,0-2.136.181-2.136-1.086a1.082,1.082,0,0,1,1.05-1.086h3.258V19.063H43.533A1.059,1.059,0,0,1,42.483,17.977ZM48.818,34.99h-6.19a1.127,1.127,0,0,1-1.086-1.014l-.217-2.606a18.415,18.415,0,0,1-1.955-.8l-2.027,1.665a1.063,1.063,0,0,1-1.448-.072l-4.38-4.344a1.1,1.1,0,0,1-.072-1.448l1.7-2.063a12.618,12.618,0,0,1-.8-1.919l-2.642-.253a1.071,1.071,0,0,1-.977-1.086V14.9a1.125,1.125,0,0,1,.977-1.086l2.642-.253a12.618,12.618,0,0,1,.8-1.919l-1.7-2.027a1.1,1.1,0,0,1,.072-1.448l4.38-4.38a1.063,1.063,0,0,1,1.448-.072l2.027,1.7a13.022,13.022,0,0,1,1.955-.8l.217-2.642A1.125,1.125,0,0,1,42.628,1h6.19a1.063,1.063,0,0,1,1.05.977l.253,2.642a11.255,11.255,0,0,1,1.918.8l2.063-1.7a1.063,1.063,0,0,1,1.448.072l4.38,4.38a1.06,1.06,0,0,1,.036,1.448L58.3,11.642a17.828,17.828,0,0,1,.8,1.919l2.642.253a1.125,1.125,0,0,1,.977,1.086v6.154a1.071,1.071,0,0,1-.977,1.086l-2.642.253a17.829,17.829,0,0,1-.8,1.919l1.665,2.063a1.063,1.063,0,0,1-.036,1.448l-4.38,4.344a1.063,1.063,0,0,1-1.448.072l-2.063-1.665a15.215,15.215,0,0,1-1.918.8l-.253,2.606A1.067,1.067,0,0,1,48.818,34.99Zm-5.176-2.172H47.8c.434-4.67,0-2.28,3.837-4.489a1.032,1.032,0,0,1,1.231.109l1.846,1.52,2.968-2.968c-2.968-3.584-1.629-1.629-.471-5.9a1.081,1.081,0,0,1,.941-.8l2.389-.217v-4.2c-4.633-.434-2.28.036-4.489-3.8a1.091,1.091,0,0,1,.109-1.231L57.686,9,54.718,6.032C51.134,9,53.089,7.66,48.854,6.5a1.036,1.036,0,0,1-.8-.941L47.8,3.172H43.641c-.434,4.633,0,2.28-3.837,4.489a1.091,1.091,0,0,1-1.231-.109l-1.846-1.52L33.759,9c2.968,3.584,1.629,1.629.471,5.864a1.081,1.081,0,0,1-.941.8l-2.389.217v4.2c4.633.434,2.28,0,4.489,3.837a1.1,1.1,0,0,1-.109,1.231l-1.52,1.846,2.968,2.968c3.584-2.968,1.629-1.629,5.864-.471a1.043,1.043,0,0,1,.8.941Zm2.063-4.6A10.226,10.226,0,1,1,55.949,17.977,10.25,10.25,0,0,1,45.7,28.221Zm0-18.28a8.054,8.054,0,1,0,8.072,8.036A8.041,8.041,0,0,0,45.7,9.941ZM16.022,50.591,13.2,47.84l-.869,1.52,2.28,2.968ZM11.9,45.813v-2.1a9.463,9.463,0,0,1-3.837-4.561c-.688-1.412-1.665-3.982-1.158-6.117-.977-1.7-.869-5.321,0-7.891,2.027-6.009,7.493-6.407,12.09-3.909,3.511,1.882,9.52-.471,9.629,4.452.072,2.715,1.629,3.873-.579,7.2,1.231,3.475-1.955,8.036-2.86,9.05a10.907,10.907,0,0,1-2.136,1.774v2.1l1.484,2.534H25.76a8.172,8.172,0,0,1,8.181,8.181v5.1a1.113,1.113,0,0,1-1.086,1.086H2.086A1.089,1.089,0,0,1,1,61.632v-5.1a8.172,8.172,0,0,1,8.181-8.181h1.231Zm2.172-1.05v.869L17.47,49l3.4-3.366v-.869A9.991,9.991,0,0,1,14.068,44.764Zm7.638,3.077-2.787,2.751,1.412,1.738,2.244-2.968ZM18.556,60.546h6.7V57.505a1.086,1.086,0,0,1,2.172,0v3.041h4.344V56.528a6.017,6.017,0,0,0-6.009-6.009H24.42L21.2,54.754a1.07,1.07,0,0,1-1.7,0L18.556,53.6ZM25.9,33.4c-2.063-2.136-8.8.76-11.33-.8a8.189,8.189,0,0,0-3.041-1.376c-.615,0-1.267.579-2.461,2.136-.362,1.05,0,2.86.941,4.887a7.536,7.536,0,0,0,3.4,3.873,8.234,8.234,0,0,0,10.172-1.665C24.637,39.334,26.882,35.461,25.9,33.4Zm-2.86-2.968a7.037,7.037,0,0,1,3.511.724c1.122-1.955-.036-2.606-.109-5.43,0-.724-.036-1.231-3.077-1.412-5.719-.326-4.271-1.195-7.819-2.1-6.045-1.557-7.565,4.67-7.095,8.47,2.353-2.534,4.271-1.774,7.276.072.579.362,2.787.072,3.728-.036A29.881,29.881,0,0,1,23.045,30.429Z" fill-rule="evenodd"/>
      <path id="Trazado_1180839" data-name="Trazado 1180839" d="M224.667,846.9a8.234,8.234,0,0,0,10.172-1.665c1.05-1.122,3.294-5,2.317-7.059-2.063-2.136-8.8.76-11.33-.8A8.19,8.19,0,0,0,222.785,836c-.615,0-1.267.579-2.461,2.136-.362,1.05,0,2.86.941,4.887A7.535,7.535,0,0,0,224.667,846.9Z" transform="translate(-211.251 -804.775)" fill="#ffc06d" fill-rule="evenodd"/>
      <path id="Trazado_1180840" data-name="Trazado 1180840" d="M212.155,589.024c.579.362,2.787.072,3.728-.036a29.873,29.873,0,0,1,3.584-.29,7.037,7.037,0,0,1,3.511.724c1.122-1.955-.036-2.606-.109-5.43,0-.724-.036-1.231-3.077-1.412-5.719-.326-4.271-1.195-7.819-2.1-6.045-1.556-7.565,4.67-7.095,8.47C207.232,586.417,209.151,587.177,212.155,589.024Z" transform="translate(-196.422 -558.269)" fill="#633" fill-rule="evenodd"/>
      <path id="Trazado_1180841" data-name="Trazado 1180841" d="M368.805,1210a9.991,9.991,0,0,1-6.805,0v.869l3.4,3.366,3.4-3.366Z" transform="translate(-347.932 -1165.236)" fill="#ffc06d" fill-rule="evenodd"/>
      <g id="Grupo_1224580" data-name="Grupo 1224580" transform="translate(3.172 47.84)">
        <path id="Trazado_1180842" data-name="Trazado 1180842" d="M317.692,1297.751,314.869,1295l-.869,1.52,2.28,2.968Z" transform="translate(-304.842 -1295)" fill="#1d81ce" fill-rule="evenodd"/>
        <path id="Trazado_1180843" data-name="Trazado 1180843" d="M498.787,1295,496,1297.751l1.412,1.738,2.244-2.968Z" transform="translate(-480.254 -1295)" fill="#1d81ce" fill-rule="evenodd"/>
        <path id="Trazado_1180844" data-name="Trazado 1180844" d="M488.642,1373.235a1.07,1.07,0,0,1-1.7,0l-.941-1.158v6.95h6.7v-3.041a1.086,1.086,0,0,1,2.172,0v3.041h4.344v-4.018A6.017,6.017,0,0,0,493.2,1369h-1.339Z" transform="translate(-470.616 -1366.321)" fill="#1d81ce" fill-rule="evenodd"/>
        <path id="Trazado_1180845" data-name="Trazado 1180845" d="M74.212,1379.027v-6.95c-.615.8-1.05,1.593-1.81,1.593a1.062,1.062,0,0,1-.833-.434L68.312,1369h-1.3A5.994,5.994,0,0,0,61,1375.009v4.018h4.344v-3.041a1.086,1.086,0,0,1,2.172,0v3.041Z" transform="translate(-61 -1366.321)" fill="#1d81ce" fill-rule="evenodd"/>
      </g>
      <path id="Trazado_1180846" data-name="Trazado 1180846" d="M937,1080.022l4.38,4.416,4.416-4.416c-.688,0-1.991.145-1.991-1.086V1073h-4.851v5.936C938.955,1080.167,937.652,1080.022,937,1080.022Z" transform="translate(-902.119 -1033.196)" fill="#ff3e1a" fill-rule="evenodd"/>
      <path id="Trazado_1180847" data-name="Trazado 1180847" d="M1342.172,1297v6.3c0,1.267-1.412,1.086-2.172,1.086l4.778,4.778,4.778-4.778c-.76,0-2.172.181-2.172-1.086V1297Z" transform="translate(-1290.531 -1249.087)" fill="#ff3e1a" fill-rule="evenodd"/>
      <path id="Trazado_1180848" data-name="Trazado 1180848" d="M839.742,90.646H843.9c.434-4.67,0-2.28,3.837-4.489a1.032,1.032,0,0,1,1.231.109l1.846,1.52,2.968-2.968c-2.968-3.584-1.629-1.629-.471-5.9a1.081,1.081,0,0,1,.941-.8l2.389-.217v-4.2c-4.633-.434-2.281.036-4.489-3.8a1.091,1.091,0,0,1,.109-1.231l1.52-1.846-2.968-2.968c-3.584,2.968-1.629,1.629-5.864.471a1.036,1.036,0,0,1-.8-.941L843.9,61h-4.163c-.434,4.633,0,2.28-3.837,4.489a1.091,1.091,0,0,1-1.231-.109l-1.846-1.52-2.968,2.968c2.968,3.584,1.629,1.629.471,5.864a1.081,1.081,0,0,1-.941.8L827,73.706v4.2c4.633.434,2.28,0,4.489,3.837a1.1,1.1,0,0,1-.109,1.231l-1.52,1.846,2.968,2.968c3.584-2.968,1.629-1.629,5.864-.471a1.043,1.043,0,0,1,.8.941Zm2.063-4.6a10.226,10.226,0,1,1,10.244-10.244A10.25,10.25,0,0,1,841.805,86.049Z" transform="translate(-796.1 -57.828)" fill="#ffa721" fill-rule="evenodd"/>
    </g>
  </g>
</svg>
