<svg xmlns="http://www.w3.org/2000/svg" xmlns:xlink="http://www.w3.org/1999/xlink" width="108" height="108" viewBox="0 0 108 108">
  <defs>
    <filter id="Trazado_904820" x="0" y="0" width="108" height="108" filterUnits="userSpaceOnUse">
      <feOffset dy="3" input="SourceAlpha"/>
      <feGaussianBlur stdDeviation="3" result="blur"/>
      <feFlood flood-opacity="0.161"/>
      <feComposite operator="in" in2="blur"/>
      <feComposite in="SourceGraphic"/>
    </filter>
    <clipPath id="clip-path">
      <path id="path6450" d="M0-682.665H56.17v56.17H0Z" transform="translate(0 682.665)"/>
    </clipPath>
  </defs>
  <g id="Grupo_1222170" data-name="Grupo 1222170" transform="translate(9 6)">
    <g id="Grupo_1173585" data-name="Grupo 1173585" transform="translate(0 0)">
      <g id="Grupo_1173428" data-name="Grupo 1173428">
        <g id="Grupo_1171958" data-name="Grupo 1171958">
          <g id="Grupo_1167341" data-name="Grupo 1167341">
            <g id="Grupo_1166792" data-name="Grupo 1166792">
              <g transform="matrix(1, 0, 0, 1, -9, -6)" filter="url(#Trazado_904820)">
                <g id="Trazado_904820-2" data-name="Trazado 904820" transform="translate(9 6)" fill="#fcf5f0">
                  <path d="M 44.99999618530273 88.50003051757812 C 39.12687301635742 88.50003051757812 33.43022155761719 87.35010528564453 28.06829643249512 85.08219146728516 C 22.88852119445801 82.89134216308594 18.23629570007324 79.75461578369141 14.24084663391113 75.75916290283203 C 10.24540901184082 71.76371765136719 7.108683586120605 67.11148834228516 4.917821407318115 61.93171691894531 C 2.649921178817749 56.56978988647461 1.499996185302734 50.87313842773438 1.499996185302734 45.00001525878906 C 1.499996185302734 39.12689208984375 2.649921178817749 33.43024063110352 4.917821407318115 28.06830215454102 C 7.108683586120605 22.88854026794434 10.24540901184082 18.23631477355957 14.24084663391113 14.24086570739746 C 18.23629570007324 10.24541568756104 22.88852119445801 7.108702659606934 28.06829643249512 4.917840480804443 C 33.43022155761719 2.649940252304077 39.12687301635742 1.500015258789062 44.99999618530273 1.500015258789062 C 50.87311935424805 1.500015258789062 56.56977081298828 2.649940252304077 61.93169784545898 4.917840480804443 C 67.11147308349609 7.108702659606934 71.76369476318359 10.24541568756104 75.75914764404297 14.24086570739746 C 79.75458526611328 18.23631477355957 82.89131164550781 22.88854026794434 85.08216857910156 28.06830215454102 C 87.35007476806641 33.43024063110352 88.5 39.12689208984375 88.5 45.00001525878906 C 88.5 50.87313842773438 87.35007476806641 56.56978988647461 85.08216857910156 61.93171691894531 C 82.89131164550781 67.11148834228516 79.75458526611328 71.76371765136719 75.75914764404297 75.75916290283203 C 71.76369476318359 79.75461578369141 67.11147308349609 82.89134216308594 61.93169784545898 85.08219146728516 C 56.56977081298828 87.35010528564453 50.87311935424805 88.50003051757812 44.99999618530273 88.50003051757812 Z" stroke="none"/>
                  <path d="M 44.99999618530273 3 C 39.32870864868164 3 33.82865142822266 4.110061645507812 28.65262603759766 6.299346923828125 C 23.65165710449219 8.414573669433594 19.15968322753906 11.44334411621094 15.301513671875 15.301513671875 C 11.44333648681641 19.15968322753906 8.414566040039062 23.65165710449219 6.299339294433594 28.65262985229492 C 4.110054016113281 33.82867050170898 2.999992370605469 39.32872772216797 2.999992370605469 45.00001525878906 C 2.999992370605469 50.67130279541016 4.110054016113281 56.17134475708008 6.299339294433594 61.34738922119141 C 8.414566040039062 66.34835815429688 11.44333648681641 70.84031677246094 15.301513671875 74.69850158691406 C 19.15968322753906 78.55667114257812 23.65165710449219 81.58544158935547 28.65262603759766 83.70067596435547 C 33.82865142822266 85.88996124267578 39.32870864868164 87.00001525878906 44.99999618530273 87.00001525878906 C 50.67128372192383 87.00001525878906 56.17134094238281 85.88996124267578 61.34736633300781 83.70067596435547 C 66.34834289550781 81.58544158935547 70.84030914306641 78.55667114257812 74.69847869873047 74.69850158691406 C 78.55665588378906 70.84031677246094 81.58542633056641 66.34835815429688 83.70065307617188 61.34738922119141 C 85.88993835449219 56.17134475708008 87 50.67130279541016 87 45.00001525878906 C 87 39.32872772216797 85.88993835449219 33.82867050170898 83.70065307617188 28.65262985229492 C 81.58542633056641 23.65165710449219 78.55665588378906 19.15968322753906 74.69847869873047 15.301513671875 C 70.84030914306641 11.44334411621094 66.34834289550781 8.414573669433594 61.34736633300781 6.299346923828125 C 56.17134094238281 4.110061645507812 50.67128372192383 3 44.99999618530273 3 M 44.99999618530273 0 C 69.85281372070312 0 90 20.14718627929688 90 45.00001525878906 C 90 69.85281372070312 69.85281372070312 90.00001525878906 44.99999618530273 90.00001525878906 C 20.14717864990234 90.00001525878906 -7.62939453125e-06 69.85281372070312 -7.62939453125e-06 45.00001525878906 C -7.62939453125e-06 20.14718627929688 20.14717864990234 0 44.99999618530273 0 Z" stroke="none" fill="#815a3f"/>
                </g>
              </g>
            </g>
          </g>
        </g>
      </g>
    </g>
    <g id="g6444" transform="translate(16.915 699.58)">
      <g id="g6446" transform="translate(0 -682.665)">
        <g id="g6448" clip-path="url(#clip-path)">
          <g id="g6454" transform="translate(1.042 0.823)">
            <path id="path6456" d="M-429.493-193.638v-15.284a2.084,2.084,0,0,0-2.08-2.077h-27.209L-468-202.254v43.7a2.082,2.082,0,0,0,2.077,2.077h34.349a2.085,2.085,0,0,0,2.08-2.077Z" transform="translate(468 210.999)" fill="#e6e6e6" fill-rule="evenodd"/>
          </g>
          <g id="g6458" transform="translate(1.042 0.823)">
            <path id="path6460" d="M-429.459-392.29a0,0,0,0,0,0,0v-33.091a2.085,2.085,0,0,0-2.081-2.077h-4.234c-1.144,0,2.081.934,2.081,2.077v12.031l.022,2.587c-2.9,3.285-3.932,9.249-1.179,13.194.663.949.93,1.555-.551.991-15.535-6.551-17.37,11.706,1.615,16.3-.188.959.076.981-.331,1.055a8.221,8.221,0,0,0-5.126,2.851l-28.723,0v1.364a2.082,2.082,0,0,0,2.077,2.077h34.349a2.085,2.085,0,0,0,2.081-2.077c0-17.231,0-1.883,0-17.272" transform="translate(467.963 427.462)" fill="#ccc" fill-rule="evenodd"/>
          </g>
          <g id="g6462" transform="translate(23.953 32.742)">
            <path id="path6464" d="M-173.918-61.371c-1.045-1.319-1.141-1.791-4.317-3.655s-9.45-2.842-10.9-.363,1.545,6.939,5.636,9.339,7.433,2.667,9.587,1.574V-57.1Z" transform="translate(189.511 66.873)" fill="#62b553" fill-rule="evenodd"/>
          </g>
          <g id="g6466" transform="translate(39.546 32.742)">
            <path id="path6468" d="M-106.787-120.717c4.091-2.4,7.089-6.86,5.633-9.339s-7.723-1.5-10.9.363-3.259,2.336-4.3,3.655l0,4.272v2.622c2.154,1.093,5.48.828,9.571-1.574" transform="translate(116.361 131.54)" fill="#62b553" fill-rule="evenodd"/>
          </g>
          <g id="g6470" transform="translate(39.549 34.251)">
            <path id="path6472" d="M-106.751-103.876c4.075-2.39,7.07-6.831,5.649-9.313a13.466,13.466,0,0,1-5.652,6.13c-3.718,2.183-6.806,2.6-8.953,1.835a5.091,5.091,0,0,1-.615-.265v3.186c2.154,1.093,5.48.828,9.571-1.574" transform="translate(116.322 113.189)" fill="#5aa64c" fill-rule="evenodd"/>
          </g>
          <g id="g6474" transform="translate(23.953 34.251)">
            <path id="path6476" d="M-173.953-92.183v-.564a4.98,4.98,0,0,1-.624.268c-2.154.761-5.251.341-8.966-1.838a13.444,13.444,0,0,1-5.649-6.13c-1.418,2.485,1.574,6.923,5.652,9.313s7.433,2.667,9.587,1.574Z" transform="translate(189.55 100.448)" fill="#5aa64c" fill-rule="evenodd"/>
          </g>
          <g id="g6478" transform="translate(39.546 32.742)">
            <path id="path6480" d="M-.034-138.272c2.154,1.093,5.48.828,9.571-1.574s7.089-6.86,5.633-9.339-7.723-1.5-10.9.363-3.259,2.336-4.3,3.655" transform="translate(0.037 150.669)" fill="none" stroke="#000" stroke-linecap="round" stroke-linejoin="round" stroke-miterlimit="10" stroke-width="1.5"/>
          </g>
          <g id="g6482" transform="translate(23.953 32.742)">
            <path id="path6484" d="M-173.953-138.272c-2.154,1.093-5.5.828-9.587-1.574s-7.092-6.86-5.636-9.339,7.723-1.5,10.9.363,3.272,2.336,4.317,3.655" transform="translate(189.55 150.669)" fill="none" stroke="#000" stroke-linecap="round" stroke-linejoin="round" stroke-miterlimit="10" stroke-width="1.5"/>
          </g>
          <g id="g6486" transform="translate(32.897 39.266)">
            <path id="path6488" d="M-74.094-36.321l-6.643-3.256" transform="translate(80.737 39.577)" fill="none" stroke="#000" stroke-linecap="round" stroke-linejoin="round" stroke-miterlimit="10" stroke-width="1.5"/>
          </g>
          <g id="g6490" transform="translate(39.54 39.266)">
            <path id="path6492" d="M0-36.321l6.643-3.256" transform="translate(0 39.577)" fill="none" stroke="#000" stroke-linecap="round" stroke-linejoin="round" stroke-miterlimit="10" stroke-width="1.5"/>
          </g>
          <g id="g6494" transform="translate(35.012 17.563)">
            <path id="path6496" d="M-101.173-84.65c0-4.193-2.03-7.59-4.534-7.59s-4.537,3.4-4.537,7.59,2.033,7.589,4.537,7.589,4.534-3.4,4.534-7.589" transform="translate(110.244 92.24)" fill="#62b553" fill-rule="evenodd"/>
          </g>
          <g id="g6498" transform="translate(38.144 17.563)">
            <path id="path6500" d="M-66.241-84.65c0-4.193-2.03-7.59-4.534-7.59a2.941,2.941,0,0,0-1.405.369c1.816.991,3.132,3.849,3.132,7.22a10.078,10.078,0,0,1-1.727,5.958,4.477,4.477,0,0,1-1.405,1.259,2.906,2.906,0,0,0,1.405.373c2.5,0,4.534-3.4,4.534-7.589" transform="translate(72.18 92.24)" fill="#5aa64c" fill-rule="evenodd"/>
          </g>
          <g id="g6502" transform="translate(35.012 17.563)">
            <path id="path6504" d="M-50.6,0c2.5,0,4.534,3.4,4.534,7.59s-2.03,7.589-4.534,7.589-4.537-3.4-4.537-7.589S-53.107,0-50.6,0Z" transform="translate(55.14)" fill="none" stroke="#000" stroke-linecap="round" stroke-linejoin="round" stroke-miterlimit="10" stroke-width="1.5"/>
          </g>
          <g id="g6506" transform="translate(1.042 0.823)">
            <path id="path6508" d="M-102.808-74.342v-6.665l-9.217,8.746h7.137a2.087,2.087,0,0,0,2.081-2.081" transform="translate(112.025 81.008)" fill="#ccc" fill-rule="evenodd"/>
          </g>
          <g id="g6510" transform="translate(30.305 50.679)">
            <path id="path6512" d="M-177.133-17.023a14.413,14.413,0,0,0-6.637-1.526,14.058,14.058,0,0,0-7.252,1.873c-.051.032-.1.064-.15.092a8.708,8.708,0,0,0-1.443,1.115c-.832.816-.2,1.59.414,1.587l1.488,0h13.885l1.485,0c.618,0,1.246-.771.414-1.587a8.38,8.38,0,0,0-1.274-1.007c-.105-.067-.21-.134-.319-.2-.2-.121-.4-.236-.612-.347M-191.171-16.583Z" transform="translate(193.015 18.549)" fill="#a8652d" fill-rule="evenodd"/>
          </g>
          <g id="g6514" transform="translate(37.813 50.679)">
            <path id="path6516" d="M-19.368,0A16.632,16.632,0,0,0-21.1.092,12.376,12.376,0,0,1-14,3.081c.8.787.245,1.536-.35,1.584l3.406,0c.618,0,1.246-.771.414-1.587A8.384,8.384,0,0,0-11.8,2.074c-.105-.067-.21-.134-.319-.2A14.045,14.045,0,0,0-19.368,0" transform="translate(21.104)" fill="#914f18" fill-rule="evenodd"/>
          </g>
          <g id="g6518" transform="translate(30.305 50.679)">
            <path id="path6520" d="M-62.313-4.726a15.8,15.8,0,0,1,3.658-.424,14.046,14.046,0,0,1,7.248,1.873,8.778,8.778,0,0,1,1.593,1.207c.832.816.2,1.59-.414,1.587l-1.485,0H-65.6l-1.488,0c-.618,0-1.246-.771-.414-1.587a8.889,8.889,0,0,1,1.593-1.207" transform="translate(67.9 5.149)" fill="none" stroke="#000" stroke-linecap="round" stroke-linejoin="round" stroke-miterlimit="10" stroke-width="1.5"/>
          </g>
          <g id="g6522" transform="translate(1.042 0.823)">
            <path id="path6524" d="M0-97.548H7.137a2.087,2.087,0,0,0,2.081-2.081v-6.665" transform="translate(0 106.294)" fill="none" stroke="#000" stroke-linecap="round" stroke-linejoin="round" stroke-miterlimit="10" stroke-width="1.5"/>
          </g>
          <g id="g6526" transform="translate(39.549 12.344)">
            <path id="path6528" d="M-.034,0l0,5.219" transform="translate(0.037)" fill="none" stroke="#000" stroke-linecap="round" stroke-linejoin="round" stroke-miterlimit="10" stroke-width="1.5"/>
          </g>
          <g id="g6530" transform="translate(16.074 14.944)">
            <path id="path6532" d="M0-.073,12.289-.08" transform="translate(0 0.08)" fill="none" stroke="#000" stroke-linecap="round" stroke-linejoin="round" stroke-miterlimit="10" stroke-width="1.5"/>
          </g>
          <g id="g6534" transform="translate(9.351 14.95)">
            <path id="path6536" d="M0-.033l2.922,0" transform="translate(0 0.036)" fill="none" stroke="#000" stroke-linecap="round" stroke-linejoin="round" stroke-miterlimit="10" stroke-width="1.5"/>
          </g>
          <g id="g6538" transform="translate(16.074 19.439)">
            <path id="path6540" d="M0-.073,12.289-.08" transform="translate(0 0.08)" fill="none" stroke="#000" stroke-linecap="round" stroke-linejoin="round" stroke-miterlimit="10" stroke-width="1.5"/>
          </g>
          <g id="g6542" transform="translate(9.351 19.446)">
            <path id="path6544" d="M0-.034l2.922,0" transform="translate(0 0.037)" fill="none" stroke="#000" stroke-linecap="round" stroke-linejoin="round" stroke-miterlimit="10" stroke-width="1.5"/>
          </g>
          <g id="g6546" transform="translate(9.351 24.496)">
            <path id="path6548" d="M0-.106l19.011-.01" transform="translate(0 0.116)" fill="none" stroke="#000" stroke-linecap="round" stroke-linejoin="round" stroke-miterlimit="10" stroke-width="1.5"/>
          </g>
          <g id="g6550" transform="translate(9.351 28.994)">
            <path id="path6552" d="M0-.072,10.2-.079" transform="translate(0 0.079)" fill="none" stroke="#000" stroke-linecap="round" stroke-linejoin="round" stroke-miterlimit="10" stroke-width="1.5"/>
          </g>
          <g id="g6554" transform="translate(9.351 34.889)">
            <path id="path6556" d="M-86.852-134.331V-145.25a1.129,1.129,0,0,0-1.125-1.125h-5.541a1.126,1.126,0,0,0-1.122,1.125v10.919a1.123,1.123,0,0,0,1.122,1.121h5.541a1.126,1.126,0,0,0,1.125-1.121" transform="translate(94.638 146.374)" fill="#ffd970" fill-rule="evenodd"/>
          </g>
          <g id="g6558" transform="translate(14.089 34.889)">
            <path id="path6560" d="M-34.008-134.331V-145.25a1.129,1.129,0,0,0-1.125-1.125h-1.924a1.127,1.127,0,0,1,1.125,1.125v10.919a1.124,1.124,0,0,1-1.125,1.121h1.924a1.126,1.126,0,0,0,1.125-1.121" transform="translate(37.057 146.374)" fill="#edc351" fill-rule="evenodd"/>
          </g>
          <g id="g6562" transform="translate(9.351 34.889)">
            <path id="path6564" d="M-12.51,0H-6.97A1.129,1.129,0,0,1-5.845,1.125V12.044A1.126,1.126,0,0,1-6.97,13.165H-12.51a1.123,1.123,0,0,1-1.122-1.121V1.125A1.126,1.126,0,0,1-12.51,0Z" transform="translate(13.632)" fill="none" stroke="#000" stroke-linecap="round" stroke-linejoin="round" stroke-miterlimit="10" stroke-width="1.5"/>
          </g>
          <g id="g6566" transform="translate(1.042 0.823)">
            <path id="path6568" d="M-334.719-608.105h-27.933a2.082,2.082,0,0,1-2.077-2.077v-43.7l9.217-8.746H-328.3a2.084,2.084,0,0,1,2.08,2.077l0,5.553m0,19.932v22.293" transform="translate(364.728 662.626)" fill="none" stroke="#000" stroke-linecap="round" stroke-linejoin="round" stroke-miterlimit="10" stroke-width="1.5"/>
          </g>
        </g>
      </g>
    </g>
  </g>
</svg>
