<svg xmlns="http://www.w3.org/2000/svg" xmlns:xlink="http://www.w3.org/1999/xlink" width="108" height="108" viewBox="0 0 108 108">
  <defs>
    <filter id="Trazado_904820" x="0" y="0" width="108" height="108" filterUnits="userSpaceOnUse">
      <feOffset dy="3" input="SourceAlpha"/>
      <feGaussianBlur stdDeviation="3" result="blur"/>
      <feFlood flood-opacity="0.161"/>
      <feComposite operator="in" in2="blur"/>
      <feComposite in="SourceGraphic"/>
    </filter>
  </defs>
  <g id="Grupo_1224447" data-name="Grupo 1224447" transform="translate(9 6)">
    <g id="Grupo_1173585" data-name="Grupo 1173585" transform="translate(0 0)">
      <g id="Grupo_1173428" data-name="Grupo 1173428">
        <g id="Grupo_1171958" data-name="Grupo 1171958">
          <g id="Grupo_1167341" data-name="Grupo 1167341">
            <g id="Grupo_1166792" data-name="Grupo 1166792">
              <g transform="matrix(1, 0, 0, 1, -9, -6)" filter="url(#Trazado_904820)">
                <g id="Trazado_904820-2" data-name="Trazado 904820" transform="translate(9 6)" fill="#e7f2f8">
                  <path d="M 44.99999618530273 88.50002288818359 C 39.12687301635742 88.50002288818359 33.43022155761719 87.35009765625 28.06829643249512 85.08218383789062 C 22.88852119445801 82.89133453369141 18.23629570007324 79.75460815429688 14.24084663391113 75.7591552734375 C 10.24540901184082 71.76371002197266 7.108683586120605 67.11148071289062 4.917821407318115 61.93170928955078 C 2.649921178817749 56.56978225708008 1.499996185302734 50.87313079833984 1.499996185302734 45.00000762939453 C 1.499996185302734 39.12688446044922 2.649921178817749 33.43023300170898 4.917821407318115 28.06830787658691 C 7.108683586120605 22.8885326385498 10.24540901184082 18.23630714416504 14.24084663391113 14.24085807800293 C 18.23629570007324 10.24542045593262 22.88852119445801 7.108695030212402 28.06829643249512 4.917832851409912 C 33.43022155761719 2.649932622909546 39.12687301635742 1.500007629394531 44.99999618530273 1.500007629394531 C 50.87311935424805 1.500007629394531 56.56977081298828 2.649932622909546 61.93169784545898 4.917832851409912 C 67.11147308349609 7.108695030212402 71.76369476318359 10.24542045593262 75.75914764404297 14.24085807800293 C 79.75458526611328 18.23630714416504 82.89131164550781 22.8885326385498 85.08216857910156 28.06830787658691 C 87.35007476806641 33.43023300170898 88.5 39.12688446044922 88.5 45.00000762939453 C 88.5 50.87313079833984 87.35007476806641 56.56978225708008 85.08216857910156 61.93170928955078 C 82.89131164550781 67.11148071289062 79.75458526611328 71.76371002197266 75.75914764404297 75.7591552734375 C 71.76369476318359 79.75460815429688 67.11147308349609 82.89133453369141 61.93169784545898 85.08218383789062 C 56.56977081298828 87.35009765625 50.87311935424805 88.50002288818359 44.99999618530273 88.50002288818359 Z" stroke="none"/>
                  <path d="M 44.99999618530273 2.999992370605469 C 39.32870864868164 2.999992370605469 33.82865142822266 4.110054016113281 28.65262603759766 6.299339294433594 C 23.65165710449219 8.414566040039062 19.15968322753906 11.44333648681641 15.301513671875 15.30150604248047 C 11.44333648681641 19.15967559814453 8.414566040039062 23.65164947509766 6.299339294433594 28.65262222290039 C 4.110054016113281 33.82866287231445 2.999992370605469 39.32872009277344 2.999992370605469 45.00000762939453 C 2.999992370605469 50.67129516601562 4.110054016113281 56.17133712768555 6.299339294433594 61.34738159179688 C 8.414566040039062 66.34835052490234 11.44333648681641 70.84030914306641 15.301513671875 74.69849395751953 C 19.15968322753906 78.55666351318359 23.65165710449219 81.58543395996094 28.65262603759766 83.70066833496094 C 33.82865142822266 85.88995361328125 39.32870864868164 87.00000762939453 44.99999618530273 87.00000762939453 C 50.67128372192383 87.00000762939453 56.17134094238281 85.88995361328125 61.34736633300781 83.70066833496094 C 66.34834289550781 81.58543395996094 70.84030914306641 78.55666351318359 74.69847869873047 74.69849395751953 C 78.55665588378906 70.84030914306641 81.58542633056641 66.34835052490234 83.70065307617188 61.34738159179688 C 85.88993835449219 56.17133712768555 87 50.67129516601562 87 45.00000762939453 C 87 39.32872009277344 85.88993835449219 33.82866287231445 83.70065307617188 28.65262222290039 C 81.58542633056641 23.65164947509766 78.55665588378906 19.15967559814453 74.69847869873047 15.30150604248047 C 70.84030914306641 11.44333648681641 66.34834289550781 8.414566040039062 61.34736633300781 6.299339294433594 C 56.17134094238281 4.110054016113281 50.67128372192383 2.999992370605469 44.99999618530273 2.999992370605469 M 44.99999618530273 -7.62939453125e-06 C 69.85281372070312 -7.62939453125e-06 90 20.14717864990234 90 45.00000762939453 C 90 69.85280609130859 69.85281372070312 90.00000762939453 44.99999618530273 90.00000762939453 C 20.14717864990234 90.00000762939453 -7.62939453125e-06 69.85280609130859 -7.62939453125e-06 45.00000762939453 C -7.62939453125e-06 20.14717864990234 20.14717864990234 -7.62939453125e-06 44.99999618530273 -7.62939453125e-06 Z" stroke="none" fill="#248abf"/>
                </g>
              </g>
            </g>
          </g>
        </g>
      </g>
    </g>
    <g id="presentation_901415" transform="translate(-12.424 9.772)">
      <rect id="Rectángulo_422090" data-name="Rectángulo 422090" width="54.103" height="31.56" transform="translate(30.311 18.034)" fill="#ebe5dd"/>
      <rect id="Rectángulo_422091" data-name="Rectángulo 422091" width="2.254" height="18.034" transform="translate(56.236 49.595)" fill="#d4c8b8"/>
      <g id="Grupo_1224571" data-name="Grupo 1224571" transform="translate(40.816 1.127)">
        <path id="Trazado_1180751" data-name="Trazado 1180751" d="M157.044,384.6l-15.013-13.941L127.018,384.6l-1.534-1.651,15.78-14.653a1.125,1.125,0,0,1,1.534,0l15.78,14.653Z" transform="translate(-125.484 -317.274)" fill="#ebe5dd"/>
        <path id="Trazado_1180752" data-name="Trazado 1180752" d="M179.816,21.2,169.342,10.721,158.867,21.2,157.273,19.6,168.545,8.33a1.127,1.127,0,0,1,1.594,0L181.41,19.6Z" transform="translate(-152.794 -8)" fill="#ebe5dd"/>
      </g>
      <rect id="Rectángulo_422092" data-name="Rectángulo 422092" width="2.254" height="13.526" transform="translate(56.236)" fill="#d4c8b8"/>
      <path id="Trazado_1180753" data-name="Trazado 1180753" d="M254.2,171.272A11.272,11.272,0,0,0,242.93,160v11.272Z" transform="translate(-185.567 -137.457)" fill="#69c229"/>
      <path id="Trazado_1180754" data-name="Trazado 1180754" d="M174.2,160a11.272,11.272,0,1,0,0,22.543V160Z" transform="translate(-116.838 -137.457)" fill="#5aaae7"/>
      <g id="Grupo_1224572" data-name="Grupo 1224572" transform="translate(41.583 24.797)">
        <path id="Trazado_1180755" data-name="Trazado 1180755" d="M295.339,182.516l-1.409-1.761,5.636-4.509a1.129,1.129,0,0,1,.7-.247h4.509v2.254h-4.113Z" transform="translate(-270.964 -176)" fill="#f40e34"/>
        <path id="Trazado_1180756" data-name="Trazado 1180756" d="M305.342,267.03h-4.509a1.126,1.126,0,0,1-.8-.33l-6.763-6.763,1.594-1.594,6.433,6.433h4.042Z" transform="translate(-270.401 -246.741)" fill="#f40e34"/>
        <rect id="Rectángulo_422093" data-name="Rectángulo 422093" width="10.144" height="2.254" transform="translate(0 7.89)" fill="#f40e34"/>
      </g>
      <rect id="Rectángulo_422094" data-name="Rectángulo 422094" width="6.763" height="14.653" transform="translate(34.82 29.306)" fill="#5aaae7"/>
      <rect id="Rectángulo_422095" data-name="Rectángulo 422095" width="6.763" height="5.636" transform="translate(34.82 23.67)" fill="#ffd422"/>
      <rect id="Rectángulo_422096" data-name="Rectángulo 422096" width="4.509" height="7.89" transform="translate(75.398 22.543)" fill="#69c229"/>
      <rect id="Rectángulo_422097" data-name="Rectángulo 422097" width="4.509" height="10.144" transform="translate(75.398 34.942)" fill="#f40e34"/>
      <path id="Trazado_1180757" data-name="Trazado 1180757" d="M242.93,251.272a11.236,11.236,0,0,0,7.97-3.3L242.93,240Z" transform="translate(-185.567 -206.185)" fill="#ffd422"/>
      <path id="Trazado_1180758" data-name="Trazado 1180758" d="M242.93,240l7.97,7.97a11.236,11.236,0,0,0,3.3-7.97Z" transform="translate(-185.567 -206.185)" fill="#f40e34"/>
      <rect id="Rectángulo_422098" data-name="Rectángulo 422098" width="58.612" height="4.509" transform="translate(28.057 13.526)" fill="#5aaae7"/>
      <rect id="Rectángulo_422099" data-name="Rectángulo 422099" width="54.103" height="2.254" transform="translate(30.311 18.034)" fill="#d4c8b8"/>
      <g id="Grupo_1224573" data-name="Grupo 1224573" transform="translate(32.566 15.78)">
        <rect id="Rectángulo_422100" data-name="Rectángulo 422100" width="2.254" height="2.254" fill="#fff"/>
        <rect id="Rectángulo_422101" data-name="Rectángulo 422101" width="7.89" height="2.254" transform="translate(4.509)" fill="#fff"/>
        <rect id="Rectángulo_422102" data-name="Rectángulo 422102" width="2.254" height="2.254" transform="translate(4.509 12.399)" fill="#fff"/>
        <rect id="Rectángulo_422103" data-name="Rectángulo 422103" width="2.254" height="9.017" transform="translate(4.509 16.907)" fill="#fff"/>
        <path id="Trazado_1180759" data-name="Trazado 1180759" d="M189.184,181.636H186.93A5.642,5.642,0,0,1,192.566,176v2.254A3.385,3.385,0,0,0,189.184,181.636Z" transform="translate(-170.023 -166.983)" fill="#fff"/>
        <rect id="Rectángulo_422104" data-name="Rectángulo 422104" width="2.254" height="2.254" transform="translate(24.797 9.017)" fill="#fff"/>
      </g>
      <path id="Trazado_1180760" data-name="Trazado 1180760" d="M86.669,12.4H69.1L58.49,1.788V0H56.236V1.788L45.625,12.4H28.057a1.126,1.126,0,0,0-1.127,1.127v4.509a1.126,1.126,0,0,0,1.127,1.127h1.127V49.595a1.126,1.126,0,0,0,1.127,1.127H56.236v1.763L40.816,66.8l1.534,1.651L56.236,55.561V67.629H58.49V55.561L72.376,68.455,73.911,66.8,58.49,52.485V50.722H84.415a1.126,1.126,0,0,0,1.127-1.127V19.162h1.127A1.126,1.126,0,0,0,87.8,18.034V13.526A1.126,1.126,0,0,0,86.669,12.4ZM58.49,4.975,65.914,12.4H58.49Zm-2.254,0V12.4H48.813ZM83.288,48.468H31.439V19.162H83.288Zm2.254-31.56H29.184V14.653H85.542Z"/>
      <path id="Trazado_1180761" data-name="Trazado 1180761" d="M76.057,175.67H82.82a1.126,1.126,0,0,0,1.127-1.127v-9.017h2.311a12.382,12.382,0,0,0,22.433,6.05l3.764,3.764a1.126,1.126,0,0,0,.8.33h2.254a1.126,1.126,0,0,0,1.127,1.127h4.509a1.126,1.126,0,0,0,1.127-1.127V165.526a1.126,1.126,0,0,0-1.127-1.127h-4.509a1.126,1.126,0,0,0-1.127,1.127v7.89H113.72l-3.859-3.859a12.31,12.31,0,0,0,.179-9.935l2.482-1.986h2.986v3.381a1.126,1.126,0,0,0,1.127,1.127h4.509a1.126,1.126,0,0,0,1.127-1.127v-7.89A1.126,1.126,0,0,0,121.143,152h-4.509a1.126,1.126,0,0,0-1.127,1.127v2.254h-3.381a1.129,1.129,0,0,0-.7.247l-2.465,1.972a12.387,12.387,0,0,0-22.7,5.672H83.947v-9.017a1.126,1.126,0,0,0-1.127-1.127H76.057a1.126,1.126,0,0,0-1.127,1.127v20.289A1.126,1.126,0,0,0,76.057,175.67Zm41.7-2.254v-6.763h2.254v7.89h-2.254Zm0-19.162h2.254v5.636h-2.254Zm-9.627,13.576-.847-.847-1.594,1.594,1.382,1.382q-.261.4-.557.764l-5.2-5.2h7.357A10.045,10.045,0,0,1,108.134,167.83Zm-8.407-13.509a10.146,10.146,0,0,1,7.457,4.7l-1.4,1.119,1.409,1.761.99-.793a10.042,10.042,0,0,1,.493,2.166H99.727Zm0,12.8,5.2,5.2a10.089,10.089,0,0,1-5.2,2.159Zm-11.205-3.848a10.158,10.158,0,0,1,8.951-8.951v20.156a10.158,10.158,0,0,1-8.951-8.951h4.442v-2.254Zm-11.338-7.89h4.509v3.381H77.184Zm0,5.636h4.509v12.4H77.184Z" transform="translate(-41.237 -130.584)"/>
    </g>
  </g>
</svg>
