<svg xmlns="http://www.w3.org/2000/svg" xmlns:xlink="http://www.w3.org/1999/xlink" width="108" height="108" viewBox="0 0 108 108">
  <defs>
    <filter id="Trazado_904820" x="0" y="0" width="108" height="108" filterUnits="userSpaceOnUse">
      <feOffset dy="3" input="SourceAlpha"/>
      <feGaussianBlur stdDeviation="3" result="blur"/>
      <feFlood flood-opacity="0.161"/>
      <feComposite operator="in" in2="blur"/>
      <feComposite in="SourceGraphic"/>
    </filter>
  </defs>
  <g id="Grupo_1222170" data-name="Grupo 1222170" transform="translate(9 6)">
    <g id="Grupo_1173585" data-name="Grupo 1173585" transform="translate(0 0)">
      <g id="Grupo_1173428" data-name="Grupo 1173428">
        <g id="Grupo_1171958" data-name="Grupo 1171958">
          <g id="Grupo_1167341" data-name="Grupo 1167341">
            <g id="Grupo_1166792" data-name="Grupo 1166792">
              <g transform="matrix(1, 0, 0, 1, -9, -6)" filter="url(#Trazado_904820)">
                <g id="Trazado_904820-2" data-name="Trazado 904820" transform="translate(9 6)" fill="#e7f2f8">
                  <path d="M 44.99999618530273 88.50002288818359 C 39.12687301635742 88.50002288818359 33.43022155761719 87.35009765625 28.06829643249512 85.08218383789062 C 22.88852119445801 82.89133453369141 18.23629570007324 79.75460815429688 14.24084663391113 75.7591552734375 C 10.24540901184082 71.76371002197266 7.108683586120605 67.11148071289062 4.917821407318115 61.93170928955078 C 2.649921178817749 56.56978225708008 1.499996185302734 50.87313079833984 1.499996185302734 45.00000762939453 C 1.499996185302734 39.12688446044922 2.649921178817749 33.43023300170898 4.917821407318115 28.06830787658691 C 7.108683586120605 22.8885326385498 10.24540901184082 18.23630714416504 14.24084663391113 14.24085807800293 C 18.23629570007324 10.24542045593262 22.88852119445801 7.108695030212402 28.06829643249512 4.917832851409912 C 33.43022155761719 2.649932622909546 39.12687301635742 1.500007629394531 44.99999618530273 1.500007629394531 C 50.87311935424805 1.500007629394531 56.56977081298828 2.649932622909546 61.93169784545898 4.917832851409912 C 67.11147308349609 7.108695030212402 71.76369476318359 10.24542045593262 75.75914764404297 14.24085807800293 C 79.75458526611328 18.23630714416504 82.89131164550781 22.8885326385498 85.08216857910156 28.06830787658691 C 87.35007476806641 33.43023300170898 88.5 39.12688446044922 88.5 45.00000762939453 C 88.5 50.87313079833984 87.35007476806641 56.56978225708008 85.08216857910156 61.93170928955078 C 82.89131164550781 67.11148071289062 79.75458526611328 71.76371002197266 75.75914764404297 75.7591552734375 C 71.76369476318359 79.75460815429688 67.11147308349609 82.89133453369141 61.93169784545898 85.08218383789062 C 56.56977081298828 87.35009765625 50.87311935424805 88.50002288818359 44.99999618530273 88.50002288818359 Z" stroke="none"/>
                  <path d="M 44.99999618530273 2.999992370605469 C 39.32870864868164 2.999992370605469 33.82865142822266 4.110054016113281 28.65262603759766 6.299339294433594 C 23.65165710449219 8.414566040039062 19.15968322753906 11.44333648681641 15.301513671875 15.30150604248047 C 11.44333648681641 19.15967559814453 8.414566040039062 23.65164947509766 6.299339294433594 28.65262222290039 C 4.110054016113281 33.82866287231445 2.999992370605469 39.32872009277344 2.999992370605469 45.00000762939453 C 2.999992370605469 50.67129516601562 4.110054016113281 56.17133712768555 6.299339294433594 61.34738159179688 C 8.414566040039062 66.34835052490234 11.44333648681641 70.84030914306641 15.301513671875 74.69849395751953 C 19.15968322753906 78.55666351318359 23.65165710449219 81.58543395996094 28.65262603759766 83.70066833496094 C 33.82865142822266 85.88995361328125 39.32870864868164 87.00000762939453 44.99999618530273 87.00000762939453 C 50.67128372192383 87.00000762939453 56.17134094238281 85.88995361328125 61.34736633300781 83.70066833496094 C 66.34834289550781 81.58543395996094 70.84030914306641 78.55666351318359 74.69847869873047 74.69849395751953 C 78.55665588378906 70.84030914306641 81.58542633056641 66.34835052490234 83.70065307617188 61.34738159179688 C 85.88993835449219 56.17133712768555 87 50.67129516601562 87 45.00000762939453 C 87 39.32872009277344 85.88993835449219 33.82866287231445 83.70065307617188 28.65262222290039 C 81.58542633056641 23.65164947509766 78.55665588378906 19.15967559814453 74.69847869873047 15.30150604248047 C 70.84030914306641 11.44333648681641 66.34834289550781 8.414566040039062 61.34736633300781 6.299339294433594 C 56.17134094238281 4.110054016113281 50.67128372192383 2.999992370605469 44.99999618530273 2.999992370605469 M 44.99999618530273 -7.62939453125e-06 C 69.85281372070312 -7.62939453125e-06 90 20.14717864990234 90 45.00000762939453 C 90 69.85280609130859 69.85281372070312 90.00000762939453 44.99999618530273 90.00000762939453 C 20.14717864990234 90.00000762939453 -7.62939453125e-06 69.85280609130859 -7.62939453125e-06 45.00000762939453 C -7.62939453125e-06 20.14717864990234 20.14717864990234 -7.62939453125e-06 44.99999618530273 -7.62939453125e-06 Z" stroke="none" fill="#248abf"/>
                </g>
              </g>
            </g>
          </g>
        </g>
      </g>
    </g>
    <g id="sustainability_18241636" transform="translate(-24.525 -17.781)">
      <g id="Grupo_1224461" data-name="Grupo 1224461" transform="translate(39.48 38.836)">
        <path id="Trazado_1180420" data-name="Trazado 1180420" d="M94.48,297.492l5.669,12.884,6.329-4.268a4.269,4.269,0,0,1,3.768-.551l8.818,2.77a6.325,6.325,0,0,0,6.6-1.933l14.78-15.985c1.808-1.957-.935-4.953-3-3.241l-11.938,9.909-.7-1.352a3.433,3.433,0,0,0-1.736-1.643l-10.073-4.486a9.454,9.454,0,0,0-9.961,1.123Z" transform="translate(-87.517 -259.185)" fill="#ffcebf" fill-rule="evenodd"/>
        <path id="Trazado_1180421" data-name="Trazado 1180421" d="M122.94,309.267l1.562,3.551,6.257-4.216a4.252,4.252,0,0,1,3.768-.547l8.818,2.765a6.318,6.318,0,0,0,6.6-1.933l14.78-15.981a2.182,2.182,0,0,0-.305-3.237l-14.475,15.651a6.33,6.33,0,0,1-6.6,1.936l-8.818-2.77a4.7,4.7,0,0,0-3.768.551Z" transform="translate(-111.934 -261.77)" fill="#ffb09e" fill-rule="evenodd"/>
        <path id="Trazado_1180422" data-name="Trazado 1180422" d="M46,342.324l4.606-2.662a1.1,1.1,0,0,1,1.486.4l9.289,16.093a1.092,1.092,0,0,1-.4,1.486L56.376,360.3a1.09,1.09,0,0,1-1.486-.4L45.6,343.809A1.088,1.088,0,0,1,46,342.324Z" transform="translate(-45.455 -304.537)" fill="#4d66d2" fill-rule="evenodd"/>
        <path id="Trazado_1180423" data-name="Trazado 1180423" d="M46,342.324l4.606-2.662a1.1,1.1,0,0,1,1.486.4l7.5,12.992a1.07,1.07,0,0,1-.54.893l-4.606,2.662a1.09,1.09,0,0,1-1.486-.4l-7.5-12.989A1.091,1.091,0,0,1,46,342.324Z" transform="translate(-45.459 -304.537)" fill="#6b7ed9" fill-rule="evenodd"/>
        <path id="Trazado_1180424" data-name="Trazado 1180424" d="M400.273,99.19a12.787,12.787,0,0,1-4.494,20.043C387.507,110,397.669,104.887,400.273,99.19Z" transform="translate(-343.289 -98.345)" fill="#00f4a8" fill-rule="evenodd"/>
        <path id="Trazado_1180425" data-name="Trazado 1180425" d="M397.415,123.109c-5.069-6.752,2.227-13.67,5.693-17.969,1.328,2.423-1.7,17.348-5.23,18.259C397.721,123.3,397.563,123.206,397.415,123.109Z" transform="translate(-345.933 -103.45)" fill="#00d391" fill-rule="evenodd"/>
        <path id="Trazado_1180426" data-name="Trazado 1180426" d="M244.808,97.842l-14.668-4.6v27.331a19.115,19.115,0,0,0,14.668,2.19Z" transform="translate(-203.908 -93.24)" fill="#9be8fd" fill-rule="evenodd"/>
        <path id="Trazado_1180427" data-name="Trazado 1180427" d="M246.5,143.806a19.1,19.1,0,0,0,12.344.986v-22L246.5,118.92Z" transform="translate(-217.944 -115.272)" fill="#80d8ff" fill-rule="evenodd"/>
        <path id="Trazado_1180428" data-name="Trazado 1180428" d="M285.73,169.04h12.344v16.319a18.986,18.986,0,0,1-12.344,2.923Z" transform="translate(-251.602 -158.274)" fill="#9be8fd" fill-rule="evenodd"/>
        <path id="Trazado_1180429" data-name="Trazado 1180429" d="M315.44,188.91v13.5a19.017,19.017,0,0,1-9.47,3.015V188.91Z" transform="translate(-268.967 -175.321)" fill="#c9f0fe" fill-rule="evenodd"/>
      </g>
      <path id="Trazado_1180430" data-name="Trazado 1180430" d="M93.7,50.552a.991.991,0,0,1,1.981.068,20.236,20.236,0,0,1-1.321,6.458A11.8,11.8,0,0,0,96.6,41.489c-3.145,4.944-10.141,9.338-4.791,16.475A18.194,18.194,0,0,0,93.7,50.552Zm-1.034,9.94a20.056,20.056,0,0,1-27.408,6.555,1.042,1.042,0,0,1-.116-.068A20.048,20.048,0,0,1,58.324,60a.873.873,0,0,1-.088-.153A20.052,20.052,0,0,1,85.022,32.164.992.992,0,1,1,84.1,33.92a18.046,18.046,0,0,0-17.491.318h0a18.079,18.079,0,0,0-6.61,24.685h0a17.941,17.941,0,0,0,4.731,5.37V38.836h0a.992.992,0,0,1,1.284-.95l14.611,4.586a1,1,0,0,1,.757.966v5.17h4.578a1,1,0,0,1,.994.994V63.988a17.948,17.948,0,0,0,3.8-4.176c-5.919-7.071-1.944-11.825,1.723-16.205a21.246,21.246,0,0,0,3.1-4.341.994.994,0,0,1,1.65-.233A13.782,13.782,0,0,1,92.665,60.492ZM66.708,65.6A18.17,18.17,0,0,0,72.613,67.7V49.6a.994.994,0,0,1,.994-.994h5.778V44.166L66.708,40.188ZM74.6,67.929a17.952,17.952,0,0,0,10.029-2.364l.33-.193V50.6H74.6V67.929Zm7.086-13.367h-.994V52.574h3.184v1.989Zm0,4.42h-.994V57h3.184v1.984Zm-5.01,0h-.994V57H78.87v1.984Zm5.01,4.426h-.994V61.42h3.184v1.989Zm-5.01,0h-.994V61.42H78.87v1.989Zm0-8.846h-.994V52.574H78.87v1.989Zm-7.835,5h-.994V57.57h3.665v1.989Zm0-13.685h-.994V43.889h3.665v1.984Zm0,4.561h-.994V48.446h3.665v1.989Zm0,4.562h-.994V53.008h3.665V55ZM39.583,75.731,44.136,73.1A2.078,2.078,0,0,1,47,73.916l.6,1.043L54.4,69.591a10.418,10.418,0,0,1,10.975-1.249l10.078,4.481a4.478,4.478,0,0,1,2.21,2.1l.129.25,10.992-9.119c3-2.5,7,1.82,4.352,4.679L78.355,86.711a7.3,7.3,0,0,1-7.622,2.21l-8.818-2.765A3.257,3.257,0,0,0,59,86.579l-3.371,2.275.636,1.1A2.076,2.076,0,0,1,55.5,92.8L50.89,95.453a2.075,2.075,0,0,1-2.835-.757L38.766,78.6a2.086,2.086,0,0,1,.817-2.872Zm9.022.963,6.024,10.433,3.257-2.194a5.263,5.263,0,0,1,4.622-.672l8.818,2.765a5.337,5.337,0,0,0,5.581-1.655l14.78-15.985c.966-1.047-.524-2.73-1.639-1.8L78.335,77.3a4.514,4.514,0,0,1-.994,1.646,5.748,5.748,0,0,1-4.067,1.712,5.425,5.425,0,0,1-2.126-.463L62.7,76.55a.992.992,0,0,1,.785-1.821l8.443,3.652a3.351,3.351,0,0,0,2.721.02A2.96,2.96,0,0,0,76.4,76.8c-.479-.937-.737-1.712-1.76-2.166L64.568,70.151a8.482,8.482,0,0,0-8.943.99Zm-3.483-1.872-4.6,2.658-.044.121,9.3,16.1.134.037,4.611-2.662.033-.134L45.256,74.858Z" transform="translate(0 0)"/>
    </g>
  </g>
</svg>
