<svg xmlns="http://www.w3.org/2000/svg" xmlns:xlink="http://www.w3.org/1999/xlink" width="103" height="103" viewBox="0 0 103 103">
  <defs>
    <filter id="Trazado_982547" x="0" y="0" width="103" height="103" filterUnits="userSpaceOnUse">
      <feOffset dy="3" input="SourceAlpha"/>
      <feGaussianBlur stdDeviation="3" result="blur"/>
      <feFlood flood-opacity="0.161"/>
      <feComposite operator="in" in2="blur"/>
      <feComposite in="SourceGraphic"/>
    </filter>
  </defs>
  <g id="Grupo_1224496" data-name="Grupo 1224496" transform="translate(-194 -5793)">
    <g id="Grupo_1224201" data-name="Grupo 1224201" transform="translate(-0.13 5367)">
      <g id="Grupo_1224080" data-name="Grupo 1224080" transform="translate(0 -1582)">
        <g id="Grupo_1206686" data-name="Grupo 1206686" transform="translate(-2.87 300.583)">
          <g id="Grupo_1201889" data-name="Grupo 1201889" transform="translate(206 1713.417)">
            <g id="Grupo_1201680" data-name="Grupo 1201680">
              <g id="Grupo_1201330" data-name="Grupo 1201330">
                <g id="Grupo_1172010" data-name="Grupo 1172010">
                  <g id="Grupo_1171046" data-name="Grupo 1171046">
                    <g id="Grupo_1148525" data-name="Grupo 1148525">
                      <g transform="matrix(1, 0, 0, 1, -9, -6)" filter="url(#Trazado_982547)">
                        <g id="Trazado_982547-2" data-name="Trazado 982547" transform="translate(9 6)" fill="#f2f4f0">
                          <path d="M 42.5 83.5 C 36.96437835693359 83.5 31.59512901306152 82.41617584228516 26.54141235351562 80.27863311767578 C 21.65934181213379 78.21369171142578 17.27447128295898 75.25723266601562 13.50862312316895 71.49137878417969 C 9.742764472961426 67.72553253173828 6.786305904388428 63.34066009521484 4.721364498138428 58.45858764648438 C 2.583823442459106 53.40486907958984 1.5 48.03562164306641 1.5 42.5 C 1.5 36.96437835693359 2.583823442459106 31.59512901306152 4.721364498138428 26.54141235351562 C 6.786305904388428 21.65934181213379 9.742764472961426 17.27448272705078 13.50862312316895 13.50862312316895 C 17.27447128295898 9.742776870727539 21.65934181213379 6.786305904388428 26.54141235351562 4.721364498138428 C 31.59512901306152 2.583823442459106 36.96437835693359 1.5 42.5 1.5 C 48.03562164306641 1.5 53.40486907958984 2.583823442459106 58.45858764648438 4.721364498138428 C 63.34066009521484 6.786305904388428 67.72553253173828 9.742776870727539 71.49137878417969 13.50862312316895 C 75.25723266601562 17.27448272705078 78.21369171142578 21.65934181213379 80.27863311767578 26.54141235351562 C 82.41617584228516 31.59512901306152 83.5 36.96437835693359 83.5 42.5 C 83.5 48.03562164306641 82.41617584228516 53.40486907958984 80.27863311767578 58.45858764648438 C 78.21369171142578 63.34066009521484 75.25723266601562 67.72553253173828 71.49137878417969 71.49137878417969 C 67.72553253173828 75.25723266601562 63.34066009521484 78.21369171142578 58.45858764648438 80.27863311767578 C 53.40486907958984 82.41617584228516 48.03562164306641 83.5 42.5 83.5 Z" stroke="none"/>
                          <path d="M 42.5 3 C 37.16621398925781 3 31.99356079101562 4.043960571289062 27.125732421875 6.102882385253906 C 22.42246627807617 8.092185974121094 18.19785308837891 10.94070434570312 14.56928253173828 14.56928253173828 C 10.94070434570312 18.19785308837891 8.092185974121094 22.42246627807617 6.102882385253906 27.125732421875 C 4.043960571289062 31.99356079101562 3 37.16621398925781 3 42.5 C 3 47.83378601074219 4.043960571289062 53.00643920898438 6.102882385253906 57.87425231933594 C 8.092185974121094 62.57753372192383 10.94070434570312 66.80213165283203 14.56928253173828 70.43071746826172 C 18.19786834716797 74.05929565429688 22.42246627807617 76.90781402587891 27.125732421875 78.89711761474609 C 31.99356079101562 80.95603942871094 37.16621398925781 82 42.5 82 C 47.83378601074219 82 53.00642395019531 80.95603942871094 57.87425231933594 78.89711761474609 C 62.57753372192383 76.90781402587891 66.80213165283203 74.05929565429688 70.43071746826172 70.43071746826172 C 74.05929565429688 66.80213165283203 76.90781402587891 62.57753372192383 78.89711761474609 57.87425231933594 C 80.95603942871094 53.00642395019531 82 47.83378601074219 82 42.5 C 82 37.16621398925781 80.95603942871094 31.99356079101562 78.89711761474609 27.125732421875 C 76.90781402587891 22.42246627807617 74.05929565429688 18.19786834716797 70.43071746826172 14.56928253173828 C 66.80213165283203 10.94070434570312 62.57753372192383 8.092185974121094 57.87425231933594 6.102882385253906 C 53.00643920898438 4.043960571289062 47.83378601074219 3 42.5 3 M 42.5 0 C 65.97209167480469 0 85 19.02789306640625 85 42.5 C 85 65.97209167480469 65.97209167480469 85 42.5 85 C 19.02789306640625 85 0 65.97209167480469 0 42.5 C 0 19.02789306640625 19.02789306640625 0 42.5 0 Z" stroke="none" fill="#899e78"/>
                        </g>
                      </g>
                    </g>
                  </g>
                </g>
              </g>
            </g>
          </g>
        </g>
      </g>
    </g>
    <g id="equality_18290486" transform="translate(184.75 5782.521)">
      <g id="Grupo_1224495" data-name="Grupo 1224495" transform="translate(32.173 30.314)">
        <path id="Trazado_1180571" data-name="Trazado 1180571" d="M238.867,51.96a2.9,2.9,0,0,1,2.893,2.893V98.431h-5.79V54.853A2.9,2.9,0,0,1,238.867,51.96Z" transform="translate(-209.899 -49.908)" fill="#fdcb0f" fill-rule="evenodd"/>
        <path id="Trazado_1180572" data-name="Trazado 1180572" d="M257.94,51.96a2.9,2.9,0,0,1,2.893,2.893V98.431H257.94Z" transform="translate(-228.972 -49.908)" fill="#fde01b" fill-rule="evenodd"/>
        <path id="Trazado_1180573" data-name="Trazado 1180573" d="M353.47,219.23h14.547v-6.522a3.286,3.286,0,0,0-3.274-3.278h-7.995a3.29,3.29,0,0,0-3.278,3.278Z" transform="translate(-311.905 -186.614)" fill="#0ab69f" fill-rule="evenodd"/>
        <path id="Trazado_1180574" data-name="Trazado 1180574" d="M376.29,219.23h11.539v-6.522c0-1.8-1.835-3.278-4.078-3.278h-3.382c-2.243,0-4.078,1.477-4.078,3.278Z" transform="translate(-331.716 -186.614)" fill="#0ed2b3" fill-rule="evenodd"/>
        <path id="Trazado_1180575" data-name="Trazado 1180575" d="M381.171,153.55A4.173,4.173,0,1,1,377,157.725,4.17,4.17,0,0,1,381.171,153.55Z" transform="translate(-332.333 -138.103)" fill="#ffb09e" fill-rule="evenodd"/>
        <path id="Trazado_1180576" data-name="Trazado 1180576" d="M393.646,153.55a2.277,2.277,0,1,1-.889.1A4.115,4.115,0,0,1,393.646,153.55Z" transform="translate(-344.808 -138.103)" fill="#ffcebf" fill-rule="evenodd"/>
        <path id="Trazado_1180577" data-name="Trazado 1180577" d="M339.661,283.75h18.187v3.4a3.412,3.412,0,0,1-3.4,3.4H343.062a3.415,3.415,0,0,1-3.4-3.4v-3.4Z" transform="translate(-299.917 -251.135)" fill="#fdcb0f" fill-rule="evenodd"/>
        <path id="Trazado_1180578" data-name="Trazado 1180578" d="M380.931,283.75h12.745v3.4a3.412,3.412,0,0,1-3.4,3.4h-5.943a3.412,3.412,0,0,1-3.4-3.4v-3.4Z" transform="translate(-335.745 -251.135)" fill="#fde01b" fill-rule="evenodd"/>
        <path id="Trazado_1180579" data-name="Trazado 1180579" d="M52.06,219.23H66.607v-6.522a3.286,3.286,0,0,0-3.274-3.278H55.338a3.29,3.29,0,0,0-3.278,3.278Z" transform="translate(-50.239 -186.614)" fill="#0593fc" fill-rule="evenodd"/>
        <path id="Trazado_1180580" data-name="Trazado 1180580" d="M74.88,219.23H86.419v-6.522c0-1.8-1.835-3.278-4.078-3.278H78.958c-2.243,0-4.078,1.477-4.078,3.278Z" transform="translate(-70.05 -186.614)" fill="#26a6fe" fill-rule="evenodd"/>
        <path id="Trazado_1180581" data-name="Trazado 1180581" d="M79.761,153.55a4.173,4.173,0,1,1-4.171,4.175A4.174,4.174,0,0,1,79.761,153.55Z" transform="translate(-70.666 -138.103)" fill="#ffb09e" fill-rule="evenodd"/>
        <path id="Trazado_1180582" data-name="Trazado 1180582" d="M92.236,153.55a4.171,4.171,0,0,1,2.787,7.277,4.171,4.171,0,0,1-3.676-7.18A4.115,4.115,0,0,1,92.236,153.55Z" transform="translate(-83.142 -138.103)" fill="#ffcebf" fill-rule="evenodd"/>
        <path id="Trazado_1180583" data-name="Trazado 1180583" d="M38.251,283.75H56.439v3.4a3.412,3.412,0,0,1-3.4,3.4H41.652a3.415,3.415,0,0,1-3.4-3.4v-3.4Z" transform="translate(-38.25 -251.135)" fill="#fdcb0f" fill-rule="evenodd"/>
        <path id="Trazado_1180584" data-name="Trazado 1180584" d="M79.521,283.75H92.267v3.4a3.412,3.412,0,0,1-3.4,3.4H82.922a3.412,3.412,0,0,1-3.4-3.4v-3.4Z" transform="translate(-74.078 -251.135)" fill="#fde01b" fill-rule="evenodd"/>
        <path id="Trazado_1180585" data-name="Trazado 1180585" d="M111.964,46.941l-.609,5.073a18.087,18.087,0,0,0-18.819,1.069,2.352,2.352,0,0,1,2,2.408,2.328,2.328,0,0,1-2.221,2.422c-5.764,0-2.628-16.194,19.648-10.972Z" transform="translate(-82.996 -44.651)" fill="#fdcb0f" fill-rule="evenodd"/>
        <path id="Trazado_1180586" data-name="Trazado 1180586" d="M257.94,46.941l.605,5.073a18.086,18.086,0,0,1,18.819,1.069,2.349,2.349,0,0,0-2,2.408,2.324,2.324,0,0,0,2.217,2.422c5.765,0,2.633-16.194-19.644-10.972Z" transform="translate(-228.972 -44.651)" fill="#fdcb0f" fill-rule="evenodd"/>
        <path id="Trazado_1180587" data-name="Trazado 1180587" d="M209.654,36.4a7.332,7.332,0,1,1-7.334,7.33A7.33,7.33,0,0,1,209.654,36.4Z" transform="translate(-180.686 -36.4)" fill="#66f" fill-rule="evenodd"/>
        <path id="Trazado_1180588" data-name="Trazado 1180588" d="M224.959,36.4a7.332,7.332,0,0,1,5.782,11.838A7.332,7.332,0,0,1,221.5,37.268,7.3,7.3,0,0,1,224.959,36.4Z" transform="translate(-195.991 -36.4)" fill="#99f" fill-rule="evenodd"/>
        <path id="Trazado_1180589" data-name="Trazado 1180589" d="M135.03,323.671l4.5,10.234,5.034-3.39a3.387,3.387,0,0,1,2.995-.438l7,2.2a5.026,5.026,0,0,0,5.248-1.536l11.743-12.7a1.762,1.762,0,0,0-2.381-2.575l-9.486,7.872-.554-1.076a2.742,2.742,0,0,0-1.375-1.3l-8.006-3.562a7.519,7.519,0,0,0-7.917.89Z" transform="translate(-122.269 -278.318)" fill="#ffcebf" fill-rule="evenodd"/>
        <path id="Trazado_1180590" data-name="Trazado 1180590" d="M159.41,333.191l1.241,2.826,4.971-3.353a3.387,3.387,0,0,1,2.995-.434l7.008,2.2a5.018,5.018,0,0,0,5.244-1.536l11.743-12.7a1.735,1.735,0,0,0-.239-2.575l-11.5,12.44a5.023,5.023,0,0,1-5.244,1.536l-7.008-2.2a3.73,3.73,0,0,0-2.995.434Z" transform="translate(-143.434 -280.539)" fill="#ffb09e" fill-rule="evenodd"/>
        <path id="Trazado_1180591" data-name="Trazado 1180591" d="M93.527,362.535l3.659-2.115a.871.871,0,0,1,1.181.318l7.381,12.786a.863.863,0,0,1-.318,1.177l-3.659,2.115a.871.871,0,0,1-1.181-.318L93.21,363.716A.868.868,0,0,1,93.527,362.535Z" transform="translate(-85.864 -317.596)" fill="#0593fc" fill-rule="evenodd"/>
        <path id="Trazado_1180592" data-name="Trazado 1180592" d="M93.54,362.535,97.2,360.42a.871.871,0,0,1,1.181.318l5.957,10.323a.864.864,0,0,1-.43.711l-3.659,2.115a.871.871,0,0,1-1.181-.318L93.11,363.245A.858.858,0,0,1,93.54,362.535Z" transform="translate(-85.876 -317.596)" fill="#26a6fe" fill-rule="evenodd"/>
      </g>
      <path id="Trazado_1180593" data-name="Trazado 1180593" d="M39.376,74.453l3.659-2.112a1.784,1.784,0,0,1,2.437.65l.426.74,5.278-4.171a8.223,8.223,0,0,1,6.145-1.76V44.965a8.248,8.248,0,0,1-4.354-8.477,17.107,17.107,0,0,0-9.4,2.16,3.424,3.424,0,0,1-1.379,5.764v.512a5.1,5.1,0,0,1,3.622,7.318,4.207,4.207,0,0,1,3.651,4.164V62h.9a.921.921,0,0,1,.923.923v3.4a4.334,4.334,0,0,1-4.325,4.325H35.575a4.334,4.334,0,0,1-4.325-4.325v-3.4A.923.923,0,0,1,32.173,62h.9v-5.6a4.209,4.209,0,0,1,3.651-4.164,5.1,5.1,0,0,1,3.622-7.318v-.605c-2.052-.68-2.612-3.05-2.127-5.146a8.653,8.653,0,0,1,1.6-3.289.665.665,0,0,1,.057-.063c2.493-3.192,7.744-5.957,16.58-4.971a8.256,8.256,0,0,1,9.371,0c8.9-.994,14.162,1.817,16.637,5.034h0c1.41,1.835,2.235,4.307,1.514,6.342a3.255,3.255,0,0,1-2.037,2.093v.605a5.1,5.1,0,0,1,3.622,7.318,4.207,4.207,0,0,1,3.651,4.164V62h.9a.921.921,0,0,1,.923.923v3.4A4.334,4.334,0,0,1,86.7,70.654h-4.56L70.39,83.358A5.947,5.947,0,0,1,64.2,85.153l-7.008-2.2a2.465,2.465,0,0,0-2.2.322l-2.575,1.734c.422.733.852,1.271.624,2.127a1.771,1.771,0,0,1-.882,1.11l-3.61,2.082v0a1.787,1.787,0,0,1-2.437-.65c-2.414-4.284-4.971-8.508-7.381-12.79a1.785,1.785,0,0,1,.655-2.437Zm7.453.886,4.657,8.07,2.467-1.663a4.3,4.3,0,0,1,3.786-.55l7.008,2.2a4.1,4.1,0,0,0,4.295-1.282L80.879,69.3A.885.885,0,0,0,80.4,68.04a.691.691,0,0,0-.736.131v0l-9.28,7.7a3.721,3.721,0,0,1-.8,1.32,4.716,4.716,0,0,1-3.327,1.4,4.457,4.457,0,0,1-1.742-.381l-6.709-2.9a.92.92,0,1,1,.725-1.69l6.713,2.9a2.53,2.53,0,0,0,2.06.018A2.264,2.264,0,0,0,68.6,75.4c-.359-.695-.55-1.267-1.308-1.6l-8.006-3.562a6.613,6.613,0,0,0-6.971.77Zm-2.922-1.375-3.555,2.052-.008,0,0,.011L47.666,88.7l0,.008.026-.015,3.536-2.041Zm15.261-5.749c.291.1.579.21.868.336l3.076,1.371V45.66a8.277,8.277,0,0,1-3.944,0Zm5.789,2.526,3.084,1.371a3.669,3.669,0,0,1,1.846,1.779l4.142-3.435a4.338,4.338,0,0,1-3.035-4.126v-3.4a.923.923,0,0,1,.923-.923h.9v-5.6a4.209,4.209,0,0,1,3.651-4.164,5.1,5.1,0,0,1,3.622-7.318v-.512a3.424,3.424,0,0,1-1.379-5.764,17.082,17.082,0,0,0-9.392-2.16,8.256,8.256,0,0,1-4.358,8.477Zm11.056-1.932,2.482-2.056a2.689,2.689,0,0,1,4.358,2.056H86.7a2.488,2.488,0,0,0,2.478-2.478V63.854H72.84v2.478a2.488,2.488,0,0,0,2.478,2.478ZM58.462,36.694a.923.923,0,1,1,0-1.846h5.356a.923.923,0,0,1,0,1.846Zm0,3.749a.923.923,0,1,1,0-1.846h5.356a.923.923,0,0,1,0,1.846Zm9.168-7.9a8.22,8.22,0,0,1,1.214,2.131A18.775,18.775,0,0,1,81.1,38a.924.924,0,0,1-.479,1.671,1.573,1.573,0,0,0-.729,2.579,1.406,1.406,0,0,0,2.337-.632c.512-1.446-.243-3.3-1.233-4.612v0l0,0C78.993,34.391,74.773,32.1,67.63,32.541ZM53.438,34.672a8.245,8.245,0,0,1,1.21-2.131c-7.1-.434-11.31,1.821-13.332,4.411a6.865,6.865,0,0,0-1.3,2.632c-.31,1.349-.071,3.068,1.481,3.068a1.537,1.537,0,0,0,.935-2.534c-.568-.688-1.035-.239-1.461-.837A.92.92,0,0,1,41.176,38a18.769,18.769,0,0,1,12.262-3.323Zm12.234-1.559a6.409,6.409,0,1,0,0,9.064A6.407,6.407,0,0,0,65.672,33.114ZM34.917,62.007h1.6V57.9a.923.923,0,0,1,1.846,0v4.111h5.8V57.9a.923.923,0,1,1,1.846,0v4.111h1.6v-5.6a2.363,2.363,0,0,0-2.351-2.355h-1a5.086,5.086,0,0,1-6,0h-.994a2.364,2.364,0,0,0-2.355,2.355v5.6Zm14.522,1.846H33.1V66.33a2.488,2.488,0,0,0,2.478,2.478H46.96a2.486,2.486,0,0,0,2.478-2.478V63.853ZM43.567,47.638a3.249,3.249,0,1,0,0,4.593A3.253,3.253,0,0,0,43.567,47.638ZM74.661,62.007h1.6V57.9a.923.923,0,1,1,1.846,0v4.111h5.8V57.9a.923.923,0,1,1,1.846,0v4.111h1.6v-5.6a2.363,2.363,0,0,0-2.351-2.355h-1a5.086,5.086,0,0,1-6,0h-.994a2.364,2.364,0,0,0-2.355,2.355v5.6Zm8.65-14.369a3.249,3.249,0,1,0,0,4.593A3.253,3.253,0,0,0,83.31,47.638Z"/>
    </g>
  </g>
</svg>
