<svg xmlns="http://www.w3.org/2000/svg" xmlns:xlink="http://www.w3.org/1999/xlink" width="103" height="103" viewBox="0 0 103 103">
  <defs>
    <filter id="Trazado_982547" x="0" y="0" width="103" height="103" filterUnits="userSpaceOnUse">
      <feOffset dy="3" input="SourceAlpha"/>
      <feGaussianBlur stdDeviation="3" result="blur"/>
      <feFlood flood-opacity="0.161"/>
      <feComposite operator="in" in2="blur"/>
      <feComposite in="SourceGraphic"/>
    </filter>
  </defs>
  <g id="Grupo_1224524" data-name="Grupo 1224524" transform="translate(-614.13 -5793)">
    <g id="Grupo_1224203" data-name="Grupo 1224203" transform="translate(0 5367)">
      <g id="Grupo_1224081" data-name="Grupo 1224081" transform="translate(420 -1582)">
        <g id="Grupo_1206686" data-name="Grupo 1206686" transform="translate(-2.87 300.583)">
          <g id="Grupo_1201889" data-name="Grupo 1201889" transform="translate(206 1713.417)">
            <g id="Grupo_1201680" data-name="Grupo 1201680">
              <g id="Grupo_1201330" data-name="Grupo 1201330">
                <g id="Grupo_1172010" data-name="Grupo 1172010">
                  <g id="Grupo_1171046" data-name="Grupo 1171046">
                    <g id="Grupo_1148525" data-name="Grupo 1148525">
                      <g transform="matrix(1, 0, 0, 1, -9, -6)" filter="url(#Trazado_982547)">
                        <g id="Trazado_982547-2" data-name="Trazado 982547" transform="translate(9 6)" fill="#f2f4f0">
                          <path d="M 42.5 83.5 C 36.96437835693359 83.5 31.59512901306152 82.41617584228516 26.54141235351562 80.27863311767578 C 21.65934181213379 78.21369171142578 17.27447128295898 75.25723266601562 13.50862312316895 71.49137878417969 C 9.742764472961426 67.72553253173828 6.786305904388428 63.34066009521484 4.721364498138428 58.45858764648438 C 2.583823442459106 53.40486907958984 1.5 48.03562164306641 1.5 42.5 C 1.5 36.96437835693359 2.583823442459106 31.59512901306152 4.721364498138428 26.54141235351562 C 6.786305904388428 21.65934181213379 9.742764472961426 17.27448272705078 13.50862312316895 13.50862312316895 C 17.27447128295898 9.742776870727539 21.65934181213379 6.786305904388428 26.54141235351562 4.721364498138428 C 31.59512901306152 2.583823442459106 36.96437835693359 1.5 42.5 1.5 C 48.03562164306641 1.5 53.40486907958984 2.583823442459106 58.45858764648438 4.721364498138428 C 63.34066009521484 6.786305904388428 67.72553253173828 9.742776870727539 71.49137878417969 13.50862312316895 C 75.25723266601562 17.27448272705078 78.21369171142578 21.65934181213379 80.27863311767578 26.54141235351562 C 82.41617584228516 31.59512901306152 83.5 36.96437835693359 83.5 42.5 C 83.5 48.03562164306641 82.41617584228516 53.40486907958984 80.27863311767578 58.45858764648438 C 78.21369171142578 63.34066009521484 75.25723266601562 67.72553253173828 71.49137878417969 71.49137878417969 C 67.72553253173828 75.25723266601562 63.34066009521484 78.21369171142578 58.45858764648438 80.27863311767578 C 53.40486907958984 82.41617584228516 48.03562164306641 83.5 42.5 83.5 Z" stroke="none"/>
                          <path d="M 42.5 3 C 37.16621398925781 3 31.99356079101562 4.043960571289062 27.125732421875 6.102882385253906 C 22.42246627807617 8.092185974121094 18.19785308837891 10.94070434570312 14.56928253173828 14.56928253173828 C 10.94070434570312 18.19785308837891 8.092185974121094 22.42246627807617 6.102882385253906 27.125732421875 C 4.043960571289062 31.99356079101562 3 37.16621398925781 3 42.5 C 3 47.83378601074219 4.043960571289062 53.00643920898438 6.102882385253906 57.87425231933594 C 8.092185974121094 62.57753372192383 10.94070434570312 66.80213165283203 14.56928253173828 70.43071746826172 C 18.19786834716797 74.05929565429688 22.42246627807617 76.90781402587891 27.125732421875 78.89711761474609 C 31.99356079101562 80.95603942871094 37.16621398925781 82 42.5 82 C 47.83378601074219 82 53.00642395019531 80.95603942871094 57.87425231933594 78.89711761474609 C 62.57753372192383 76.90781402587891 66.80213165283203 74.05929565429688 70.43071746826172 70.43071746826172 C 74.05929565429688 66.80213165283203 76.90781402587891 62.57753372192383 78.89711761474609 57.87425231933594 C 80.95603942871094 53.00642395019531 82 47.83378601074219 82 42.5 C 82 37.16621398925781 80.95603942871094 31.99356079101562 78.89711761474609 27.125732421875 C 76.90781402587891 22.42246627807617 74.05929565429688 18.19786834716797 70.43071746826172 14.56928253173828 C 66.80213165283203 10.94070434570312 62.57753372192383 8.092185974121094 57.87425231933594 6.102882385253906 C 53.00643920898438 4.043960571289062 47.83378601074219 3 42.5 3 M 42.5 0 C 65.97209167480469 0 85 19.02789306640625 85 42.5 C 85 65.97209167480469 65.97209167480469 85 42.5 85 C 19.02789306640625 85 0 65.97209167480469 0 42.5 C 0 19.02789306640625 19.02789306640625 0 42.5 0 Z" stroke="none" fill="#899e78"/>
                        </g>
                      </g>
                    </g>
                  </g>
                </g>
              </g>
            </g>
          </g>
        </g>
      </g>
    </g>
    <g id="centralized_3195913" transform="translate(639.162 5812.162)">
      <g id="Grupo_1224522" data-name="Grupo 1224522" transform="translate(1.833 1.331)">
        <g id="Grupo_1224497" data-name="Grupo 1224497" transform="translate(14.802)">
          <ellipse id="Elipse_14752" data-name="Elipse 14752" cx="10" cy="10.5" rx="10" ry="10.5" transform="translate(0.203 -0.492)" fill="#69d6f4"/>
        </g>
        <g id="Grupo_1224498" data-name="Grupo 1224498" transform="translate(25.838 42.178)">
          <path id="Trazado_1180594" data-name="Trazado 1180594" d="M34.667,52a7.5,7.5,0,0,1,7.5,7.5v.833h-7.5l-1.667-5Z" transform="translate(-33 -52)" fill="#e6e9ed"/>
        </g>
        <g id="Grupo_1224499" data-name="Grupo 1224499" transform="translate(15.003 42.178)">
          <path id="Trazado_1180595" data-name="Trazado 1180595" d="M27.5,60.335H20V59.5A7.5,7.5,0,0,1,27.5,52l1.667,3.334Z" transform="translate(-20 -52)" fill="#e6e9ed"/>
        </g>
        <g id="Grupo_1224500" data-name="Grupo 1224500" transform="translate(22.504 45.512)">
          <path id="Trazado_1180596" data-name="Trazado 1180596" d="M32.334,56,34,61H29l1.667-5Z" transform="translate(-29 -56)" fill="#ff826e"/>
        </g>
        <g id="Grupo_1224501" data-name="Grupo 1224501" transform="translate(22.504 42.178)">
          <path id="Trazado_1180597" data-name="Trazado 1180597" d="M34,52l-1.667,3.334H30.667L29,52Z" transform="translate(-29 -52)" fill="#fc6e51"/>
        </g>
        <g id="Grupo_1224502" data-name="Grupo 1224502" transform="translate(42.508 43.845)">
          <path id="Trazado_1180598" data-name="Trazado 1180598" d="M54.667,54A5.83,5.83,0,0,1,60.5,59.834v.833H54.667L53,57.334Z" transform="translate(-53 -54)" fill="#ff826e"/>
        </g>
        <g id="Grupo_1224503" data-name="Grupo 1224503" transform="translate(34.29 43.845)">
          <path id="Trazado_1180599" data-name="Trazado 1180599" d="M48.024,54l1.667,3.334-1.667,3.334H43.857v-.833a7.474,7.474,0,0,0-.717-3.2A5.842,5.842,0,0,1,48.024,54Z" transform="translate(-43.14 -54)" fill="#ff826e"/>
        </g>
        <g id="Grupo_1224504" data-name="Grupo 1224504" transform="translate(39.174 47.178)">
          <path id="Trazado_1180600" data-name="Trazado 1180600" d="M52.334,58,54,61.334H49L50.667,58Z" transform="translate(-49 -58)" fill="#ffeaa7"/>
        </g>
        <g id="Grupo_1224505" data-name="Grupo 1224505" transform="translate(39.174 43.845)">
          <path id="Trazado_1180601" data-name="Trazado 1180601" d="M54,54l-1.667,3.334H50.667L49,54Z" transform="translate(-49 -54)" fill="#fcd770"/>
        </g>
        <g id="Grupo_1224506" data-name="Grupo 1224506" transform="translate(7.501 44.32)">
          <path id="Trazado_1180602" data-name="Trazado 1180602" d="M18.5,59.929v.833H11l2.109-3.334,1.809-2.859.167.05A5.009,5.009,0,0,1,18.5,59.363Z" transform="translate(-11 -54.57)" fill="#b4dd7f"/>
        </g>
        <g id="Grupo_1224507" data-name="Grupo 1224507" transform="translate(0 44.32)">
          <path id="Trazado_1180603" data-name="Trazado 1180603" d="M7.393,57.429,9.5,60.763H2v-1.4A5.009,5.009,0,0,1,5.417,54.62l.167-.05Z" transform="translate(-2 -54.57)" fill="#b4dd7f"/>
        </g>
        <g id="Grupo_1224508" data-name="Grupo 1224508" transform="translate(5.393 47.178)">
          <path id="Trazado_1180604" data-name="Trazado 1180604" d="M12.687,58l-2.109,3.334L8.47,58Z" transform="translate(-8.47 -58)" fill="#ffeaa7"/>
        </g>
        <g id="Grupo_1224509" data-name="Grupo 1224509" transform="translate(18.337 25.508)">
          <path id="Trazado_1180605" data-name="Trazado 1180605" d="M37.2,37.534l-.392,1.584-.008.008a1.622,1.622,0,0,0-1.134-.458h-.833L32.3,38.31a3.841,3.841,0,0,1-2.584-1.575L26.5,38.668h-.833a1.615,1.615,0,0,0-1.134.45l-.442-1.767a2.949,2.949,0,0,1,1.934-3.526l.475-.158.692-.692A3.337,3.337,0,0,1,29.551,32h3.334a4.45,4.45,0,0,1,4.451,4.451,4.335,4.335,0,0,1-.133,1.084Z" transform="translate(-24 -32)" fill="#b27946"/>
        </g>
        <g id="Grupo_1224510" data-name="Grupo 1224510" transform="translate(35.007 27.175)">
          <path id="Trazado_1180606" data-name="Trazado 1180606" d="M54.835,40.668,52.3,40.31a3.856,3.856,0,0,1-2.792-1.9L46.5,40.668h-.833a1.615,1.615,0,0,0-1.134.45l-.4-1.584A4.335,4.335,0,0,1,44,38.451,4.45,4.45,0,0,1,48.451,34h4.434a4.439,4.439,0,0,1,4.451,4.451,4.335,4.335,0,0,1-.133,1.084l-.4,1.584a1.615,1.615,0,0,0-1.134-.45Z" transform="translate(-44 -34)" fill="#656d78"/>
        </g>
        <g id="Grupo_1224511" data-name="Grupo 1224511" transform="translate(0 28.842)">
          <path id="Trazado_1180607" data-name="Trazado 1180607" d="M10.327,36.05A7.5,7.5,0,0,1,17,43.5v1.467a7.9,7.9,0,0,1-.833,3.534l.525,1.05A2.961,2.961,0,0,1,17,50.861a2.922,2.922,0,0,1-1.1,2.284,5.053,5.053,0,0,0-2.317-1.617l-.167-.05-.117-.042a2.493,2.493,0,0,1-1.634-1.767l-.217-.85a3.919,3.919,0,0,0,1.934-2.767l.242-1.484a3.033,3.033,0,0,0,.042-.467,2.518,2.518,0,0,0-1.225-2.167L9.86,40.384H9.852a3.925,3.925,0,0,1-2.809,2l-.208.033a1.792,1.792,0,0,0-1.5,1.775,1.628,1.628,0,0,0,.025.283l.258,1.575A3.905,3.905,0,0,0,6.959,48.4a4.2,4.2,0,0,0,.592.417l-.217.85A2.493,2.493,0,0,1,5.7,51.436l-.117.042-.167.05A5.053,5.053,0,0,0,3.1,53.145a2.924,2.924,0,0,1-.792-3.592l.525-1.05A7.9,7.9,0,0,1,2,44.968V43.5A7.513,7.513,0,0,1,9.5,36a6.851,6.851,0,0,1,.825.05Z" transform="translate(-2 -36)" fill="#656d78"/>
        </g>
        <g id="Grupo_1224512" data-name="Grupo 1224512" transform="translate(45.426 33.843)">
          <path id="Trazado_1180608" data-name="Trazado 1180608" d="M58.925,42.492a1.63,1.63,0,0,1,.492,1.175,1.672,1.672,0,0,1-1.667,1.667H56.5L56.917,42h.833a1.615,1.615,0,0,1,1.134.45Z" transform="translate(-56.5 -42)" fill="#f0d0b4"/>
        </g>
        <g id="Grupo_1224513" data-name="Grupo 1224513" transform="translate(39.174 40.511)">
          <path id="Trazado_1180609" data-name="Trazado 1180609" d="M53.167,50,54,53.334H49L49.833,50Z" transform="translate(-49 -50)" fill="#f0d0b4"/>
        </g>
        <g id="Grupo_1224514" data-name="Grupo 1224514" transform="translate(37.507 31.584)">
          <path id="Trazado_1180610" data-name="Trazado 1180610" d="M55.335,41.549l-.417,3.334-.233,1.875a1.673,1.673,0,0,1-1.659,1.459H49.309a1.673,1.673,0,0,1-1.659-1.459l-.233-1.875L47,41.549l3.009-2.259a3.856,3.856,0,0,0,2.792,1.9Z" transform="translate(-47 -39.29)" fill="#f0d0b4"/>
        </g>
        <g id="Grupo_1224515" data-name="Grupo 1224515" transform="translate(35.007 33.843)">
          <path id="Trazado_1180611" data-name="Trazado 1180611" d="M46.5,42l.417,3.334h-1.25A1.672,1.672,0,0,1,44,43.667a1.63,1.63,0,0,1,.492-1.175l.042-.042A1.615,1.615,0,0,1,45.667,42Z" transform="translate(-44 -42)" fill="#f0d0b4"/>
        </g>
        <g id="Grupo_1224516" data-name="Grupo 1224516" transform="translate(28.756 32.176)">
          <path id="Trazado_1180612" data-name="Trazado 1180612" d="M38.925,40.492a1.63,1.63,0,0,1,.492,1.175,1.672,1.672,0,0,1-1.667,1.667H36.5L36.917,40h.833a1.622,1.622,0,0,1,1.134.458A.146.146,0,0,1,38.925,40.492Z" transform="translate(-36.5 -40)" fill="#f0d0b4"/>
        </g>
        <g id="Grupo_1224517" data-name="Grupo 1224517" transform="translate(18.337 32.176)">
          <path id="Trazado_1180613" data-name="Trazado 1180613" d="M26.5,40l.417,3.334h-1.25A1.672,1.672,0,0,1,24,41.667a1.63,1.63,0,0,1,.492-1.175l.042-.042A1.615,1.615,0,0,1,25.667,40Z" transform="translate(-24 -40)" fill="#f0d0b4"/>
        </g>
        <g id="Grupo_1224518" data-name="Grupo 1224518" transform="translate(22.504 38.844)">
          <path id="Trazado_1180614" data-name="Trazado 1180614" d="M33.167,48,34,51.334H29L29.833,48Z" transform="translate(-29 -48)" fill="#f0d0b4"/>
        </g>
        <g id="Grupo_1224519" data-name="Grupo 1224519" transform="translate(20.837 30.242)">
          <path id="Trazado_1180615" data-name="Trazado 1180615" d="M35.335,39.614l-.417,3.334-.233,1.875a1.673,1.673,0,0,1-1.659,1.459H29.309a1.673,1.673,0,0,1-1.659-1.459l-.233-1.875L27,39.614l3.217-1.934A3.841,3.841,0,0,0,32.8,39.255Z" transform="translate(-27 -37.68)" fill="#f0d0b4"/>
        </g>
        <g id="Grupo_1224520" data-name="Grupo 1224520" transform="translate(3.584 41.661)">
          <path id="Trazado_1180616" data-name="Trazado 1180616" d="M14.018,54l.117.042L12.326,56.9H8.109L6.3,54.039,6.417,54A2.493,2.493,0,0,0,8.05,52.23l.217-.85a3.939,3.939,0,0,0,3.9,0l.217.85A2.493,2.493,0,0,0,14.018,54Z" transform="translate(-6.3 -51.38)" fill="#f0d0b4"/>
        </g>
        <g id="Grupo_1224521" data-name="Grupo 1224521" transform="translate(3.334 33.226)">
          <path id="Trazado_1180617" data-name="Trazado 1180617" d="M14.335,44.977a3.033,3.033,0,0,1-.042.467l-.242,1.484a3.919,3.919,0,0,1-1.934,2.767,3.939,3.939,0,0,1-3.9,0,4.2,4.2,0,0,1-.592-.417,3.905,3.905,0,0,1-1.342-2.35l-.258-1.575A1.628,1.628,0,0,1,6,45.069a1.792,1.792,0,0,1,1.5-1.775l.208-.033a3.925,3.925,0,0,0,2.809-2h.008l2.584,1.55a2.518,2.518,0,0,1,1.225,2.167Z" transform="translate(-6 -41.26)" fill="#f0d0b4"/>
        </g>
      </g>
      <g id="Grupo_1224523" data-name="Grupo 1224523" transform="translate(1 1)">
        <path id="Trazado_1180618" data-name="Trazado 1180618" d="M46.668,44.375l-.463-1.85a2.5,2.5,0,0,0,1.646-2.041l.143-1.144h.514a2.495,2.495,0,0,0,2.049-3.927l.293-1.174a5.285,5.285,0,0,0-5.128-6.569H44.342V21.837a7.506,7.506,0,0,0-6.978-7.475,10.836,10.836,0,1,0-21.051,0,7.506,7.506,0,0,0-6.978,7.475v7.5A8.344,8.344,0,0,0,1,37.674v1.47a8.779,8.779,0,0,0,.741,3.519l-.344.688A3.785,3.785,0,0,0,1,45.033a3.738,3.738,0,0,0,.862,2.392A5.809,5.809,0,0,0,1,50.447v2.23H52.677V51.01a6.677,6.677,0,0,0-6.009-6.635Zm-2.144-1.7.417,1.667H42.076l.417-1.667ZM43.19,49.343h.637l.833,1.667h-2.3Zm.637-1.667H43.19l-.833-1.667h2.3Zm2.371-7.4a.835.835,0,0,1-.828.73H41.645a.834.834,0,0,1-.827-.73l-.591-4.728,1.949-1.461a4.666,4.666,0,0,0,2.848,1.548l1.723.246Zm2.311-2.6H48.2l.208-1.667h.1a.833.833,0,1,1,0,1.667Zm.833-4.716a3.585,3.585,0,0,1-.108.878l-.145.578a2.508,2.508,0,0,0-.58-.074h-.7a2.633,2.633,0,0,1-1.8-2.5v-.833H44.342v.833a4.29,4.29,0,0,0,.529,2.055,3.021,3.021,0,0,1-2.2-2.888H41.008a4.618,4.618,0,0,0,.3,1.648L39.063,34.34h-.556a2.464,2.464,0,0,0-.58.075l-.145-.578a3.619,3.619,0,0,1,3.511-4.5h4.43a3.624,3.624,0,0,1,3.62,3.619ZM38.507,36.007h.1l.208,1.667h-.306a.833.833,0,0,1,0-1.667ZM36.84,16a5.841,5.841,0,0,1,5.834,5.834v5.834H41.293a5.288,5.288,0,0,0-5.128,6.569l.293,1.174a2.5,2.5,0,0,0,2.05,3.927h.514l.143,1.144a2.5,2.5,0,0,0,1.646,2.041l-.464,1.857a6.627,6.627,0,0,0-4.1,1.972A8.334,8.334,0,0,0,30,42.708l-.463-1.85a2.5,2.5,0,0,0,1.646-2.041l.143-1.144h.514a2.5,2.5,0,0,0,2.05-3.927l.293-1.174A5.288,5.288,0,0,0,29.054,26H27.672V22.628A10.851,10.851,0,0,0,36.838,16Zm-15,18.337h.1l.208,1.667h-.306a.833.833,0,0,1,0-1.667Zm.6-1.667h-.6a2.476,2.476,0,0,0-.581.075l-.189-.756A2.166,2.166,0,0,1,21,31.475a2.126,2.126,0,0,1,1.456-2.02l.661-.221.83-.83a2.517,2.517,0,0,1,1.768-.732h3.335a3.619,3.619,0,0,1,3.511,4.5l-.144.578a2.476,2.476,0,0,0-.581-.075h-.671a2.815,2.815,0,0,1-1.83-2.636v-.7H27.672v.7a4.465,4.465,0,0,0,.589,2.2A3.02,3.02,0,0,1,26,29.339H24.338a4.635,4.635,0,0,0,.426,1.94ZM17.67,11.835a9.14,9.14,0,0,1,.355-2.5h3.182a15.474,15.474,0,0,0,0,5H18.025A9.14,9.14,0,0,1,17.67,11.835Zm9.166-9.008a10.016,10.016,0,0,1,3.5,4.841h-7a9.844,9.844,0,0,1,3.5-4.841Zm3.937,6.508a13.361,13.361,0,0,1,.233,2.5,13.5,13.5,0,0,1-.231,2.5H22.9a13.361,13.361,0,0,1-.233-2.5,13.5,13.5,0,0,1,.231-2.5Zm5.234,2.5a9.14,9.14,0,0,1-.355,2.5H32.469a15.474,15.474,0,0,0,0-5h3.182A9.14,9.14,0,0,1,36.007,11.835Zm-9.166,9.008A10.021,10.021,0,0,1,23.345,16h7a9.843,9.843,0,0,1-3.5,4.841ZM32.085,16h2.91a9.207,9.207,0,0,1-5.412,4.581A12.085,12.085,0,0,0,32.085,16ZM21.592,16a12.073,12.073,0,0,0,2.5,4.581A9.21,9.21,0,0,1,18.682,16ZM31.742,34.34h.1a.833.833,0,0,1,0,1.667h-.306Zm-6.021-1.691a4.65,4.65,0,0,0,2.634,1.32l1.723.246-.549,4.4a.835.835,0,0,1-.828.731H24.976a.834.834,0,0,1-.827-.73l-.583-4.669Zm2.134,8.359.417,1.667H25.406l.417-1.667Zm.136,3.334-.833,1.667H26.52l-.833-1.667Zm-1.384,3.334h.465l1.111,3.334H25.494Zm1.966-.769,1.269-2.539a6.671,6.671,0,0,1,6.165,6.642H29.94ZM34.995,7.668h-2.91a12.073,12.073,0,0,0-2.5-4.581A9.21,9.21,0,0,1,34.995,7.668Zm-10.9-4.581a12.074,12.074,0,0,0-2.5,4.581h-2.91A9.209,9.209,0,0,1,24.095,3.087ZM11,21.837A5.841,5.841,0,0,1,16.836,16h0A10.848,10.848,0,0,0,26,22.628V26h-.286a4.14,4.14,0,0,0-2.946,1.22l-.552.552-.288.1A3.8,3.8,0,0,0,19.45,32.4l.338,1.352a2.475,2.475,0,0,0-.452,1.425,2.5,2.5,0,0,0,2.5,2.5h.514l.143,1.144a2.5,2.5,0,0,0,1.646,2.041l-.463,1.85a8.335,8.335,0,0,0-6.249,3.642,3.752,3.752,0,0,0-.157-3l-.344-.688a8.776,8.776,0,0,0,.741-3.519v-1.47A8.348,8.348,0,0,0,11,29.507ZM9.334,42.675a3.09,3.09,0,0,1-3.058-2.591l-.262-1.57A.848.848,0,0,1,6,38.362a.961.961,0,0,1,.8-.95l.212-.035a4.757,4.757,0,0,0,2.926-1.7l1.9,1.143a1.7,1.7,0,0,1,.822,1.451,2.037,2.037,0,0,1-.028.333l-.247,1.48a3.091,3.091,0,0,1-3.061,2.591ZM7.952,44.122a4.758,4.758,0,0,0,1.384.22,4.747,4.747,0,0,0,1.382-.22,3.314,3.314,0,0,0,1.335,1.869l-1.066,1.685h-3.3L6.616,45.991A3.314,3.314,0,0,0,7.952,44.122Zm1.98,5.221-.6.943-.6-.943Zm3.659-2.665A4.155,4.155,0,0,1,16,50.447v.563H10.849Zm3.217.747c.012-.013.024-.026.036-.04l-.027.055ZM3.413,42.3a7.092,7.092,0,0,1-.746-3.158v-1.47a6.668,6.668,0,1,1,13.336,0v1.47a7.092,7.092,0,0,1-.746,3.158l-.186.373.711,1.421a2.114,2.114,0,0,1,.221.937,2.072,2.072,0,0,1-.3,1.064,5.8,5.8,0,0,0-2.02-1.184l-.278-.093a1.66,1.66,0,0,1-1.09-1.178l-.074-.3a4.741,4.741,0,0,0,1.8-2.987l.247-1.479a3.722,3.722,0,0,0,.05-.608A3.378,3.378,0,0,0,12.7,35.39l-1.957-1.174A4.761,4.761,0,0,0,11,32.673H9.335a3.092,3.092,0,0,1-2.591,3.06l-.212.035a2.629,2.629,0,0,0-2.163,3.021l.262,1.57a4.743,4.743,0,0,0,1.8,2.987l-.074.3a1.661,1.661,0,0,1-1.089,1.177l-.28.093A5.816,5.816,0,0,0,2.97,46.1a2.067,2.067,0,0,1-.3-1.063,2.114,2.114,0,0,1,.221-.937L3.6,42.675Zm-.746,8.145a4.154,4.154,0,0,1,2.412-3.768L7.821,51.01H2.667Zm21.168-6.08L25.1,46.906l-1.368,4.1H17.67a6.671,6.671,0,0,1,6.165-6.642Zm13.242,3.563a4.978,4.978,0,0,1,3.431-1.891l1.235,2.47-1.25,2.5H37.674A8.281,8.281,0,0,0,37.077,47.931Zm9.447,3.079-1.25-2.5,1.238-2.475a5.007,5.007,0,0,1,4.5,4.975Z" transform="translate(-1 -1)"/>
        <path id="Trazado_1180619" data-name="Trazado 1180619" d="M10.413,11.961l1.179,1.179,3.923-3.923L11.591,5.293,10.413,6.472l1.911,1.911H1V10.05H12.324Z" transform="translate(-1 -1.715)"/>
        <path id="Trazado_1180620" data-name="Trazado 1180620" d="M48.777,8.383l1.911-1.911L49.509,5.293,45.586,9.216l3.923,3.923,1.179-1.179L48.777,10.05H60.1V8.383Z" transform="translate(-8.424 -1.715)"/>
      </g>
    </g>
  </g>
</svg>
