<svg xmlns="http://www.w3.org/2000/svg" xmlns:xlink="http://www.w3.org/1999/xlink" width="103" height="103" viewBox="0 0 103 103">
  <defs>
    <filter id="Trazado_982547" x="0" y="0" width="103" height="103" filterUnits="userSpaceOnUse">
      <feOffset dy="3" input="SourceAlpha"/>
      <feGaussianBlur stdDeviation="3" result="blur"/>
      <feFlood flood-opacity="0.161"/>
      <feComposite operator="in" in2="blur"/>
      <feComposite in="SourceGraphic"/>
    </filter>
  </defs>
  <g id="Grupo_1224537" data-name="Grupo 1224537" transform="translate(-1033.12 -5793)">
    <g id="Grupo_1224204" data-name="Grupo 1224204" transform="translate(0 5367)">
      <g id="Grupo_1224082" data-name="Grupo 1224082" transform="translate(838.99 -1582)">
        <g id="Grupo_1206686" data-name="Grupo 1206686" transform="translate(-2.87 300.583)">
          <g id="Grupo_1201889" data-name="Grupo 1201889" transform="translate(206 1713.417)">
            <g id="Grupo_1201680" data-name="Grupo 1201680">
              <g id="Grupo_1201330" data-name="Grupo 1201330">
                <g id="Grupo_1172010" data-name="Grupo 1172010">
                  <g id="Grupo_1171046" data-name="Grupo 1171046">
                    <g id="Grupo_1148525" data-name="Grupo 1148525">
                      <g transform="matrix(1, 0, 0, 1, -9, -6)" filter="url(#Trazado_982547)">
                        <g id="Trazado_982547-2" data-name="Trazado 982547" transform="translate(9 6)" fill="#f2f4f0">
                          <path d="M 42.5 83.5 C 36.96437835693359 83.5 31.59512901306152 82.41617584228516 26.54141235351562 80.27863311767578 C 21.65934181213379 78.21369171142578 17.27447128295898 75.25723266601562 13.50862312316895 71.49137878417969 C 9.742764472961426 67.72553253173828 6.786305904388428 63.34066009521484 4.721364498138428 58.45858764648438 C 2.583823442459106 53.40486907958984 1.5 48.03562164306641 1.5 42.5 C 1.5 36.96437835693359 2.583823442459106 31.59512901306152 4.721364498138428 26.54141235351562 C 6.786305904388428 21.65934181213379 9.742764472961426 17.27448272705078 13.50862312316895 13.50862312316895 C 17.27447128295898 9.742776870727539 21.65934181213379 6.786305904388428 26.54141235351562 4.721364498138428 C 31.59512901306152 2.583823442459106 36.96437835693359 1.5 42.5 1.5 C 48.03562164306641 1.5 53.40486907958984 2.583823442459106 58.45858764648438 4.721364498138428 C 63.34066009521484 6.786305904388428 67.72553253173828 9.742776870727539 71.49137878417969 13.50862312316895 C 75.25723266601562 17.27448272705078 78.21369171142578 21.65934181213379 80.27863311767578 26.54141235351562 C 82.41617584228516 31.59512901306152 83.5 36.96437835693359 83.5 42.5 C 83.5 48.03562164306641 82.41617584228516 53.40486907958984 80.27863311767578 58.45858764648438 C 78.21369171142578 63.34066009521484 75.25723266601562 67.72553253173828 71.49137878417969 71.49137878417969 C 67.72553253173828 75.25723266601562 63.34066009521484 78.21369171142578 58.45858764648438 80.27863311767578 C 53.40486907958984 82.41617584228516 48.03562164306641 83.5 42.5 83.5 Z" stroke="none"/>
                          <path d="M 42.5 3 C 37.16621398925781 3 31.99356079101562 4.043960571289062 27.125732421875 6.102882385253906 C 22.42246627807617 8.092185974121094 18.19785308837891 10.94070434570312 14.56928253173828 14.56928253173828 C 10.94070434570312 18.19785308837891 8.092185974121094 22.42246627807617 6.102882385253906 27.125732421875 C 4.043960571289062 31.99356079101562 3 37.16621398925781 3 42.5 C 3 47.83378601074219 4.043960571289062 53.00643920898438 6.102882385253906 57.87425231933594 C 8.092185974121094 62.57753372192383 10.94070434570312 66.80213165283203 14.56928253173828 70.43071746826172 C 18.19786834716797 74.05929565429688 22.42246627807617 76.90781402587891 27.125732421875 78.89711761474609 C 31.99356079101562 80.95603942871094 37.16621398925781 82 42.5 82 C 47.83378601074219 82 53.00642395019531 80.95603942871094 57.87425231933594 78.89711761474609 C 62.57753372192383 76.90781402587891 66.80213165283203 74.05929565429688 70.43071746826172 70.43071746826172 C 74.05929565429688 66.80213165283203 76.90781402587891 62.57753372192383 78.89711761474609 57.87425231933594 C 80.95603942871094 53.00642395019531 82 47.83378601074219 82 42.5 C 82 37.16621398925781 80.95603942871094 31.99356079101562 78.89711761474609 27.125732421875 C 76.90781402587891 22.42246627807617 74.05929565429688 18.19786834716797 70.43071746826172 14.56928253173828 C 66.80213165283203 10.94070434570312 62.57753372192383 8.092185974121094 57.87425231933594 6.102882385253906 C 53.00643920898438 4.043960571289062 47.83378601074219 3 42.5 3 M 42.5 0 C 65.97209167480469 0 85 19.02789306640625 85 42.5 C 85 65.97209167480469 65.97209167480469 85 42.5 85 C 19.02789306640625 85 0 65.97209167480469 0 42.5 C 0 19.02789306640625 19.02789306640625 0 42.5 0 Z" stroke="none" fill="#899e78"/>
                        </g>
                      </g>
                    </g>
                  </g>
                </g>
              </g>
            </g>
          </g>
        </g>
      </g>
    </g>
    <g id="productivity_14991771" transform="translate(987.696 5802.109)">
      <g id="Grupo_1224534" data-name="Grupo 1224534" transform="translate(74.755 7.501)">
        <g id="Grupo_1224533" data-name="Grupo 1224533" transform="translate(0 0)">
          <g id="Grupo_1224528" data-name="Grupo 1224528" transform="translate(2.749 9.54)">
            <g id="Grupo_1224525" data-name="Grupo 1224525" transform="translate(27.018)">
              <path id="Trazado_1180621" data-name="Trazado 1180621" d="M318.424,92.833h1.837a.265.265,0,0,1,.265.265v5.983l1.384-.705a1.489,1.489,0,0,1,.673-.162,1.473,1.473,0,0,1,1.049.434l2.706,2.706V93.1a.265.265,0,0,1,.265-.265h1.837a.265.265,0,0,0,.213-.422l-5.008-6.8a.265.265,0,0,0-.427,0l-5.008,6.8A.265.265,0,0,0,318.424,92.833Z" transform="translate(-318.158 -85.508)" fill="#0593fc"/>
            </g>
            <g id="Grupo_1224526" data-name="Grupo 1224526" transform="translate(33.135 0.963)">
              <path id="Trazado_1180622" data-name="Trazado 1180622" d="M372.557,99.325l-4.377-5.94v12.822l2.062,2.062v-8.257a.265.265,0,0,1,.265-.265h1.837A.265.265,0,0,0,372.557,99.325Z" transform="translate(-368.18 -93.385)" fill="#0182fc"/>
            </g>
            <g id="Grupo_1224527" data-name="Grupo 1224527" transform="translate(0 0)">
              <path id="Trazado_1180623" data-name="Trazado 1180623" d="M97.5,92.833h1.837a.265.265,0,0,1,.265.265v8.257l2.706-2.706a1.483,1.483,0,0,1,1.722-.273l1.384.705V93.1a.265.265,0,0,1,.265-.265h1.837a.265.265,0,0,0,.213-.422l-5.008-6.8a.265.265,0,0,0-.427,0l-5.008,6.8A.265.265,0,0,0,97.5,92.833Z" transform="translate(-97.233 -85.508)" fill="#0593fc"/>
            </g>
            <path id="Trazado_1180624" data-name="Trazado 1180624" d="M147.987,105.181l1.328.677v-5.846a.265.265,0,0,1,.265-.265h1.837a.265.265,0,0,0,.213-.422l-4.377-5.94v11.621A1.6,1.6,0,0,1,147.987,105.181Z" transform="translate(-141.136 -92.422)" fill="#0182fc"/>
          </g>
          <g id="Grupo_1224529" data-name="Grupo 1224529" transform="translate(0 17.718)">
            <path id="Trazado_1180625" data-name="Trazado 1180625" d="M74.755,175.932v-4.044a1.605,1.605,0,0,1,1.109-1.527l2.662-.865a1.617,1.617,0,0,0,1.034-1.043,17.483,17.483,0,0,1,1.04-2.51,1.619,1.619,0,0,0,.007-1.47l-1.271-2.495a1.605,1.605,0,0,1,.3-1.864l2.859-2.859a1.605,1.605,0,0,1,1.864-.3l2.495,1.271a1.618,1.618,0,0,0,1.47-.007,17.472,17.472,0,0,1,2.51-1.04,1.618,1.618,0,0,0,1.043-1.034l.865-2.662a1.605,1.605,0,0,1,1.527-1.109h4.044a1.605,1.605,0,0,1,1.527,1.109l.865,2.662a1.617,1.617,0,0,0,1.043,1.034,17.476,17.476,0,0,1,2.51,1.04,1.619,1.619,0,0,0,1.47.007l2.495-1.271a1.605,1.605,0,0,1,1.864.3l2.859,2.859a1.605,1.605,0,0,1,.3,1.864l-1.271,2.495a1.618,1.618,0,0,0,.007,1.47,17.473,17.473,0,0,1,1.04,2.51,1.618,1.618,0,0,0,1.034,1.043l2.662.865a1.605,1.605,0,0,1,1.109,1.527v4.044a1.605,1.605,0,0,1-1.109,1.527l-2.662.865a1.617,1.617,0,0,0-1.034,1.043,17.485,17.485,0,0,1-1.04,2.51,1.619,1.619,0,0,0-.007,1.47l1.271,2.495a1.605,1.605,0,0,1-.3,1.864l-2.859,2.859a1.605,1.605,0,0,1-1.864.3l-2.495-1.271a1.618,1.618,0,0,0-1.47.007,17.472,17.472,0,0,1-2.51,1.04,1.618,1.618,0,0,0-1.043,1.034l-.865,2.662a1.605,1.605,0,0,1-1.527,1.109H94.264a1.605,1.605,0,0,1-1.527-1.109l-.865-2.662a1.617,1.617,0,0,0-1.043-1.034,17.481,17.481,0,0,1-2.51-1.04,1.619,1.619,0,0,0-1.47-.007l-2.495,1.271a1.605,1.605,0,0,1-1.864-.3L79.632,187.7a1.605,1.605,0,0,1-.3-1.864l1.271-2.495a1.618,1.618,0,0,0-.007-1.47,17.476,17.476,0,0,1-1.04-2.51,1.618,1.618,0,0,0-1.034-1.043l-2.662-.865A1.6,1.6,0,0,1,74.755,175.932Z" transform="translate(-74.755 -152.379)" fill="#c5d3dd"/>
          </g>
          <g id="Grupo_1224530" data-name="Grupo 1224530" transform="translate(14.856 22.124)">
            <path id="Trazado_1180626" data-name="Trazado 1180626" d="M223.328,201.987l-2.662-.865a1.617,1.617,0,0,1-1.034-1.043,17.481,17.481,0,0,0-1.04-2.51,1.619,1.619,0,0,1-.007-1.47l1.271-2.495a1.6,1.6,0,0,0-.3-1.864l-2.859-2.859a1.605,1.605,0,0,0-1.864-.3l-2.033,1.036a20.676,20.676,0,0,1-16.574,32.19c.4.164.805.315,1.219.449a1.618,1.618,0,0,1,1.043,1.034l.865,2.662a1.605,1.605,0,0,0,1.527,1.109h4.044a1.605,1.605,0,0,0,1.527-1.109l.865-2.662a1.617,1.617,0,0,1,1.043-1.034,17.484,17.484,0,0,0,2.51-1.04,1.619,1.619,0,0,1,1.47-.007l2.495,1.271a1.605,1.605,0,0,0,1.864-.3l2.859-2.859a1.605,1.605,0,0,0,.3-1.864l-1.271-2.495a1.618,1.618,0,0,1,.007-1.47,17.46,17.46,0,0,0,1.04-2.51,1.618,1.618,0,0,1,1.034-1.043l2.662-.865a1.6,1.6,0,0,0,1.109-1.527v-4.044A1.605,1.605,0,0,0,223.328,201.987Z" transform="translate(-196.231 -188.411)" fill="#b6c4cf"/>
          </g>
          <path id="Trazado_1180627" data-name="Trazado 1180627" d="M188.975,18.071h2.651a.382.382,0,0,1,.382.382V36.7a10.888,10.888,0,0,1,8.387,0V18.453a.382.382,0,0,1,.382-.382h2.651a.382.382,0,0,0,.308-.609l-7.227-9.805a.382.382,0,0,0-.616,0l-7.227,9.806A.382.382,0,0,0,188.975,18.071Z" transform="translate(-174.671 -7.501)" fill="#5de1c4"/>
          <path id="Trazado_1180628" data-name="Trazado 1180628" d="M228.256,29.106l-6.145-8.339V43.448a1.223,1.223,0,0,1-1.223,1.223h-4.359v3.669a10.888,10.888,0,0,1,8.387,0V30.1a.382.382,0,0,1,.382-.382h2.651A.382.382,0,0,0,228.256,29.106Z" transform="translate(-199.19 -19.145)" fill="#0ed2b3"/>
          <g id="Grupo_1224531" data-name="Grupo 1224531" transform="translate(10.515 28.233)">
            <path id="Trazado_1180629" data-name="Trazado 1180629" d="M182.772,249.378a11.016,11.016,0,1,1-11.016-11.016A11.016,11.016,0,0,1,182.772,249.378Z" transform="translate(-160.74 -238.362)" fill="#fff"/>
            <path id="Trazado_1180630" data-name="Trazado 1180630" d="M198.865,244.972A11.018,11.018,0,0,1,186.9,262.941a11.016,11.016,0,1,0,11.964-17.969Z" transform="translate(-183.702 -244.164)" fill="#f5f8f9"/>
          </g>
          <g id="Grupo_1224532" data-name="Grupo 1224532" transform="translate(26.109 42.55)">
            <circle id="Elipse_14753" data-name="Elipse 14753" cx="9.115" cy="9.115" r="9.115" fill="#ffe177"/>
            <path id="Trazado_1180631" data-name="Trazado 1180631" d="M317.493,359.783a9.116,9.116,0,0,1-9.807,14.721,9.115,9.115,0,1,0,9.807-14.721Z" transform="translate(-305.31 -359.252)" fill="#ffd15b"/>
          </g>
        </g>
      </g>
      <g id="Grupo_1224536" data-name="Grupo 1224536" transform="translate(74.755 7.501)">
        <path id="Trazado_1180632" data-name="Trazado 1180632" d="M250.816,273.106v6.767l4.387,2.42" transform="translate(-229.285 -240.624)" fill="none" stroke="#000" stroke-linecap="round" stroke-linejoin="round" stroke-miterlimit="10" stroke-width="1.2"/>
        <path id="Trazado_1180633" data-name="Trazado 1180633" d="M348.422,443.279a2.325,2.325,0,0,1-4.65,0" transform="translate(-310.873 -389.986)" fill="none" stroke="#000" stroke-linecap="round" stroke-linejoin="round" stroke-miterlimit="10" stroke-width="1.2"/>
        <g id="Grupo_1224535" data-name="Grupo 1224535" transform="translate(32.992 48.503)">
          <line id="Línea_3753" data-name="Línea 3753" y2="0.372" fill="none" stroke="#000" stroke-linecap="round" stroke-linejoin="round" stroke-miterlimit="10" stroke-width="1.2"/>
          <line id="Línea_3754" data-name="Línea 3754" y2="0.372" transform="translate(4.65)" fill="none" stroke="#000" stroke-linecap="round" stroke-linejoin="round" stroke-miterlimit="10" stroke-width="1.2"/>
        </g>
        <path id="Trazado_1180634" data-name="Trazado 1180634" d="M306.475,364.209a9.108,9.108,0,1,0-.845,4.2" transform="translate(-262.146 -312.889)" fill="none" stroke="#000" stroke-linecap="round" stroke-linejoin="round" stroke-miterlimit="10" stroke-width="1.2"/>
        <path id="Trazado_1180635" data-name="Trazado 1180635" d="M298.856,200.469l2.479-.805a1.605,1.605,0,0,0,1.109-1.527v-4.044a1.605,1.605,0,0,0-1.109-1.527l-2.662-.865a1.617,1.617,0,0,1-1.034-1.043,17.477,17.477,0,0,0-1.04-2.51,1.619,1.619,0,0,1-.007-1.47l1.271-2.495a1.6,1.6,0,0,0-.3-1.864l-2.859-2.859a1.605,1.605,0,0,0-1.864-.3l-2.495,1.271a1.618,1.618,0,0,1-1.47-.007,17.469,17.469,0,0,0-2.51-1.04,1.617,1.617,0,0,1-1.043-1.034l-.22-.678" transform="translate(-259.382 -156.867)" fill="none" stroke="#000" stroke-linejoin="round" stroke-miterlimit="10" stroke-width="1.2"/>
        <path id="Trazado_1180636" data-name="Trazado 1180636" d="M92.095,177.678l-.22.678a1.617,1.617,0,0,1-1.043,1.034,17.482,17.482,0,0,0-2.51,1.04,1.619,1.619,0,0,1-1.47.007l-2.495-1.271a1.605,1.605,0,0,0-1.864.3l-2.859,2.859a1.605,1.605,0,0,0-.3,1.864l1.271,2.495a1.618,1.618,0,0,1-.007,1.47,17.474,17.474,0,0,0-1.04,2.51,1.618,1.618,0,0,1-1.034,1.043l-2.662.865a1.605,1.605,0,0,0-1.109,1.527v4.044a1.605,1.605,0,0,0,1.109,1.527l2.662.865a1.617,1.617,0,0,1,1.034,1.043,17.481,17.481,0,0,0,1.04,2.51,1.619,1.619,0,0,1,.007,1.47l-1.271,2.495a1.605,1.605,0,0,0,.3,1.864l2.859,2.859a1.605,1.605,0,0,0,1.864.3l2.495-1.271a1.618,1.618,0,0,1,1.47.007,17.472,17.472,0,0,0,2.51,1.04,1.618,1.618,0,0,1,1.043,1.034l.865,2.662a1.605,1.605,0,0,0,1.527,1.109H98.31a1.605,1.605,0,0,0,1.527-1.109l.865-2.662a1.617,1.617,0,0,1,1.043-1.034c.058-.019.115-.041.173-.06" transform="translate(-74.757 -156.867)" fill="none" stroke="#000" stroke-linejoin="round" stroke-miterlimit="10" stroke-width="1.2"/>
        <path id="Trazado_1180637" data-name="Trazado 1180637" d="M326.337,101.182V93.1a.265.265,0,0,1,.265-.265h1.837a.265.265,0,0,0,.213-.422l-5.008-6.8a.265.265,0,0,0-.427,0l-5.008,6.8a.265.265,0,0,0,.213.422h1.837a.265.265,0,0,1,.265.265v5.846" transform="translate(-288.391 -75.968)" fill="none" stroke="#000" stroke-linejoin="round" stroke-miterlimit="10" stroke-width="1.2"/>
        <path id="Trazado_1180638" data-name="Trazado 1180638" d="M105.412,98.944V93.1a.265.265,0,0,1,.265-.265h1.837a.265.265,0,0,0,.213-.422l-5.008-6.8a.265.265,0,0,0-.427,0l-5.008,6.8a.265.265,0,0,0,.213.422h1.837a.265.265,0,0,1,.265.265v8.084" transform="translate(-94.484 -75.968)" fill="none" stroke="#000" stroke-linejoin="round" stroke-miterlimit="10" stroke-width="1.2"/>
        <path id="Trazado_1180639" data-name="Trazado 1180639" d="M200.395,36.56V18.453a.382.382,0,0,1,.382-.382h2.651a.382.382,0,0,0,.308-.609l-7.227-9.805a.382.382,0,0,0-.616,0l-7.227,9.806a.382.382,0,0,0,.308.609h2.651a.382.382,0,0,1,.382.382v3.611" transform="translate(-174.671 -7.501)" fill="none" stroke="#000" stroke-linecap="round" stroke-linejoin="round" stroke-miterlimit="10" stroke-width="1.2"/>
        <line id="Línea_3755" data-name="Línea 3755" y2="10.216" transform="translate(17.338 18.844)" fill="none" stroke="#000" stroke-linecap="round" stroke-linejoin="round" stroke-miterlimit="10" stroke-width="1.2"/>
        <path id="Trazado_1180640" data-name="Trazado 1180640" d="M182.036,253.343a11.015,11.015,0,1,0-21.056-1.673" transform="translate(-150.225 -210.129)" fill="none" stroke="#000" stroke-linecap="round" stroke-linejoin="round" stroke-miterlimit="10" stroke-width="1.2"/>
        <path id="Trazado_1180641" data-name="Trazado 1180641" d="M176.512,379.363a11.021,11.021,0,0,0,14.036,3.616" transform="translate(-164.068 -333.887)" fill="none" stroke="#000" stroke-linecap="round" stroke-linejoin="round" stroke-miterlimit="10" stroke-width="1.2"/>
      </g>
    </g>
  </g>
</svg>
