<svg xmlns="http://www.w3.org/2000/svg" xmlns:xlink="http://www.w3.org/1999/xlink" width="113" height="113" viewBox="0 0 113 113">
  <defs>
    <filter id="Trazado_982547" x="0" y="0" width="113" height="113" filterUnits="userSpaceOnUse">
      <feOffset dy="3" input="SourceAlpha"/>
      <feGaussianBlur stdDeviation="3" result="blur"/>
      <feFlood flood-opacity="0.161"/>
      <feComposite operator="in" in2="blur"/>
      <feComposite in="SourceGraphic"/>
    </filter>
  </defs>
  <g id="Grupo_1224577" data-name="Grupo 1224577" transform="translate(-674 -7063.751)">
    <g id="Grupo_1224450" data-name="Grupo 1224450" transform="translate(683 7069.751)">
      <g id="Grupo_1224085" data-name="Grupo 1224085" transform="translate(0 0)">
        <g id="Grupo_1223184" data-name="Grupo 1223184">
          <g id="Grupo_1211216" data-name="Grupo 1211216">
            <g id="Grupo_1210737" data-name="Grupo 1210737">
              <g id="Grupo_1210537" data-name="Grupo 1210537">
                <g id="Grupo_1164202" data-name="Grupo 1164202">
                  <g id="Grupo_1158168" data-name="Grupo 1158168">
                    <g id="Grupo_1152576" data-name="Grupo 1152576">
                      <g id="Grupo_1148633" data-name="Grupo 1148633">
                        <g id="Grupo_1148525" data-name="Grupo 1148525">
                          <g transform="matrix(1, 0, 0, 1, -9, -6)" filter="url(#Trazado_982547)">
                            <g id="Trazado_982547-2" data-name="Trazado 982547" transform="translate(9 6)" fill="#fcf5f0">
                              <path d="M 47.49999618530273 93.5 C 41.28936767578125 93.5 35.26533126831055 92.28396606445312 29.59518241882324 89.88570404052734 C 24.11771583557129 87.56893157958984 19.19812965393066 84.251953125 14.97308921813965 80.02690124511719 C 10.74803638458252 75.80186462402344 7.431062698364258 70.88227844238281 5.114289283752441 65.40480804443359 C 2.716022968292236 59.73466110229492 1.499996185302734 53.71062469482422 1.499996185302734 47.49999618530273 C 1.499996185302734 41.28936767578125 2.716022968292236 35.26533126831055 5.114289283752441 29.59518241882324 C 7.431062698364258 24.11771583557129 10.74803638458252 19.19812965393066 14.97308921813965 14.97308921813965 C 19.19812965393066 10.74803638458252 24.11771583557129 7.431062698364258 29.59518241882324 5.114289283752441 C 35.26533126831055 2.716022968292236 41.28936767578125 1.499996185302734 47.49999618530273 1.499996185302734 C 53.71062469482422 1.499996185302734 59.73466110229492 2.716022968292236 65.40480804443359 5.114289283752441 C 70.88227844238281 7.431062698364258 75.80186462402344 10.74803638458252 80.02690124511719 14.97308921813965 C 84.251953125 19.19812965393066 87.56893157958984 24.11771583557129 89.88570404052734 29.59518241882324 C 92.28396606445312 35.26533126831055 93.5 41.28936767578125 93.5 47.49999618530273 C 93.5 53.71062469482422 92.28396606445312 59.73466110229492 89.88570404052734 65.40480804443359 C 87.56893157958984 70.88227844238281 84.251953125 75.80186462402344 80.02690124511719 80.02690124511719 C 75.80186462402344 84.251953125 70.88227844238281 87.56893157958984 65.40480804443359 89.88570404052734 C 59.73466110229492 92.28396606445312 53.71062469482422 93.5 47.49999618530273 93.5 Z" stroke="none"/>
                              <path d="M 47.49999618530273 2.999992370605469 C 41.4912109375 2.999992370605469 35.66376495361328 4.1761474609375 30.17950439453125 6.495796203613281 C 24.88084411621094 8.736953735351562 20.12152099609375 11.94598388671875 16.03375244140625 16.03375244140625 C 11.94598388671875 20.12152099609375 8.736953735351562 24.88084411621094 6.495796203613281 30.17950439453125 C 4.1761474609375 35.66376495361328 2.999992370605469 41.4912109375 2.999992370605469 47.49999618530273 C 2.999992370605469 53.50878143310547 4.1761474609375 59.33622741699219 6.495796203613281 64.82048797607422 C 8.736953735351562 70.11914825439453 11.94598388671875 74.87847137451172 16.03375244140625 78.96623992919922 C 20.12152099609375 83.05400848388672 24.88084411621094 86.26304626464844 30.17950439453125 88.50419616699219 C 35.66376495361328 90.82384490966797 41.4912109375 92 47.49999618530273 92 C 53.50878143310547 92 59.33622741699219 90.82384490966797 64.82048797607422 88.50419616699219 C 70.11914825439453 86.26304626464844 74.87847137451172 83.05400848388672 78.96623992919922 78.96623992919922 C 83.05400848388672 74.87847137451172 86.26304626464844 70.11914825439453 88.50419616699219 64.82048797607422 C 90.82384490966797 59.33622741699219 92 53.50878143310547 92 47.49999618530273 C 92 41.4912109375 90.82384490966797 35.66376495361328 88.50419616699219 30.17950439453125 C 86.26304626464844 24.88084411621094 83.05400848388672 20.12152099609375 78.96623992919922 16.03375244140625 C 74.87847137451172 11.94598388671875 70.11914825439453 8.736953735351562 64.82048797607422 6.495796203613281 C 59.33622741699219 4.1761474609375 53.50878143310547 2.999992370605469 47.49999618530273 2.999992370605469 M 47.49999618530273 -7.62939453125e-06 C 73.7335205078125 -7.62939453125e-06 95 21.26647186279297 95 47.49999618530273 C 95 73.7335205078125 73.7335205078125 95 47.49999618530273 95 C 21.26647186279297 95 -7.62939453125e-06 73.7335205078125 -7.62939453125e-06 47.49999618530273 C -7.62939453125e-06 21.26647186279297 21.26647186279297 -7.62939453125e-06 47.49999618530273 -7.62939453125e-06 Z" stroke="none" fill="#eca675"/>
                            </g>
                          </g>
                        </g>
                      </g>
                    </g>
                  </g>
                </g>
              </g>
            </g>
          </g>
        </g>
      </g>
    </g>
    <g id="investment_1606623" transform="translate(695.958 7084.807)">
      <path id="Trazado_1180804" data-name="Trazado 1180804" d="M168.117,312.23h20.657v22.952H168.117Zm0,0" transform="translate(-143.904 -267.441)" fill="#ffbc05"/>
      <path id="Trazado_1180805" data-name="Trazado 1180805" d="M144.117,296.23v8.033a3.443,3.443,0,0,0,6.886,0,3.443,3.443,0,0,0,6.886,0,3.443,3.443,0,0,0,6.886,0,3.443,3.443,0,0,0,6.886,0V296.23Zm0,0" transform="translate(-123.347 -253.736)" fill="#2cb357"/>
      <path id="Trazado_1180806" data-name="Trazado 1180806" d="M216.117,408.23H223v9.181h-6.886Zm0,0" transform="translate(-185.018 -349.669)" fill="#e38100"/>
      <path id="Trazado_1180807" data-name="Trazado 1180807" d="M28.774,50.558A10.328,10.328,0,1,1,18.445,40.23,10.329,10.329,0,0,1,28.774,50.558Zm0,0" transform="translate(-6.856 -34.459)" fill="#ffbc05"/>
      <path id="Trazado_1180808" data-name="Trazado 1180808" d="M348.774,50.558A10.328,10.328,0,1,1,338.445,40.23,10.329,10.329,0,0,1,348.774,50.558Zm0,0" transform="translate(-280.952 -34.459)" fill="#f6e8c7"/>
      <path id="Trazado_1180809" data-name="Trazado 1180809" d="M184.117,88.3h16.066V80.263a8.033,8.033,0,1,0-16.066,0Zm0,0" transform="translate(-157.609 -61.869)" fill="#4db5ff"/>
      <path id="Trazado_1180810" data-name="Trazado 1180810" d="M217.3,12.821a4.59,4.59,0,1,1-4.59-4.59A4.59,4.59,0,0,1,217.3,12.821Zm0,0" transform="translate(-178.166 -7.05)" fill="#f2cba7"/>
      <g id="Grupo_1224576" data-name="Grupo 1224576" transform="translate(20.77 49.38)">
        <path id="Trazado_1180811" data-name="Trazado 1180811" d="M195.56,348.82A3.443,3.443,0,0,0,199,345.378V344.23h-6.886v1.148A3.443,3.443,0,0,0,195.56,348.82Zm0,0" transform="translate(-185.231 -344.23)" fill="#1f9342"/>
        <path id="Trazado_1180812" data-name="Trazado 1180812" d="M291.56,348.82A3.443,3.443,0,0,0,295,345.378V344.23h-6.886v1.148A3.443,3.443,0,0,0,291.56,348.82Zm0,0" transform="translate(-267.46 -344.23)" fill="#1f9342"/>
        <path id="Trazado_1180813" data-name="Trazado 1180813" d="M243.56,348.82A3.443,3.443,0,0,0,247,345.378V344.23h-6.886v1.148A3.443,3.443,0,0,0,243.56,348.82Zm0,0" transform="translate(-226.346 -344.23)" fill="#1f9342"/>
        <path id="Trazado_1180814" data-name="Trazado 1180814" d="M147.56,348.82A3.443,3.443,0,0,0,151,345.378V344.23h-6.886v1.148A3.443,3.443,0,0,0,147.56,348.82Zm0,0" transform="translate(-144.117 -344.23)" fill="#1f9342"/>
      </g>
      <path id="Trazado_1180815" data-name="Trazado 1180815" d="M59.56,67.673a1.148,1.148,0,0,1,1.148,1.148H63a3.443,3.443,0,0,0-2.3-3.232V64.231h-2.3v1.359a3.435,3.435,0,0,0,1.148,6.674,1.148,1.148,0,1,1-1.148,1.148h-2.3a3.441,3.441,0,0,0,2.3,3.232V78h2.3V76.643a3.435,3.435,0,0,0-1.148-6.674,1.148,1.148,0,0,1,0-2.3Zm0,0" transform="translate(-47.97 -55.017)"/>
      <path id="Trazado_1180816" data-name="Trazado 1180816" d="M58.641,4.682V2.328h2.3V.033H54.051v2.3h2.3V4.682a11.476,11.476,0,0,0,0,22.837v3.5H35.689V27.576h6.886a1.148,1.148,0,0,0,1.148-1.148V18.395a9.187,9.187,0,0,0-5.388-8.351,5.738,5.738,0,1,0-7.585,0,9.186,9.186,0,0,0-5.388,8.351v8.033a1.148,1.148,0,0,0,1.148,1.148h6.886v3.443H12.737v-3.5a11.476,11.476,0,1,0-2.3,0v4.649a1.148,1.148,0,0,0,1.148,1.148h21.8v4.115L31.91,35.945l-1.623,1.623L33.73,41.01a1.147,1.147,0,0,0,1.623,0L38.8,37.568l-1.623-1.623-1.484,1.484V33.314h21.8a1.148,1.148,0,0,0,1.148-1.148V27.517a11.476,11.476,0,0,0,0-22.837ZM2.409,16.1a9.181,9.181,0,1,1,9.181,9.181A9.181,9.181,0,0,1,2.409,16.1ZM34.541,2.328A3.443,3.443,0,1,1,31.1,5.771,3.443,3.443,0,0,1,34.541,2.328ZM27.656,25.28V18.395a6.886,6.886,0,0,1,13.771,0V25.28Zm29.838,0A9.181,9.181,0,1,1,66.674,16.1,9.181,9.181,0,0,1,57.493,25.28Zm0,0" transform="translate(0)"/>
      <path id="Trazado_1180817" data-name="Trazado 1180817" d="M381.567,78.353l-1.484-1.484-1.623,1.623,2.3,2.3a1.147,1.147,0,0,0,1.623,0l4.59-4.59-1.623-1.623Zm0,0" transform="translate(-324.074 -63.876)"/>
      <path id="Trazado_1180818" data-name="Trazado 1180818" d="M136.117,289.378v8.033a4.59,4.59,0,0,0,3.443,4.427v12.787a1.148,1.148,0,0,0,1.148,1.148h20.657a1.148,1.148,0,0,0,1.148-1.148V301.838a4.59,4.59,0,0,0,3.443-4.427v-8.033a1.148,1.148,0,0,0-1.148-1.148H137.265A1.148,1.148,0,0,0,136.117,289.378Zm17.214,24.1h-4.59v-6.886h4.59Zm6.886,0h-4.59v-8.033a1.148,1.148,0,0,0-1.148-1.148h-6.886a1.148,1.148,0,0,0-1.148,1.148v8.033h-4.59V301.842a4.593,4.593,0,0,0,2.3-1.4,4.584,4.584,0,0,0,6.886,0,4.584,4.584,0,0,0,6.886,0,4.591,4.591,0,0,0,2.3,1.4Zm-21.8-22.952h25.247v6.886a2.3,2.3,0,1,1-4.59,0v-1.148a1.148,1.148,0,0,0-2.3,0v1.148a2.3,2.3,0,1,1-4.59,0v-1.148a1.148,1.148,0,0,0-2.3,0v1.148a2.3,2.3,0,1,1-4.59,0v-1.148a1.148,1.148,0,0,0-2.3,0v1.148a2.3,2.3,0,1,1-4.59,0Zm0,0" transform="translate(-116.494 -246.883)"/>
    </g>
  </g>
</svg>
