<svg xmlns="http://www.w3.org/2000/svg" xmlns:xlink="http://www.w3.org/1999/xlink" width="113" height="113" viewBox="0 0 113 113">
  <defs>
    <filter id="Trazado_982547" x="0" y="0" width="113" height="113" filterUnits="userSpaceOnUse">
      <feOffset dy="3" input="SourceAlpha"/>
      <feGaussianBlur stdDeviation="3" result="blur"/>
      <feFlood flood-opacity="0.161"/>
      <feComposite operator="in" in2="blur"/>
      <feComposite in="SourceGraphic"/>
    </filter>
  </defs>
  <g id="Grupo_1224578" data-name="Grupo 1224578" transform="translate(-5741 -7063.751)">
    <g id="Grupo_1224451" data-name="Grupo 1224451" transform="translate(5750 7069.751)">
      <g id="Grupo_1224085" data-name="Grupo 1224085" transform="translate(0 0)">
        <g id="Grupo_1223184" data-name="Grupo 1223184">
          <g id="Grupo_1211216" data-name="Grupo 1211216">
            <g id="Grupo_1210737" data-name="Grupo 1210737">
              <g id="Grupo_1210537" data-name="Grupo 1210537">
                <g id="Grupo_1164202" data-name="Grupo 1164202">
                  <g id="Grupo_1158168" data-name="Grupo 1158168">
                    <g id="Grupo_1152576" data-name="Grupo 1152576">
                      <g id="Grupo_1148633" data-name="Grupo 1148633">
                        <g id="Grupo_1148525" data-name="Grupo 1148525">
                          <g transform="matrix(1, 0, 0, 1, -9, -6)" filter="url(#Trazado_982547)">
                            <g id="Trazado_982547-2" data-name="Trazado 982547" transform="translate(9 6)" fill="#fcf5f0">
                              <path d="M 47.49999618530273 93.5 C 41.28936767578125 93.5 35.26533126831055 92.28396606445312 29.59518241882324 89.88570404052734 C 24.11771583557129 87.56893157958984 19.19812965393066 84.251953125 14.97308921813965 80.02690124511719 C 10.74803638458252 75.80186462402344 7.431062698364258 70.88227844238281 5.114289283752441 65.40480804443359 C 2.716022968292236 59.73466110229492 1.499996185302734 53.71062469482422 1.499996185302734 47.49999618530273 C 1.499996185302734 41.28936767578125 2.716022968292236 35.26533126831055 5.114289283752441 29.59518241882324 C 7.431062698364258 24.11771583557129 10.74803638458252 19.19812965393066 14.97308921813965 14.97308921813965 C 19.19812965393066 10.74803638458252 24.11771583557129 7.431062698364258 29.59518241882324 5.114289283752441 C 35.26533126831055 2.716022968292236 41.28936767578125 1.499996185302734 47.49999618530273 1.499996185302734 C 53.71062469482422 1.499996185302734 59.73466110229492 2.716022968292236 65.40480804443359 5.114289283752441 C 70.88227844238281 7.431062698364258 75.80186462402344 10.74803638458252 80.02690124511719 14.97308921813965 C 84.251953125 19.19812965393066 87.56893157958984 24.11771583557129 89.88570404052734 29.59518241882324 C 92.28396606445312 35.26533126831055 93.5 41.28936767578125 93.5 47.49999618530273 C 93.5 53.71062469482422 92.28396606445312 59.73466110229492 89.88570404052734 65.40480804443359 C 87.56893157958984 70.88227844238281 84.251953125 75.80186462402344 80.02690124511719 80.02690124511719 C 75.80186462402344 84.251953125 70.88227844238281 87.56893157958984 65.40480804443359 89.88570404052734 C 59.73466110229492 92.28396606445312 53.71062469482422 93.5 47.49999618530273 93.5 Z" stroke="none"/>
                              <path d="M 47.49999618530273 2.999992370605469 C 41.4912109375 2.999992370605469 35.66376495361328 4.1761474609375 30.17950439453125 6.495796203613281 C 24.88084411621094 8.736953735351562 20.12152099609375 11.94598388671875 16.03375244140625 16.03375244140625 C 11.94598388671875 20.12152099609375 8.736953735351562 24.88084411621094 6.495796203613281 30.17950439453125 C 4.1761474609375 35.66376495361328 2.999992370605469 41.4912109375 2.999992370605469 47.49999618530273 C 2.999992370605469 53.50878143310547 4.1761474609375 59.33622741699219 6.495796203613281 64.82048797607422 C 8.736953735351562 70.11914825439453 11.94598388671875 74.87847137451172 16.03375244140625 78.96623992919922 C 20.12152099609375 83.05400848388672 24.88084411621094 86.26304626464844 30.17950439453125 88.50419616699219 C 35.66376495361328 90.82384490966797 41.4912109375 92 47.49999618530273 92 C 53.50878143310547 92 59.33622741699219 90.82384490966797 64.82048797607422 88.50419616699219 C 70.11914825439453 86.26304626464844 74.87847137451172 83.05400848388672 78.96623992919922 78.96623992919922 C 83.05400848388672 74.87847137451172 86.26304626464844 70.11914825439453 88.50419616699219 64.82048797607422 C 90.82384490966797 59.33622741699219 92 53.50878143310547 92 47.49999618530273 C 92 41.4912109375 90.82384490966797 35.66376495361328 88.50419616699219 30.17950439453125 C 86.26304626464844 24.88084411621094 83.05400848388672 20.12152099609375 78.96623992919922 16.03375244140625 C 74.87847137451172 11.94598388671875 70.11914825439453 8.736953735351562 64.82048797607422 6.495796203613281 C 59.33622741699219 4.1761474609375 53.50878143310547 2.999992370605469 47.49999618530273 2.999992370605469 M 47.49999618530273 -7.62939453125e-06 C 73.7335205078125 -7.62939453125e-06 95 21.26647186279297 95 47.49999618530273 C 95 73.7335205078125 73.7335205078125 95 47.49999618530273 95 C 21.26647186279297 95 -7.62939453125e-06 73.7335205078125 -7.62939453125e-06 47.49999618530273 C -7.62939453125e-06 21.26647186279297 21.26647186279297 -7.62939453125e-06 47.49999618530273 -7.62939453125e-06 Z" stroke="none" fill="#eca675"/>
                            </g>
                          </g>
                        </g>
                      </g>
                    </g>
                  </g>
                </g>
              </g>
            </g>
          </g>
        </g>
      </g>
    </g>
    <g id="returns_12206787" transform="translate(5733.564 7067.382)">
      <path id="Trazado_1180819" data-name="Trazado 1180819" d="M61.042,50.681l-3.876.349a.773.773,0,0,1-.783-1.152l1.087-1.883a18.585,18.585,0,0,1-3.232-22.632l-.378-4.2a.773.773,0,0,1,1.152-.783l2.087,1.2a18.587,18.587,0,0,1,21.849-3.448l4.873-.438a.773.773,0,0,1,.783,1.152l-1.367,2.368a18.586,18.586,0,0,1,3.421,22.3l.383,4.258a.773.773,0,0,1-1.154.736l-2.009-1.16a18.585,18.585,0,0,1-22.815,3.347ZM48.251,83.486a.776.776,0,0,0,1.1,0L53.534,79.3a4.231,4.231,0,0,0,.552-5.284,4.521,4.521,0,0,1,4.229-2.1v0H76.2a.512.512,0,0,0,.061,0C82.582,71.4,86.4,66.071,91.225,59.345c.917-1.279,1.871-2.609,2.874-3.952h0c1.769-2.353,1.908-4.5-.072-6.476a4.651,4.651,0,0,0-6.562,0l-8.051,8.051a4.643,4.643,0,0,0-3.825-2.02H61.153q-7.1-1.808-12.048.067a13.85,13.85,0,0,0-7.367,6.805,4.231,4.231,0,0,0-4.922.762l-4.187,4.187a.776.776,0,0,0,0,1.1L48.251,83.486Zm12.565-41.4.632-1.094a.773.773,0,0,1,1.4.017l2.016,4.35a12.188,12.188,0,0,0,13.065-1.326l-1.12-.647A.775.775,0,0,1,76.85,42l4.366-2.023A12.178,12.178,0,0,0,79.874,26.92l-.541.937a.773.773,0,0,1-1.4-.017l-1.9-4.1a12.191,12.191,0,0,0-13.273,1.234l1.094.632a.773.773,0,0,1-.017,1.4l-4.366,2.023a12.177,12.177,0,0,0,1.342,13.06Zm9.435-17.1a9.556,9.556,0,1,0,9.556,9.556,9.556,9.556,0,0,0-9.556-9.556Z" transform="translate(0 0)" fill-rule="evenodd"/>
      <path id="Trazado_1180820" data-name="Trazado 1180820" d="M275.929,192.259l1.23.71-.577-6.412-5.839,2.706a8.58,8.58,0,0,1,.926.557.773.773,0,0,1-.014,1.147,13.744,13.744,0,0,1-13.933,2.965l.807,1.745a.776.776,0,0,1-.635,1.092l-2.094.188a17.051,17.051,0,0,0,19.133-4.556.773.773,0,0,1,1-.143Z" transform="translate(-191.893 -146.482)" fill="#32a23f" fill-rule="evenodd"/>
      <path id="Trazado_1180821" data-name="Trazado 1180821" d="M351.722,59.541l.144,1.6a17.048,17.048,0,0,0-4.6-18.42.773.773,0,0,1-.185-.991l.931-1.611-6.41.576,2.706,5.841a5.531,5.531,0,0,1,.5-.8.773.773,0,0,1,1.093.027,13.751,13.751,0,0,1,3,13.947l1.73-.8a.776.776,0,0,1,1.093.633Z" transform="translate(-265.593 -20.696)" fill="#3ab846" fill-rule="evenodd"/>
      <path id="Trazado_1180822" data-name="Trazado 1180822" d="M185.6,122.788a.774.774,0,0,1,.186.991l-.65,1.126,6.41-.576-2.706-5.841a7.589,7.589,0,0,1-.59.962.773.773,0,0,1-1.093-.027,13.749,13.749,0,0,1-3-13.947l-1.73.8a.776.776,0,0,1-1.092-.635l-.157-1.741A17.051,17.051,0,0,0,185.6,122.788Z" transform="translate(-126.778 -75.482)" fill="#63cf6a" fill-rule="evenodd"/>
      <path id="Trazado_1180823" data-name="Trazado 1180823" d="M197.94,32.91a.777.777,0,0,1-.78.25,17.063,17.063,0,0,1-1.524-.846l.576,6.41,5.841-2.707a7.621,7.621,0,0,1-.962-.59.773.773,0,0,1,.027-1.093,13.734,13.734,0,0,1,14.145-2.928l-.906-1.959a.776.776,0,0,1,.635-1.092l.806-.072A17.053,17.053,0,0,0,197.94,32.91Z" transform="translate(-140.213 -9.793)" fill="#4bc755" fill-rule="evenodd"/>
      <path id="Trazado_1180824" data-name="Trazado 1180824" d="M44.928,353.273,59.454,367.8l3.639-3.638a2.69,2.69,0,0,0,.3-3.416c-.855-.874-9.382-9.439-11.052-11.109a2.677,2.677,0,0,0-3.772,0Z" transform="translate(-10.759 -285.895)" fill="#12b7ee" fill-rule="evenodd"/>
      <path id="Trazado_1180825" data-name="Trazado 1180825" d="M106.65,264.731,116.7,274.779a6.067,6.067,0,0,1,5.288-2.454v0h17.856c5.585-.472,9.217-5.54,13.8-11.928.916-1.277,1.868-2.606,2.892-3.977h0c1.3-1.777,1.5-3.025.072-4.455a3.1,3.1,0,0,0-4.37,0l-8.467,8.466a4.649,4.649,0,0,1-4.5,5.75H130.05a.776.776,0,1,1,0-1.55h9.211a3.09,3.09,0,0,0,0-6.18h-14.52a.772.772,0,0,1-.262-.045q-6.65-1.7-11.158.009A12.46,12.46,0,0,0,106.65,264.731Z" transform="translate(-63.777 -201.89)" fill="#f7d18b" fill-rule="evenodd"/>
      <path id="Trazado_1180826" data-name="Trazado 1180826" d="M257.671,92.891a8.006,8.006,0,1,0,0,11.322A8.006,8.006,0,0,0,257.671,92.891Zm-6.436-.126a.776.776,0,0,1,1.55,0v.655a3.006,3.006,0,0,1,2.229,2.9.776.776,0,0,1-1.55,0,1.454,1.454,0,1,0-1.454,1.454,3,3,0,0,1,.775,5.907v.655a.776.776,0,0,1-1.55,0v-.655a3.006,3.006,0,0,1-2.229-2.9.776.776,0,0,1,1.55,0,1.454,1.454,0,1,0,1.454-1.454,3,3,0,0,1-.775-5.907Z" transform="translate(-181.76 -64.012)" fill="#fdc951" fill-rule="evenodd"/>
    </g>
  </g>
</svg>
