<svg xmlns="http://www.w3.org/2000/svg" xmlns:xlink="http://www.w3.org/1999/xlink" width="113" height="113" viewBox="0 0 113 113">
  <defs>
    <filter id="Trazado_982547" x="0" y="0" width="113" height="113" filterUnits="userSpaceOnUse">
      <feOffset dy="3" input="SourceAlpha"/>
      <feGaussianBlur stdDeviation="3" result="blur"/>
      <feFlood flood-opacity="0.161"/>
      <feComposite operator="in" in2="blur"/>
      <feComposite in="SourceGraphic"/>
    </filter>
  </defs>
  <g id="Grupo_1224579" data-name="Grupo 1224579" transform="translate(-6086 -7063.751)">
    <g id="Grupo_1224452" data-name="Grupo 1224452" transform="translate(6095 7069.751)">
      <g id="Grupo_1224085" data-name="Grupo 1224085" transform="translate(0 0)">
        <g id="Grupo_1223184" data-name="Grupo 1223184">
          <g id="Grupo_1211216" data-name="Grupo 1211216">
            <g id="Grupo_1210737" data-name="Grupo 1210737">
              <g id="Grupo_1210537" data-name="Grupo 1210537">
                <g id="Grupo_1164202" data-name="Grupo 1164202">
                  <g id="Grupo_1158168" data-name="Grupo 1158168">
                    <g id="Grupo_1152576" data-name="Grupo 1152576">
                      <g id="Grupo_1148633" data-name="Grupo 1148633">
                        <g id="Grupo_1148525" data-name="Grupo 1148525">
                          <g transform="matrix(1, 0, 0, 1, -9, -6)" filter="url(#Trazado_982547)">
                            <g id="Trazado_982547-2" data-name="Trazado 982547" transform="translate(9 6)" fill="#fcf5f0">
                              <path d="M 47.49999618530273 93.5 C 41.28936767578125 93.5 35.26533126831055 92.28396606445312 29.59518241882324 89.88570404052734 C 24.11771583557129 87.56893157958984 19.19812965393066 84.251953125 14.97308921813965 80.02690124511719 C 10.74803638458252 75.80186462402344 7.431062698364258 70.88227844238281 5.114289283752441 65.40480804443359 C 2.716022968292236 59.73466110229492 1.499996185302734 53.71062469482422 1.499996185302734 47.49999618530273 C 1.499996185302734 41.28936767578125 2.716022968292236 35.26533126831055 5.114289283752441 29.59518241882324 C 7.431062698364258 24.11771583557129 10.74803638458252 19.19812965393066 14.97308921813965 14.97308921813965 C 19.19812965393066 10.74803638458252 24.11771583557129 7.431062698364258 29.59518241882324 5.114289283752441 C 35.26533126831055 2.716022968292236 41.28936767578125 1.499996185302734 47.49999618530273 1.499996185302734 C 53.71062469482422 1.499996185302734 59.73466110229492 2.716022968292236 65.40480804443359 5.114289283752441 C 70.88227844238281 7.431062698364258 75.80186462402344 10.74803638458252 80.02690124511719 14.97308921813965 C 84.251953125 19.19812965393066 87.56893157958984 24.11771583557129 89.88570404052734 29.59518241882324 C 92.28396606445312 35.26533126831055 93.5 41.28936767578125 93.5 47.49999618530273 C 93.5 53.71062469482422 92.28396606445312 59.73466110229492 89.88570404052734 65.40480804443359 C 87.56893157958984 70.88227844238281 84.251953125 75.80186462402344 80.02690124511719 80.02690124511719 C 75.80186462402344 84.251953125 70.88227844238281 87.56893157958984 65.40480804443359 89.88570404052734 C 59.73466110229492 92.28396606445312 53.71062469482422 93.5 47.49999618530273 93.5 Z" stroke="none"/>
                              <path d="M 47.49999618530273 2.999992370605469 C 41.4912109375 2.999992370605469 35.66376495361328 4.1761474609375 30.17950439453125 6.495796203613281 C 24.88084411621094 8.736953735351562 20.12152099609375 11.94598388671875 16.03375244140625 16.03375244140625 C 11.94598388671875 20.12152099609375 8.736953735351562 24.88084411621094 6.495796203613281 30.17950439453125 C 4.1761474609375 35.66376495361328 2.999992370605469 41.4912109375 2.999992370605469 47.49999618530273 C 2.999992370605469 53.50878143310547 4.1761474609375 59.33622741699219 6.495796203613281 64.82048797607422 C 8.736953735351562 70.11914825439453 11.94598388671875 74.87847137451172 16.03375244140625 78.96623992919922 C 20.12152099609375 83.05400848388672 24.88084411621094 86.26304626464844 30.17950439453125 88.50419616699219 C 35.66376495361328 90.82384490966797 41.4912109375 92 47.49999618530273 92 C 53.50878143310547 92 59.33622741699219 90.82384490966797 64.82048797607422 88.50419616699219 C 70.11914825439453 86.26304626464844 74.87847137451172 83.05400848388672 78.96623992919922 78.96623992919922 C 83.05400848388672 74.87847137451172 86.26304626464844 70.11914825439453 88.50419616699219 64.82048797607422 C 90.82384490966797 59.33622741699219 92 53.50878143310547 92 47.49999618530273 C 92 41.4912109375 90.82384490966797 35.66376495361328 88.50419616699219 30.17950439453125 C 86.26304626464844 24.88084411621094 83.05400848388672 20.12152099609375 78.96623992919922 16.03375244140625 C 74.87847137451172 11.94598388671875 70.11914825439453 8.736953735351562 64.82048797607422 6.495796203613281 C 59.33622741699219 4.1761474609375 53.50878143310547 2.999992370605469 47.49999618530273 2.999992370605469 M 47.49999618530273 -7.62939453125e-06 C 73.7335205078125 -7.62939453125e-06 95 21.26647186279297 95 47.49999618530273 C 95 73.7335205078125 73.7335205078125 95 47.49999618530273 95 C 21.26647186279297 95 -7.62939453125e-06 73.7335205078125 -7.62939453125e-06 47.49999618530273 C -7.62939453125e-06 21.26647186279297 21.26647186279297 -7.62939453125e-06 47.49999618530273 -7.62939453125e-06 Z" stroke="none" fill="#eca675"/>
                            </g>
                          </g>
                        </g>
                      </g>
                    </g>
                  </g>
                </g>
              </g>
            </g>
          </g>
        </g>
      </g>
    </g>
    <g id="csr_11152706" transform="translate(6056.558 7064.235)">
      <path id="Trazado_1180827" data-name="Trazado 1180827" d="M67.75,89.621,55.655,70.508a.845.845,0,0,1,.265-1.165l7.535-4.768a.845.845,0,0,1,1.165.265L66.5,67.8l10.532-3.65a7.424,7.424,0,0,1,4.957-.026l15.793,5.289a4.007,4.007,0,0,1,2.206,1.808l11.385-5.9A4.211,4.211,0,0,1,114.428,65a3.933,3.933,0,0,1,2.393,1.862,4.03,4.03,0,0,1-1.551,5.5L96.191,83.374a7.421,7.421,0,0,1-5.273,1.155L76.869,82.5l-.785.458.63,1a.845.845,0,0,1-.265,1.165l-7.535,4.768a.845.845,0,0,1-1.165-.265Zm.839-28.193a2.833,2.833,0,0,1-4.818-2.017V52a2.324,2.324,0,0,1-2.948-2.236V43.08a4.613,4.613,0,0,1,4.6-4.6h6.33a4.612,4.612,0,0,1,4.6,4.6v6.683A2.321,2.321,0,0,1,73.407,52v7.413a2.83,2.83,0,0,1-4.818,2.017Zm0-31.251a3.98,3.98,0,1,1-2.814,1.166,3.98,3.98,0,0,1,2.814-1.166ZM95.525,48.544V57.7a2.715,2.715,0,0,0,2.71,2.71h18.085a.848.848,0,0,0,.512-1.522,1.577,1.577,0,0,1,.031-2.4.845.845,0,0,0,.3-.707L117.1,34.531a.848.848,0,0,0-.844-.92h-7.668c.026-.387.042-.773.042-1.161A16.44,16.44,0,1,0,94.418,48.734q.559-.076,1.107-.189Z" fill-rule="evenodd"/>
      <path id="Trazado_1180828" data-name="Trazado 1180828" d="M328.3,140.557v17.229a.848.848,0,0,1-1.695,0V140.557h-.2a1.493,1.493,0,0,0-1.486,1.486v18.394a2.69,2.69,0,0,1,1.015-.2h17.238l-.062-19.682Z" transform="translate(-227.863 -105.34)" fill="#ff4141" fill-rule="evenodd"/>
      <path id="Trazado_1180829" data-name="Trazado 1180829" d="M67.527,346.452l11.191,17.686,6.107-3.865L73.634,342.587Z" transform="translate(-10.151 -276.222)" fill="#1594df" fill-rule="evenodd"/>
      <path id="Trazado_1180830" data-name="Trazado 1180830" d="M131.66,339.638l7.757,12.258,1.07-.624a.842.842,0,0,1,.569-.121l14.338,2.071a5.968,5.968,0,0,0,2.147-.061,6.34,6.34,0,0,0,2.01-.861c6.38-3.683,12.751-7.425,19.156-11.06a2.34,2.34,0,0,0,.881-3.177A2.257,2.257,0,0,0,178.215,337a2.526,2.526,0,0,0-1.834.2l-11.639,6.031a3.772,3.772,0,0,1-.276,1.833,4.893,4.893,0,0,1-2.106,2.144,3.722,3.722,0,0,1-2.9.207l-11.536-3.864a.845.845,0,1,1,.536-1.6L160,345.81a2.066,2.066,0,0,0,1.608-.121,3.194,3.194,0,0,0,1.36-1.4,2.347,2.347,0,0,0-1.487-2.9L145.686,336.1a5.735,5.735,0,0,0-3.872.02Z" transform="translate(-64.397 -270.458)" fill="#f7d199" fill-rule="evenodd"/>
      <path id="Trazado_1180831" data-name="Trazado 1180831" d="M304.787,36.955a5.543,5.543,0,0,0-2.349,1.737,8.783,8.783,0,0,1-1.153,1.09.325.325,0,0,0-.075.132,1.574,1.574,0,0,0,.574.116A5.522,5.522,0,0,0,302.5,40a3.978,3.978,0,0,1,1.88.144,4.044,4.044,0,0,1,1.59,1.022,1.224,1.224,0,0,1,.256,1.206,1.5,1.5,0,0,1-.685.807,6.292,6.292,0,0,1-2.234.658c-.371.053-.814.15-1.262.248-.147.032-.295.065-.652.137a4.019,4.019,0,0,0-1.44.446,2.427,2.427,0,0,0-.66,1.045,2.468,2.468,0,0,0-.174,1.18,3.458,3.458,0,0,0,.469,1.175,3.35,3.35,0,0,0,.346.519c.264.31.558.189.944.133a1.562,1.562,0,0,1,2.184,1.5,3.08,3.08,0,0,0,.371,1.054l.074.149a3.157,3.157,0,0,1,1.066-.185H307a9.926,9.926,0,0,1,.692-2.187,2.9,2.9,0,0,0,.182-.57c-.317-1.269.025-1.527.648-2a2.135,2.135,0,0,0,.507-.5.811.811,0,0,0,.106-.413c.046-.658.079-1.131,1.048-1.314a4.114,4.114,0,0,1,1.5.171,14.791,14.791,0,0,0-6.888-7.471Z" transform="translate(-206.024 -17.711)" fill="#44ce2a" fill-rule="evenodd"/>
      <path id="Trazado_1180832" data-name="Trazado 1180832" d="M215.505,43.51c-.057-.121-.123-.253-.185-.377a4.471,4.471,0,0,1-.537-1.577c-.061-.424-.869.289-1.888-.125a2.233,2.233,0,0,1-.856-.649,6.31,6.31,0,0,1-1.2-2.555,4.042,4.042,0,0,1,.254-1.974,4.877,4.877,0,0,1,.508-1.025,3.273,3.273,0,0,1,.715-.8,4.863,4.863,0,0,1,2.135-.764l.632-.137c.467-.1.928-.2,1.381-.268a7.635,7.635,0,0,0,1.136-.237c-.131-.066-.29-.139-.48-.219a3.053,3.053,0,0,0-1.092-.018,6.385,6.385,0,0,1-.958.031,2.938,2.938,0,0,1-1.468-.444,1.559,1.559,0,0,1-.663-.971,1.748,1.748,0,0,1,.08-.962,2.089,2.089,0,0,1,.665-.923,7.662,7.662,0,0,0,.921-.885,10.878,10.878,0,0,1,1.548-1.438,14.705,14.705,0,0,0-4.393-.762,1.534,1.534,0,0,1,.483,1.057,2.028,2.028,0,0,1-.385,1.218,3.185,3.185,0,0,1-2.211,1.581,4.436,4.436,0,0,1-2.176-.526,1.528,1.528,0,0,0-.357-.11c.008.1.031.326.045.554a2.753,2.753,0,0,1-.22,1.61,3.1,3.1,0,0,1-.83.867,5.494,5.494,0,0,0-.484.423c-.315.324-.665.768-1.026,1.227-.342.434-.694.881-1.074,1.3a1.11,1.11,0,0,0-.146,1.29,3.969,3.969,0,0,0,.509,1.019,2.928,2.928,0,0,0,.687.706c.119.085.258.173.4.265a6.1,6.1,0,0,1,1.17.884c.4.411,1.039,1.086,1.628,1.721.484.522.946,1.031,1.236,1.369a2.017,2.017,0,0,1,.506,1.08,4.033,4.033,0,0,1-.082,1.24c-.312,1.877-.317,1.912-1.648,3.168a6.263,6.263,0,0,0-.3.973c-.019.077-.055.244-.095.426-.291,1.344-.755,3.493-2.516,3.493-1.678,0-1.824-1.538-1.929-2.657-.031-.331-.075-.663-.113-.994-.085-.742-.178-1.558-.278-2.131A2.369,2.369,0,0,0,202,46.163a6.2,6.2,0,0,1-.683-1.015c-.8-1.483-.572-2.146-.4-3.572a1.29,1.29,0,0,0-.2-.811,3.7,3.7,0,0,0-1-1.03,5.853,5.853,0,0,0-.784-.457,3.725,3.725,0,0,1-1.807-1.55,14.767,14.767,0,0,0,16.339,18.054q.676-.093,1.332-.244V45.518A3.165,3.165,0,0,1,215.505,43.51Z" transform="translate(-119.424 -8.814)" fill="#2cc3d1" fill-rule="evenodd"/>
      <path id="Trazado_1180833" data-name="Trazado 1180833" d="M365.117,95.787a6.471,6.471,0,0,0-.913-.332c-.241-.07-.464-.126-.636-.16a2.094,2.094,0,0,1-.387,1.006,3.6,3.6,0,0,1-.871.875c-.1.073-.025.151-.025.239a1.833,1.833,0,0,1,0,.823,4.46,4.46,0,0,1-.259.8,9.9,9.9,0,0,0-.528,1.538h4.029c.029-.387.043-.773.043-1.161A14.763,14.763,0,0,0,365.117,95.787Z" transform="translate(-258.797 -67.056)" fill="#2cc3d1" fill-rule="evenodd"/>
      <path id="Trazado_1180834" data-name="Trazado 1180834" d="M204.548,36.25a12.552,12.552,0,0,0,.66,1.58,2.393,2.393,0,0,0,1.114.884,7.167,7.167,0,0,1,1.009.6,5.342,5.342,0,0,1,1.461,1.533,2.933,2.933,0,0,1,.423,1.863,3.508,3.508,0,0,0,.213,2.579,4.735,4.735,0,0,0,.517.763,3.756,3.756,0,0,1,.906,2.085c.105.6.2,1.456.292,2.23.039.343.081.683.113,1.027.045.472.106,1.121.248,1.121.395,0,.682-1.326.861-2.156.033-.154.064-.293.108-.473a9.535,9.535,0,0,1,.289-1,2.012,2.012,0,0,1,.492-.8,2.639,2.639,0,0,0,1.138-2.207,2.93,2.93,0,0,0,.075-.736.427.427,0,0,0-.115-.213c-.265-.31-.713-.8-1.19-1.316-.6-.646-1.226-1.308-1.6-1.695a4.811,4.811,0,0,0-.858-.632c-.169-.107-.331-.209-.483-.318a4.632,4.632,0,0,1-1.091-1.117,5.68,5.68,0,0,1-.727-1.456,3.423,3.423,0,0,1-.207-1.478,2.557,2.557,0,0,1,.7-1.48c.333-.365.669-.791.995-1.205a17.366,17.366,0,0,1,1.145-1.359,6.809,6.809,0,0,1,.637-.562c.534-.432.466-.35.421-1.053a2.135,2.135,0,0,1,.576-2.032,1.551,1.551,0,0,1,1.066-.323,2.975,2.975,0,0,1,1.02.249,3.4,3.4,0,0,0,1.348.4c.381-.037.771-.54.966-.833.089-.133.11-.154.08-.176-.311-.224-.618-.427-.925-.664-.136-.1-.275-.216-.411-.332a14.765,14.765,0,0,0-11.268,8.7Z" transform="translate(-126.047 -9.752)" fill="#44ce2a" fill-rule="evenodd"/>
      <path id="Trazado_1180835" data-name="Trazado 1180835" d="M126.685,118.281a2.285,2.285,0,1,0,2.284,2.285,2.285,2.285,0,0,0-2.284-2.285Z" transform="translate(-58.256 -86.498)" fill="#1594df" fill-rule="evenodd"/>
      <path id="Trazado_1180836" data-name="Trazado 1180836" d="M105.063,191.366V185.36a.848.848,0,0,1,1.695,0v6.005a1.138,1.138,0,1,0,2.276,0V177a.848.848,0,1,1,1.695,0v4.715a.627.627,0,1,0,1.253,0v-6.683a2.917,2.917,0,0,0-2.906-2.907h-6.33a2.917,2.917,0,0,0-2.906,2.907v6.683a.627.627,0,1,0,1.253,0V177a.848.848,0,1,1,1.695,0v14.364a1.138,1.138,0,1,0,2.276,0Z" transform="translate(-37.482 -132.043)" fill="#1594df" fill-rule="evenodd"/>
      <path id="Trazado_1180837" data-name="Trazado 1180837" d="M342.46,279.208H325.932a1.015,1.015,0,1,0,0,2.03h16.528a3.212,3.212,0,0,1,0-2.03Z" transform="translate(-227.858 -222.614)" fill="#f7f7f8" fill-rule="evenodd"/>
    </g>
  </g>
</svg>
