<svg xmlns="http://www.w3.org/2000/svg" xmlns:xlink="http://www.w3.org/1999/xlink" width="113" height="113" viewBox="0 0 113 113">
  <defs>
    <filter id="Trazado_982547" x="0" y="0" width="113" height="113" filterUnits="userSpaceOnUse">
      <feOffset dy="3" input="SourceAlpha"/>
      <feGaussianBlur stdDeviation="3" result="blur"/>
      <feFlood flood-opacity="0.161"/>
      <feComposite operator="in" in2="blur"/>
      <feComposite in="SourceGraphic"/>
    </filter>
  </defs>
  <g id="Grupo_1224541" data-name="Grupo 1224541" transform="translate(-323.5 -8650.653)">
    <g id="Grupo_1224220" data-name="Grupo 1224220" transform="translate(332.5 8656.653)">
      <g id="Grupo_1224091" data-name="Grupo 1224091">
        <g id="Grupo_1223183" data-name="Grupo 1223183" transform="translate(0)">
          <g id="Grupo_1211217" data-name="Grupo 1211217">
            <g id="Grupo_1210736" data-name="Grupo 1210736">
              <g id="Grupo_1210537" data-name="Grupo 1210537">
                <g id="Grupo_1164202" data-name="Grupo 1164202">
                  <g id="Grupo_1158168" data-name="Grupo 1158168">
                    <g id="Grupo_1152576" data-name="Grupo 1152576">
                      <g id="Grupo_1148633" data-name="Grupo 1148633">
                        <g id="Grupo_1148525" data-name="Grupo 1148525">
                          <g transform="matrix(1, 0, 0, 1, -9, -6)" filter="url(#Trazado_982547)">
                            <g id="Trazado_982547-2" data-name="Trazado 982547" transform="translate(9 6)" fill="#fcf5f0">
                              <path d="M 47.49999618530273 93.5 C 41.28936767578125 93.5 35.26533126831055 92.28396606445312 29.59518241882324 89.88570404052734 C 24.11771583557129 87.56893157958984 19.19812965393066 84.251953125 14.97308921813965 80.02690124511719 C 10.74803638458252 75.80186462402344 7.431062698364258 70.88227844238281 5.114289283752441 65.40480804443359 C 2.716022968292236 59.73466110229492 1.499996185302734 53.71062469482422 1.499996185302734 47.49999618530273 C 1.499996185302734 41.28936767578125 2.716022968292236 35.26533126831055 5.114289283752441 29.59518241882324 C 7.431062698364258 24.11771583557129 10.74803638458252 19.19812965393066 14.97308921813965 14.97308921813965 C 19.19812965393066 10.74803638458252 24.11771583557129 7.431062698364258 29.59518241882324 5.114289283752441 C 35.26533126831055 2.716022968292236 41.28936767578125 1.499996185302734 47.49999618530273 1.499996185302734 C 53.71062469482422 1.499996185302734 59.73466110229492 2.716022968292236 65.40480804443359 5.114289283752441 C 70.88227844238281 7.431062698364258 75.80186462402344 10.74803638458252 80.02690124511719 14.97308921813965 C 84.251953125 19.19812965393066 87.56893157958984 24.11771583557129 89.88570404052734 29.59518241882324 C 92.28396606445312 35.26533126831055 93.5 41.28936767578125 93.5 47.49999618530273 C 93.5 53.71062469482422 92.28396606445312 59.73466110229492 89.88570404052734 65.40480804443359 C 87.56893157958984 70.88227844238281 84.251953125 75.80186462402344 80.02690124511719 80.02690124511719 C 75.80186462402344 84.251953125 70.88227844238281 87.56893157958984 65.40480804443359 89.88570404052734 C 59.73466110229492 92.28396606445312 53.71062469482422 93.5 47.49999618530273 93.5 Z" stroke="none"/>
                              <path d="M 47.49999618530273 2.999992370605469 C 41.4912109375 2.999992370605469 35.66376495361328 4.1761474609375 30.17950439453125 6.495796203613281 C 24.88084411621094 8.736953735351562 20.12152099609375 11.94598388671875 16.03375244140625 16.03375244140625 C 11.94598388671875 20.12152099609375 8.736953735351562 24.88084411621094 6.495796203613281 30.17950439453125 C 4.1761474609375 35.66376495361328 2.999992370605469 41.4912109375 2.999992370605469 47.49999618530273 C 2.999992370605469 53.50878143310547 4.1761474609375 59.33622741699219 6.495796203613281 64.82048797607422 C 8.736953735351562 70.11914825439453 11.94598388671875 74.87847137451172 16.03375244140625 78.96623992919922 C 20.12152099609375 83.05400848388672 24.88084411621094 86.26304626464844 30.17950439453125 88.50419616699219 C 35.66376495361328 90.82384490966797 41.4912109375 92 47.49999618530273 92 C 53.50878143310547 92 59.33622741699219 90.82384490966797 64.82048797607422 88.50419616699219 C 70.11914825439453 86.26304626464844 74.87847137451172 83.05400848388672 78.96623992919922 78.96623992919922 C 83.05400848388672 74.87847137451172 86.26304626464844 70.11914825439453 88.50419616699219 64.82048797607422 C 90.82384490966797 59.33622741699219 92 53.50878143310547 92 47.49999618530273 C 92 41.4912109375 90.82384490966797 35.66376495361328 88.50419616699219 30.17950439453125 C 86.26304626464844 24.88084411621094 83.05400848388672 20.12152099609375 78.96623992919922 16.03375244140625 C 74.87847137451172 11.94598388671875 70.11914825439453 8.736953735351562 64.82048797607422 6.495796203613281 C 59.33622741699219 4.1761474609375 53.50878143310547 2.999992370605469 47.49999618530273 2.999992370605469 M 47.49999618530273 -7.62939453125e-06 C 73.7335205078125 -7.62939453125e-06 95 21.26647186279297 95 47.49999618530273 C 95 73.7335205078125 73.7335205078125 95 47.49999618530273 95 C 21.26647186279297 95 -7.62939453125e-06 73.7335205078125 -7.62939453125e-06 47.49999618530273 C -7.62939453125e-06 21.26647186279297 21.26647186279297 -7.62939453125e-06 47.49999618530273 -7.62939453125e-06 Z" stroke="none" fill="#eca675"/>
                            </g>
                          </g>
                        </g>
                      </g>
                    </g>
                  </g>
                </g>
              </g>
            </g>
          </g>
        </g>
      </g>
    </g>
    <g id="target_3188322" transform="translate(337.483 8671.316)">
      <g id="Grupo_1224539" data-name="Grupo 1224539" transform="translate(9.773 0.962)">
        <path id="Trazado_1180642" data-name="Trazado 1180642" d="M75.182,58.266A29.435,29.435,0,0,1,45.747,87.7q-1.356,0-2.681-.12a29.438,29.438,0,0,1,0-58.631q1.325-.119,2.681-.12A29.435,29.435,0,0,1,75.182,58.266Z" transform="translate(-16.311 -26.094)" fill="#fe99a0"/>
        <path id="Trazado_1180643" data-name="Trazado 1180643" d="M257.017,58.267A29.435,29.435,0,0,1,227.581,87.7q-1.356,0-2.681-.119a29.438,29.438,0,0,0,0-58.631q1.326-.119,2.681-.121a29.435,29.435,0,0,1,29.436,29.436Z" transform="translate(-198.145 -26.095)" fill="#fe646f"/>
        <path id="Trazado_1180644" data-name="Trazado 1180644" d="M127.963,120.152a20.334,20.334,0,1,1-20.33-20.33A20.33,20.33,0,0,1,127.963,120.152Z" transform="translate(-78.198 -87.98)" fill="#eaf6ff"/>
        <path id="Trazado_1180645" data-name="Trazado 1180645" d="M251.257,120.151a20.33,20.33,0,0,1-22.517,20.211,20.33,20.33,0,0,0,0-40.423,20.33,20.33,0,0,1,22.517,20.212Z" transform="translate(-201.492 -87.979)" fill="#c8effe"/>
        <path id="Trazado_1180646" data-name="Trazado 1180646" d="M338.437,338.5a11.383,11.383,0,1,1-11.377-11.377A11.376,11.376,0,0,1,338.437,338.5Z" transform="translate(-277.285 -286.123)" fill="#fedf30"/>
        <path id="Trazado_1180647" data-name="Trazado 1180647" d="M397,338.5a11.385,11.385,0,0,1-14.136,11.039,11.38,11.38,0,0,0,0-22.077A11.385,11.385,0,0,1,397,338.5Z" transform="translate(-335.844 -286.124)" fill="#fed402"/>
        <path id="Trazado_1180648" data-name="Trazado 1180648" d="M168.51,167.7a13.339,13.339,0,1,1-13.334-13.334A13.334,13.334,0,0,1,168.51,167.7Z" transform="translate(-125.741 -135.525)" fill="#fe99a0"/>
        <path id="Trazado_1180649" data-name="Trazado 1180649" d="M246.547,167.7A13.341,13.341,0,0,1,231.36,180.9a13.335,13.335,0,0,0,0-26.411A13.341,13.341,0,0,1,246.547,167.7Z" transform="translate(-203.776 -135.524)" fill="#fe646f"/>
        <path id="Trazado_1180650" data-name="Trazado 1180650" d="M200.748,205.494a7.776,7.776,0,1,1-7.772-7.772A7.772,7.772,0,0,1,200.748,205.494Z" transform="translate(-163.54 -173.323)" fill="#fe646f"/>
        <path id="Trazado_1180651" data-name="Trazado 1180651" d="M240.984,205.494a7.774,7.774,0,0,1-9.624,7.549,7.774,7.774,0,0,0,0-15.1,7.774,7.774,0,0,1,9.624,7.55Z" transform="translate(-203.776 -173.322)" fill="#fd4755"/>
        <path id="Trazado_1180652" data-name="Trazado 1180652" d="M0,0H36V3.819H0Z" transform="translate(28.019 30.765) rotate(-45)" fill="#537983"/>
        <g id="Grupo_1224538" data-name="Grupo 1224538" transform="translate(42.199)">
          <path id="Trazado_1180653" data-name="Trazado 1180653" d="M356.588,12.806l-9.435,9.435L345.3,16.936,354.74,7.5Z" transform="translate(-345.305 -7.501)" fill="#fedf30"/>
          <path id="Trazado_1180654" data-name="Trazado 1180654" d="M390.208,69.919l-9.435,9.435,5.305,1.849,9.435-9.435Z" transform="translate(-376.224 -61.913)" fill="#fedf30"/>
        </g>
      </g>
      <g id="Grupo_1224540" data-name="Grupo 1224540" transform="translate(8.811 0)">
        <path id="Trazado_1180655" data-name="Trazado 1180655" d="M72.2,10.6a.961.961,0,0,0-.621-.694l-5.1-1.776L64.091,5.743,62.315.646A.962.962,0,0,0,60.726.282L54.278,6.73a30.358,30.358,0,0,0-15.07-3.994,30.7,30.7,0,0,0-30.4,30.4A30.424,30.424,0,0,0,46.437,62.666a.962.962,0,1,0-.456-1.869A28.476,28.476,0,1,1,52.865,8.143L51.292,9.716a.962.962,0,0,0-.228,1l1.65,4.735-.685.685a21.292,21.292,0,1,0-12.82,38.291,21.082,21.082,0,0,0,8.012-1.559A12.338,12.338,0,1,0,67.607,44a30.463,30.463,0,0,0-2.081-26.086L71.942,11.5A.961.961,0,0,0,72.2,10.6ZM40.5,33.067l-1.34-1.34,24.1-24.1,1.34,1.34ZM53.079,10.65,61,2.727l1.145,3.288-7.923,7.923ZM39.209,52.5A19.368,19.368,0,1,1,50.653,17.509l-3.644,3.644a14.3,14.3,0,1,0,6.5,11.98,14.324,14.324,0,0,0-.561-3.978.962.962,0,0,0-1.848.534,12.375,12.375,0,1,1-11.887-8.929,12.269,12.269,0,0,1,6.406,1.787L37.8,30.366l-.808-.808a.962.962,0,0,0-1.361,1.361L41.3,36.6a.962.962,0,0,0,1.361-1.361l-.808-.808,3.716-3.716A6.81,6.81,0,1,1,37.8,26.47a.962.962,0,1,0-.4-1.883,8.735,8.735,0,1,0,9.633,4.665l7.7-7.7a19.394,19.394,0,0,1,3.844,11.581,19.167,19.167,0,0,1-1.808,8.18,12.421,12.421,0,0,0-9.26,9.324,19.162,19.162,0,0,1-8.3,1.864Zm30.754.834A10.421,10.421,0,1,1,59.548,42.92,10.426,10.426,0,0,1,69.963,53.335Zm-2.28-20.2a28.339,28.339,0,0,1-1.69,9.684,12.374,12.374,0,0,0-7-1.807,21.092,21.092,0,0,0,1.5-7.877,21.321,21.321,0,0,0-4.394-12.955l.669-.669,4.735,1.65a.962.962,0,0,0,1-.228l1.608-1.607a28.43,28.43,0,0,1,3.568,13.809ZM61.573,19.144,58.286,18l7.924-7.924L69.5,11.221Z" transform="translate(-8.811 0)"/>
        <path id="Trazado_1180656" data-name="Trazado 1180656" d="M376.275,357.749c-.168-.056-.335-.114-.5-.17v-2.668a4.591,4.591,0,0,1,1.5.67.962.962,0,0,0,1.166-1.531,6.455,6.455,0,0,0-2.665-1.1v-1.819a.962.962,0,1,0-1.924,0v1.852a3.2,3.2,0,0,0-2.789,3.3c.176,1.622,1.475,2.158,2.789,2.65v3.286a3.869,3.869,0,0,1-1.744-.966.962.962,0,0,0-1.363,1.357,5.865,5.865,0,0,0,3.107,1.581v1.857a.962.962,0,1,0,1.924,0v-1.8C379.921,363.639,380.06,359.02,376.275,357.749Zm-2.9-1.069c-.814-.544-.2-1.455.482-1.708v1.9Zm3.859,4.386c-.11.67-.864,1.078-1.453,1.222v-2.674C376.34,359.817,377.357,360.286,377.23,361.066Z" transform="translate(-324.077 -305.252)"/>
      </g>
    </g>
  </g>
</svg>
