<svg xmlns="http://www.w3.org/2000/svg" xmlns:xlink="http://www.w3.org/1999/xlink" width="113" height="113" viewBox="0 0 113 113">
  <defs>
    <filter id="Trazado_982547" x="0" y="0" width="113" height="113" filterUnits="userSpaceOnUse">
      <feOffset dy="3" input="SourceAlpha"/>
      <feGaussianBlur stdDeviation="3" result="blur"/>
      <feFlood flood-opacity="0.161"/>
      <feComposite operator="in" in2="blur"/>
      <feComposite in="SourceGraphic"/>
    </filter>
  </defs>
  <g id="Grupo_1224542" data-name="Grupo 1224542" transform="translate(-743.5 -8650.653)">
    <g id="Grupo_1224242" data-name="Grupo 1224242" transform="translate(752.5 8656.653)">
      <g id="Grupo_1224091" data-name="Grupo 1224091">
        <g id="Grupo_1223183" data-name="Grupo 1223183" transform="translate(0)">
          <g id="Grupo_1211217" data-name="Grupo 1211217">
            <g id="Grupo_1210736" data-name="Grupo 1210736">
              <g id="Grupo_1210537" data-name="Grupo 1210537">
                <g id="Grupo_1164202" data-name="Grupo 1164202">
                  <g id="Grupo_1158168" data-name="Grupo 1158168">
                    <g id="Grupo_1152576" data-name="Grupo 1152576">
                      <g id="Grupo_1148633" data-name="Grupo 1148633">
                        <g id="Grupo_1148525" data-name="Grupo 1148525">
                          <g transform="matrix(1, 0, 0, 1, -9, -6)" filter="url(#Trazado_982547)">
                            <g id="Trazado_982547-2" data-name="Trazado 982547" transform="translate(9 6)" fill="#fcf5f0">
                              <path d="M 47.49999618530273 93.5 C 41.28936767578125 93.5 35.26533126831055 92.28396606445312 29.59518241882324 89.88570404052734 C 24.11771583557129 87.56893157958984 19.19812965393066 84.251953125 14.97308921813965 80.02690124511719 C 10.74803638458252 75.80186462402344 7.431062698364258 70.88227844238281 5.114289283752441 65.40480804443359 C 2.716022968292236 59.73466110229492 1.499996185302734 53.71062469482422 1.499996185302734 47.49999618530273 C 1.499996185302734 41.28936767578125 2.716022968292236 35.26533126831055 5.114289283752441 29.59518241882324 C 7.431062698364258 24.11771583557129 10.74803638458252 19.19812965393066 14.97308921813965 14.97308921813965 C 19.19812965393066 10.74803638458252 24.11771583557129 7.431062698364258 29.59518241882324 5.114289283752441 C 35.26533126831055 2.716022968292236 41.28936767578125 1.499996185302734 47.49999618530273 1.499996185302734 C 53.71062469482422 1.499996185302734 59.73466110229492 2.716022968292236 65.40480804443359 5.114289283752441 C 70.88227844238281 7.431062698364258 75.80186462402344 10.74803638458252 80.02690124511719 14.97308921813965 C 84.251953125 19.19812965393066 87.56893157958984 24.11771583557129 89.88570404052734 29.59518241882324 C 92.28396606445312 35.26533126831055 93.5 41.28936767578125 93.5 47.49999618530273 C 93.5 53.71062469482422 92.28396606445312 59.73466110229492 89.88570404052734 65.40480804443359 C 87.56893157958984 70.88227844238281 84.251953125 75.80186462402344 80.02690124511719 80.02690124511719 C 75.80186462402344 84.251953125 70.88227844238281 87.56893157958984 65.40480804443359 89.88570404052734 C 59.73466110229492 92.28396606445312 53.71062469482422 93.5 47.49999618530273 93.5 Z" stroke="none"/>
                              <path d="M 47.49999618530273 2.999992370605469 C 41.4912109375 2.999992370605469 35.66376495361328 4.1761474609375 30.17950439453125 6.495796203613281 C 24.88084411621094 8.736953735351562 20.12152099609375 11.94598388671875 16.03375244140625 16.03375244140625 C 11.94598388671875 20.12152099609375 8.736953735351562 24.88084411621094 6.495796203613281 30.17950439453125 C 4.1761474609375 35.66376495361328 2.999992370605469 41.4912109375 2.999992370605469 47.49999618530273 C 2.999992370605469 53.50878143310547 4.1761474609375 59.33622741699219 6.495796203613281 64.82048797607422 C 8.736953735351562 70.11914825439453 11.94598388671875 74.87847137451172 16.03375244140625 78.96623992919922 C 20.12152099609375 83.05400848388672 24.88084411621094 86.26304626464844 30.17950439453125 88.50419616699219 C 35.66376495361328 90.82384490966797 41.4912109375 92 47.49999618530273 92 C 53.50878143310547 92 59.33622741699219 90.82384490966797 64.82048797607422 88.50419616699219 C 70.11914825439453 86.26304626464844 74.87847137451172 83.05400848388672 78.96623992919922 78.96623992919922 C 83.05400848388672 74.87847137451172 86.26304626464844 70.11914825439453 88.50419616699219 64.82048797607422 C 90.82384490966797 59.33622741699219 92 53.50878143310547 92 47.49999618530273 C 92 41.4912109375 90.82384490966797 35.66376495361328 88.50419616699219 30.17950439453125 C 86.26304626464844 24.88084411621094 83.05400848388672 20.12152099609375 78.96623992919922 16.03375244140625 C 74.87847137451172 11.94598388671875 70.11914825439453 8.736953735351562 64.82048797607422 6.495796203613281 C 59.33622741699219 4.1761474609375 53.50878143310547 2.999992370605469 47.49999618530273 2.999992370605469 M 47.49999618530273 -7.62939453125e-06 C 73.7335205078125 -7.62939453125e-06 95 21.26647186279297 95 47.49999618530273 C 95 73.7335205078125 73.7335205078125 95 47.49999618530273 95 C 21.26647186279297 95 -7.62939453125e-06 73.7335205078125 -7.62939453125e-06 47.49999618530273 C -7.62939453125e-06 21.26647186279297 21.26647186279297 -7.62939453125e-06 47.49999618530273 -7.62939453125e-06 Z" stroke="none" fill="#eca675"/>
                            </g>
                          </g>
                        </g>
                      </g>
                    </g>
                  </g>
                </g>
              </g>
            </g>
          </g>
        </g>
      </g>
    </g>
    <g id="fildoutline" transform="translate(767.143 8671.146)">
      <g id="_20-Email_copy_4" data-name="20-Email copy 4" transform="translate(2 2.053)">
        <path id="Trazado_1180657" data-name="Trazado 1180657" d="M45.3,8.345A5.831,5.831,0,0,1,48.4,4.21a13.37,13.37,0,0,1,7.236-1.034,13.741,13.741,0,0,1-5.169,5.169,5.74,5.74,0,0,1-5.169,0Z" transform="translate(-0.537 -2.019)" fill="#44bc59"/>
        <path id="Trazado_1180658" data-name="Trazado 1180658" d="M48.4,6.277A12.509,12.509,0,0,1,54.29,5.134a13.783,13.783,0,0,0,1.347-1.958A13.37,13.37,0,0,0,48.4,4.21a5.831,5.831,0,0,0-3.1,4.135,4.292,4.292,0,0,0,.65.282A5.74,5.74,0,0,1,48.4,6.277Z" transform="translate(-0.537 -2.019)" fill="#2d9739"/>
        <path id="Trazado_1180659" data-name="Trazado 1180659" d="M45.6,9.345A5.831,5.831,0,0,0,42.5,5.21a10.119,10.119,0,0,0-6.2-1.034,8.53,8.53,0,0,0,4.135,5.169,5.74,5.74,0,0,0,5.169,0Z" transform="translate(-0.841 -1.985)" fill="#44bc59"/>
        <path id="Trazado_1180660" data-name="Trazado 1180660" d="M42.5,7.277a5.741,5.741,0,0,1,2.451,2.349,4.293,4.293,0,0,0,.65-.282A5.831,5.831,0,0,0,42.5,5.21a10.119,10.119,0,0,0-6.2-1.034,8.254,8.254,0,0,0,.837,1.968A10.525,10.525,0,0,1,42.5,7.277Z" transform="translate(-0.841 -1.985)" fill="#2d9739"/>
        <circle id="Elipse_14754" data-name="Elipse 14754" cx="14.473" cy="14.473" r="14.473" transform="translate(30.289 11.495)" fill="#ffe081"/>
        <path id="Trazado_1180661" data-name="Trazado 1180661" d="M33.367,27.645A14.463,14.463,0,0,1,46.806,13.224c-.343-.024-.685-.052-1.034-.052a14.473,14.473,0,0,0,0,28.946c.349,0,.691-.028,1.034-.052A14.463,14.463,0,0,1,33.367,27.645Z" transform="translate(-1.01 -1.677)" fill="#ffd54f"/>
        <path id="Trazado_1180662" data-name="Trazado 1180662" d="M5,24H9.135v6.2H5Z" transform="translate(-1.899 -1.311)" fill="#ffe081"/>
        <path id="Trazado_1180663" data-name="Trazado 1180663" d="M5,24H7.068v6.2H5Z" transform="translate(-1.899 -1.311)" fill="#ffd54f"/>
        <path id="Trazado_1180664" data-name="Trazado 1180664" d="M13,21h4.135v9.3H13Z" transform="translate(-1.628 -1.412)" fill="#ffe081"/>
        <path id="Trazado_1180665" data-name="Trazado 1180665" d="M13,21h2.068v9.3H13Z" transform="translate(-1.628 -1.412)" fill="#ffd54f"/>
        <path id="Trazado_1180666" data-name="Trazado 1180666" d="M21,17h4.135V30.439H21Z" transform="translate(-1.358 -1.548)" fill="#ffe081"/>
        <path id="Trazado_1180667" data-name="Trazado 1180667" d="M21,17h2.068V30.439H21Z" transform="translate(-1.358 -1.548)" fill="#ffd54f"/>
        <circle id="Elipse_14755" data-name="Elipse 14755" cx="10.338" cy="10.338" r="10.338" transform="translate(34.424 15.63)" fill="#ffcb29"/>
        <path id="Trazado_1180668" data-name="Trazado 1180668" d="M37.367,27.51a10.338,10.338,0,0,1,9.3-10.286c-.34-.034-.684-.052-1.033-.052a10.338,10.338,0,0,0,0,20.676c.349,0,.694-.018,1.034-.052a10.338,10.338,0,0,1-9.3-10.287Z" transform="translate(-0.875 -1.542)" fill="#fec111"/>
        <path id="Trazado_1180669" data-name="Trazado 1180669" d="M61.949,47.4c-.414.93-13.418,10.524-17.409,12.933a9.853,9.853,0,0,1-9.108.61L22.3,55.741C20.4,54.986,13,53.57,13,53.57V38.063l6.161-1.5a5.523,5.523,0,0,1,1.21-.331,2.314,2.314,0,0,1,.455-.072,4.823,4.823,0,0,1,.538-.031,5.7,5.7,0,0,1,2.4.5l16.675,8.446a2.1,2.1,0,0,1,.393.217.419.419,0,0,1,.093.052,3.813,3.813,0,0,1,1.52,1.788,4.085,4.085,0,0,1,.289,2.119,1.4,1.4,0,0,0,.238-.093c2.667-1.085,12.436-6.378,13.832-6.937a3.942,3.942,0,0,1,5.231,2.1,3.883,3.883,0,0,1-.083,3.081Z" transform="translate(-1.628 -0.901)" fill="#fecc81"/>
        <path id="Trazado_1180670" data-name="Trazado 1180670" d="M42.491,49.249v.062a1.542,1.542,0,0,1-.021.217c-.827.2-1.654-.424-2.047-.279v-.062a.062.062,0,0,1,.01-.041,3.968,3.968,0,0,0-2.305-4.073L21.454,36.626a5.549,5.549,0,0,0-1.323-.393c-.01-.01-.01-.01-.021-.01a3.743,3.743,0,0,1,.476-.062,4.823,4.823,0,0,1,.538-.031,5.7,5.7,0,0,1,2.4.5L40.2,45.072a2.094,2.094,0,0,1,.393.217.419.419,0,0,1,.093.052,4.49,4.49,0,0,1,1.52,1.788,4.085,4.085,0,0,1,.289,2.119Z" transform="translate(-1.388 -0.901)" fill="#faa629"/>
        <path id="Trazado_1180671" data-name="Trazado 1180671" d="M61.2,44.128a3.882,3.882,0,0,0-4.658-2.263,3.772,3.772,0,0,1,2.591,2.263,3.865,3.865,0,0,1-.076,3.079c-.417.935-13.417,10.522-17.417,12.937a10.079,10.079,0,0,1-4.126,1.377,9.975,9.975,0,0,0,6.194-1.377c4-2.415,17-12,17.417-12.937a3.865,3.865,0,0,0,.076-3.079Z" transform="translate(-0.8 -0.713)" fill="#faa629"/>
        <path id="Trazado_1180672" data-name="Trazado 1180672" d="M3,34H13.338V57.777H3Z" transform="translate(-1.966 -0.973)" fill="#89d3e2"/>
        <path id="Trazado_1180673" data-name="Trazado 1180673" d="M8.169,34V51.706A6.067,6.067,0,0,1,3,57.7v.074H13.338V34Z" transform="translate(-1.966 -0.973)" fill="#36c2d6"/>
        <path id="Trazado_1180674" data-name="Trazado 1180674" d="M3.517,18.256A1.034,1.034,0,0,1,3.8,16.823l9.3-6.2a1.025,1.025,0,0,1,.9-.12l5.64,1.88,7.138-6.246H23.709a1.034,1.034,0,0,1,0-2.068h5.169A1.034,1.034,0,0,1,29.912,5.1v5.169a1.034,1.034,0,1,1-2.068,0V7.956l-7.28,6.37a1.032,1.032,0,0,1-1.008.2l-5.723-1.907L4.95,18.543a1.034,1.034,0,0,1-1.434-.287Zm5.72,5.452a1.034,1.034,0,0,1,1.034,1.034v6.2a1.034,1.034,0,0,1-1.034,1.034H5.1a1.034,1.034,0,0,1-1.034-1.034v-6.2A1.034,1.034,0,0,1,5.1,23.708ZM8.2,25.775H6.135V29.91H8.2Zm9.3-5.169A1.034,1.034,0,0,1,18.54,21.64v9.3a1.034,1.034,0,0,1-1.034,1.034H13.372a1.034,1.034,0,0,1-1.034-1.034v-9.3a1.034,1.034,0,0,1,1.034-1.034Zm-1.034,2.068H14.405V29.91h2.068Zm9.3-6.2A1.034,1.034,0,0,1,26.811,17.5V30.944a1.034,1.034,0,0,1-1.034,1.034H21.642a1.034,1.034,0,0,1-1.034-1.034V17.5a1.034,1.034,0,0,1,1.034-1.034Zm-1.034,2.068H22.676V29.91h2.068ZM45.728,29.054H47.8a1.19,1.19,0,0,1,1.034,1.034A1.171,1.171,0,0,1,47.8,31.122h-3.1a1.034,1.034,0,1,0,0,2.068h1.034v1.034a1.034,1.034,0,0,0,2.068,0V33.189a3.1,3.1,0,1,0,0-6.2H45.728a1.171,1.171,0,0,1-1.034-1.034,1.19,1.19,0,0,1,1.034-1.034h3.1a1.034,1.034,0,0,0,0-2.068H47.8V21.818a1.034,1.034,0,1,0-2.068,0v1.034a3.1,3.1,0,0,0,0,6.2ZM35.39,28.02A11.372,11.372,0,1,1,46.762,39.392,11.372,11.372,0,0,1,35.39,28.02Zm2.068,0a9.3,9.3,0,1,0,9.3-9.3,9.3,9.3,0,0,0-9.3,9.3Zm-6.2,0A15.514,15.514,0,0,1,45.728,12.566v-1.69a6.859,6.859,0,0,1-1.58.189,6.625,6.625,0,0,1-3.021-.729,9.542,9.542,0,0,1-4.675-5.852,1.033,1.033,0,0,1,.785-1.25,11.129,11.129,0,0,1,6.89,1.121,6.837,6.837,0,0,1,1.6,1.12V3.21a1.034,1.034,0,0,1,2.068,0V4.441a6.84,6.84,0,0,1,1.6-1.12,14.332,14.332,0,0,1,7.868-1.132A1.034,1.034,0,0,1,58.011,3.7,14.71,14.71,0,0,1,52.4,9.3a6.626,6.626,0,0,1-3.022.73,6.859,6.859,0,0,1-1.58-.189v2.724A15.5,15.5,0,1,1,31.255,28.02ZM48,7.767a4.664,4.664,0,0,0,3.468-.311,11.548,11.548,0,0,0,3.788-3.329A11.166,11.166,0,0,0,50.33,5.166,4.775,4.775,0,0,0,48,7.767ZM45.528,8.8a4.773,4.773,0,0,0-2.335-2.6,9.6,9.6,0,0,0-4.282-1.038A7.191,7.191,0,0,0,42.06,8.49a4.647,4.647,0,0,0,3.468.312ZM33.323,28.02A13.439,13.439,0,1,0,46.762,14.581,13.439,13.439,0,0,0,33.323,28.02ZM63.268,48.968c-.646,1.449-14.6,11.453-17.826,13.4a11.1,11.1,0,0,1-5.711,1.593,10.664,10.664,0,0,1-4.351-.922l-13.088-5.19a20.933,20.933,0,0,0-5.642-1.373,1.085,1.085,0,0,1-.115-.018L14.405,56v2.855a1.034,1.034,0,0,1-1.034,1.034H3.034A1.034,1.034,0,0,1,2,58.856V35.079a1.034,1.034,0,0,1,1.034-1.034H13.372a1.034,1.034,0,0,1,1.034,1.034V37.9l4.809-1.167a6.864,6.864,0,0,1,5.342.106L41.279,45.3a4.9,4.9,0,0,1,2.792,3.551c1.858-.877,4.9-2.457,7.471-3.789,2.857-1.482,4.639-2.4,5.248-2.646a4.928,4.928,0,0,1,6.479,6.554ZM12.338,36.113H4.068V57.822h8.27Zm49.1,9.743a2.891,2.891,0,0,0-3.884-1.523c-.546.219-2.741,1.357-5.064,2.562-3.168,1.644-6.705,3.478-8.445,4.234a5.191,5.191,0,0,1-2.837,3.784,5.083,5.083,0,0,1-2.2.511,4.883,4.883,0,0,1-1.675-.3L27.047,51.366a1.034,1.034,0,1,1,.71-1.942l10.288,3.761a2.9,2.9,0,0,0,2.26-.129,3.189,3.189,0,0,0,1.574-1.77,6.661,6.661,0,0,0,.2-1.015,2.95,2.95,0,0,0-1.685-3.106L23.668,38.705a4.779,4.779,0,0,0-3.751-.027,1.049,1.049,0,0,1-.145.047l-5.367,1.3V53.886l2.509.54a23.022,23.022,0,0,1,6.141,1.5l13.128,5.207a8.872,8.872,0,0,0,8.193-.538C48.511,58.1,60.328,49.3,61.415,48.047a2.837,2.837,0,0,0,.028-2.191Z" transform="translate(-2 -2.053)"/>
      </g>
    </g>
  </g>
</svg>
