<svg xmlns="http://www.w3.org/2000/svg" xmlns:xlink="http://www.w3.org/1999/xlink" width="113" height="113" viewBox="0 0 113 113">
  <defs>
    <filter id="Trazado_982547" x="0" y="0" width="113" height="113" filterUnits="userSpaceOnUse">
      <feOffset dy="3" input="SourceAlpha"/>
      <feGaussianBlur stdDeviation="3" result="blur"/>
      <feFlood flood-opacity="0.161"/>
      <feComposite operator="in" in2="blur"/>
      <feComposite in="SourceGraphic"/>
    </filter>
  </defs>
  <g id="Grupo_1224583" data-name="Grupo 1224583" transform="translate(-814.49 -7848.751)">
    <g id="Grupo_1224455" data-name="Grupo 1224455" transform="translate(823.49 7854.751)">
      <g id="Grupo_1224084" data-name="Grupo 1224084" transform="translate(0 0)">
        <g id="Grupo_1223183" data-name="Grupo 1223183">
          <g id="Grupo_1211217" data-name="Grupo 1211217">
            <g id="Grupo_1210736" data-name="Grupo 1210736">
              <g id="Grupo_1210537" data-name="Grupo 1210537">
                <g id="Grupo_1164202" data-name="Grupo 1164202">
                  <g id="Grupo_1158168" data-name="Grupo 1158168">
                    <g id="Grupo_1152576" data-name="Grupo 1152576">
                      <g id="Grupo_1148633" data-name="Grupo 1148633">
                        <g id="Grupo_1148525" data-name="Grupo 1148525">
                          <g transform="matrix(1, 0, 0, 1, -9, -6)" filter="url(#Trazado_982547)">
                            <g id="Trazado_982547-2" data-name="Trazado 982547" transform="translate(9 6)" fill="#fcf5f0">
                              <path d="M 47.49999618530273 93.5 C 41.28936767578125 93.5 35.26533126831055 92.28396606445312 29.59518241882324 89.88570404052734 C 24.11771583557129 87.56893157958984 19.19812965393066 84.251953125 14.97308921813965 80.02690124511719 C 10.74803638458252 75.80186462402344 7.431062698364258 70.88227844238281 5.114289283752441 65.40480804443359 C 2.716022968292236 59.73466110229492 1.499996185302734 53.71062469482422 1.499996185302734 47.49999618530273 C 1.499996185302734 41.28936767578125 2.716022968292236 35.26533126831055 5.114289283752441 29.59518241882324 C 7.431062698364258 24.11771583557129 10.74803638458252 19.19812965393066 14.97308921813965 14.97308921813965 C 19.19812965393066 10.74803638458252 24.11771583557129 7.431062698364258 29.59518241882324 5.114289283752441 C 35.26533126831055 2.716022968292236 41.28936767578125 1.499996185302734 47.49999618530273 1.499996185302734 C 53.71062469482422 1.499996185302734 59.73466110229492 2.716022968292236 65.40480804443359 5.114289283752441 C 70.88227844238281 7.431062698364258 75.80186462402344 10.74803638458252 80.02690124511719 14.97308921813965 C 84.251953125 19.19812965393066 87.56893157958984 24.11771583557129 89.88570404052734 29.59518241882324 C 92.28396606445312 35.26533126831055 93.5 41.28936767578125 93.5 47.49999618530273 C 93.5 53.71062469482422 92.28396606445312 59.73466110229492 89.88570404052734 65.40480804443359 C 87.56893157958984 70.88227844238281 84.251953125 75.80186462402344 80.02690124511719 80.02690124511719 C 75.80186462402344 84.251953125 70.88227844238281 87.56893157958984 65.40480804443359 89.88570404052734 C 59.73466110229492 92.28396606445312 53.71062469482422 93.5 47.49999618530273 93.5 Z" stroke="none"/>
                              <path d="M 47.49999618530273 2.999992370605469 C 41.4912109375 2.999992370605469 35.66376495361328 4.1761474609375 30.17950439453125 6.495796203613281 C 24.88084411621094 8.736953735351562 20.12152099609375 11.94598388671875 16.03375244140625 16.03375244140625 C 11.94598388671875 20.12152099609375 8.736953735351562 24.88084411621094 6.495796203613281 30.17950439453125 C 4.1761474609375 35.66376495361328 2.999992370605469 41.4912109375 2.999992370605469 47.49999618530273 C 2.999992370605469 53.50878143310547 4.1761474609375 59.33622741699219 6.495796203613281 64.82048797607422 C 8.736953735351562 70.11914825439453 11.94598388671875 74.87847137451172 16.03375244140625 78.96623992919922 C 20.12152099609375 83.05400848388672 24.88084411621094 86.26304626464844 30.17950439453125 88.50419616699219 C 35.66376495361328 90.82384490966797 41.4912109375 92 47.49999618530273 92 C 53.50878143310547 92 59.33622741699219 90.82384490966797 64.82048797607422 88.50419616699219 C 70.11914825439453 86.26304626464844 74.87847137451172 83.05400848388672 78.96623992919922 78.96623992919922 C 83.05400848388672 74.87847137451172 86.26304626464844 70.11914825439453 88.50419616699219 64.82048797607422 C 90.82384490966797 59.33622741699219 92 53.50878143310547 92 47.49999618530273 C 92 41.4912109375 90.82384490966797 35.66376495361328 88.50419616699219 30.17950439453125 C 86.26304626464844 24.88084411621094 83.05400848388672 20.12152099609375 78.96623992919922 16.03375244140625 C 74.87847137451172 11.94598388671875 70.11914825439453 8.736953735351562 64.82048797607422 6.495796203613281 C 59.33622741699219 4.1761474609375 53.50878143310547 2.999992370605469 47.49999618530273 2.999992370605469 M 47.49999618530273 -7.62939453125e-06 C 73.7335205078125 -7.62939453125e-06 95 21.26647186279297 95 47.49999618530273 C 95 73.7335205078125 73.7335205078125 95 47.49999618530273 95 C 21.26647186279297 95 -7.62939453125e-06 73.7335205078125 -7.62939453125e-06 47.49999618530273 C -7.62939453125e-06 21.26647186279297 21.26647186279297 -7.62939453125e-06 47.49999618530273 -7.62939453125e-06 Z" stroke="none" fill="#eca675"/>
                            </g>
                          </g>
                        </g>
                      </g>
                    </g>
                  </g>
                </g>
              </g>
            </g>
          </g>
        </g>
      </g>
    </g>
    <g id="planning_4838778" transform="translate(821.737 7855.482)">
      <path id="Trazado_1180849" data-name="Trazado 1180849" d="M32,24V83.487H73.025V34.256L62.769,24Z" transform="translate(-6.974 -6.974)" fill="#e9eef2"/>
      <circle id="Elipse_14769" data-name="Elipse 14769" cx="8.117" cy="8.117" r="8.117" transform="translate(43.822 55.788)" fill="#3dc285"/>
      <circle id="Elipse_14770" data-name="Elipse 14770" cx="4.059" cy="4.059" r="4.059" transform="translate(47.43 60.298)" fill="#35a872"/>
      <path id="Trazado_1180850" data-name="Trazado 1180850" d="M354.256,156.1l-3.077,6.154-7.179,4.1v-8.205L350.154,152h4.1Z" transform="translate(-278.975 -118.564)" fill="#3397e8"/>
      <path id="Trazado_1180851" data-name="Trazado 1180851" d="M378.256,208l-6.154,3.077-4.1,7.179h8.205l6.154-6.154V208Z" transform="translate(-299.898 -167.385)" fill="#3397e8"/>
      <g id="Grupo_1224582" data-name="Grupo 1224582" transform="translate(31.195 47.671)">
        <circle id="Elipse_14771" data-name="Elipse 14771" cx="2.255" cy="2.255" r="2.255" transform="translate(0 14.431)" fill="#ffd33a"/>
        <circle id="Elipse_14772" data-name="Elipse 14772" cx="2.255" cy="2.255" r="2.255" transform="translate(18.039 0)" fill="#ffd33a"/>
        <circle id="Elipse_14773" data-name="Elipse 14773" cx="2.255" cy="2.255" r="2.255" transform="translate(0 0)" fill="#ffd33a"/>
      </g>
      <path id="Trazado_1180852" data-name="Trazado 1180852" d="M176,168h16.41v8.205H176Z" transform="translate(-132.513 -132.513)" fill="#c3c6c7"/>
      <path id="Trazado_1180853" data-name="Trazado 1180853" d="M176,72h16.41v8.205H176Z" transform="translate(-132.513 -48.821)" fill="#c3c6c7"/>
      <path id="Trazado_1180854" data-name="Trazado 1180854" d="M272,34.256h10.256L272,24Z" transform="translate(-216.205 -6.974)" fill="#dadcde"/>
      <path id="Trazado_1180855" data-name="Trazado 1180855" d="M241.9,188.423l-1.9.474.474-1.9a8.205,8.205,0,0,1,2.158-3.812l23.521-23.521a2.176,2.176,0,0,1,3.077,3.077L245.71,186.265A8.205,8.205,0,0,1,241.9,188.423Z" transform="translate(-188.308 -124.693)" fill="#2978b8"/>
      <path id="Trazado_1180856" data-name="Trazado 1180856" d="M243.59,340l3.077,3.077-.958.958a8.2,8.2,0,0,1-3.812,2.158l-1.9.474.474-1.9a8.2,8.2,0,0,1,2.158-3.812Z" transform="translate(-188.308 -282.462)" fill="#e9eef2"/>
      <path id="Trazado_1180857" data-name="Trazado 1180857" d="M0,0H13.054V4.351H0Z" transform="translate(65.531 47.284) rotate(-45)" fill="#1261a0"/>
      <path id="Trazado_1180858" data-name="Trazado 1180858" d="M82.461,39.59H80.835l.813-.813a3.2,3.2,0,1,0-4.527-4.527l-.813.813V33.436a1.026,1.026,0,0,0-1.026-1.026h-4.1a1.026,1.026,0,0,0-.725.3l-3.377,3.377V27.282a1.026,1.026,0,0,0-.3-.725L56.52,16.3a1.026,1.026,0,0,0-.725-.3H25.026A1.026,1.026,0,0,0,24,17.026V76.512a1.026,1.026,0,0,0,1.026,1.026H66.051a1.026,1.026,0,0,0,1.026-1.026V53.348L68.527,51.9h7.78a1.026,1.026,0,0,0,.725-.3l6.154-6.154a1.026,1.026,0,0,0,.3-.725v-4.1A1.026,1.026,0,0,0,82.461,39.59Zm-3.89-3.89A1.15,1.15,0,1,1,80.2,37.326l-2.352,2.352-1.626-1.626ZM58.872,64.2a7.176,7.176,0,1,1-4.9-6.808L52.8,58.574a5.128,5.128,0,0,0-.47.543,5.131,5.131,0,1,0,4.455,4.455,5.146,5.146,0,0,0,.543-.47L58.5,61.924A7.2,7.2,0,0,1,58.872,64.2Zm-7.9.725a1.026,1.026,0,0,0,.974.269l2.814-.7A3.077,3.077,0,1,1,51.4,61.142l-.7,2.814A1.026,1.026,0,0,0,50.967,64.93Zm4.906-3.28a3.077,3.077,0,0,1-1.429.809L53.1,62.8l.335-1.342a3.078,3.078,0,0,1,.809-1.429l1.035-1.035,1.626,1.626Zm2.486-2.486-1.626-1.626,8.806-8.806,1.626,1.626ZM68.615,48.908l-1.626-1.626,7.78-7.78L76.4,41.128ZM71.6,34.461h2.652v2.652l-8.205,8.205v-5.3Zm-7.3,4.4a1.026,1.026,0,0,0-.3.725v7.78l-8.449,8.449a9.23,9.23,0,0,0-13.031,7.36H36.131A3.092,3.092,0,0,0,34.256,61.3V52.746a3.092,3.092,0,0,0,1.875-1.875h12.66a3.077,3.077,0,1,0,3.926-3.926V44.718H59.9a1.026,1.026,0,0,0,1.026-1.026V35.487A1.026,1.026,0,0,0,59.9,34.461H52.718V32.41H59.9a1.026,1.026,0,0,0,1.026-1.026V28.308h4.1v9.831ZM34.256,64.2a1.026,1.026,0,1,1-1.026-1.026A1.026,1.026,0,0,1,34.256,64.2ZM32.205,49.846a1.026,1.026,0,1,1,1.026,1.026A1.026,1.026,0,0,1,32.205,49.846ZM58.872,36.513v6.154H44.513V36.513ZM51.692,48.82a1.026,1.026,0,1,1-1.026,1.026,1.026,1.026,0,0,1,1.026-1.026ZM56.82,26.256V19.5l6.755,6.755Zm-1.026,2.051h3.077v2.051H44.513V24.205H54.769v3.077A1.026,1.026,0,0,0,55.795,28.308Zm9.231,47.179H26.051V18.051H54.769v4.1H43.487a1.026,1.026,0,0,0-1.026,1.026v8.205a1.026,1.026,0,0,0,1.026,1.026h7.179v2.051H43.487a1.026,1.026,0,0,0-1.026,1.026v8.205a1.026,1.026,0,0,0,1.026,1.026h7.179v2.228a3.092,3.092,0,0,0-1.875,1.875H36.131a3.077,3.077,0,1,0-3.926,3.926V61.3a3.077,3.077,0,1,0,3.926,3.926H42.52a9.231,9.231,0,1,0,17.558-4.885L65.025,55.4Zm16.41-31.194-5.553,5.553h-5.3l8.205-8.205h2.652Z"/>
      <path id="Trazado_1180859" data-name="Trazado 1180859" d="M74.351,175.9a1.026,1.026,0,0,0,.725.3q.05,0,.1-.005a1.026,1.026,0,0,0,.752-.452l4.1-6.154a1.026,1.026,0,1,0-1.707-1.138l-3.409,5.113L73.751,172.4a1.026,1.026,0,1,0-1.451,1.451Z" transform="translate(-41.846 -132.512)"/>
      <path id="Trazado_1180860" data-name="Trazado 1180860" d="M74.351,79.9a1.026,1.026,0,0,0,.725.3q.05,0,.1-.005a1.026,1.026,0,0,0,.752-.452l4.1-6.154a1.026,1.026,0,1,0-1.707-1.138l-3.409,5.113L73.751,76.4A1.026,1.026,0,0,0,72.3,77.853Z" transform="translate(-41.846 -48.82)"/>
    </g>
  </g>
</svg>
