<svg xmlns="http://www.w3.org/2000/svg" xmlns:xlink="http://www.w3.org/1999/xlink" width="113" height="113" viewBox="0 0 113 113">
  <defs>
    <filter id="Trazado_982547" x="0" y="0" width="113" height="113" filterUnits="userSpaceOnUse">
      <feOffset dy="3" input="SourceAlpha"/>
      <feGaussianBlur stdDeviation="3" result="blur"/>
      <feFlood flood-opacity="0.161"/>
      <feComposite operator="in" in2="blur"/>
      <feComposite in="SourceGraphic"/>
    </filter>
  </defs>
  <g id="Grupo_1224585" data-name="Grupo 1224585" transform="translate(-1133 -7848.751)">
    <g id="Grupo_1224456" data-name="Grupo 1224456" transform="translate(1142 7854.751)">
      <g id="Grupo_1224085" data-name="Grupo 1224085" transform="translate(0 0)">
        <g id="Grupo_1223184" data-name="Grupo 1223184">
          <g id="Grupo_1211216" data-name="Grupo 1211216">
            <g id="Grupo_1210737" data-name="Grupo 1210737">
              <g id="Grupo_1210537" data-name="Grupo 1210537">
                <g id="Grupo_1164202" data-name="Grupo 1164202">
                  <g id="Grupo_1158168" data-name="Grupo 1158168">
                    <g id="Grupo_1152576" data-name="Grupo 1152576">
                      <g id="Grupo_1148633" data-name="Grupo 1148633">
                        <g id="Grupo_1148525" data-name="Grupo 1148525">
                          <g transform="matrix(1, 0, 0, 1, -9, -6)" filter="url(#Trazado_982547)">
                            <g id="Trazado_982547-2" data-name="Trazado 982547" transform="translate(9 6)" fill="#fcf5f0">
                              <path d="M 47.49999618530273 93.5 C 41.28936767578125 93.5 35.26533126831055 92.28396606445312 29.59518241882324 89.88570404052734 C 24.11771583557129 87.56893157958984 19.19812965393066 84.251953125 14.97308921813965 80.02690124511719 C 10.74803638458252 75.80186462402344 7.431062698364258 70.88227844238281 5.114289283752441 65.40480804443359 C 2.716022968292236 59.73466110229492 1.499996185302734 53.71062469482422 1.499996185302734 47.49999618530273 C 1.499996185302734 41.28936767578125 2.716022968292236 35.26533126831055 5.114289283752441 29.59518241882324 C 7.431062698364258 24.11771583557129 10.74803638458252 19.19812965393066 14.97308921813965 14.97308921813965 C 19.19812965393066 10.74803638458252 24.11771583557129 7.431062698364258 29.59518241882324 5.114289283752441 C 35.26533126831055 2.716022968292236 41.28936767578125 1.499996185302734 47.49999618530273 1.499996185302734 C 53.71062469482422 1.499996185302734 59.73466110229492 2.716022968292236 65.40480804443359 5.114289283752441 C 70.88227844238281 7.431062698364258 75.80186462402344 10.74803638458252 80.02690124511719 14.97308921813965 C 84.251953125 19.19812965393066 87.56893157958984 24.11771583557129 89.88570404052734 29.59518241882324 C 92.28396606445312 35.26533126831055 93.5 41.28936767578125 93.5 47.49999618530273 C 93.5 53.71062469482422 92.28396606445312 59.73466110229492 89.88570404052734 65.40480804443359 C 87.56893157958984 70.88227844238281 84.251953125 75.80186462402344 80.02690124511719 80.02690124511719 C 75.80186462402344 84.251953125 70.88227844238281 87.56893157958984 65.40480804443359 89.88570404052734 C 59.73466110229492 92.28396606445312 53.71062469482422 93.5 47.49999618530273 93.5 Z" stroke="none"/>
                              <path d="M 47.49999618530273 2.999992370605469 C 41.4912109375 2.999992370605469 35.66376495361328 4.1761474609375 30.17950439453125 6.495796203613281 C 24.88084411621094 8.736953735351562 20.12152099609375 11.94598388671875 16.03375244140625 16.03375244140625 C 11.94598388671875 20.12152099609375 8.736953735351562 24.88084411621094 6.495796203613281 30.17950439453125 C 4.1761474609375 35.66376495361328 2.999992370605469 41.4912109375 2.999992370605469 47.49999618530273 C 2.999992370605469 53.50878143310547 4.1761474609375 59.33622741699219 6.495796203613281 64.82048797607422 C 8.736953735351562 70.11914825439453 11.94598388671875 74.87847137451172 16.03375244140625 78.96623992919922 C 20.12152099609375 83.05400848388672 24.88084411621094 86.26304626464844 30.17950439453125 88.50419616699219 C 35.66376495361328 90.82384490966797 41.4912109375 92 47.49999618530273 92 C 53.50878143310547 92 59.33622741699219 90.82384490966797 64.82048797607422 88.50419616699219 C 70.11914825439453 86.26304626464844 74.87847137451172 83.05400848388672 78.96623992919922 78.96623992919922 C 83.05400848388672 74.87847137451172 86.26304626464844 70.11914825439453 88.50419616699219 64.82048797607422 C 90.82384490966797 59.33622741699219 92 53.50878143310547 92 47.49999618530273 C 92 41.4912109375 90.82384490966797 35.66376495361328 88.50419616699219 30.17950439453125 C 86.26304626464844 24.88084411621094 83.05400848388672 20.12152099609375 78.96623992919922 16.03375244140625 C 74.87847137451172 11.94598388671875 70.11914825439453 8.736953735351562 64.82048797607422 6.495796203613281 C 59.33622741699219 4.1761474609375 53.50878143310547 2.999992370605469 47.49999618530273 2.999992370605469 M 47.49999618530273 -7.62939453125e-06 C 73.7335205078125 -7.62939453125e-06 95 21.26647186279297 95 47.49999618530273 C 95 73.7335205078125 73.7335205078125 95 47.49999618530273 95 C 21.26647186279297 95 -7.62939453125e-06 73.7335205078125 -7.62939453125e-06 47.49999618530273 C -7.62939453125e-06 21.26647186279297 21.26647186279297 -7.62939453125e-06 47.49999618530273 -7.62939453125e-06 Z" stroke="none" fill="#eca675"/>
                            </g>
                          </g>
                        </g>
                      </g>
                    </g>
                  </g>
                </g>
              </g>
            </g>
          </g>
        </g>
      </g>
    </g>
    <g id="partner_4041676" transform="translate(1155.051 7868.285)">
      <path id="Trazado_1180861" data-name="Trazado 1180861" d="M41.582,11.791A8.791,8.791,0,1,1,32.791,3,8.791,8.791,0,0,1,41.582,11.791Z" transform="translate(2.182 0.099)" fill="#e6e6e6"/>
      <path id="Trazado_1180862" data-name="Trazado 1180862" d="M60.01,22.011a8.791,8.791,0,1,1,2.578-6.22A8.791,8.791,0,0,1,60.01,22.011Z" transform="translate(4.259 0.494)" fill="#e6e6e6"/>
      <path id="Trazado_1180863" data-name="Trazado 1180863" d="M5.572,22.011a8.791,8.791,0,1,0-2.578-6.22,8.791,8.791,0,0,0,2.578,6.22Z" transform="translate(0.104 0.494)" fill="#e6e6e6"/>
      <path id="Trazado_1180864" data-name="Trazado 1180864" d="M38.863,17.034a8.791,8.791,0,0,1-12.593,0,6.45,6.45,0,0,1,12.593,0Z" transform="translate(2.406 0.987)" fill="#7599cd"/>
      <path id="Trazado_1180865" data-name="Trazado 1180865" d="M53.912,23.886A8.791,8.791,0,0,1,45,14.974a6.681,6.681,0,0,1,8.011.9,6.681,6.681,0,0,1,.9,8.011Z" transform="translate(4.258 1.191)" fill="#7599cd"/>
      <path id="Trazado_1180866" data-name="Trazado 1180866" d="M10.974,23.886a8.791,8.791,0,0,0,8.912-8.912,6.681,6.681,0,0,0-8.011.9,6.681,6.681,0,0,0-.9,8.011Z" transform="translate(0.801 1.191)" fill="#7599cd"/>
      <g id="Grupo_1224584" data-name="Grupo 1224584" transform="translate(7.621 6.945)">
        <circle id="Elipse_14774" data-name="Elipse 14774" cx="2.747" cy="2.747" r="2.747" transform="translate(24.571)" fill="#f8d6a9"/>
        <circle id="Elipse_14775" data-name="Elipse 14775" cx="2.747" cy="2.747" r="2.747" transform="translate(49.208 5.011)" fill="#f8d6a9"/>
        <circle id="Elipse_14776" data-name="Elipse 14776" cx="2.747" cy="2.747" r="2.747" transform="translate(0 5.011)" fill="#f8d6a9"/>
        <circle id="Elipse_14777" data-name="Elipse 14777" cx="3.297" cy="3.297" r="3.297" transform="translate(24.055 26.923)" fill="#f8d6a9"/>
        <circle id="Elipse_14778" data-name="Elipse 14778" cx="3.297" cy="3.297" r="3.297" transform="translate(24.055 26.923)" fill="#f8d6a9"/>
      </g>
      <path id="Trazado_1180867" data-name="Trazado 1180867" d="M33.255,51.4l2.2,12.088h4.4L37.65,49.2V42.61l9.549-4.4-.758-2.385-9.89,2.385H29.958l-9.89-2.385-.758,2.385,9.549,4.4V49.2l-2.2,14.286h4.4Z" transform="translate(1.718 3.346)" fill="#7599cd"/>
      <path id="Trazado_1180868" data-name="Trazado 1180868" d="M4.3,46.119,2.1,45.91a17.846,17.846,0,0,0-.1,2.3H4.2A14.761,14.761,0,0,1,4.3,46.119Z" transform="translate(0.006 4.342)"/>
      <path id="Trazado_1180869" data-name="Trazado 1180869" d="M38.3,22.545a40.779,40.779,0,0,0-4.286-.495l-.132,2.2a36.053,36.053,0,0,1,4.088.462Z" transform="translate(3.159 1.983)"/>
      <path id="Trazado_1180870" data-name="Trazado 1180870" d="M45.915,24.9a35.044,35.044,0,0,0-4.1-1.494l-.626,2.1a35.682,35.682,0,0,1,3.846,1.407Z" transform="translate(3.882 2.117)"/>
      <path id="Trazado_1180871" data-name="Trazado 1180871" d="M8.023,36.259a26.56,26.56,0,0,1,2.549-3.121L8.968,31.6A28.01,28.01,0,0,0,6.21,35.018Z" transform="translate(0.422 2.927)"/>
      <path id="Trazado_1180872" data-name="Trazado 1180872" d="M51.363,30.8l1.363-1.714A31.68,31.68,0,0,0,49.1,26.59L48,28.48A31.417,31.417,0,0,1,51.363,30.8Z" transform="translate(4.555 2.432)"/>
      <path id="Trazado_1180873" data-name="Trazado 1180873" d="M56.35,36.219l1.8-1.242a28.109,28.109,0,0,0-2.769-3.418L53.79,33.065a26.767,26.767,0,0,1,2.56,3.154Z" transform="translate(5.128 2.923)"/>
      <path id="Trazado_1180874" data-name="Trazado 1180874" d="M13.017,30.829a31.506,31.506,0,0,1,3.407-2.33l-1.1-1.879a33.307,33.307,0,0,0-3.6,2.494Z" transform="translate(0.967 2.435)"/>
      <path id="Trazado_1180875" data-name="Trazado 1180875" d="M19.339,26.936a33.484,33.484,0,0,1,3.846-1.407l-.626-2.11a35.1,35.1,0,0,0-4.1,1.505Z" transform="translate(1.634 2.118)"/>
      <path id="Trazado_1180876" data-name="Trazado 1180876" d="M30.39,22.06a38.1,38.1,0,0,0-4.33.494l.385,2.2a38.232,38.232,0,0,1,4.077-.473Z" transform="translate(2.385 1.984)"/>
      <path id="Trazado_1180877" data-name="Trazado 1180877" d="M2.81,42.381l2.121.582a22.7,22.7,0,0,1,1.385-3.879L4.326,38.15A27.121,27.121,0,0,0,2.81,42.381Z" transform="translate(0.086 3.575)"/>
      <path id="Trazado_1180878" data-name="Trazado 1180878" d="M59.363,42.865l2.121-.593a24.978,24.978,0,0,0-1.538-4.132L58,39.085A22.7,22.7,0,0,1,59.363,42.865Z" transform="translate(5.544 3.574)"/>
      <path id="Trazado_1180879" data-name="Trazado 1180879" d="M59.91,46.119c.066.692.1,1.4.1,2.088h2.2a17.846,17.846,0,0,0-.1-2.3Z" transform="translate(5.733 4.342)"/>
      <path id="Trazado_1180880" data-name="Trazado 1180880" d="M47.76,39.793a1.1,1.1,0,0,0,.582-1.33l-.7-2.385a1.1,1.1,0,0,0-1.3-.736l-9.824,2.352h-.286a4.4,4.4,0,1,0-5.758,0h-.286L20.42,35.343a1.1,1.1,0,0,0-1.3.736l-.758,2.385a1.1,1.1,0,0,0,.582,1.33l8.912,4.1v5.8L25.661,63.9a1.1,1.1,0,0,0,1.1,1.264h4.4a1.1,1.1,0,0,0,1.1-.9l1.1-6.143,1.1,6.143a1.1,1.1,0,0,0,1.1.9h4.4a1.1,1.1,0,0,0,1.1-1.264l-2.2-14.209v-5.8ZM33.354,32.2a2.2,2.2,0,1,1-2.2,2.2A2.2,2.2,0,0,1,33.354,32.2Zm3.3,17.747,2.011,13.022h-2.2L34.452,51.782a1.1,1.1,0,0,0-2.2,0L30.244,62.969h-2.2l2.011-13.022a.835.835,0,0,0,0-.165V43.189a1.1,1.1,0,0,0-.637-1L20.749,38.2l.154-.484,8.9,2.176a.934.934,0,0,0,.253,0H36.65a.934.934,0,0,0,.253,0l8.9-2.2.154.484-8.67,3.989a1.1,1.1,0,0,0-.637,1.022v6.593a.834.834,0,0,0,0,.165Z" transform="translate(1.619 2.767)"/>
      <path id="Trazado_1180881" data-name="Trazado 1180881" d="M32.89,2a9.89,9.89,0,1,0,9.89,9.89A9.89,9.89,0,0,0,32.89,2ZM27.868,17.714a5.286,5.286,0,0,1,10.044,0A7.692,7.692,0,0,1,27.868,17.714Zm5.022-6.374a1.648,1.648,0,1,1,1.615-1.648,1.648,1.648,0,0,1-1.615,1.648Zm6.593,4.538a7.692,7.692,0,0,0-3.89-3.462,3.863,3.863,0,1,0-5.44.022,7.692,7.692,0,0,0-3.857,3.44,7.692,7.692,0,1,1,13.187,0Z" transform="translate(2.083)"/>
      <path id="Trazado_1180882" data-name="Trazado 1180882" d="M60.879,8.9A9.887,9.887,0,1,0,53.89,25.779h.143A9.89,9.89,0,0,0,60.879,8.9ZM46.2,16.461a5.286,5.286,0,0,1,7.121,7.121A7.692,7.692,0,0,1,46.2,16.461Zm7.549-2.2a1.648,1.648,0,1,1,2.813,1.165,1.681,1.681,0,0,1-2.33,0,1.648,1.648,0,0,1-.462-1.121Zm5.637,7.121a7.6,7.6,0,0,1-3.615,2.022,7.692,7.692,0,0,0-.3-5.2,3.835,3.835,0,1,0-3.846-3.846,7.692,7.692,0,0,0-5.143-.286,7.692,7.692,0,1,1,12.9,7.308Z" transform="translate(4.159 0.396)"/>
      <path id="Trazado_1180883" data-name="Trazado 1180883" d="M11.9,6a9.89,9.89,0,1,0-.132,19.78H11.9A9.89,9.89,0,0,0,11.9,6ZM4.2,15.89a7.692,7.692,0,0,1,15.154-1.824,7.692,7.692,0,0,0-5.143.286,3.887,3.887,0,1,0-3.879,3.78,7.692,7.692,0,0,0-.308,5.2A7.692,7.692,0,0,1,4.2,15.89Zm7.33-.418a1.648,1.648,0,1,1,.357-1.8,1.637,1.637,0,0,1-.357,1.8Zm5.857,5.912a7.582,7.582,0,0,1-4.868,2.2,5.286,5.286,0,0,1,7.066-7.121,7.626,7.626,0,0,1-2.2,4.923Z" transform="translate(0 0.396)"/>
    </g>
  </g>
</svg>
