<svg xmlns="http://www.w3.org/2000/svg" xmlns:xlink="http://www.w3.org/1999/xlink" width="113" height="113" viewBox="0 0 113 113">
  <defs>
    <filter id="Trazado_982547" x="0" y="0" width="113" height="113" filterUnits="userSpaceOnUse">
      <feOffset dy="3" input="SourceAlpha"/>
      <feGaussianBlur stdDeviation="3" result="blur"/>
      <feFlood flood-opacity="0.161"/>
      <feComposite operator="in" in2="blur"/>
      <feComposite in="SourceGraphic"/>
    </filter>
  </defs>
  <g id="Grupo_1224587" data-name="Grupo 1224587" transform="translate(-2901 -7848.751)">
    <g id="Grupo_1224458" data-name="Grupo 1224458" transform="translate(2910 7854.751)">
      <g id="Grupo_1224085" data-name="Grupo 1224085" transform="translate(0 0)">
        <g id="Grupo_1223184" data-name="Grupo 1223184">
          <g id="Grupo_1211216" data-name="Grupo 1211216">
            <g id="Grupo_1210737" data-name="Grupo 1210737">
              <g id="Grupo_1210537" data-name="Grupo 1210537">
                <g id="Grupo_1164202" data-name="Grupo 1164202">
                  <g id="Grupo_1158168" data-name="Grupo 1158168">
                    <g id="Grupo_1152576" data-name="Grupo 1152576">
                      <g id="Grupo_1148633" data-name="Grupo 1148633">
                        <g id="Grupo_1148525" data-name="Grupo 1148525">
                          <g transform="matrix(1, 0, 0, 1, -9, -6)" filter="url(#Trazado_982547)">
                            <g id="Trazado_982547-2" data-name="Trazado 982547" transform="translate(9 6)" fill="#fcf5f0">
                              <path d="M 47.49999618530273 93.5 C 41.28936767578125 93.5 35.26533126831055 92.28396606445312 29.59518241882324 89.88570404052734 C 24.11771583557129 87.56893157958984 19.19812965393066 84.251953125 14.97308921813965 80.02690124511719 C 10.74803638458252 75.80186462402344 7.431062698364258 70.88227844238281 5.114289283752441 65.40480804443359 C 2.716022968292236 59.73466110229492 1.499996185302734 53.71062469482422 1.499996185302734 47.49999618530273 C 1.499996185302734 41.28936767578125 2.716022968292236 35.26533126831055 5.114289283752441 29.59518241882324 C 7.431062698364258 24.11771583557129 10.74803638458252 19.19812965393066 14.97308921813965 14.97308921813965 C 19.19812965393066 10.74803638458252 24.11771583557129 7.431062698364258 29.59518241882324 5.114289283752441 C 35.26533126831055 2.716022968292236 41.28936767578125 1.499996185302734 47.49999618530273 1.499996185302734 C 53.71062469482422 1.499996185302734 59.73466110229492 2.716022968292236 65.40480804443359 5.114289283752441 C 70.88227844238281 7.431062698364258 75.80186462402344 10.74803638458252 80.02690124511719 14.97308921813965 C 84.251953125 19.19812965393066 87.56893157958984 24.11771583557129 89.88570404052734 29.59518241882324 C 92.28396606445312 35.26533126831055 93.5 41.28936767578125 93.5 47.49999618530273 C 93.5 53.71062469482422 92.28396606445312 59.73466110229492 89.88570404052734 65.40480804443359 C 87.56893157958984 70.88227844238281 84.251953125 75.80186462402344 80.02690124511719 80.02690124511719 C 75.80186462402344 84.251953125 70.88227844238281 87.56893157958984 65.40480804443359 89.88570404052734 C 59.73466110229492 92.28396606445312 53.71062469482422 93.5 47.49999618530273 93.5 Z" stroke="none"/>
                              <path d="M 47.49999618530273 2.999992370605469 C 41.4912109375 2.999992370605469 35.66376495361328 4.1761474609375 30.17950439453125 6.495796203613281 C 24.88084411621094 8.736953735351562 20.12152099609375 11.94598388671875 16.03375244140625 16.03375244140625 C 11.94598388671875 20.12152099609375 8.736953735351562 24.88084411621094 6.495796203613281 30.17950439453125 C 4.1761474609375 35.66376495361328 2.999992370605469 41.4912109375 2.999992370605469 47.49999618530273 C 2.999992370605469 53.50878143310547 4.1761474609375 59.33622741699219 6.495796203613281 64.82048797607422 C 8.736953735351562 70.11914825439453 11.94598388671875 74.87847137451172 16.03375244140625 78.96623992919922 C 20.12152099609375 83.05400848388672 24.88084411621094 86.26304626464844 30.17950439453125 88.50419616699219 C 35.66376495361328 90.82384490966797 41.4912109375 92 47.49999618530273 92 C 53.50878143310547 92 59.33622741699219 90.82384490966797 64.82048797607422 88.50419616699219 C 70.11914825439453 86.26304626464844 74.87847137451172 83.05400848388672 78.96623992919922 78.96623992919922 C 83.05400848388672 74.87847137451172 86.26304626464844 70.11914825439453 88.50419616699219 64.82048797607422 C 90.82384490966797 59.33622741699219 92 53.50878143310547 92 47.49999618530273 C 92 41.4912109375 90.82384490966797 35.66376495361328 88.50419616699219 30.17950439453125 C 86.26304626464844 24.88084411621094 83.05400848388672 20.12152099609375 78.96623992919922 16.03375244140625 C 74.87847137451172 11.94598388671875 70.11914825439453 8.736953735351562 64.82048797607422 6.495796203613281 C 59.33622741699219 4.1761474609375 53.50878143310547 2.999992370605469 47.49999618530273 2.999992370605469 M 47.49999618530273 -7.62939453125e-06 C 73.7335205078125 -7.62939453125e-06 95 21.26647186279297 95 47.49999618530273 C 95 73.7335205078125 73.7335205078125 95 47.49999618530273 95 C 21.26647186279297 95 -7.62939453125e-06 73.7335205078125 -7.62939453125e-06 47.49999618530273 C -7.62939453125e-06 21.26647186279297 21.26647186279297 -7.62939453125e-06 47.49999618530273 -7.62939453125e-06 Z" stroke="none" fill="#eca675"/>
                            </g>
                          </g>
                        </g>
                      </g>
                    </g>
                  </g>
                </g>
              </g>
            </g>
          </g>
        </g>
      </g>
    </g>
    <g id="conclusion_18289379" transform="translate(2908.908 7849.137)">
      <g id="Grupo_1224586" data-name="Grupo 1224586" transform="translate(20.645 25.205)">
        <path id="Trazado_1180884" data-name="Trazado 1180884" d="M75.72,31.32h33.738v46.5H75.72Z" transform="translate(-69.532 -31.32)" fill="#dfc49c" fill-rule="evenodd"/>
        <path id="Trazado_1180885" data-name="Trazado 1180885" d="M112.306,35.68V81.625H78.98a65.512,65.512,0,0,1,8.108-21.879c7.05-12.214,16.626-20.967,25.218-24.066Z" transform="translate(-72.38 -35.129)" fill="#b39672" fill-rule="evenodd"/>
        <path id="Trazado_1180886" data-name="Trazado 1180886" d="M26.76,66.52H60.5v50.236H26.76Z" transform="translate(-26.76 -62.071)" fill="#ffe0b2" fill-rule="evenodd"/>
        <path id="Trazado_1180887" data-name="Trazado 1180887" d="M63.346,71.23v49.642H30.02a74.474,74.474,0,0,1,8.108-23.638C45.179,84.038,54.756,74.579,63.346,71.23Z" transform="translate(-29.608 -66.186)" fill="#dfc49c" fill-rule="evenodd"/>
        <path id="Trazado_1180888" data-name="Trazado 1180888" d="M64.091,112.33A4.671,4.671,0,1,1,59.42,117,4.672,4.672,0,0,1,64.091,112.33Z" transform="translate(-55.292 -102.091)" fill="#10acb3" fill-rule="evenodd"/>
        <path id="Trazado_1180889" data-name="Trazado 1180889" d="M76.392,112.33a4.672,4.672,0,0,1,3.912,7.226,4.671,4.671,0,0,1-6.044-6.71A4.667,4.667,0,0,1,76.392,112.33Z" transform="translate(-67.593 -102.091)" fill="#55d9cb" fill-rule="evenodd"/>
        <path id="Trazado_1180890" data-name="Trazado 1180890" d="M64.091,228.3a4.671,4.671,0,1,1-4.671,4.671A4.672,4.672,0,0,1,64.091,228.3Z" transform="translate(-55.292 -203.404)" fill="#10acb3" fill-rule="evenodd"/>
        <path id="Trazado_1180891" data-name="Trazado 1180891" d="M76.392,228.3a4.672,4.672,0,0,1,3.912,7.226,4.673,4.673,0,0,1-6.044-6.714A4.7,4.7,0,0,1,76.392,228.3Z" transform="translate(-67.593 -203.404)" fill="#55d9cb" fill-rule="evenodd"/>
        <path id="Trazado_1180892" data-name="Trazado 1180892" d="M64.091,344.26a4.671,4.671,0,1,1-4.671,4.671A4.672,4.672,0,0,1,64.091,344.26Z" transform="translate(-55.292 -304.708)" fill="#10acb3" fill-rule="evenodd"/>
        <path id="Trazado_1180893" data-name="Trazado 1180893" d="M76.392,344.26a4.672,4.672,0,0,1,3.912,7.226,4.673,4.673,0,0,1-6.044-6.714A4.713,4.713,0,0,1,76.392,344.26Z" transform="translate(-67.593 -304.708)" fill="#55d9cb" fill-rule="evenodd"/>
        <path id="Trazado_1180894" data-name="Trazado 1180894" d="M160.5,130.16h13.865V135H160.5Z" transform="translate(-143.597 -117.668)" fill="#ffd11a" fill-rule="evenodd"/>
        <path id="Trazado_1180895" data-name="Trazado 1180895" d="M160.5,246.13h13.865v4.841H160.5Z" transform="translate(-143.597 -218.98)" fill="#ffd11a" fill-rule="evenodd"/>
        <path id="Trazado_1180896" data-name="Trazado 1180896" d="M160.5,362.06h13.865V366.9H160.5Z" transform="translate(-143.597 -320.258)" fill="#ffd11a" fill-rule="evenodd"/>
        <path id="Trazado_1180897" data-name="Trazado 1180897" d="M160.5,265.26h13.865v2.422H160.5Z" transform="translate(-143.597 -235.693)" fill="#fec01b" fill-rule="evenodd"/>
        <path id="Trazado_1180898" data-name="Trazado 1180898" d="M160.5,381.23h13.865v2.422H160.5Z" transform="translate(-143.597 -337.005)" fill="#fec01b" fill-rule="evenodd"/>
        <path id="Trazado_1180899" data-name="Trazado 1180899" d="M160.5,149.3h13.865v2.422H160.5Z" transform="translate(-143.597 -134.389)" fill="#fec01b" fill-rule="evenodd"/>
        <path id="Trazado_1180900" data-name="Trazado 1180900" d="M315.9,260.937l4.263-2.787,7.767,11.873-4.259,2.787Z" transform="translate(-279.356 -229.481)" fill="#0688ad" fill-rule="evenodd"/>
        <path id="Trazado_1180901" data-name="Trazado 1180901" d="M0,0H2.547V14.188H0Z" transform="matrix(0.837, -0.547, 0.547, 0.837, 38.671, 30.07)" fill="#04a0c8" fill-rule="evenodd"/>
        <path id="Trazado_1180902" data-name="Trazado 1180902" d="M372.829,350.146a3.911,3.911,0,0,0,1.129-5.4l-7.62-11.647-6.528,4.271,7.62,11.647A3.913,3.913,0,0,0,372.829,350.146Z" transform="translate(-317.716 -294.958)" fill="#fec01b" fill-rule="evenodd"/>
        <path id="Trazado_1180903" data-name="Trazado 1180903" d="M395.395,350.146c1.795-1.172,2.056-3.98.584-6.233L388.9,333.1l-3.263,2.135Z" transform="translate(-340.282 -294.958)" fill="#ffd11a" fill-rule="evenodd"/>
        <path id="Trazado_1180904" data-name="Trazado 1180904" d="M206.37,125.5a13.548,13.548,0,1,1-3.923,18.755A13.549,13.549,0,0,1,206.37,125.5Z" transform="translate(-178.311 -111.663)" fill="#04a0c8" fill-rule="evenodd"/>
        <path id="Trazado_1180905" data-name="Trazado 1180905" d="M216.04,125.5A13.545,13.545,0,0,1,236.8,139.167a13.549,13.549,0,0,1-25.293-8.723,13.531,13.531,0,0,1,4.532-4.944Z" transform="translate(-187.981 -111.663)" fill="#01d0fb" fill-rule="evenodd"/>
        <path id="Trazado_1180906" data-name="Trazado 1180906" d="M234.018,154.225a9.842,9.842,0,1,1-2.849,13.625,9.84,9.84,0,0,1,2.849-13.625Z" transform="translate(-203.93 -137.287)" fill="#eacb9b" fill-rule="evenodd"/>
        <path id="Trazado_1180907" data-name="Trazado 1180907" d="M262.812,161.561A9.842,9.842,0,1,1,252.2,176.5a9.843,9.843,0,0,1,10.617-14.939Z" transform="translate(-222.298 -144.845)" fill="#ffe6c1" fill-rule="evenodd"/>
      </g>
      <path id="Trazado_1180908" data-name="Trazado 1180908" d="M50.944,51.5a.884.884,0,0,1,1.322-1.174l1.828,2.056,5.919-5.919a.884.884,0,1,1,1.25,1.25L54.681,54.3a.888.888,0,0,1-1.287-.039ZM50.21,41.431c.025-.021.054-.035.078-.054A10.728,10.728,0,0,1,65.07,44.464c.018.029.035.054.054.082a10.734,10.734,0,0,1-3.091,14.782.831.831,0,0,1-.078.051A10.725,10.725,0,0,1,50.21,41.431Zm7.745.179a8.96,8.96,0,1,0,5.665,3.866A8.965,8.965,0,0,0,57.955,41.61Zm-6.763-4.8a14.269,14.269,0,0,1,2.307-.627V30.54H21.529V79.01H53.5V64.571a14.393,14.393,0,0,1-9.584-6.491H37.548a.885.885,0,0,1-.885-.885V52.354a.882.882,0,0,1,.885-.885h4.181a14.518,14.518,0,0,1,1.744-8.047H37.548a.885.885,0,0,1-.885-.885V37.7a.882.882,0,0,1,.885-.885Zm4.076-.842a14.543,14.543,0,0,1,4.417.422v-10.3H27.714v2.679H54.383a.884.884,0,0,1,.885.885Zm6.184,1a14.44,14.44,0,0,1,5.216,23.269l1.72,2.626.394-.258A.884.884,0,0,1,70,62.862l7.624,11.647a4.785,4.785,0,0,1-8.007,5.241L62,68.1a.883.883,0,0,1,.254-1.225l.394-.254-1.2-1.828V71.7a.883.883,0,0,1-.881.885h-5.3v7.305a.885.885,0,0,1-.885.885H20.645a.885.885,0,0,1-.885-.885V29.654a.885.885,0,0,1,.885-.885h5.3V25.2a.885.885,0,0,1,.885-.885H60.57a.884.884,0,0,1,.881.885V36.966Zm3.909,24.5a14.456,14.456,0,0,1-2.781,1.82l1.548,2.361,2.781-1.82Zm-5.675,2.9a14.421,14.421,0,0,1-4.417.416v6.03h4.417ZM42.961,56.309a14.362,14.362,0,0,1-.992-3.074H38.433v3.074Zm1.659-14.656a14.257,14.257,0,0,1,3.189-3.07H38.433v3.07ZM58.714,37.98A12.668,12.668,0,0,0,43.58,52.175a.783.783,0,0,1,.01.094,12.852,12.852,0,0,0,1.931,5.044,12.615,12.615,0,0,0,8.007,5.464l1.025.172A12.667,12.667,0,0,0,58.714,37.98ZM75.274,79.654a3.028,3.028,0,0,0,.875-4.177L69.011,64.569l-5.052,3.3L71.1,78.781A3.026,3.026,0,0,0,75.274,79.654ZM37.548,66.122H51.413a.887.887,0,0,1,.885.885V71.85a.887.887,0,0,1-.885.885H37.548a.885.885,0,0,1-.885-.885V67.007a.885.885,0,0,1,.885-.885Zm12.98,1.771h-12.1v3.074h12.1ZM26.821,69.73a.882.882,0,0,1,1.408-1.064l.627.828,2.6-3.271A3.785,3.785,0,1,0,32.7,67.494L29.545,71.46a.884.884,0,0,1-1.412,0Zm2.623-5.858a5.557,5.557,0,1,1-5.557,5.557A5.556,5.556,0,0,1,29.444,63.872Zm-2.623-8.8a.884.884,0,1,1,1.408-1.068l.627.828,2.6-3.271A3.786,3.786,0,1,0,32.7,52.841L29.545,56.8a.884.884,0,0,1-1.412,0Zm2.623-5.861a5.557,5.557,0,1,1-5.557,5.557A5.558,5.558,0,0,1,29.444,49.216Zm-2.623-8.8a.882.882,0,1,1,1.408-1.064l.627.824,2.6-3.271A3.786,3.786,0,1,0,32.7,38.185l-3.156,3.962a.884.884,0,0,1-1.412.008Zm2.623-5.862a5.557,5.557,0,1,1-5.557,5.557A5.558,5.558,0,0,1,29.444,34.559Z" transform="translate(0)"/>
    </g>
  </g>
</svg>
