<svg xmlns="http://www.w3.org/2000/svg" xmlns:xlink="http://www.w3.org/1999/xlink" width="113" height="113" viewBox="0 0 113 113">
  <defs>
    <filter id="Trazado_982547" x="0" y="0" width="113" height="113" filterUnits="userSpaceOnUse">
      <feOffset dy="3" input="SourceAlpha"/>
      <feGaussianBlur stdDeviation="3" result="blur"/>
      <feFlood flood-opacity="0.161"/>
      <feComposite operator="in" in2="blur"/>
      <feComposite in="SourceGraphic"/>
    </filter>
  </defs>
  <g id="Grupo_1224589" data-name="Grupo 1224589" transform="translate(-3251 -7848.751)">
    <g id="Grupo_1224459" data-name="Grupo 1224459" transform="translate(3260 7854.751)">
      <g id="Grupo_1224085" data-name="Grupo 1224085" transform="translate(0 0)">
        <g id="Grupo_1223184" data-name="Grupo 1223184">
          <g id="Grupo_1211216" data-name="Grupo 1211216">
            <g id="Grupo_1210737" data-name="Grupo 1210737">
              <g id="Grupo_1210537" data-name="Grupo 1210537">
                <g id="Grupo_1164202" data-name="Grupo 1164202">
                  <g id="Grupo_1158168" data-name="Grupo 1158168">
                    <g id="Grupo_1152576" data-name="Grupo 1152576">
                      <g id="Grupo_1148633" data-name="Grupo 1148633">
                        <g id="Grupo_1148525" data-name="Grupo 1148525">
                          <g transform="matrix(1, 0, 0, 1, -9, -6)" filter="url(#Trazado_982547)">
                            <g id="Trazado_982547-2" data-name="Trazado 982547" transform="translate(9 6)" fill="#fcf5f0">
                              <path d="M 47.49999618530273 93.5 C 41.28936767578125 93.5 35.26533126831055 92.28396606445312 29.59518241882324 89.88570404052734 C 24.11771583557129 87.56893157958984 19.19812965393066 84.251953125 14.97308921813965 80.02690124511719 C 10.74803638458252 75.80186462402344 7.431062698364258 70.88227844238281 5.114289283752441 65.40480804443359 C 2.716022968292236 59.73466110229492 1.499996185302734 53.71062469482422 1.499996185302734 47.49999618530273 C 1.499996185302734 41.28936767578125 2.716022968292236 35.26533126831055 5.114289283752441 29.59518241882324 C 7.431062698364258 24.11771583557129 10.74803638458252 19.19812965393066 14.97308921813965 14.97308921813965 C 19.19812965393066 10.74803638458252 24.11771583557129 7.431062698364258 29.59518241882324 5.114289283752441 C 35.26533126831055 2.716022968292236 41.28936767578125 1.499996185302734 47.49999618530273 1.499996185302734 C 53.71062469482422 1.499996185302734 59.73466110229492 2.716022968292236 65.40480804443359 5.114289283752441 C 70.88227844238281 7.431062698364258 75.80186462402344 10.74803638458252 80.02690124511719 14.97308921813965 C 84.251953125 19.19812965393066 87.56893157958984 24.11771583557129 89.88570404052734 29.59518241882324 C 92.28396606445312 35.26533126831055 93.5 41.28936767578125 93.5 47.49999618530273 C 93.5 53.71062469482422 92.28396606445312 59.73466110229492 89.88570404052734 65.40480804443359 C 87.56893157958984 70.88227844238281 84.251953125 75.80186462402344 80.02690124511719 80.02690124511719 C 75.80186462402344 84.251953125 70.88227844238281 87.56893157958984 65.40480804443359 89.88570404052734 C 59.73466110229492 92.28396606445312 53.71062469482422 93.5 47.49999618530273 93.5 Z" stroke="none"/>
                              <path d="M 47.49999618530273 2.999992370605469 C 41.4912109375 2.999992370605469 35.66376495361328 4.1761474609375 30.17950439453125 6.495796203613281 C 24.88084411621094 8.736953735351562 20.12152099609375 11.94598388671875 16.03375244140625 16.03375244140625 C 11.94598388671875 20.12152099609375 8.736953735351562 24.88084411621094 6.495796203613281 30.17950439453125 C 4.1761474609375 35.66376495361328 2.999992370605469 41.4912109375 2.999992370605469 47.49999618530273 C 2.999992370605469 53.50878143310547 4.1761474609375 59.33622741699219 6.495796203613281 64.82048797607422 C 8.736953735351562 70.11914825439453 11.94598388671875 74.87847137451172 16.03375244140625 78.96623992919922 C 20.12152099609375 83.05400848388672 24.88084411621094 86.26304626464844 30.17950439453125 88.50419616699219 C 35.66376495361328 90.82384490966797 41.4912109375 92 47.49999618530273 92 C 53.50878143310547 92 59.33622741699219 90.82384490966797 64.82048797607422 88.50419616699219 C 70.11914825439453 86.26304626464844 74.87847137451172 83.05400848388672 78.96623992919922 78.96623992919922 C 83.05400848388672 74.87847137451172 86.26304626464844 70.11914825439453 88.50419616699219 64.82048797607422 C 90.82384490966797 59.33622741699219 92 53.50878143310547 92 47.49999618530273 C 92 41.4912109375 90.82384490966797 35.66376495361328 88.50419616699219 30.17950439453125 C 86.26304626464844 24.88084411621094 83.05400848388672 20.12152099609375 78.96623992919922 16.03375244140625 C 74.87847137451172 11.94598388671875 70.11914825439453 8.736953735351562 64.82048797607422 6.495796203613281 C 59.33622741699219 4.1761474609375 53.50878143310547 2.999992370605469 47.49999618530273 2.999992370605469 M 47.49999618530273 -7.62939453125e-06 C 73.7335205078125 -7.62939453125e-06 95 21.26647186279297 95 47.49999618530273 C 95 73.7335205078125 73.7335205078125 95 47.49999618530273 95 C 21.26647186279297 95 -7.62939453125e-06 73.7335205078125 -7.62939453125e-06 47.49999618530273 C -7.62939453125e-06 21.26647186279297 21.26647186279297 -7.62939453125e-06 47.49999618530273 -7.62939453125e-06 Z" stroke="none" fill="#eca675"/>
                            </g>
                          </g>
                        </g>
                      </g>
                    </g>
                  </g>
                </g>
              </g>
            </g>
          </g>
        </g>
      </g>
    </g>
    <g id="Fill_Outline" data-name="Fill Outline" transform="translate(3274.929 7868.698)">
      <g id="Color" transform="translate(3.019 5.019)">
        <path id="Trazado_1180909" data-name="Trazado 1180909" d="M7,10H57.952V20.19H7Z" transform="translate(-2.924 -4.905)" fill="#ef5350"/>
        <path id="Trazado_1180910" data-name="Trazado 1180910" d="M18,13.057V10h4.076v4.076A1.019,1.019,0,0,1,21.057,15.1H20.038A2.044,2.044,0,0,1,18,13.057Z" transform="translate(-2.714 -4.905)" fill="#e53935"/>
        <path id="Trazado_1180911" data-name="Trazado 1180911" d="M40,13.057V10h4.076v4.076A1.019,1.019,0,0,1,43.057,15.1H42.038A2.044,2.044,0,0,1,40,13.057Z" transform="translate(-2.295 -4.905)" fill="#e53935"/>
        <path id="Trazado_1180912" data-name="Trazado 1180912" d="M48,13.057V10h4.076v4.076A1.019,1.019,0,0,1,51.057,15.1H50.038A2.044,2.044,0,0,1,48,13.057Z" transform="translate(-2.143 -4.905)" fill="#e53935"/>
        <path id="Trazado_1180913" data-name="Trazado 1180913" d="M57.952,17.133V20.19H7V10H17.19v2.038a5.1,5.1,0,0,0,5.1,5.1Z" transform="translate(-2.924 -4.905)" fill="#e53935"/>
        <rect id="Rectángulo_422105" data-name="Rectángulo 422105" width="4.076" height="10.19" rx="2" transform="translate(8.152)" fill="#ffea00"/>
        <rect id="Rectángulo_422106" data-name="Rectángulo 422106" width="4.076" height="10.19" rx="2" transform="translate(16.305)" fill="#ffea00"/>
        <rect id="Rectángulo_422107" data-name="Rectángulo 422107" width="4.076" height="10.19" rx="2" transform="translate(38.724)" fill="#ffea00"/>
        <rect id="Rectángulo_422108" data-name="Rectángulo 422108" width="4.076" height="10.19" rx="2" transform="translate(46.876)" fill="#ffea00"/>
        <path id="Trazado_1180914" data-name="Trazado 1180914" d="M53.076,13.152a2.038,2.038,0,1,1-4.076,0V7.038A2.044,2.044,0,0,1,51.038,5v6.114A2.044,2.044,0,0,0,53.076,13.152Z" transform="translate(-2.124 -5)" fill="#ffd000"/>
        <path id="Trazado_1180915" data-name="Trazado 1180915" d="M45.076,13.152a2.038,2.038,0,0,1-4.076,0V7.038A2.044,2.044,0,0,1,43.038,5v6.114A2.044,2.044,0,0,0,45.076,13.152Z" transform="translate(-2.276 -5)" fill="#ffd000"/>
        <path id="Trazado_1180916" data-name="Trazado 1180916" d="M23.076,13.152a2.038,2.038,0,0,1-4.076,0V7.038A2.044,2.044,0,0,1,21.038,5v6.114A2.044,2.044,0,0,0,23.076,13.152Z" transform="translate(-2.695 -5)" fill="#ffd000"/>
        <path id="Trazado_1180917" data-name="Trazado 1180917" d="M15.076,13.152a2.038,2.038,0,0,1-4.076,0V7.038A2.044,2.044,0,0,1,13.038,5v6.114a2.044,2.044,0,0,0,2.038,2.038Z" transform="translate(-2.848 -5)" fill="#ffd000"/>
        <path id="Trazado_1180918" data-name="Trazado 1180918" d="M7,20H57.952V56.686H7Z" transform="translate(-2.924 -4.714)" fill="#e9f1f2"/>
        <path id="Trazado_1180919" data-name="Trazado 1180919" d="M57.952,49.552v7.133H7V20H27.381V35.286a14.217,14.217,0,0,0,4.891,10.741A13.233,13.233,0,0,1,57.9,49.552Z" transform="translate(-2.924 -4.714)" fill="#d0d8da"/>
        <g id="Grupo_1224588" data-name="Grupo 1224588" transform="translate(21.4 20.381)">
          <circle id="Elipse_14779" data-name="Elipse 14779" cx="3.057" cy="3.057" r="3.057" fill="#48cae4"/>
          <circle id="Elipse_14780" data-name="Elipse 14780" cx="3.057" cy="3.057" r="3.057" transform="translate(11.209)" fill="#48cae4"/>
          <circle id="Elipse_14781" data-name="Elipse 14781" cx="3.057" cy="3.057" r="3.057" transform="translate(22.419)" fill="#48cae4"/>
          <circle id="Elipse_14782" data-name="Elipse 14782" cx="3.057" cy="3.057" r="3.057" transform="translate(0 10.19)" fill="#48cae4"/>
          <circle id="Elipse_14783" data-name="Elipse 14783" cx="3.057" cy="3.057" r="3.057" transform="translate(11.209 10.19)" fill="#48cae4"/>
        </g>
        <circle id="Elipse_14784" data-name="Elipse 14784" cx="3.057" cy="3.057" r="3.057" transform="translate(10.19 40.762)" fill="#ef5350"/>
        <circle id="Elipse_14785" data-name="Elipse 14785" cx="3.057" cy="3.057" r="3.057" transform="translate(21.4 40.762)" fill="#00b4d8"/>
        <path id="Trazado_1180920" data-name="Trazado 1180920" d="M27.057,25v6.114a3.057,3.057,0,1,1,0-6.114Z" transform="translate(-2.6 -4.619)" fill="#00b4d8"/>
        <path id="Trazado_1180921" data-name="Trazado 1180921" d="M28.311,40.839a3.008,3.008,0,0,1-1.253.275,3.057,3.057,0,1,1,0-6.114,13.961,13.961,0,0,0,1.253,5.839Z" transform="translate(-2.6 -4.429)" fill="#00b4d8"/>
        <path id="Trazado_1180922" data-name="Trazado 1180922" d="M41.1,38.012a3.057,3.057,0,0,1-3.057,3.057,3.015,3.015,0,0,1-2.293-1.05,13.268,13.268,0,0,1,5.279-2.66,2.782,2.782,0,0,1,.071.652Z" transform="translate(-2.376 -4.384)" fill="#00b4d8"/>
        <circle id="Elipse_14786" data-name="Elipse 14786" cx="13.248" cy="13.248" r="13.248" transform="translate(32.609 30.571)" fill="#ffea00"/>
        <path id="Trazado_1180923" data-name="Trazado 1180923" d="M59.987,54.354A13.248,13.248,0,1,1,42.113,36.48,13.1,13.1,0,0,0,40.6,42.615,13.248,13.248,0,0,0,53.852,55.862a13.1,13.1,0,0,0,6.135-1.508Z" transform="translate(-2.391 -4.401)" fill="#ffd000"/>
        <circle id="Elipse_14787" data-name="Elipse 14787" cx="11.209" cy="11.209" r="11.209" transform="translate(34.647 32.609)" fill="#ffd000"/>
        <path id="Trazado_1180924" data-name="Trazado 1180924" d="M48.209,37a11.2,11.2,0,1,0,7.928,3.281A11.209,11.209,0,0,0,48.209,37Zm7.785,18.648a12.856,12.856,0,0,1-2.181.2A13.248,13.248,0,0,1,40.567,42.6a12.856,12.856,0,0,1,.2-2.181A11.209,11.209,0,0,1,55.995,55.648Z" transform="translate(-2.353 -4.391)" fill="#ffb700"/>
        <path id="Trazado_1180925" data-name="Trazado 1180925" d="M18.286,24H5.038A2.038,2.038,0,0,0,3,26.038V39.286a2.038,2.038,0,0,0,2.038,2.038h6.114L17.267,45.4V41.324h1.019a2.038,2.038,0,0,0,2.038-2.038V26.038A2.038,2.038,0,0,0,18.286,24Z" transform="translate(-3 -4.638)" fill="#ff7373"/>
        <path id="Trazado_1180926" data-name="Trazado 1180926" d="M20.324,36.229v3.057a2.044,2.044,0,0,1-2.038,2.038H17.267V45.4l-6.114-4.076H5.038A2.044,2.044,0,0,1,3,39.286V26.038A2.044,2.044,0,0,1,5.038,24H7.076v6.114a6.114,6.114,0,0,0,6.114,6.114Z" transform="translate(-3 -4.638)" fill="#ef5350"/>
      </g>
      <g id="Outline_copy" data-name="Outline copy" transform="translate(2 4)">
        <path id="Trazado_1180927" data-name="Trazado 1180927" d="M7.019,21.324H42.686a1.019,1.019,0,0,0,0-2.038H8.038V11.133h2.038v2.038a3.057,3.057,0,0,0,6.114,0V11.133h2.038v2.038a3.057,3.057,0,0,0,6.114,0V11.133H37.59a1.019,1.019,0,0,0,0-2.038H24.343V7.057a3.057,3.057,0,0,0-6.114,0V9.1H16.19V7.057a3.057,3.057,0,0,0-6.114,0V9.1H7.019A1.019,1.019,0,0,0,6,10.114V20.3A1.019,1.019,0,0,0,7.019,21.324ZM20.267,7.057a1.019,1.019,0,0,1,2.038,0v6.114a1.019,1.019,0,0,1-2.038,0Zm-8.152,0a1.019,1.019,0,0,1,2.038,0v6.114a1.019,1.019,0,0,1-2.038,0Z" transform="translate(-1.924 -4)"/>
        <path id="Trazado_1180928" data-name="Trazado 1180928" d="M27.076,24a4.076,4.076,0,1,0,4.076,4.076A4.076,4.076,0,0,0,27.076,24Zm0,6.114a2.038,2.038,0,1,1,2.038-2.038A2.038,2.038,0,0,1,27.076,30.114Z" transform="translate(-1.6 -3.619)"/>
        <path id="Trazado_1180929" data-name="Trazado 1180929" d="M34,28.076A4.076,4.076,0,1,0,38.076,24,4.076,4.076,0,0,0,34,28.076Zm6.114,0a2.038,2.038,0,1,1-2.038-2.038A2.038,2.038,0,0,1,40.114,28.076Z" transform="translate(-1.391 -3.619)"/>
        <path id="Trazado_1180930" data-name="Trazado 1180930" d="M53.152,28.076a4.076,4.076,0,1,0-4.076,4.076A4.076,4.076,0,0,0,53.152,28.076Zm-6.114,0a2.038,2.038,0,1,1,2.038,2.038A2.038,2.038,0,0,1,47.038,28.076Z" transform="translate(-1.181 -3.619)"/>
        <path id="Trazado_1180931" data-name="Trazado 1180931" d="M27.076,34a4.076,4.076,0,1,0,4.076,4.076A4.076,4.076,0,0,0,27.076,34Zm0,6.114a2.038,2.038,0,1,1,2.038-2.038A2.038,2.038,0,0,1,27.076,40.114Z" transform="translate(-1.6 -3.429)"/>
        <path id="Trazado_1180932" data-name="Trazado 1180932" d="M27.076,46.038a2.038,2.038,0,0,1,2.038,2.038,1.019,1.019,0,0,0,2.038,0,4.076,4.076,0,1,0-4.076,4.076,1.019,1.019,0,0,0,0-2.038,2.038,2.038,0,0,1,0-4.076Z" transform="translate(-1.6 -3.238)"/>
        <path id="Trazado_1180933" data-name="Trazado 1180933" d="M58.99,38.873V10.114A1.019,1.019,0,0,0,57.971,9.1H54.914V7.057a3.057,3.057,0,1,0-6.114,0V9.1H46.762V7.057a3.057,3.057,0,1,0-6.114,0v6.114a3.057,3.057,0,0,0,6.114,0V11.133H48.8v2.038a3.057,3.057,0,1,0,6.114,0V11.133h2.038v8.152H46.762a1.019,1.019,0,0,0,0,2.038h10.19V37.146a14.205,14.205,0,0,0-15-.815,4.029,4.029,0,0,0-3.339-1.76,4.076,4.076,0,0,0-4.076,4.076,4.029,4.029,0,0,0,1.759,3.339,14.184,14.184,0,0,0,.171,13.984H8.038V45.781a1.019,1.019,0,1,0-2.038,0V56.99a1.019,1.019,0,0,0,1.019,1.019H37.888a14.219,14.219,0,0,0,19.319,2.344A1.019,1.019,0,0,0,56,58.708c-.077.056-.159.1-.237.16l-.478-.827a1.019,1.019,0,1,0-1.765,1.019l.48.833a12.045,12.045,0,0,1-4.183,1.13v-.975a1.019,1.019,0,0,0-2.038,0v.967A12.115,12.115,0,0,1,43.6,59.894l.481-.834a1.019,1.019,0,1,0-1.765-1.019l-.483.837a12.33,12.33,0,0,1-3.064-3.064l.837-.483a1.019,1.019,0,1,0-1.019-1.765l-.834.481a12.12,12.12,0,0,1-1.126-4.189h.967a1.019,1.019,0,0,0,0-2.038h-.967a12.121,12.121,0,0,1,1.121-4.184l.834.481A1.019,1.019,0,1,0,39.6,42.351l-.837-.483A12.33,12.33,0,0,1,41.824,38.8l.483.837a1.019,1.019,0,1,0,1.765-1.019l-.481-.834a12.114,12.114,0,0,1,4.189-1.126v.967a1.019,1.019,0,0,0,2.038,0v-.967A12.114,12.114,0,0,1,54,37.782l-.481.834a1.019,1.019,0,1,0,1.765,1.019l.483-.837a12.33,12.33,0,0,1,3.064,3.064L58,42.346a1.019,1.019,0,1,0,1.019,1.765l.834-.481a12.121,12.121,0,0,1,1.126,4.189h-.967a1.019,1.019,0,1,0,0,2.038h.975a12.045,12.045,0,0,1-1.135,4.178l-.833-.48A1.019,1.019,0,1,0,58,55.32l.827.478c-.055.078-.1.16-.16.237a1.019,1.019,0,1,0,1.644,1.2A14.209,14.209,0,0,0,58.99,38.873Zm-14.267-25.7a1.019,1.019,0,0,1-2.038,0V7.057a1.019,1.019,0,0,1,2.038,0Zm8.152,0a1.019,1.019,0,1,1-2.038,0V7.057a1.019,1.019,0,0,1,2.038,0ZM37.412,40.278a2.005,2.005,0,0,1-.841-1.63,2.038,2.038,0,0,1,2.038-2.038,2,2,0,0,1,1.63.842,14.368,14.368,0,0,0-2.828,2.827Z" transform="translate(-1.924 -4)"/>
        <path id="Trazado_1180934" data-name="Trazado 1180934" d="M48.114,40A1.019,1.019,0,0,0,47.1,41.019v6.557l-4.6,2.761a1.019,1.019,0,1,0,1.05,1.747l5.1-3.057a1.019,1.019,0,0,0,.494-.873V41.019A1.019,1.019,0,0,0,48.114,40Z" transform="translate(-1.238 -3.314)"/>
        <path id="Trazado_1180935" data-name="Trazado 1180935" d="M14.527,44.808a4.082,4.082,0,1,0,3.778.159v-2.6A3.057,3.057,0,0,0,21.362,39.3V26.057A3.057,3.057,0,0,0,18.3,23H5.057A3.057,3.057,0,0,0,2,26.057v5.1a1.019,1.019,0,0,0,2.038,0v-5.1a1.019,1.019,0,0,1,1.019-1.019H18.3a1.019,1.019,0,0,1,1.019,1.019V39.3A1.019,1.019,0,0,1,18.3,40.324H17.286a1.019,1.019,0,0,0-1.019,1.019v2.172l-4.53-3.019a1.025,1.025,0,0,0-.566-.171H5.057A1.019,1.019,0,0,1,4.038,39.3V35.229a1.019,1.019,0,0,0-2.038,0V39.3a3.057,3.057,0,0,0,3.057,3.057h5.809Zm1.74,5.707A2.038,2.038,0,1,1,18.3,48.476,2.038,2.038,0,0,1,16.267,50.514Z" transform="translate(-2 -3.638)"/>
        <path id="Trazado_1180936" data-name="Trazado 1180936" d="M12.038,33.114v-5.1a1.019,1.019,0,0,0-2.038,0v5.1a1.019,1.019,0,0,0,2.038,0Z" transform="translate(-1.848 -3.562)"/>
        <circle id="Elipse_14788" data-name="Elipse 14788" cx="1.019" cy="1.019" r="1.019" transform="translate(8.152 32.609)"/>
      </g>
    </g>
  </g>
</svg>
