<svg xmlns="http://www.w3.org/2000/svg" xmlns:xlink="http://www.w3.org/1999/xlink" width="113" height="113" viewBox="0 0 113 113">
  <defs>
    <filter id="Trazado_982547" x="0" y="0" width="113" height="113" filterUnits="userSpaceOnUse">
      <feOffset dy="3" input="SourceAlpha"/>
      <feGaussianBlur stdDeviation="3" result="blur"/>
      <feFlood flood-opacity="0.161"/>
      <feComposite operator="in" in2="blur"/>
      <feComposite in="SourceGraphic"/>
    </filter>
    <clipPath id="clip-path">
      <path id="path1733" d="M0-682.665H70.823v70.823H0Z" transform="translate(0 682.665)"/>
    </clipPath>
  </defs>
  <g id="Grupo_1224553" data-name="Grupo 1224553" transform="translate(-323.5 -10129.013)">
    <g id="Grupo_1224244" data-name="Grupo 1224244" transform="translate(332.5 10135.013)">
      <g id="Grupo_1224091" data-name="Grupo 1224091">
        <g id="Grupo_1223183" data-name="Grupo 1223183" transform="translate(0)">
          <g id="Grupo_1211217" data-name="Grupo 1211217">
            <g id="Grupo_1210736" data-name="Grupo 1210736">
              <g id="Grupo_1210537" data-name="Grupo 1210537">
                <g id="Grupo_1164202" data-name="Grupo 1164202">
                  <g id="Grupo_1158168" data-name="Grupo 1158168">
                    <g id="Grupo_1152576" data-name="Grupo 1152576">
                      <g id="Grupo_1148633" data-name="Grupo 1148633">
                        <g id="Grupo_1148525" data-name="Grupo 1148525">
                          <g transform="matrix(1, 0, 0, 1, -9, -6)" filter="url(#Trazado_982547)">
                            <g id="Trazado_982547-2" data-name="Trazado 982547" transform="translate(9 6)" fill="#fcf5f0">
                              <path d="M 47.49999618530273 93.5 C 41.28936767578125 93.5 35.26533126831055 92.28396606445312 29.59518241882324 89.88570404052734 C 24.11771583557129 87.56893157958984 19.19812965393066 84.251953125 14.97308921813965 80.02690124511719 C 10.74803638458252 75.80186462402344 7.431062698364258 70.88227844238281 5.114289283752441 65.40480804443359 C 2.716022968292236 59.73466110229492 1.499996185302734 53.71062469482422 1.499996185302734 47.49999618530273 C 1.499996185302734 41.28936767578125 2.716022968292236 35.26533126831055 5.114289283752441 29.59518241882324 C 7.431062698364258 24.11771583557129 10.74803638458252 19.19812965393066 14.97308921813965 14.97308921813965 C 19.19812965393066 10.74803638458252 24.11771583557129 7.431062698364258 29.59518241882324 5.114289283752441 C 35.26533126831055 2.716022968292236 41.28936767578125 1.499996185302734 47.49999618530273 1.499996185302734 C 53.71062469482422 1.499996185302734 59.73466110229492 2.716022968292236 65.40480804443359 5.114289283752441 C 70.88227844238281 7.431062698364258 75.80186462402344 10.74803638458252 80.02690124511719 14.97308921813965 C 84.251953125 19.19812965393066 87.56893157958984 24.11771583557129 89.88570404052734 29.59518241882324 C 92.28396606445312 35.26533126831055 93.5 41.28936767578125 93.5 47.49999618530273 C 93.5 53.71062469482422 92.28396606445312 59.73466110229492 89.88570404052734 65.40480804443359 C 87.56893157958984 70.88227844238281 84.251953125 75.80186462402344 80.02690124511719 80.02690124511719 C 75.80186462402344 84.251953125 70.88227844238281 87.56893157958984 65.40480804443359 89.88570404052734 C 59.73466110229492 92.28396606445312 53.71062469482422 93.5 47.49999618530273 93.5 Z" stroke="none"/>
                              <path d="M 47.49999618530273 2.999992370605469 C 41.4912109375 2.999992370605469 35.66376495361328 4.1761474609375 30.17950439453125 6.495796203613281 C 24.88084411621094 8.736953735351562 20.12152099609375 11.94598388671875 16.03375244140625 16.03375244140625 C 11.94598388671875 20.12152099609375 8.736953735351562 24.88084411621094 6.495796203613281 30.17950439453125 C 4.1761474609375 35.66376495361328 2.999992370605469 41.4912109375 2.999992370605469 47.49999618530273 C 2.999992370605469 53.50878143310547 4.1761474609375 59.33622741699219 6.495796203613281 64.82048797607422 C 8.736953735351562 70.11914825439453 11.94598388671875 74.87847137451172 16.03375244140625 78.96623992919922 C 20.12152099609375 83.05400848388672 24.88084411621094 86.26304626464844 30.17950439453125 88.50419616699219 C 35.66376495361328 90.82384490966797 41.4912109375 92 47.49999618530273 92 C 53.50878143310547 92 59.33622741699219 90.82384490966797 64.82048797607422 88.50419616699219 C 70.11914825439453 86.26304626464844 74.87847137451172 83.05400848388672 78.96623992919922 78.96623992919922 C 83.05400848388672 74.87847137451172 86.26304626464844 70.11914825439453 88.50419616699219 64.82048797607422 C 90.82384490966797 59.33622741699219 92 53.50878143310547 92 47.49999618530273 C 92 41.4912109375 90.82384490966797 35.66376495361328 88.50419616699219 30.17950439453125 C 86.26304626464844 24.88084411621094 83.05400848388672 20.12152099609375 78.96623992919922 16.03375244140625 C 74.87847137451172 11.94598388671875 70.11914825439453 8.736953735351562 64.82048797607422 6.495796203613281 C 59.33622741699219 4.1761474609375 53.50878143310547 2.999992370605469 47.49999618530273 2.999992370605469 M 47.49999618530273 -7.62939453125e-06 C 73.7335205078125 -7.62939453125e-06 95 21.26647186279297 95 47.49999618530273 C 95 73.7335205078125 73.7335205078125 95 47.49999618530273 95 C 21.26647186279297 95 -7.62939453125e-06 73.7335205078125 -7.62939453125e-06 47.49999618530273 C -7.62939453125e-06 21.26647186279297 21.26647186279297 -7.62939453125e-06 47.49999618530273 -7.62939453125e-06 Z" stroke="none" fill="#eca675"/>
                            </g>
                          </g>
                        </g>
                      </g>
                    </g>
                  </g>
                </g>
              </g>
            </g>
          </g>
        </g>
      </g>
    </g>
    <g id="g1719" transform="translate(347.667 10824.767)">
      <g id="g1721" transform="translate(36.638 -653.545)">
        <path id="path1723" d="M0-171.055v0Z" transform="translate(0 190.856)" fill="#fff"/>
      </g>
      <g id="g1725" transform="translate(36.638 -653.545)">
        <path id="path1727" d="M0,0V19.8" fill="none" stroke="#000" stroke-linecap="round" stroke-linejoin="round" stroke-miterlimit="10" stroke-width="1"/>
      </g>
      <g id="g1729" transform="translate(0 -682.665)">
        <g id="g1731" clip-path="url(#clip-path)">
          <g id="g1737" transform="translate(41.934 32.883)">
            <path id="path1739" d="M0-63.072s.205-5.538,5.675-6.883a17.644,17.644,0,0,1,11.609,1.541S8.354-54.856,0-63.072" transform="translate(0 70.372)" fill="#54dac4"/>
          </g>
          <g id="g1741" transform="translate(36.638 38.405)">
            <path id="path1743" d="M-77.535,0c-2.27.982-3.68,1.779-3.68,1.779a28.449,28.449,0,0,0-5.3,3.633" transform="translate(86.51)" fill="none" stroke="#000" stroke-linecap="round" stroke-linejoin="round" stroke-miterlimit="10" stroke-width="1"/>
          </g>
          <g id="g1745" transform="translate(50.131 34.842)">
            <path id="path1747" d="M-78.5,0a37.653,37.653,0,0,0-9.087,1.851" transform="translate(87.586)" fill="none" stroke="#000" stroke-linecap="round" stroke-linejoin="round" stroke-miterlimit="10" stroke-width="1"/>
          </g>
          <g id="g1749" transform="translate(14.128 28.16)">
            <path id="path1751" d="M-148.958-63.683s-.163-5.54-5.622-6.926A17.646,17.646,0,0,0-166.2-69.157s8.826,13.625,17.243,5.474" transform="translate(166.201 71.054)" fill="#54dac4"/>
          </g>
          <g id="g1753" transform="translate(14.128 30.057)">
            <path id="path1755" d="M0,0C8.842.635,17.243,5.474,17.243,5.474A28.437,28.437,0,0,1,22.51,9.148" fill="none" stroke="#000" stroke-linecap="round" stroke-linejoin="round" stroke-miterlimit="10" stroke-width="1"/>
          </g>
          <g id="g1757" transform="translate(23.569 2.911)">
            <path id="path1759" d="M-226.414-113.207c0-2.176-1.356-3.375-3.819-3.375a11.7,11.7,0,0,0-1.357.092,11.594,11.594,0,0,0,1.023-.9c1.742-1.742,1.853-3.548.315-5.087a3.258,3.258,0,0,0-2.307-1.086,4.037,4.037,0,0,0-2.78,1.4,11.621,11.621,0,0,0-.9,1.023,11.727,11.727,0,0,0,.092-1.356c0-2.463-1.2-3.819-3.375-3.819s-3.375,1.356-3.375,3.819a11.693,11.693,0,0,0,.092,1.356,11.592,11.592,0,0,0-.9-1.023,4.036,4.036,0,0,0-2.779-1.4,3.258,3.258,0,0,0-2.307,1.086c-1.539,1.539-1.427,3.345.314,5.087a11.594,11.594,0,0,0,1.023.9,11.7,11.7,0,0,0-1.356-.092c-2.463,0-3.819,1.2-3.819,3.375s1.356,3.375,3.819,3.375a11.729,11.729,0,0,0,1.356-.092,11.569,11.569,0,0,0-1.023.9c-1.742,1.742-1.853,3.548-.314,5.087a3.257,3.257,0,0,0,2.307,1.086h0a4.037,4.037,0,0,0,2.779-1.4,11.616,11.616,0,0,0,.9-1.023,11.7,11.7,0,0,0-.092,1.356c0,2.463,1.2,3.819,3.375,3.819s3.375-1.356,3.375-3.819a11.729,11.729,0,0,0-.092-1.356,11.645,11.645,0,0,0,.9,1.023,4.037,4.037,0,0,0,2.78,1.4,3.257,3.257,0,0,0,2.307-1.086c1.539-1.539,1.427-3.345-.315-5.087a11.569,11.569,0,0,0-1.023-.9,11.726,11.726,0,0,0,1.357.092c2.463,0,3.819-1.2,3.819-3.375" transform="translate(252.622 126.312)" fill="#fed066"/>
          </g>
          <g id="g1761" transform="translate(34.393 2.911)">
            <path id="path1763" d="M-37.091-31.474A13.486,13.486,0,0,1-35.815-30a11.561,11.561,0,0,0,.086-1.3c0-2.463-1.2-3.819-3.375-3.819a3.31,3.31,0,0,0-2.28.762,13.336,13.336,0,0,1,4.293,2.881" transform="translate(41.384 35.117)" fill="#f5b556"/>
          </g>
          <g id="g1765" transform="translate(34.393 24)">
            <path id="path1767" d="M-37.091-12.76a13.336,13.336,0,0,1-4.293,2.881,3.31,3.31,0,0,0,2.28.762c2.176,0,3.375-1.356,3.375-3.819a11.561,11.561,0,0,0-.086-1.3,13.486,13.486,0,0,1-1.276,1.477" transform="translate(41.384 14.237)" fill="#f5b556"/>
          </g>
          <g id="g1769" transform="translate(39.98 5.663)">
            <path id="path1771" d="M-84.635-89.435c0-2.176-1.356-3.375-3.819-3.375a11.7,11.7,0,0,0-1.357.092,11.592,11.592,0,0,0,1.023-.9c1.742-1.742,1.853-3.548.315-5.087a3.258,3.258,0,0,0-2.307-1.086,4.037,4.037,0,0,0-2.78,1.4,11.558,11.558,0,0,0-.872.992,13.387,13.387,0,0,1,0,15.919,11.559,11.559,0,0,0,.872.992,4.037,4.037,0,0,0,2.78,1.4,3.257,3.257,0,0,0,2.307-1.086c1.539-1.539,1.427-3.345-.315-5.087a11.567,11.567,0,0,0-1.023-.9,11.727,11.727,0,0,0,1.357.092c2.463,0,3.819-1.2,3.819-3.375" transform="translate(94.432 99.788)" fill="#f5b556"/>
          </g>
          <g id="g1773" transform="translate(28.595 7.938)">
            <path id="path1775" d="M-119.126-119.125a8.078,8.078,0,0,1-11.423,0,8.078,8.078,0,0,1,0-11.423,8.078,8.078,0,0,1,11.423,0,8.078,8.078,0,0,1,0,11.423" transform="translate(132.915 132.914)" fill="#fcea68"/>
          </g>
          <g id="g1777" transform="translate(33.087 7.94)">
            <path id="path1779" d="M-80.323-20.425a8.079,8.079,0,0,0-9.3-1.526A8.065,8.065,0,0,1-87.5-20.425,8.078,8.078,0,0,1-87.5-9a8.059,8.059,0,0,1-2.126,1.526A8.079,8.079,0,0,0-80.323-9a8.078,8.078,0,0,0,0-11.423" transform="translate(89.621 22.789)" fill="#efd954"/>
          </g>
        </g>
      </g>
      <text id="text1783" transform="translate(33.488 -662.91)" font-size="11" font-family="SegoeUI-Bold, Segoe UI" font-weight="700"><tspan x="0" y="0">$</tspan></text>
      <g id="g1785" transform="translate(0 -682.665)">
        <g id="g1787" clip-path="url(#clip-path)">
          <g id="g1793" transform="translate(8.612 43.471)">
            <path id="path1795" d="M-486.377-31.283l-13.234,8.857-3.944-.221-.154-1.552a5.039,5.039,0,0,0-4.308-4.491l-10.568-1.217a18.942,18.942,0,0,1-6.91-2.4,18.939,18.939,0,0,0-9.563-2.592h-7.619v16.6l20.136,7.625a5.476,5.476,0,0,0,2.341.156l.014,0,20.273-2.922a8.97,8.97,0,0,0,4.255-1.907l13.1-10.991a3.129,3.129,0,0,0,.509-4.1,3.128,3.128,0,0,0-4.331-.837" transform="translate(542.677 34.904)" fill="#ffe7cf"/>
          </g>
          <g id="g1797" transform="translate(8.612 47.69)">
            <path id="path1799" d="M-523.794-2.059c-.057-.083-.117-.162-.18-.238-5.417,3.757-15.659,10.778-16.8,10.961l-21.159,2.025-.014,0a5.479,5.479,0,0,1-2.341-.156l-20.136-7.625v7.172l20.136,7.625a5.479,5.479,0,0,0,2.341.156l.014,0,20.273-2.922a8.971,8.971,0,0,0,4.255-1.907L-524.3,2.04a3.128,3.128,0,0,0,.509-4.1" transform="translate(584.425 2.297)" fill="#efd5bd"/>
          </g>
          <g id="g1801" transform="translate(25.611 55.727)">
            <path id="path1803" d="M0-.456A3.243,3.243,0,0,0,2.214.7l.1.006h.052l19.76-1.22" transform="translate(0 0.509)" fill="#fff" stroke="#000" stroke-linecap="round" stroke-linejoin="round" stroke-miterlimit="10" stroke-width="1"/>
          </g>
          <g id="g1805" transform="translate(1.037 40.826)">
            <path id="path1807" d="M-95.638-190.577V-211.5a1.135,1.135,0,0,0-1.135-1.135h-9.633a.3.3,0,0,0-.3.3v22.589a.3.3,0,0,0,.3.3h9.633a1.135,1.135,0,0,0,1.135-1.135" transform="translate(106.709 212.637)" fill="#3c5666"/>
          </g>
          <g id="g1809" transform="translate(1.037 56.849)">
            <path id="path1811" d="M0-59.344a.3.3,0,0,0,.3.3H9.935a1.135,1.135,0,0,0,1.135-1.135v-6.037H0Z" transform="translate(0 66.213)" fill="#2a3f4f"/>
          </g>
          <g id="g1813" transform="translate(4.98 59.273)">
            <path id="path1815" d="M0,0H3.043" fill="#fff" stroke="#000" stroke-linecap="round" stroke-linejoin="round" stroke-miterlimit="10" stroke-width="1"/>
          </g>
          <g id="g1817" transform="translate(1.037 40.826)">
            <path id="path1819" d="M-95.638-49.073v-4.545a1.135,1.135,0,0,0-1.135-1.135h-9.633a.3.3,0,0,0-.3.3v22.589a.3.3,0,0,0,.3.3h9.633a1.135,1.135,0,0,0,1.135-1.135V-44.246" transform="translate(106.709 54.753)" fill="none" stroke="#000" stroke-linecap="round" stroke-linejoin="round" stroke-miterlimit="10" stroke-width="1"/>
          </g>
          <g id="g1821" transform="translate(12.108 43.471)">
            <path id="path1823" d="M0-154.827l16.641,6.3a5.481,5.481,0,0,0,2.341.156l.014,0,20.273-2.922a8.972,8.972,0,0,0,4.255-1.907l13.1-10.991a3.128,3.128,0,0,0,.509-4.1,3.128,3.128,0,0,0-4.331-.837l-13.234,8.857-3.944-.221-.154-1.552a5.039,5.039,0,0,0-4.308-4.491L20.6-167.752a18.941,18.941,0,0,1-6.91-2.4,18.939,18.939,0,0,0-9.563-2.592H0" transform="translate(0 172.749)" fill="none" stroke="#000" stroke-linecap="round" stroke-linejoin="round" stroke-miterlimit="10" stroke-width="1"/>
          </g>
          <g id="g1825" transform="translate(41.934 32.883)">
            <path id="path1827" d="M0-63.072s.205-5.538,5.675-6.883a17.644,17.644,0,0,1,11.609,1.541S8.354-54.856,0-63.072Z" transform="translate(0 70.372)" fill="none" stroke="#000" stroke-linecap="round" stroke-linejoin="round" stroke-miterlimit="10" stroke-width="1"/>
          </g>
          <g id="g1829" transform="translate(14.128 28.16)">
            <path id="path1831" d="M-148.958-63.683s-.163-5.54-5.622-6.926A17.646,17.646,0,0,0-166.2-69.157S-157.375-55.532-148.958-63.683Z" transform="translate(166.201 71.054)" fill="none" stroke="#000" stroke-linecap="round" stroke-linejoin="round" stroke-miterlimit="10" stroke-width="1"/>
          </g>
          <g id="g1833" transform="translate(23.569 2.911)">
            <path id="path1835" d="M-226.414-113.207c0-2.176-1.356-3.375-3.819-3.375a11.7,11.7,0,0,0-1.357.092,11.594,11.594,0,0,0,1.023-.9c1.742-1.742,1.853-3.548.315-5.087a3.258,3.258,0,0,0-2.307-1.086,4.037,4.037,0,0,0-2.78,1.4,11.621,11.621,0,0,0-.9,1.023,11.727,11.727,0,0,0,.092-1.356c0-2.463-1.2-3.819-3.375-3.819s-3.375,1.356-3.375,3.819a11.693,11.693,0,0,0,.092,1.356,11.592,11.592,0,0,0-.9-1.023,4.036,4.036,0,0,0-2.779-1.4,3.258,3.258,0,0,0-2.307,1.086c-1.539,1.539-1.427,3.345.314,5.087a11.594,11.594,0,0,0,1.023.9,11.7,11.7,0,0,0-1.356-.092c-2.463,0-3.819,1.2-3.819,3.375s1.356,3.375,3.819,3.375a11.729,11.729,0,0,0,1.356-.092,11.569,11.569,0,0,0-1.023.9c-1.742,1.742-1.853,3.548-.314,5.087a3.257,3.257,0,0,0,2.307,1.086h0a4.037,4.037,0,0,0,2.779-1.4,11.616,11.616,0,0,0,.9-1.023,11.7,11.7,0,0,0-.092,1.356c0,2.463,1.2,3.819,3.375,3.819s3.375-1.356,3.375-3.819a11.729,11.729,0,0,0-.092-1.356,11.645,11.645,0,0,0,.9,1.023,4.037,4.037,0,0,0,2.78,1.4,3.257,3.257,0,0,0,2.307-1.086c1.539-1.539,1.427-3.345-.315-5.087a11.569,11.569,0,0,0-1.023-.9,11.726,11.726,0,0,0,1.357.092C-227.77-109.833-226.414-111.031-226.414-113.207Z" transform="translate(252.622 126.312)" fill="none" stroke="#000" stroke-linecap="round" stroke-linejoin="round" stroke-miterlimit="10" stroke-width="1"/>
          </g>
          <g id="g1837" transform="translate(28.595 7.938)">
            <path id="path1839" d="M-119.126-119.125a8.078,8.078,0,0,1-11.423,0,8.078,8.078,0,0,1,0-11.423,8.078,8.078,0,0,1,11.423,0A8.078,8.078,0,0,1-119.126-119.125Z" transform="translate(132.915 132.914)" fill="none" stroke="#000" stroke-linecap="round" stroke-linejoin="round" stroke-miterlimit="10" stroke-width="1"/>
          </g>
        </g>
      </g>
    </g>
  </g>
</svg>
