<svg xmlns="http://www.w3.org/2000/svg" xmlns:xlink="http://www.w3.org/1999/xlink" width="113" height="113" viewBox="0 0 113 113">
  <defs>
    <filter id="Trazado_982547" x="0" y="0" width="113" height="113" filterUnits="userSpaceOnUse">
      <feOffset dy="3" input="SourceAlpha"/>
      <feGaussianBlur stdDeviation="3" result="blur"/>
      <feFlood flood-opacity="0.161"/>
      <feComposite operator="in" in2="blur"/>
      <feComposite in="SourceGraphic"/>
    </filter>
  </defs>
  <g id="Grupo_1224591" data-name="Grupo 1224591" transform="translate(-3601 -7848.751)">
    <g id="Grupo_1224460" data-name="Grupo 1224460" transform="translate(3610 7854.751)">
      <g id="Grupo_1224085" data-name="Grupo 1224085" transform="translate(0 0)">
        <g id="Grupo_1223184" data-name="Grupo 1223184">
          <g id="Grupo_1211216" data-name="Grupo 1211216">
            <g id="Grupo_1210737" data-name="Grupo 1210737">
              <g id="Grupo_1210537" data-name="Grupo 1210537">
                <g id="Grupo_1164202" data-name="Grupo 1164202">
                  <g id="Grupo_1158168" data-name="Grupo 1158168">
                    <g id="Grupo_1152576" data-name="Grupo 1152576">
                      <g id="Grupo_1148633" data-name="Grupo 1148633">
                        <g id="Grupo_1148525" data-name="Grupo 1148525">
                          <g transform="matrix(1, 0, 0, 1, -9, -6)" filter="url(#Trazado_982547)">
                            <g id="Trazado_982547-2" data-name="Trazado 982547" transform="translate(9 6)" fill="#fcf5f0">
                              <path d="M 47.49999618530273 93.5 C 41.28936767578125 93.5 35.26533126831055 92.28396606445312 29.59518241882324 89.88570404052734 C 24.11771583557129 87.56893157958984 19.19812965393066 84.251953125 14.97308921813965 80.02690124511719 C 10.74803638458252 75.80186462402344 7.431062698364258 70.88227844238281 5.114289283752441 65.40480804443359 C 2.716022968292236 59.73466110229492 1.499996185302734 53.71062469482422 1.499996185302734 47.49999618530273 C 1.499996185302734 41.28936767578125 2.716022968292236 35.26533126831055 5.114289283752441 29.59518241882324 C 7.431062698364258 24.11771583557129 10.74803638458252 19.19812965393066 14.97308921813965 14.97308921813965 C 19.19812965393066 10.74803638458252 24.11771583557129 7.431062698364258 29.59518241882324 5.114289283752441 C 35.26533126831055 2.716022968292236 41.28936767578125 1.499996185302734 47.49999618530273 1.499996185302734 C 53.71062469482422 1.499996185302734 59.73466110229492 2.716022968292236 65.40480804443359 5.114289283752441 C 70.88227844238281 7.431062698364258 75.80186462402344 10.74803638458252 80.02690124511719 14.97308921813965 C 84.251953125 19.19812965393066 87.56893157958984 24.11771583557129 89.88570404052734 29.59518241882324 C 92.28396606445312 35.26533126831055 93.5 41.28936767578125 93.5 47.49999618530273 C 93.5 53.71062469482422 92.28396606445312 59.73466110229492 89.88570404052734 65.40480804443359 C 87.56893157958984 70.88227844238281 84.251953125 75.80186462402344 80.02690124511719 80.02690124511719 C 75.80186462402344 84.251953125 70.88227844238281 87.56893157958984 65.40480804443359 89.88570404052734 C 59.73466110229492 92.28396606445312 53.71062469482422 93.5 47.49999618530273 93.5 Z" stroke="none"/>
                              <path d="M 47.49999618530273 2.999992370605469 C 41.4912109375 2.999992370605469 35.66376495361328 4.1761474609375 30.17950439453125 6.495796203613281 C 24.88084411621094 8.736953735351562 20.12152099609375 11.94598388671875 16.03375244140625 16.03375244140625 C 11.94598388671875 20.12152099609375 8.736953735351562 24.88084411621094 6.495796203613281 30.17950439453125 C 4.1761474609375 35.66376495361328 2.999992370605469 41.4912109375 2.999992370605469 47.49999618530273 C 2.999992370605469 53.50878143310547 4.1761474609375 59.33622741699219 6.495796203613281 64.82048797607422 C 8.736953735351562 70.11914825439453 11.94598388671875 74.87847137451172 16.03375244140625 78.96623992919922 C 20.12152099609375 83.05400848388672 24.88084411621094 86.26304626464844 30.17950439453125 88.50419616699219 C 35.66376495361328 90.82384490966797 41.4912109375 92 47.49999618530273 92 C 53.50878143310547 92 59.33622741699219 90.82384490966797 64.82048797607422 88.50419616699219 C 70.11914825439453 86.26304626464844 74.87847137451172 83.05400848388672 78.96623992919922 78.96623992919922 C 83.05400848388672 74.87847137451172 86.26304626464844 70.11914825439453 88.50419616699219 64.82048797607422 C 90.82384490966797 59.33622741699219 92 53.50878143310547 92 47.49999618530273 C 92 41.4912109375 90.82384490966797 35.66376495361328 88.50419616699219 30.17950439453125 C 86.26304626464844 24.88084411621094 83.05400848388672 20.12152099609375 78.96623992919922 16.03375244140625 C 74.87847137451172 11.94598388671875 70.11914825439453 8.736953735351562 64.82048797607422 6.495796203613281 C 59.33622741699219 4.1761474609375 53.50878143310547 2.999992370605469 47.49999618530273 2.999992370605469 M 47.49999618530273 -7.62939453125e-06 C 73.7335205078125 -7.62939453125e-06 95 21.26647186279297 95 47.49999618530273 C 95 73.7335205078125 73.7335205078125 95 47.49999618530273 95 C 21.26647186279297 95 -7.62939453125e-06 73.7335205078125 -7.62939453125e-06 47.49999618530273 C -7.62939453125e-06 21.26647186279297 21.26647186279297 -7.62939453125e-06 47.49999618530273 -7.62939453125e-06 Z" stroke="none" fill="#eca675"/>
                            </g>
                          </g>
                        </g>
                      </g>
                    </g>
                  </g>
                </g>
              </g>
            </g>
          </g>
        </g>
      </g>
    </g>
    <g id="contributing_12236795" transform="translate(3616.003 7865.488)">
      <path id="Trazado_1180937" data-name="Trazado 1180937" d="M275.8,213.295a1.053,1.053,0,0,0,.669-1.866,2.465,2.465,0,1,1,3.138,0,1.053,1.053,0,0,0,.669,1.865h3.841a1.4,1.4,0,0,0,1.4-1.4V207.72a1.053,1.053,0,0,1,1.866-.669,2.466,2.466,0,1,0,0-3.138,1.053,1.053,0,0,1-1.866-.669V199.07a1.4,1.4,0,0,0-1.4-1.4H271.96a1.4,1.4,0,0,0-1.4,1.4v4.174a1.053,1.053,0,0,1-1.866.669,2.465,2.465,0,1,0,0,3.138,1.053,1.053,0,0,1,1.865.669v4.173a1.4,1.4,0,0,0,1.4,1.4H275.8Z" transform="translate(-220.439 -168.249)" fill="#4eb1fc" fill-rule="evenodd"/>
      <path id="Trazado_1180938" data-name="Trazado 1180938" d="M277.581,207.1a2.467,2.467,0,0,1,2.027,4.327,1.053,1.053,0,0,0,.669,1.865h2.134a1.4,1.4,0,0,0,1.4-1.4V199.07a1.4,1.4,0,0,0-1.4-1.4H271.961a1.4,1.4,0,0,0-1.4,1.4v4.174a1.053,1.053,0,0,1-1.866.669,2.465,2.465,0,1,0,0,3.138,1.053,1.053,0,0,1,1.865.669v4.173a1.4,1.4,0,0,0,1.4,1.4h2.922a1.053,1.053,0,0,0,.669-1.866,2.467,2.467,0,0,1,2.03-4.326Z" transform="translate(-220.44 -168.249)" fill="#85caff" fill-rule="evenodd"/>
      <path id="Trazado_1180939" data-name="Trazado 1180939" d="M302.5,24.488l-10.04,9.823a1.4,1.4,0,0,1-1.981-.02L286.762,30.5a1.072,1.072,0,0,1,.88-1.816,2.509,2.509,0,1,0-2.237-2.28,1.072,1.072,0,0,1-1.833.843l-3.71-3.783a1.4,1.4,0,0,1,.022-1.985l3.732-3.637a1.072,1.072,0,0,0-.843-1.833,2.511,2.511,0,1,1,2.28-2.237,1.072,1.072,0,0,0,1.816.88l3.052-2.993a1.4,1.4,0,0,1,1.982.019L302.518,22.5a1.4,1.4,0,0,1-.021,1.983Z" transform="translate(-233.591 -6.081)" fill="#2dd62d" fill-rule="evenodd"/>
      <path id="Trazado_1180940" data-name="Trazado 1180940" d="M290.043,33.849,286.762,30.5a1.072,1.072,0,0,1,.88-1.816,2.509,2.509,0,1,0-2.237-2.28,1.072,1.072,0,0,1-1.833.843l-3.71-3.783a1.4,1.4,0,0,1,.022-1.985l3.732-3.637a1.072,1.072,0,0,0-.843-1.833,2.511,2.511,0,1,1,2.28-2.237,1.072,1.072,0,0,0,1.816.88l2.58-2.531,10.181,10.381a1.4,1.4,0,0,1-.02,1.983l-9.567,9.36Z" transform="translate(-233.591 -6.082)" fill="#43f043" fill-rule="evenodd"/>
      <path id="Trazado_1180941" data-name="Trazado 1180941" d="M126.542,46.822l14.045-.154a1.4,1.4,0,0,0,1.386-1.415l-.052-5.3a1.072,1.072,0,0,0-1.906-.662,2.509,2.509,0,1,1-.031-3.194,1.072,1.072,0,0,0,1.892-.7l-.052-5.3a1.4,1.4,0,0,0-1.42-1.388l-5.211.067a1.072,1.072,0,0,1-.7-1.892,2.511,2.511,0,1,0-3.194.031,1.072,1.072,0,0,1-.662,1.906l-4.274.042a1.4,1.4,0,0,0-1.388,1.415l.147,15.16a1.4,1.4,0,0,0,1.417,1.388Z" transform="translate(-99.384 -16.027)" fill="#fdc72e" fill-rule="evenodd"/>
      <path id="Trazado_1180942" data-name="Trazado 1180942" d="M140.081,40.017c-.023.023-.044.048-.065.074a2.513,2.513,0,0,1-2.725.811,2.51,2.51,0,1,1,0-4.778,2.513,2.513,0,0,1,2.692.773q.025.03.052.057a1.059,1.059,0,0,0,.3-.757l-.052-5.3a1.406,1.406,0,0,0-1.174-1.371l-3.915.05a1.1,1.1,0,0,1-.209-.017l-1.333.017a1.072,1.072,0,0,1-.7-1.892,2.512,2.512,0,0,0-.844-4.311,2.511,2.511,0,0,0-.808,4.342,1.072,1.072,0,0,1-.662,1.906l-4.274.042a1.4,1.4,0,0,0-1.388,1.415l.147,15.16a1.406,1.406,0,0,0,1.189,1.374l12.731-.139a1.4,1.4,0,0,0,1.386-1.415l-.052-5.3a1.06,1.06,0,0,0-.3-.736Z" transform="translate(-99.384 -16.831)" fill="#fcdb35" fill-rule="evenodd"/>
      <circle id="Elipse_14789" data-name="Elipse 14789" cx="7.682" cy="7.682" r="7.682" transform="translate(17.994 23.012)" fill="#2a93fc"/>
      <g id="Grupo_1224590" data-name="Grupo 1224590" transform="translate(10.578 4)">
        <path id="Trazado_1180943" data-name="Trazado 1180943" d="M92.527,309.724A2.822,2.822,0,0,0,90,305.467c-18.295,0-18.327-14.876-35.44,7.132l9.056,9.494c4.034-4.068,8.828-4.256,14.117-3.939,2.885.173,6.327.589,9.486.519,4.413-.1,7.118-1.3,10.993-3.348,4.412-2.337,12.08-6.992,13.418-8.751,1.914-2.517-.557-4.887-3.477-3.2-3.434,1.983-12.528,6.32-17.212,7.626a3.3,3.3,0,0,0,1.589-1.275Z" transform="translate(-48.785 -261.628)" fill="#fdb0a0" fill-rule="evenodd"/>
        <path id="Trazado_1180944" data-name="Trazado 1180944" d="M92.527,309.724A2.822,2.822,0,0,0,90,305.467c-18.295,0-18.327-14.876-35.44,7.132l6.99,7.328c4.226-4.168,9.237-4.36,14.758-4.029,3.041.182,6.67.621,10,.547,4.652-.1,7.5-1.366,11.589-3.53,4.605-2.44,12.575-7.274,14.1-9.169-.633-.971-2.165-1.344-3.845-.374-3.434,1.983-12.528,6.32-17.212,7.626a3.3,3.3,0,0,0,1.589-1.275Z" transform="translate(-48.785 -261.628)" fill="#ffcec0" fill-rule="evenodd"/>
        <path id="Trazado_1180945" data-name="Trazado 1180945" d="M236.788,344.086a2.828,2.828,0,0,0-1.194-3.98c1.013,1.11.334,2.685-1.255,3.263a11.074,11.074,0,0,1-3.352.5,22.2,22.2,0,0,1-8.763-1.5,1.1,1.1,0,1,0-1.016,1.954,24.736,24.736,0,0,0,9.831,1.744,12.683,12.683,0,0,0,4.16-.7,3.3,3.3,0,0,0,1.589-1.275Z" transform="translate(-193.046 -295.99)" fill="#fdb0a0" fill-rule="evenodd"/>
        <path id="Trazado_1180946" data-name="Trazado 1180946" d="M17.5,370.452,21.7,366.26a2.122,2.122,0,0,1,2.993,0l9.967,9.967a2.122,2.122,0,0,1,0,2.993l-4.193,4.193Z" transform="translate(-16.596 -318.175)" fill="#2a93fc" fill-rule="evenodd"/>
        <path id="Trazado_1180947" data-name="Trazado 1180947" d="M17.5,370.452l4.193-4.193a2.122,2.122,0,0,1,2.992,0h0l7.85,7.85a2.123,2.123,0,0,1,0,2.993l-4.193,4.193Z" transform="translate(-16.596 -318.175)" fill="#4eb1fc" fill-rule="evenodd"/>
        <path id="Trazado_1180948" data-name="Trazado 1180948" d="M120.5,158.47l-5.934.065a3.3,3.3,0,0,1-3.337-3.269l-.06-6.178a7.688,7.688,0,0,1,9.331,9.381Z" transform="translate(-97.969 -129.84)" fill="#1176e8" fill-rule="evenodd"/>
        <path id="Trazado_1180949" data-name="Trazado 1180949" d="M125.627,148.853a7.682,7.682,0,0,1,7.68,7.682c0,.011,0,.022,0,.033l-6.2.068a1.4,1.4,0,0,1-1.417-1.388l-.062-6.395Z" transform="translate(-110.526 -129.84)" fill="#85caff" fill-rule="evenodd"/>
        <path id="Trazado_1180950" data-name="Trazado 1180950" d="M24.768,23.994l.051,5.422a2.329,2.329,0,0,0,2.322,2.3h.025l5.207-.057a6.766,6.766,0,1,1-7.6-7.663Zm7.611,5.825A6.777,6.777,0,0,0,26.609,24l.051,5.4a.437.437,0,0,0,.145.34.43.43,0,0,0,.335.138h.006Zm-5.39-16.068a.478.478,0,0,0-.474.488l.076,7.9A8.607,8.607,0,0,1,34.227,29.8l6.966-.076a.479.479,0,0,0,.474-.488l-.051-5.3a.137.137,0,0,0-.1-.144.143.143,0,0,0-.171.049,3.42,3.42,0,1,1-.038-4.362.131.131,0,0,0,.164.045.133.133,0,0,0,.1-.145l-.051-5.3a.484.484,0,0,0-.487-.478l-5.213.067H35.8a1.993,1.993,0,0,1-1.278-3.515,1.592,1.592,0,1,0-2.025.019,1.989,1.989,0,0,1-1.227,3.54l-4.277.042ZM25.673,39.295a8.616,8.616,0,0,0,8.553-7.658l6.984-.077a2.325,2.325,0,0,0,2.3-2.343l-.051-5.3a1.993,1.993,0,0,0-3.543-1.23A1.59,1.59,0,0,1,37.295,20.9a1.551,1.551,0,0,1,.955-.751,1.578,1.578,0,0,1,1.208.147,1.5,1.5,0,0,1,.437.362,1.993,1.993,0,0,0,3.517-1.3l-.051-5.3a2.327,2.327,0,0,0-2.353-2.3l-5.207.067H35.8a.153.153,0,0,1-.095-.27,3.379,3.379,0,0,0,.778-.94,3.429,3.429,0,1,0-5.137.983.136.136,0,0,1,.044.17.133.133,0,0,1-.139.1l-4.277.042a2.323,2.323,0,0,0-2.3,2.343l.076,7.887A8.6,8.6,0,0,0,25.673,39.3Zm47.006,9.1c-1.095,1.434-8.066,5.82-13.115,8.492-3.574,1.9-6.244,3.145-10.578,3.24-2.164.047-4.448-.137-6.662-.314-.962-.077-1.873-.151-2.746-.2-3.385-.2-7.257-.275-10.749,1.329l-8.9-8.9C28.653,41.8,31.917,43.158,37.782,45.59a33.625,33.625,0,0,0,14.007,3.17h.032a1.9,1.9,0,0,1,1.7,2.869c-.645,1.1-3,1.666-6.289,1.522a21.644,21.644,0,0,1-7.4-1.5.919.919,0,1,0-.848,1.63,23.065,23.065,0,0,0,8.161,1.709c.348.016.7.025,1.063.025a12.844,12.844,0,0,0,4.815-.771c4.89-1.378,14.007-5.756,17.366-7.7,1.164-.673,2.126-.487,2.531-.032s.3,1.155-.247,1.88Zm-44.684,16a1.207,1.207,0,0,0,0-1.693l-9.964-9.964a1.2,1.2,0,0,0-1.7,0l-3.543,3.541,11.66,11.657ZM74.305,45.3c-.911-1.034-2.758-1.542-4.833-.345a120.494,120.494,0,0,1-13.925,6.5,3.743,3.743,0,0,0-3.777-4.529,31.624,31.624,0,0,1-13.286-3.029c-3.1-1.288-5.782-2.4-8.952-1.633-3.2.776-6.611,3.435-11.021,8.6a3.027,3.027,0,0,0-3.473.579l-4.195,4.191a.927.927,0,0,0,0,1.3L23.8,69.882a.928.928,0,0,0,.652.269.939.939,0,0,0,.652-.269l4.188-4.191a3.036,3.036,0,0,0,.677-3.252c2.689-1.129,5.675-1.227,9.5-1,.854.052,1.753.125,2.708.2a67.62,67.62,0,0,0,6.845.32c4.739-.1,7.592-1.436,11.4-3.454,3.884-2.058,12.172-6.973,13.716-9A3.242,3.242,0,0,0,74.305,45.3Zm-28.729-9.4a1.546,1.546,0,1,0,1.968,2.324,1.97,1.97,0,0,1,3.492,1.254v4.174a.482.482,0,0,0,.481.483h3.84a.115.115,0,0,0,.127-.089.114.114,0,0,0-.038-.148,3.386,3.386,0,0,1,1.278-5.883,3.414,3.414,0,0,1,.879-.116,3.388,3.388,0,0,1,2.929,5.078,3.445,3.445,0,0,1-.785.922.13.13,0,0,0-.038.148.124.124,0,0,0,.127.089h3.84a.482.482,0,0,0,.481-.483V39.472a1.972,1.972,0,0,1,3.492-1.254,1.665,1.665,0,0,0,.424.356,1.548,1.548,0,1,0-.418-2.326A1.975,1.975,0,0,1,64.157,35V30.821a.482.482,0,0,0-.481-.483H51.517a.482.482,0,0,0-.481.483V35a1.97,1.97,0,0,1-3.492,1.252,1.541,1.541,0,0,0-1.968-.354Zm8.218-12.288a.144.144,0,0,1,.133-.087h.025a3.429,3.429,0,1,0-2.942-4.33,3.586,3.586,0,0,0-.114,1.216.136.136,0,0,1-.089.153.134.134,0,0,1-.171-.032l-3.714-3.783a.434.434,0,0,1-.133-.343.416.416,0,0,1,.146-.34l3.726-3.637A1.99,1.99,0,0,0,49.1,9.016,1.591,1.591,0,1,1,50.549,7.6a1.989,1.989,0,0,0,3.372,1.634L56.97,6.237a.484.484,0,0,1,.683.006L68.27,17.067a.481.481,0,0,1-.006.683l-10.04,9.823a.485.485,0,0,1-.683-.007l-3.714-3.788a.14.14,0,0,1-.032-.173ZM43.419,38.925a3.384,3.384,0,0,1,5.542-3.845A.136.136,0,0,0,49.2,35V30.821A2.32,2.32,0,0,1,51.517,28.5h4.365l-3.366-3.435a1.989,1.989,0,0,1,1.632-3.373,1.581,1.581,0,0,0,1.7-1.156,1.591,1.591,0,0,0-1.1-1.961,1.594,1.594,0,0,0-1.961,1.107,1.547,1.547,0,0,0-.051.564,1.995,1.995,0,0,1-3.41,1.566l-3.707-3.783a2.317,2.317,0,0,1,.038-3.286l3.733-3.638a.134.134,0,0,0,.025-.171.137.137,0,0,0-.152-.089,3.429,3.429,0,1,1,3.119-3.054.133.133,0,0,0,.082.154.143.143,0,0,0,.177-.028l3.049-2.993a2.326,2.326,0,0,1,3.283.032L69.579,15.78a2.322,2.322,0,0,1-.032,3.283L59.9,28.5h3.777A2.326,2.326,0,0,1,66,30.821V35a.118.118,0,0,0,.089.126.114.114,0,0,0,.146-.041,3.378,3.378,0,1,1,0,4.306.115.115,0,0,0-.146-.041.118.118,0,0,0-.089.127v4.174a2.326,2.326,0,0,1-2.322,2.321h-3.84a1.973,1.973,0,0,1-1.253-3.494,1.611,1.611,0,0,0,.354-.421,1.548,1.548,0,0,0-1.74-2.268,1.547,1.547,0,0,0-.588,2.688,1.971,1.971,0,0,1-1.253,3.5h-3.84A2.32,2.32,0,0,1,49.2,43.645V39.471a.136.136,0,0,0-.24-.085,3.477,3.477,0,0,1-.917.778,3.388,3.388,0,0,1-4.625-1.239Z" transform="translate(-10.578 -4)" fill-rule="evenodd"/>
      </g>
    </g>
  </g>
</svg>
