<svg xmlns="http://www.w3.org/2000/svg" xmlns:xlink="http://www.w3.org/1999/xlink" width="113" height="113" viewBox="0 0 113 113">
  <defs>
    <filter id="Trazado_982547" x="0" y="0" width="113" height="113" filterUnits="userSpaceOnUse">
      <feOffset dy="3" input="SourceAlpha"/>
      <feGaussianBlur stdDeviation="3" result="blur"/>
      <feFlood flood-opacity="0.161"/>
      <feComposite operator="in" in2="blur"/>
      <feComposite in="SourceGraphic"/>
    </filter>
  </defs>
  <g id="Grupo_1224555" data-name="Grupo 1224555" transform="translate(-743.5 -10129.013)">
    <g id="Grupo_1224245" data-name="Grupo 1224245" transform="translate(752.5 10135.013)">
      <g id="Grupo_1224091" data-name="Grupo 1224091">
        <g id="Grupo_1223183" data-name="Grupo 1223183" transform="translate(0)">
          <g id="Grupo_1211217" data-name="Grupo 1211217">
            <g id="Grupo_1210736" data-name="Grupo 1210736">
              <g id="Grupo_1210537" data-name="Grupo 1210537">
                <g id="Grupo_1164202" data-name="Grupo 1164202">
                  <g id="Grupo_1158168" data-name="Grupo 1158168">
                    <g id="Grupo_1152576" data-name="Grupo 1152576">
                      <g id="Grupo_1148633" data-name="Grupo 1148633">
                        <g id="Grupo_1148525" data-name="Grupo 1148525">
                          <g transform="matrix(1, 0, 0, 1, -9, -6)" filter="url(#Trazado_982547)">
                            <g id="Trazado_982547-2" data-name="Trazado 982547" transform="translate(9 6)" fill="#fcf5f0">
                              <path d="M 47.49999618530273 93.5 C 41.28936767578125 93.5 35.26533126831055 92.28396606445312 29.59518241882324 89.88570404052734 C 24.11771583557129 87.56893157958984 19.19812965393066 84.251953125 14.97308921813965 80.02690124511719 C 10.74803638458252 75.80186462402344 7.431062698364258 70.88227844238281 5.114289283752441 65.40480804443359 C 2.716022968292236 59.73466110229492 1.499996185302734 53.71062469482422 1.499996185302734 47.49999618530273 C 1.499996185302734 41.28936767578125 2.716022968292236 35.26533126831055 5.114289283752441 29.59518241882324 C 7.431062698364258 24.11771583557129 10.74803638458252 19.19812965393066 14.97308921813965 14.97308921813965 C 19.19812965393066 10.74803638458252 24.11771583557129 7.431062698364258 29.59518241882324 5.114289283752441 C 35.26533126831055 2.716022968292236 41.28936767578125 1.499996185302734 47.49999618530273 1.499996185302734 C 53.71062469482422 1.499996185302734 59.73466110229492 2.716022968292236 65.40480804443359 5.114289283752441 C 70.88227844238281 7.431062698364258 75.80186462402344 10.74803638458252 80.02690124511719 14.97308921813965 C 84.251953125 19.19812965393066 87.56893157958984 24.11771583557129 89.88570404052734 29.59518241882324 C 92.28396606445312 35.26533126831055 93.5 41.28936767578125 93.5 47.49999618530273 C 93.5 53.71062469482422 92.28396606445312 59.73466110229492 89.88570404052734 65.40480804443359 C 87.56893157958984 70.88227844238281 84.251953125 75.80186462402344 80.02690124511719 80.02690124511719 C 75.80186462402344 84.251953125 70.88227844238281 87.56893157958984 65.40480804443359 89.88570404052734 C 59.73466110229492 92.28396606445312 53.71062469482422 93.5 47.49999618530273 93.5 Z" stroke="none"/>
                              <path d="M 47.49999618530273 2.999992370605469 C 41.4912109375 2.999992370605469 35.66376495361328 4.1761474609375 30.17950439453125 6.495796203613281 C 24.88084411621094 8.736953735351562 20.12152099609375 11.94598388671875 16.03375244140625 16.03375244140625 C 11.94598388671875 20.12152099609375 8.736953735351562 24.88084411621094 6.495796203613281 30.17950439453125 C 4.1761474609375 35.66376495361328 2.999992370605469 41.4912109375 2.999992370605469 47.49999618530273 C 2.999992370605469 53.50878143310547 4.1761474609375 59.33622741699219 6.495796203613281 64.82048797607422 C 8.736953735351562 70.11914825439453 11.94598388671875 74.87847137451172 16.03375244140625 78.96623992919922 C 20.12152099609375 83.05400848388672 24.88084411621094 86.26304626464844 30.17950439453125 88.50419616699219 C 35.66376495361328 90.82384490966797 41.4912109375 92 47.49999618530273 92 C 53.50878143310547 92 59.33622741699219 90.82384490966797 64.82048797607422 88.50419616699219 C 70.11914825439453 86.26304626464844 74.87847137451172 83.05400848388672 78.96623992919922 78.96623992919922 C 83.05400848388672 74.87847137451172 86.26304626464844 70.11914825439453 88.50419616699219 64.82048797607422 C 90.82384490966797 59.33622741699219 92 53.50878143310547 92 47.49999618530273 C 92 41.4912109375 90.82384490966797 35.66376495361328 88.50419616699219 30.17950439453125 C 86.26304626464844 24.88084411621094 83.05400848388672 20.12152099609375 78.96623992919922 16.03375244140625 C 74.87847137451172 11.94598388671875 70.11914825439453 8.736953735351562 64.82048797607422 6.495796203613281 C 59.33622741699219 4.1761474609375 53.50878143310547 2.999992370605469 47.49999618530273 2.999992370605469 M 47.49999618530273 -7.62939453125e-06 C 73.7335205078125 -7.62939453125e-06 95 21.26647186279297 95 47.49999618530273 C 95 73.7335205078125 73.7335205078125 95 47.49999618530273 95 C 21.26647186279297 95 -7.62939453125e-06 73.7335205078125 -7.62939453125e-06 47.49999618530273 C -7.62939453125e-06 21.26647186279297 21.26647186279297 -7.62939453125e-06 47.49999618530273 -7.62939453125e-06 Z" stroke="none" fill="#eca675"/>
                            </g>
                          </g>
                        </g>
                      </g>
                    </g>
                  </g>
                </g>
              </g>
            </g>
          </g>
        </g>
      </g>
    </g>
    <g id="trading_17197554" transform="translate(768 10151)">
      <circle id="Elipse_14761" data-name="Elipse 14761" cx="9" cy="9" r="9" transform="translate(23 2)" fill="#fff"/>
      <circle id="Elipse_14762" data-name="Elipse 14762" cx="2.5" cy="2.5" r="2.5" transform="translate(29.5 5)" fill="#ffc9b9"/>
      <circle id="Elipse_14763" data-name="Elipse 14763" cx="9" cy="9" r="9" transform="translate(2 41)" fill="#ffda73"/>
      <g id="Grupo_1224554" data-name="Grupo 1224554">
        <path id="Trazado_1180710" data-name="Trazado 1180710" d="M40.91,34.79l-1.26-.65a7.854,7.854,0,0,0-.93-2.23l.43-1.36a9.122,9.122,0,0,0-1.7-1.7l-1.36.43a7.854,7.854,0,0,0-2.23-.93l-.65-1.26a8.179,8.179,0,0,0-2.42,0l-.65,1.26a7.854,7.854,0,0,0-2.23.93l-1.36-.43a9.122,9.122,0,0,0-1.7,1.7l.43,1.36a7.854,7.854,0,0,0-.93,2.23l-1.26.65a8.179,8.179,0,0,0,0,2.42l1.26.65a7.854,7.854,0,0,0,.93,2.23l-.43,1.36a9.122,9.122,0,0,0,1.7,1.7l1.36-.43a7.854,7.854,0,0,0,2.23.93l.65,1.26a8.179,8.179,0,0,0,2.42,0l.65-1.26a7.854,7.854,0,0,0,2.23-.93l1.36.43a9.122,9.122,0,0,0,1.7-1.7l-.43-1.36a7.854,7.854,0,0,0,.93-2.23l1.26-.65a8.179,8.179,0,0,0,0-2.42ZM32,40a4,4,0,1,1,4-4A4,4,0,0,1,32,40Z" fill="#6d9fed"/>
        <path id="Trazado_1180711" data-name="Trazado 1180711" d="M15.07,21,9.91,14.88l7.17-.81Z" fill="#6d9fed"/>
        <path id="Trazado_1180712" data-name="Trazado 1180712" d="M50.73,31.36l7.99-.37L55,37.17Z" fill="#6d9fed"/>
        <path id="Trazado_1180713" data-name="Trazado 1180713" d="M29.53,54.53,26.66,62l-4.17-5.89Z" fill="#6d9fed"/>
      </g>
      <path id="Trazado_1180714" data-name="Trazado 1180714" d="M36,19.06V13a2.006,2.006,0,0,0-2-2H30a2.006,2.006,0,0,0-2,2v6.06a8.981,8.981,0,0,0,8,0Z" fill="#36b385"/>
      <circle id="Elipse_14764" data-name="Elipse 14764" cx="9" cy="9" r="9" transform="translate(44 41)" fill="#e66d67"/>
      <path id="Trazado_1180715" data-name="Trazado 1180715" d="M49,46h8v8H49Z" fill="#ffb866"/>
      <path id="Trazado_1180716" data-name="Trazado 1180716" d="M44,15.75a22.908,22.908,0,0,1,9.56,14.47l-2.87.13a1.018,1.018,0,0,0-.86.57.988.988,0,0,0,.1,1.02l4.27,5.81a1,1,0,0,0,.81.41h.05a1.025,1.025,0,0,0,.81-.48l3.72-6.18a1,1,0,0,0,0-1.03.957.957,0,0,0-.91-.49l-3.1.14A24.853,24.853,0,0,0,44.99,13.99l-.98,1.75ZM54.92,35.36l-2.28-3.1,4.26-.2-1.98,3.29Z"/>
      <path id="Trazado_1180717" data-name="Trazado 1180717" d="M9.23,52.08h-2A3.079,3.079,0,0,0,10,55.13v.88h2v-.88a3.064,3.064,0,0,0,0-6.1V46.91a1.062,1.062,0,0,1,.77,1.01h2A3.079,3.079,0,0,0,12,44.87v-.88H10v.88a3.064,3.064,0,0,0,0,6.1v2.12A1.062,1.062,0,0,1,9.23,52.08Zm3.54,0A1.062,1.062,0,0,1,12,53.09V51.06a1.062,1.062,0,0,1,.77,1.01ZM9.23,47.93A1.062,1.062,0,0,1,10,46.92v2.03a1.062,1.062,0,0,1-.77-1.01Z"/>
      <path id="Trazado_1180718" data-name="Trazado 1180718" d="M41.37,38.09a.987.987,0,0,0,.53-.76,9.522,9.522,0,0,0,.1-1.34,9.63,9.63,0,0,0-.1-1.34,1,1,0,0,0-.53-.76l-.87-.45a8.311,8.311,0,0,0-.69-1.66l.3-.94a.993.993,0,0,0-.16-.91,10.055,10.055,0,0,0-1.9-1.9.993.993,0,0,0-.91-.16l-.94.3a8.311,8.311,0,0,0-1.66-.69l-.45-.87a.987.987,0,0,0-.76-.53,9.257,9.257,0,0,0-2.68,0,1,1,0,0,0-.76.53l-.45.87a8.311,8.311,0,0,0-1.66.69l-.94-.3a.993.993,0,0,0-.91.16,10.055,10.055,0,0,0-1.9,1.9.993.993,0,0,0-.16.91l.3.94a8.311,8.311,0,0,0-.69,1.66l-.87.45a.987.987,0,0,0-.53.76,9.522,9.522,0,0,0-.1,1.34,9.63,9.63,0,0,0,.1,1.34,1,1,0,0,0,.53.76l.87.45a8.311,8.311,0,0,0,.69,1.66l-.3.94a.993.993,0,0,0,.16.91,10.056,10.056,0,0,0,1.9,1.9.993.993,0,0,0,.91.16l.94-.3a8.311,8.311,0,0,0,1.66.69l.45.87a.987.987,0,0,0,.76.53,9.522,9.522,0,0,0,1.34.1,9.63,9.63,0,0,0,1.34-.1,1,1,0,0,0,.76-.53l.45-.87a8.311,8.311,0,0,0,1.66-.69l.94.3a.993.993,0,0,0,.91-.16,10.055,10.055,0,0,0,1.9-1.9.993.993,0,0,0,.16-.91l-.3-.94a8.311,8.311,0,0,0,.69-1.66Zm-1.39-1.53-.79.41a.957.957,0,0,0-.51.65,6.94,6.94,0,0,1-.81,1.95,1.009,1.009,0,0,0-.1.83l.27.84a8.629,8.629,0,0,1-.8.8l-.84-.27a1.009,1.009,0,0,0-.83.1,6.82,6.82,0,0,1-1.95.81,1.015,1.015,0,0,0-.65.51l-.41.79a7.105,7.105,0,0,1-1.13,0l-.41-.79a.957.957,0,0,0-.65-.51,6.94,6.94,0,0,1-1.95-.81,1.009,1.009,0,0,0-.83-.1l-.84.27a8.629,8.629,0,0,1-.8-.8l.27-.84a1.009,1.009,0,0,0-.1-.83,6.82,6.82,0,0,1-.81-1.95,1.015,1.015,0,0,0-.51-.65l-.79-.41a7.85,7.85,0,0,1,0-1.12l.79-.41a.957.957,0,0,0,.51-.65,6.941,6.941,0,0,1,.81-1.95,1.009,1.009,0,0,0,.1-.83l-.27-.84a8.629,8.629,0,0,1,.8-.8l.84.27a1.009,1.009,0,0,0,.83-.1,6.82,6.82,0,0,1,1.95-.81,1.015,1.015,0,0,0,.65-.51l.41-.79a7.1,7.1,0,0,1,1.13,0l.41.79a.957.957,0,0,0,.65.51,6.941,6.941,0,0,1,1.95.81,1.009,1.009,0,0,0,.83.1l.84-.27a8.629,8.629,0,0,1,.8.8l-.27.84a1.009,1.009,0,0,0,.1.83,6.82,6.82,0,0,1,.81,1.95,1.015,1.015,0,0,0,.51.65l.79.41a7.85,7.85,0,0,1,0,1.12Z"/>
      <path id="Trazado_1180719" data-name="Trazado 1180719" d="M32,31a5,5,0,1,0,5,5A5,5,0,0,0,32,31Zm0,8a3,3,0,1,1,3-3A3.009,3.009,0,0,1,32,39Z"/>
      <path id="Trazado_1180720" data-name="Trazado 1180720" d="M11,60A10,10,0,1,0,1,50,10.016,10.016,0,0,0,11,60Zm0-18a8,8,0,1,1-8,8A8.011,8.011,0,0,1,11,42Z"/>
      <path id="Trazado_1180721" data-name="Trazado 1180721" d="M14.31,21.64a.978.978,0,0,0,.76.35.749.749,0,0,0,.21-.02,1.006,1.006,0,0,0,.75-.7l2-6.93a.989.989,0,0,0-.2-.92,1,1,0,0,0-.88-.35l-7.16.81a1,1,0,0,0-.82.62.981.981,0,0,0,.17,1.01l2.22,2.63A25.064,25.064,0,0,0,5.99,33.57a25.813,25.813,0,0,0,.23,3.41l1.98-.27a23.547,23.547,0,0,1-.21-3.14A23.015,23.015,0,0,1,12.68,19.7l1.62,1.92Zm1.39-6.41-1.07,3.69-2.75-3.26Z"/>
      <path id="Trazado_1180722" data-name="Trazado 1180722" d="M25.84,62.58a.987.987,0,0,0,.82.42h.12a.986.986,0,0,0,.81-.63l1.02-2.64c.54.09,1.09.17,1.64.23a22.845,22.845,0,0,0,2.33.11,23.981,23.981,0,0,0,9.93-2.15l-.83-1.82a22.041,22.041,0,0,1-11.24,1.87c-.37-.04-.74-.08-1.1-.14l1.13-2.92a1,1,0,0,0-1.16-1.33l-7.04,1.58a.968.968,0,0,0-.71.62.992.992,0,0,0,.12.94l4.16,5.89Zm2.09-6.66L26.4,59.9l-2.22-3.14Z"/>
      <path id="Trazado_1180723" data-name="Trazado 1180723" d="M32,1A10,10,0,1,0,42,11,10.016,10.016,0,0,0,32,1ZM29,18.41V13a1,1,0,0,1,1-1h4a1,1,0,0,1,1,1v5.41a7.922,7.922,0,0,1-6,0ZM30.5,7.5A1.5,1.5,0,1,1,32,9,1.5,1.5,0,0,1,30.5,7.5ZM37,17.24V13a2.991,2.991,0,0,0-2.61-2.96,3.5,3.5,0,1,0-4.78,0A3,3,0,0,0,27,13v4.24a8,8,0,1,1,10,0Z"/>
      <path id="Trazado_1180724" data-name="Trazado 1180724" d="M57,45H49a1,1,0,0,0-1,1v8a1,1,0,0,0,1,1h8a1,1,0,0,0,1-1V46A1,1,0,0,0,57,45Zm-1,8H50V47h2v3h2V47h2Z"/>
      <path id="Trazado_1180725" data-name="Trazado 1180725" d="M53,40A10,10,0,1,0,63,50,10.016,10.016,0,0,0,53,40Zm0,18a8,8,0,1,1,8-8A8.011,8.011,0,0,1,53,58Z"/>
    </g>
  </g>
</svg>
