<svg xmlns="http://www.w3.org/2000/svg" xmlns:xlink="http://www.w3.org/1999/xlink" width="113" height="113" viewBox="0 0 113 113">
  <defs>
    <filter id="Trazado_982547" x="0" y="0" width="113" height="113" filterUnits="userSpaceOnUse">
      <feOffset dy="3" input="SourceAlpha"/>
      <feGaussianBlur stdDeviation="3" result="blur"/>
      <feFlood flood-opacity="0.161"/>
      <feComposite operator="in" in2="blur"/>
      <feComposite in="SourceGraphic"/>
    </filter>
  </defs>
  <g id="Grupo_1224570" data-name="Grupo 1224570" transform="translate(-1163.5 -10129.013)">
    <g id="Grupo_1224246" data-name="Grupo 1224246" transform="translate(1172.5 10135.013)">
      <g id="Grupo_1224091" data-name="Grupo 1224091">
        <g id="Grupo_1223183" data-name="Grupo 1223183" transform="translate(0)">
          <g id="Grupo_1211217" data-name="Grupo 1211217">
            <g id="Grupo_1210736" data-name="Grupo 1210736">
              <g id="Grupo_1210537" data-name="Grupo 1210537">
                <g id="Grupo_1164202" data-name="Grupo 1164202">
                  <g id="Grupo_1158168" data-name="Grupo 1158168">
                    <g id="Grupo_1152576" data-name="Grupo 1152576">
                      <g id="Grupo_1148633" data-name="Grupo 1148633">
                        <g id="Grupo_1148525" data-name="Grupo 1148525">
                          <g transform="matrix(1, 0, 0, 1, -9, -6)" filter="url(#Trazado_982547)">
                            <g id="Trazado_982547-2" data-name="Trazado 982547" transform="translate(9 6)" fill="#fcf5f0">
                              <path d="M 47.49999618530273 93.5 C 41.28936767578125 93.5 35.26533126831055 92.28396606445312 29.59518241882324 89.88570404052734 C 24.11771583557129 87.56893157958984 19.19812965393066 84.251953125 14.97308921813965 80.02690124511719 C 10.74803638458252 75.80186462402344 7.431062698364258 70.88227844238281 5.114289283752441 65.40480804443359 C 2.716022968292236 59.73466110229492 1.499996185302734 53.71062469482422 1.499996185302734 47.49999618530273 C 1.499996185302734 41.28936767578125 2.716022968292236 35.26533126831055 5.114289283752441 29.59518241882324 C 7.431062698364258 24.11771583557129 10.74803638458252 19.19812965393066 14.97308921813965 14.97308921813965 C 19.19812965393066 10.74803638458252 24.11771583557129 7.431062698364258 29.59518241882324 5.114289283752441 C 35.26533126831055 2.716022968292236 41.28936767578125 1.499996185302734 47.49999618530273 1.499996185302734 C 53.71062469482422 1.499996185302734 59.73466110229492 2.716022968292236 65.40480804443359 5.114289283752441 C 70.88227844238281 7.431062698364258 75.80186462402344 10.74803638458252 80.02690124511719 14.97308921813965 C 84.251953125 19.19812965393066 87.56893157958984 24.11771583557129 89.88570404052734 29.59518241882324 C 92.28396606445312 35.26533126831055 93.5 41.28936767578125 93.5 47.49999618530273 C 93.5 53.71062469482422 92.28396606445312 59.73466110229492 89.88570404052734 65.40480804443359 C 87.56893157958984 70.88227844238281 84.251953125 75.80186462402344 80.02690124511719 80.02690124511719 C 75.80186462402344 84.251953125 70.88227844238281 87.56893157958984 65.40480804443359 89.88570404052734 C 59.73466110229492 92.28396606445312 53.71062469482422 93.5 47.49999618530273 93.5 Z" stroke="none"/>
                              <path d="M 47.49999618530273 2.999992370605469 C 41.4912109375 2.999992370605469 35.66376495361328 4.1761474609375 30.17950439453125 6.495796203613281 C 24.88084411621094 8.736953735351562 20.12152099609375 11.94598388671875 16.03375244140625 16.03375244140625 C 11.94598388671875 20.12152099609375 8.736953735351562 24.88084411621094 6.495796203613281 30.17950439453125 C 4.1761474609375 35.66376495361328 2.999992370605469 41.4912109375 2.999992370605469 47.49999618530273 C 2.999992370605469 53.50878143310547 4.1761474609375 59.33622741699219 6.495796203613281 64.82048797607422 C 8.736953735351562 70.11914825439453 11.94598388671875 74.87847137451172 16.03375244140625 78.96623992919922 C 20.12152099609375 83.05400848388672 24.88084411621094 86.26304626464844 30.17950439453125 88.50419616699219 C 35.66376495361328 90.82384490966797 41.4912109375 92 47.49999618530273 92 C 53.50878143310547 92 59.33622741699219 90.82384490966797 64.82048797607422 88.50419616699219 C 70.11914825439453 86.26304626464844 74.87847137451172 83.05400848388672 78.96623992919922 78.96623992919922 C 83.05400848388672 74.87847137451172 86.26304626464844 70.11914825439453 88.50419616699219 64.82048797607422 C 90.82384490966797 59.33622741699219 92 53.50878143310547 92 47.49999618530273 C 92 41.4912109375 90.82384490966797 35.66376495361328 88.50419616699219 30.17950439453125 C 86.26304626464844 24.88084411621094 83.05400848388672 20.12152099609375 78.96623992919922 16.03375244140625 C 74.87847137451172 11.94598388671875 70.11914825439453 8.736953735351562 64.82048797607422 6.495796203613281 C 59.33622741699219 4.1761474609375 53.50878143310547 2.999992370605469 47.49999618530273 2.999992370605469 M 47.49999618530273 -7.62939453125e-06 C 73.7335205078125 -7.62939453125e-06 95 21.26647186279297 95 47.49999618530273 C 95 73.7335205078125 73.7335205078125 95 47.49999618530273 95 C 21.26647186279297 95 -7.62939453125e-06 73.7335205078125 -7.62939453125e-06 47.49999618530273 C -7.62939453125e-06 21.26647186279297 21.26647186279297 -7.62939453125e-06 47.49999618530273 -7.62939453125e-06 Z" stroke="none" fill="#eca675"/>
                            </g>
                          </g>
                        </g>
                      </g>
                    </g>
                  </g>
                </g>
              </g>
            </g>
          </g>
        </g>
      </g>
    </g>
    <g id="resource_5863433" transform="translate(1187.87 10147.361)">
      <g id="Grupo_1224568" data-name="Grupo 1224568" transform="translate(1.036 1.036)">
        <g id="Grupo_1224556" data-name="Grupo 1224556" transform="translate(14.51)">
          <path id="Trazado_1180726" data-name="Trazado 1180726" d="M48.167,13.437v8.292h-1.1A2.235,2.235,0,0,0,45,23.118l-.01.041a2.234,2.234,0,0,0,.487,2.446l.767.777-5.856,5.856-.777-.767a2.234,2.234,0,0,0-2.446-.487l-.041.01a2.235,2.235,0,0,0-1.389,2.073v1.1H27.437V33.078A2.243,2.243,0,0,0,26.038,31l-.031-.01a2.234,2.234,0,0,0-2.446.487l-.777.767-5.856-5.856.777-.788a2.239,2.239,0,0,0,.487-2.425l-.021-.052A2.235,2.235,0,0,0,16.1,21.729H15V13.437h1.088a2.243,2.243,0,0,0,2.083-1.4l.01-.031a2.234,2.234,0,0,0-.487-2.446l-.767-.777,5.856-5.856.788.777a2.215,2.215,0,0,0,2.436.477.038.038,0,0,0,.031-.01,2.229,2.229,0,0,0,1.4-2.073V1h8.292V2.088a2.243,2.243,0,0,0,1.4,2.083l.031.01a2.234,2.234,0,0,0,2.446-.487l.777-.767,5.856,5.856-.777.788A2.239,2.239,0,0,0,44.974,12l.021.052a2.235,2.235,0,0,0,2.073,1.389Z" transform="translate(-15 -1)" fill="#fcd770"/>
        </g>
        <g id="Grupo_1224557" data-name="Grupo 1224557" transform="translate(22.802 8.292)">
          <path id="Trazado_1180727" data-name="Trazado 1180727" d="M38.547,25.583H24.036A1.037,1.037,0,0,1,23,24.547V10.036A1.037,1.037,0,0,1,24.036,9h14.51a1.037,1.037,0,0,1,1.036,1.036v14.51A1.037,1.037,0,0,1,38.547,25.583Z" transform="translate(-23 -9)" fill="#d3a06c"/>
        </g>
        <g id="Grupo_1224558" data-name="Grupo 1224558" transform="translate(29.021 8.292)">
          <path id="Trazado_1180728" data-name="Trazado 1180728" d="M33.146,9v3.109a1.04,1.04,0,0,1-1.036,1.036H30.036A1.04,1.04,0,0,1,29,12.109V9Z" transform="translate(-29 -9)" fill="#b27946"/>
        </g>
        <g id="Grupo_1224559" data-name="Grupo 1224559" transform="translate(47.677 47.677)">
          <path id="Trazado_1180729" data-name="Trazado 1180729" d="M61.51,47v4.892a10,10,0,0,1-7.255,9.618A10,10,0,0,1,47,51.892V47l.974.487a5.178,5.178,0,0,0,3.97.28L54.255,47l2.311.767a5.178,5.178,0,0,0,3.97-.28Z" transform="translate(-47 -47)" fill="#ccd1d9"/>
        </g>
        <g id="Grupo_1224560" data-name="Grupo 1224560" transform="translate(45.604 39.385)">
          <circle id="Elipse_14765" data-name="Elipse 14765" cx="2.073" cy="2.073" r="2.073" fill="#ff826e"/>
        </g>
        <g id="Grupo_1224561" data-name="Grupo 1224561" transform="translate(12.437 39.385)">
          <circle id="Elipse_14766" data-name="Elipse 14766" cx="2.073" cy="2.073" r="2.073" fill="#ff826e"/>
        </g>
        <g id="Grupo_1224562" data-name="Grupo 1224562" transform="translate(0 45.604)">
          <path id="Trazado_1180730" data-name="Trazado 1180730" d="M9.292,45a8.268,8.268,0,1,1-1.036.062A8.563,8.563,0,0,1,9.292,45Z" transform="translate(-1 -45)" fill="#fcd770"/>
        </g>
        <g id="Grupo_1224563" data-name="Grupo 1224563" transform="translate(23.838 37.312)">
          <path id="Trazado_1180731" data-name="Trazado 1180731" d="M36.406,45.3a2.449,2.449,0,0,0-.694-1.358,2.476,2.476,0,0,0-1.752-.726,6.935,6.935,0,0,1-3.42-.9v.01l-2.477.5a2.476,2.476,0,0,0-1.99,2.425v.041H24V44.255a7.255,7.255,0,1,1,14.51,0v1.036H36.437Z" transform="translate(-24 -37)" fill="#656d78"/>
        </g>
        <g id="Grupo_1224564" data-name="Grupo 1224564" transform="translate(22.802 54.932)">
          <path id="Trazado_1180732" data-name="Trazado 1180732" d="M39.583,61.255H23a7.348,7.348,0,0,1,6.136-7.245l.083-.01,2.073,2.073L33.365,54l.083.01A7.344,7.344,0,0,1,39.583,61.255Z" transform="translate(-23 -54)" fill="#b4dd7f"/>
        </g>
        <g id="Grupo_1224565" data-name="Grupo 1224565" transform="translate(36.245 45.604)">
          <path id="Trazado_1180733" data-name="Trazado 1180733" d="M36,45.4a2.426,2.426,0,0,0-.031-.394L36,45h2.073a2.079,2.079,0,0,1,2.073,2.073,2.088,2.088,0,0,1-2.073,2.073H36V45.4Z" transform="translate(-35.97 -45)" fill="#f0d0b4"/>
        </g>
        <g id="Grupo_1224566" data-name="Grupo 1224566" transform="translate(25.911 42.629)">
          <path id="Trazado_1180734" data-name="Trazado 1180734" d="M36.365,49.25A4.557,4.557,0,0,1,33.255,53.4v1.036l-2.073,2.073-2.073-2.073V53.4A4.572,4.572,0,0,1,26,49.25V45.063a2.476,2.476,0,0,1,1.99-2.425l2.477-.5v-.01a6.935,6.935,0,0,0,3.42.9,2.476,2.476,0,0,1,1.752.726,2.47,2.47,0,0,1,.726,1.752V49.25Z" transform="translate(-26 -42.13)" fill="#f0d0b4"/>
        </g>
        <g id="Grupo_1224567" data-name="Grupo 1224567" transform="translate(21.766 45.604)">
          <path id="Trazado_1180735" data-name="Trazado 1180735" d="M26.146,48.98v.166H24.073A2.088,2.088,0,0,1,22,47.073,2.079,2.079,0,0,1,24.073,45h2.073Z" transform="translate(-22 -45)" fill="#f0d0b4"/>
        </g>
      </g>
      <g id="Grupo_1224569" data-name="Grupo 1224569" transform="translate(0 0)">
        <path id="Trazado_1180736" data-name="Trazado 1180736" d="M40.656,24.583V10.073A2.075,2.075,0,0,0,38.583,8H24.073A2.075,2.075,0,0,0,22,10.073v14.51a2.075,2.075,0,0,0,2.073,2.073h14.51A2.075,2.075,0,0,0,40.656,24.583ZM30.292,10.073h2.073v2.073H30.292Zm-6.219,0h4.146v2.073a2.075,2.075,0,0,0,2.073,2.073h2.073a2.075,2.075,0,0,0,2.073-2.073V10.073h4.146v14.51H24.073Z" transform="translate(0.802 0.292)"/>
        <path id="Trazado_1180737" data-name="Trazado 1180737" d="M40.167,45.795V45.6a8.3,8.3,0,0,0-7.255-8.22V35.239h4.146V33.1a1.242,1.242,0,0,1,2.11-.861l1.5,1.5L48,26.414l-1.5-1.5a1.231,1.231,0,0,1-.25-1.365,1.2,1.2,0,0,1,1.111-.745h.888l5.8,2.486a1.037,1.037,0,0,1,.629.953v2.78H56.75v-2.78a3.107,3.107,0,0,0-1.884-2.858l-5.371-2.3V12.437H47.358a1.218,1.218,0,0,1-1.132-.8,1.2,1.2,0,0,1,.262-1.306L48,8.824,40.669,1.5,39.167,3a1.243,1.243,0,0,1-2.11-.874V0H26.693V2.137a1.217,1.217,0,0,1-.786,1.128,1.208,1.208,0,0,1-1.316-.257L23.08,1.5,15.751,8.825l1.5,1.5a1.242,1.242,0,0,1-.874,2.11H14.255v8.645l-5.371,2.3A3.1,3.1,0,0,0,7,26.241v2.78H9.073v-2.78a1.036,1.036,0,0,1,.628-.953L15.5,22.8h.888a1.218,1.218,0,0,1,1.132.8,1.2,1.2,0,0,1-.262,1.306l-1.51,1.511,7.329,7.329,1.5-1.5a1.243,1.243,0,0,1,2.11.874V35.24h4.146v2.144a8.3,8.3,0,0,0-7.255,8.22v.191a3.1,3.1,0,0,0,1.036,6.028H25.8A5.572,5.572,0,0,0,28.2,55.3a8.35,8.35,0,0,0-5.65,7.924V64.26H41.2V63.224a8.345,8.345,0,0,0-5.66-7.916,5.571,5.571,0,0,0,2.411-3.485H39.13a3.1,3.1,0,0,0,1.036-6.028ZM26.7,30.058a3.286,3.286,0,0,0-3.58.717l-.036.036-4.4-4.4.045-.046a3.315,3.315,0,0,0-2.335-5.639h-.064V14.51h.051A3.316,3.316,0,0,0,18.72,8.862l-.036-.036,4.4-4.4.045.046a3.315,3.315,0,0,0,5.639-2.336V2.073h6.219v.051a3.315,3.315,0,0,0,5.649,2.34l.036-.036,4.4,4.4-.045.046a3.315,3.315,0,0,0,2.335,5.639h.064v6.219h-.064a3.316,3.316,0,0,0-2.328,5.649l.036.036-4.4,4.4-.036-.036a3.3,3.3,0,0,0-3.62-.7A3.267,3.267,0,0,0,34.984,33.1v.064H28.766v-.051A3.292,3.292,0,0,0,26.7,30.058ZM23.583,48.713a1.037,1.037,0,0,1,1.036-1.036h1.036V49.75H24.62A1.037,1.037,0,0,1,23.583,48.713Zm5.9,8.4,1.358,1.358v3.717H24.7A6.289,6.289,0,0,1,29.481,57.113Zm9.565,5.074H32.911V58.471l1.363-1.363a6.27,6.27,0,0,1,4.772,5.08ZM36.021,50.618a3.509,3.509,0,0,1-2.4,3.331l-.709.235V55.54l-1.036,1.036L30.838,55.54V54.185l-.709-.236a3.507,3.507,0,0,1-2.4-3.33V46.6a1.449,1.449,0,0,1,1.162-1.417L31,44.765a8.023,8.023,0,0,0,3.577.84,1.447,1.447,0,0,1,1.446,1.446Zm-1.446-7.087a5.933,5.933,0,0,1-4.947-2.648L27.9,42.032a8.028,8.028,0,0,0,.849,1.065l-.267.054A3.518,3.518,0,0,0,25.814,45.6h-.158a6.219,6.219,0,1,1,12.437,0h-.319a3.517,3.517,0,0,0-3.2-2.072ZM39.13,49.75H38.094V47.677H39.13a1.036,1.036,0,1,1,0,2.073Z" transform="translate(0.255 0)"/>
        <path id="Trazado_1180738" data-name="Trazado 1180738" d="M32.135,48.6a1.5,1.5,0,0,1-2.073,0l-.3-.3-1.466,1.466.3.3a3.539,3.539,0,0,0,5.005,0l.3-.3-1.466-1.466Z" transform="translate(1.031 1.761)"/>
        <path id="Trazado_1180739" data-name="Trazado 1180739" d="M14,28h2.073v4.146H14Z" transform="translate(0.51 1.021)"/>
        <path id="Trazado_1180740" data-name="Trazado 1180740" d="M14,34h2.073v2.073H14Z" transform="translate(0.51 1.24)"/>
        <path id="Trazado_1180741" data-name="Trazado 1180741" d="M15.109,38a3.109,3.109,0,1,0,3.109,3.109A3.113,3.113,0,0,0,15.109,38Zm0,4.146a1.036,1.036,0,1,1,1.036-1.036A1.038,1.038,0,0,1,15.109,42.146Z" transform="translate(0.437 1.385)"/>
        <path id="Trazado_1180742" data-name="Trazado 1180742" d="M46,28h2.073v4.146H46Z" transform="translate(1.677 1.021)"/>
        <path id="Trazado_1180743" data-name="Trazado 1180743" d="M46,34h2.073v2.073H46Z" transform="translate(1.677 1.24)"/>
        <path id="Trazado_1180744" data-name="Trazado 1180744" d="M50.219,41.109a3.109,3.109,0,1,0-3.109,3.109A3.113,3.113,0,0,0,50.219,41.109Zm-4.146,0a1.036,1.036,0,1,1,1.036,1.036A1.037,1.037,0,0,1,46.073,41.109Z" transform="translate(1.604 1.385)"/>
        <path id="Trazado_1180745" data-name="Trazado 1180745" d="M60.109,46.888a4.2,4.2,0,0,1-3.181.227l-1.6-.533V38H53.255v8.581l-1.6.533a4.211,4.211,0,0,1-3.181-.227L46,45.652V52.22a11.088,11.088,0,0,0,8.007,10.615l.285.081.285-.081A11.088,11.088,0,0,0,62.583,52.22V45.652ZM48.073,52.22V48.975a6.3,6.3,0,0,0,4.238.106l.944-.315V60.341A9.008,9.008,0,0,1,48.073,52.22Zm12.437,0a9.007,9.007,0,0,1-5.182,8.121V48.766l.943.314a6.3,6.3,0,0,0,4.239-.106Z" transform="translate(1.677 1.385)"/>
        <path id="Trazado_1180746" data-name="Trazado 1180746" d="M53,34h2.073v2.073H53Z" transform="translate(1.932 1.24)"/>
        <path id="Trazado_1180747" data-name="Trazado 1180747" d="M53,30h2.073v2.073H53Z" transform="translate(1.932 1.094)"/>
        <path id="Trazado_1180748" data-name="Trazado 1180748" d="M7,34H9.073v2.073H7Z" transform="translate(0.255 1.24)"/>
        <path id="Trazado_1180749" data-name="Trazado 1180749" d="M7,30H9.073v2.073H7Z" transform="translate(0.255 1.094)"/>
        <path id="Trazado_1180750" data-name="Trazado 1180750" d="M9.328,44.219V38H7.255v6.459a9.3,9.3,0,1,0,2.073-.24ZM2.073,53.547a7.26,7.26,0,0,1,6.219-7.172v1.99H6.219v3.109a3.113,3.113,0,0,0,3.109,3.109,1.038,1.038,0,0,1,1.036,1.036v1.036H9.328A1.037,1.037,0,0,1,8.292,55.62V54.583H6.219V55.62a3.105,3.105,0,0,0,2.073,2.919v2.181A7.26,7.26,0,0,1,2.073,53.547Zm8.292,7.172v-1.99h2.073V55.62A3.113,3.113,0,0,0,9.328,52.51a1.038,1.038,0,0,1-1.036-1.036V50.437H9.328a1.038,1.038,0,0,1,1.036,1.036V52.51h2.073V51.474a3.105,3.105,0,0,0-2.073-2.919V46.375a7.245,7.245,0,0,1,0,14.345Z" transform="translate(0 1.385)"/>
      </g>
    </g>
  </g>
</svg>
