<svg xmlns="http://www.w3.org/2000/svg" xmlns:xlink="http://www.w3.org/1999/xlink" width="113" height="113" viewBox="0 0 113 113">
  <defs>
    <filter id="Trazado_982547" x="0" y="0" width="113" height="113" filterUnits="userSpaceOnUse">
      <feOffset dy="3" input="SourceAlpha"/>
      <feGaussianBlur stdDeviation="3" result="blur"/>
      <feFlood flood-opacity="0.161"/>
      <feComposite operator="in" in2="blur"/>
      <feComposite in="SourceGraphic"/>
    </filter>
  </defs>
  <g id="Grupo_1224473" data-name="Grupo 1224473" transform="translate(-2311.999 -3015.751)">
    <g id="Grupo_1224213" data-name="Grupo 1224213" transform="translate(2320.999 3021.751)">
      <g id="Grupo_1224085" data-name="Grupo 1224085" transform="translate(0 0)">
        <g id="Grupo_1223184" data-name="Grupo 1223184" transform="translate(0)">
          <g id="Grupo_1211216" data-name="Grupo 1211216">
            <g id="Grupo_1210737" data-name="Grupo 1210737">
              <g id="Grupo_1210537" data-name="Grupo 1210537">
                <g id="Grupo_1164202" data-name="Grupo 1164202">
                  <g id="Grupo_1158168" data-name="Grupo 1158168">
                    <g id="Grupo_1152576" data-name="Grupo 1152576">
                      <g id="Grupo_1148633" data-name="Grupo 1148633">
                        <g id="Grupo_1148525" data-name="Grupo 1148525">
                          <g transform="matrix(1, 0, 0, 1, -9, -6)" filter="url(#Trazado_982547)">
                            <g id="Trazado_982547-2" data-name="Trazado 982547" transform="translate(9 6)" fill="#fcf5f0">
                              <path d="M 47.49999618530273 93.5 C 41.28936767578125 93.5 35.26533126831055 92.28396606445312 29.59518241882324 89.88570404052734 C 24.11771583557129 87.56893157958984 19.19812965393066 84.251953125 14.97308921813965 80.02690124511719 C 10.74803638458252 75.80186462402344 7.431062698364258 70.88227844238281 5.114289283752441 65.40480804443359 C 2.716022968292236 59.73466110229492 1.499996185302734 53.71062469482422 1.499996185302734 47.49999618530273 C 1.499996185302734 41.28936767578125 2.716022968292236 35.26533126831055 5.114289283752441 29.59518241882324 C 7.431062698364258 24.11771583557129 10.74803638458252 19.19812965393066 14.97308921813965 14.97308921813965 C 19.19812965393066 10.74803638458252 24.11771583557129 7.431062698364258 29.59518241882324 5.114289283752441 C 35.26533126831055 2.716022968292236 41.28936767578125 1.499996185302734 47.49999618530273 1.499996185302734 C 53.71062469482422 1.499996185302734 59.73466110229492 2.716022968292236 65.40480804443359 5.114289283752441 C 70.88227844238281 7.431062698364258 75.80186462402344 10.74803638458252 80.02690124511719 14.97308921813965 C 84.251953125 19.19812965393066 87.56893157958984 24.11771583557129 89.88570404052734 29.59518241882324 C 92.28396606445312 35.26533126831055 93.5 41.28936767578125 93.5 47.49999618530273 C 93.5 53.71062469482422 92.28396606445312 59.73466110229492 89.88570404052734 65.40480804443359 C 87.56893157958984 70.88227844238281 84.251953125 75.80186462402344 80.02690124511719 80.02690124511719 C 75.80186462402344 84.251953125 70.88227844238281 87.56893157958984 65.40480804443359 89.88570404052734 C 59.73466110229492 92.28396606445312 53.71062469482422 93.5 47.49999618530273 93.5 Z" stroke="none"/>
                              <path d="M 47.49999618530273 2.999992370605469 C 41.4912109375 2.999992370605469 35.66376495361328 4.1761474609375 30.17950439453125 6.495796203613281 C 24.88084411621094 8.736953735351562 20.12152099609375 11.94598388671875 16.03375244140625 16.03375244140625 C 11.94598388671875 20.12152099609375 8.736953735351562 24.88084411621094 6.495796203613281 30.17950439453125 C 4.1761474609375 35.66376495361328 2.999992370605469 41.4912109375 2.999992370605469 47.49999618530273 C 2.999992370605469 53.50878143310547 4.1761474609375 59.33622741699219 6.495796203613281 64.82048797607422 C 8.736953735351562 70.11914825439453 11.94598388671875 74.87847137451172 16.03375244140625 78.96623992919922 C 20.12152099609375 83.05400848388672 24.88084411621094 86.26304626464844 30.17950439453125 88.50419616699219 C 35.66376495361328 90.82384490966797 41.4912109375 92 47.49999618530273 92 C 53.50878143310547 92 59.33622741699219 90.82384490966797 64.82048797607422 88.50419616699219 C 70.11914825439453 86.26304626464844 74.87847137451172 83.05400848388672 78.96623992919922 78.96623992919922 C 83.05400848388672 74.87847137451172 86.26304626464844 70.11914825439453 88.50419616699219 64.82048797607422 C 90.82384490966797 59.33622741699219 92 53.50878143310547 92 47.49999618530273 C 92 41.4912109375 90.82384490966797 35.66376495361328 88.50419616699219 30.17950439453125 C 86.26304626464844 24.88084411621094 83.05400848388672 20.12152099609375 78.96623992919922 16.03375244140625 C 74.87847137451172 11.94598388671875 70.11914825439453 8.736953735351562 64.82048797607422 6.495796203613281 C 59.33622741699219 4.1761474609375 53.50878143310547 2.999992370605469 47.49999618530273 2.999992370605469 M 47.49999618530273 -7.62939453125e-06 C 73.7335205078125 -7.62939453125e-06 95 21.26647186279297 95 47.49999618530273 C 95 73.7335205078125 73.7335205078125 95 47.49999618530273 95 C 21.26647186279297 95 -7.62939453125e-06 73.7335205078125 -7.62939453125e-06 47.49999618530273 C -7.62939453125e-06 21.26647186279297 21.26647186279297 -7.62939453125e-06 47.49999618530273 -7.62939453125e-06 Z" stroke="none" fill="#eca675"/>
                            </g>
                          </g>
                        </g>
                      </g>
                    </g>
                  </g>
                </g>
              </g>
            </g>
          </g>
        </g>
      </g>
    </g>
    <g id="empowering_18312396" transform="translate(2328.219 3028.99)">
      <g id="Grupo_1224472" data-name="Grupo 1224472" transform="translate(8.933 8.919)">
        <g id="Grupo_1224470" data-name="Grupo 1224470" transform="translate(6.107 0)">
          <path id="Trazado_1180488" data-name="Trazado 1180488" d="M168.04,110.2v-6.829l-3.814,3.769a1.781,1.781,0,0,1-2.519-.015l-.054-.055a1.781,1.781,0,0,1,.015-2.519l4.486-4.434a6.458,6.458,0,0,1,4.54-1.865h5.815a6.458,6.458,0,0,1,4.54,1.865l4.486,4.434a1.781,1.781,0,0,1,.015,2.519l-.054.055a1.781,1.781,0,0,1-2.519.015l-3.813-3.769V110.2l1.614,12.037a2.129,2.129,0,0,1-1.827,2.392l-.36.048a2.129,2.129,0,0,1-2.343-1.574l-2.657-10.214h0L170.953,123.1a2.129,2.129,0,0,1-2.344,1.578l-.356-.048a2.129,2.129,0,0,1-1.827-2.392L168.04,110.2Z" transform="translate(-148.158 -87.386)" fill="#4fc0e8" fill-rule="evenodd"/>
          <circle id="Elipse_14747" data-name="Elipse 14747" cx="4.518" cy="4.518" r="4.518" transform="translate(20.924)" fill="#d5a889"/>
          <path id="Trazado_1180489" data-name="Trazado 1180489" d="M278.364,121.065v-6.44l-3.6,3.554a1.68,1.68,0,0,1-2.376-.014l-.051-.052a1.68,1.68,0,0,1,.014-2.376l4.23-4.181a6.089,6.089,0,0,1,4.281-1.759h5.483a6.09,6.09,0,0,1,4.281,1.759l4.23,4.181a1.68,1.68,0,0,1,.014,2.376l-.051.052a1.68,1.68,0,0,1-2.376.014l-3.6-3.554v6.44l1.522,11.351a2.007,2.007,0,0,1-1.723,2.256l-.339.045a2.007,2.007,0,0,1-2.209-1.484L283.6,123.6h0l-2.484,9.627a2.007,2.007,0,0,1-2.21,1.488l-.336-.045a2.007,2.007,0,0,1-1.723-2.256l1.522-11.351Z" transform="translate(-244.415 -97.421)" fill="#66d4f1" fill-rule="evenodd"/>
          <circle id="Elipse_14748" data-name="Elipse 14748" cx="4.26" cy="4.26" r="4.26" transform="translate(34.932 2.127)" fill="#d5a889"/>
          <path id="Trazado_1180490" data-name="Trazado 1180490" d="M68.266,121.065v-6.44l-3.6,3.554a1.68,1.68,0,0,1-2.376-.014l-.051-.052a1.68,1.68,0,0,1,.014-2.376l4.23-4.181a6.089,6.089,0,0,1,4.281-1.759h5.483a6.09,6.09,0,0,1,4.281,1.759l4.23,4.181a1.68,1.68,0,0,1,.014,2.376l-.051.052a1.68,1.68,0,0,1-2.376.014l-3.6-3.554v6.44l1.522,11.351a2.007,2.007,0,0,1-1.723,2.256l-.339.045A2.007,2.007,0,0,1,76,133.233L73.5,123.6h0l-2.484,9.627a2.007,2.007,0,0,1-2.21,1.488l-.336-.045a2.007,2.007,0,0,1-1.723-2.256l1.522-11.351Z" transform="translate(-61.758 -97.421)" fill="#66d4f1" fill-rule="evenodd"/>
          <circle id="Elipse_14749" data-name="Elipse 14749" cx="4.26" cy="4.26" r="4.26" transform="translate(7.491 2.127)" fill="#d5a889"/>
        </g>
        <g id="Grupo_1224471" data-name="Grupo 1224471" transform="translate(0 28.501)">
          <path id="Trazado_1180491" data-name="Trazado 1180491" d="M38.255,255.344c.633,2.669,1.311,5.324,1.981,7.979H29.573l-.526-2.2a3.551,3.551,0,0,0-1.5-2.173l-5.369-3.677c-1.7-1.166-2.444-3.728-3.066-5.6l-3.954-11.933c-1.04-3.14,3.269-7.649,6.25-.659l3.421,8.016a2.667,2.667,0,0,1,2.632.263l4.773,3.414c4.565,1.244,5.228,3.243,6.02,6.576Z" transform="translate(-15 -233.363)" fill="#efc7a4" fill-rule="evenodd"/>
          <path id="Trazado_1180492" data-name="Trazado 1180492" d="M78.741,329.759,89.4,337.39a2.667,2.667,0,0,1-3.71.615l-6.339-4.536A2.664,2.664,0,0,1,78.741,329.759Z" transform="translate(-69.985 -317.152)" fill="#d5a889" fill-rule="evenodd"/>
          <path id="Trazado_1180493" data-name="Trazado 1180493" d="M103.353,451.608l0,3.258a1.285,1.285,0,0,0,1.285,1.281q6.626.006,13.255,0a1.283,1.283,0,0,0,1.285-1.289l0-3.258a1.285,1.285,0,0,0-1.285-1.281q-6.626-.006-13.255,0a1.283,1.283,0,0,0-1.285,1.289Z" transform="translate(-91.813 -421.967)" fill="#e4e8eb"/>
          <path id="Trazado_1180494" data-name="Trazado 1180494" d="M303.765,255.208c-.629,2.666-1.307,5.321-1.981,7.979h10.663l.529-2.2a3.529,3.529,0,0,1,1.5-2.177l5.369-3.677c1.7-1.166,2.447-3.728,3.069-5.6l3.951-11.93c1.044-3.143-3.269-7.653-6.25-.663l-3.417,8.02a2.663,2.663,0,0,0-2.636.259l-4.769,3.414C305.22,249.872,304.557,251.872,303.765,255.208Z" transform="translate(-264.326 -233.241)" fill="#efc7a4" fill-rule="evenodd"/>
          <path id="Trazado_1180495" data-name="Trazado 1180495" d="M357.008,329.617l-10.663,7.631a2.664,2.664,0,0,0,3.71.615l6.339-4.536A2.667,2.667,0,0,0,357.008,329.617Z" transform="translate(-303.067 -317.029)" fill="#d5a889" fill-rule="evenodd"/>
          <path id="Trazado_1180496" data-name="Trazado 1180496" d="M301.288,451.491l0,3.258A1.288,1.288,0,0,1,300,456.034H286.741a1.29,1.29,0,0,1-1.285-1.285l0-3.262a1.285,1.285,0,0,1,1.285-1.281H300a1.283,1.283,0,0,1,1.285,1.285Z" transform="translate(-250.131 -421.868)" fill="#e4e8eb"/>
        </g>
      </g>
      <path id="Trazado_1180497" data-name="Trazado 1180497" d="M21.876,64.863a2.663,2.663,0,0,0-.927-1.072L15.576,60.1c-1.857-1.276-2.738-4.037-3.413-6.088L8.221,42.054h0a4.625,4.625,0,0,1,.806-4.186,3.436,3.436,0,0,1,2.5-1.372c1.424-.07,3.255.916,4.673,4.264l3.092,7.3a3.57,3.57,0,0,1,2.652.623h0l4.641,3.334a9.668,9.668,0,0,1,4.089,2.072c1.381,1.288,1.9,2.946,2.419,5.157.443,1.878.907,3.751,1.375,5.623h.549a2.2,2.2,0,0,1,2.2,2.2l0,3.258h0a2.134,2.134,0,0,1-.637,1.552l-.01.01a2.139,2.139,0,0,1-1.552.641h0q-5.253,0-10.508,0l-.024,0,0,0H21.762a2.2,2.2,0,0,1-2.2-2.194l0-3.262h0a2.133,2.133,0,0,1,.637-1.549l0,0a2.122,2.122,0,0,1,1.557-.645Zm10.7,0c-.433-1.732-.86-3.465-1.27-5.2-.425-1.8-.761-3.19-1.887-4.24a8.122,8.122,0,0,0-3.486-1.69.915.915,0,0,1-.291-.139l-4.772-3.428a1.751,1.751,0,0,0-2.44.4l0,0a1.755,1.755,0,0,0,.4,2.441l6.342,4.557a.914.914,0,1,1-1.067,1.485l-6.342-4.558h0a3.589,3.589,0,0,1-.816-4.992,3.543,3.543,0,0,1,.668-.706l-3.1-7.32a7.305,7.305,0,0,0-1.661-2.6,1.763,1.763,0,0,0-1.239-.547,1.621,1.621,0,0,0-1.153.683,2.741,2.741,0,0,0-.5,2.476L13.9,53.44h0a27.074,27.074,0,0,0,1.085,2.977,5.216,5.216,0,0,0,1.626,2.175l5.372,3.691a4.412,4.412,0,0,1,1.83,2.579Zm2.434,1.829H21.759a.361.361,0,0,0-.263.109.365.365,0,0,0-.107.261l0,3.261h0a.369.369,0,0,0,.37.367q6.625,0,13.254,0a.369.369,0,0,0,.37-.374l0-3.257h0A.371.371,0,0,0,35.013,66.692Zm-1.542-20.3a2.921,2.921,0,0,1-1.517.68l-.339.045a2.921,2.921,0,0,1-3.216-2.16l-1.617-6.218-1.6,6.212a2.921,2.921,0,0,1-3.217,2.166l-.336-.045a2.921,2.921,0,0,1-2.507-3.284L20.633,32.5v-4.19l-2.039,2.015a2.594,2.594,0,0,1-3.669-.021l-.051-.052a2.594,2.594,0,0,1,.021-3.669l4.23-4.181a7,7,0,0,1,4.924-2.023H25.78a5.174,5.174,0,1,1,2.022,0h1.731a7,7,0,0,1,2.867.614,7.372,7.372,0,0,1,5.175-2.121h5.815A7.372,7.372,0,0,1,48.572,21l.011.011a7,7,0,0,1,2.908-.632h1.731a5.175,5.175,0,1,1,2.021,0h1.731A7,7,0,0,1,61.9,22.4l4.23,4.181a2.594,2.594,0,0,1,.021,3.669L66.1,30.3a2.594,2.594,0,0,1-3.669.021L60.39,28.307V32.5L61.9,43.787A2.922,2.922,0,0,1,59.4,47.071l-.339.045a2.922,2.922,0,0,1-3.216-2.16l-1.617-6.218-1.6,6.212A2.922,2.922,0,0,1,49.4,47.116l-.336-.045a2.921,2.921,0,0,1-1.546-.706,3.044,3.044,0,0,1-1.572.7l-.36.048a3.043,3.043,0,0,1-3.349-2.25l-1.769-6.8L38.72,44.859a3.043,3.043,0,0,1-3.351,2.256l-.356-.048a3.043,3.043,0,0,1-1.542-.677ZM34.01,22q.231.192.446.4l4.23,4.181a2.594,2.594,0,0,1,.021,3.669l-.051.052a2.6,2.6,0,0,1-2.82.581v.849a.9.9,0,0,1-.008.121l-1.483,11.06.117.874a2.92,2.92,0,0,1-.033.97l.023.031a1.215,1.215,0,0,0,.8.467l.356.048a1.214,1.214,0,0,0,1.337-.9l2.634-10.209a.889.889,0,0,1,1.771,0l2.657,10.214a1.214,1.214,0,0,0,1.336.9l.36-.048a1.213,1.213,0,0,0,.873-.568,2.917,2.917,0,0,1-.019-.9l.087-.651L45.136,31.853a.9.9,0,0,1-.008-.121v-.826a2.6,2.6,0,0,1-2.761-.6l-.051-.052a2.594,2.594,0,0,1,.021-3.669l4.23-4.181q.2-.2.416-.379A5.543,5.543,0,0,0,43.389,20.7H37.574A5.544,5.544,0,0,0,34.01,22Zm0,7.358-1.059-1.046V32.5l.474,3.535.585-4.362ZM48.475,43.276l-.1.754a1.093,1.093,0,0,0,.938,1.228l.336.045a1.093,1.093,0,0,0,1.2-.81l2.484-9.627c.314-1.048,1.509-1.064,1.771,0L57.611,44.5a1.093,1.093,0,0,0,1.2.808l.339-.046a1.093,1.093,0,0,0,.938-1.228L58.57,32.68a.922.922,0,0,1-.008-.121v-6.44a.914.914,0,0,1,1.557-.65l3.6,3.554a.766.766,0,0,0,1.083-.006l.051-.052a.766.766,0,0,0-.006-1.083L60.612,23.7a5.175,5.175,0,0,0-3.638-1.495H51.491A5.175,5.175,0,0,0,47.853,23.7l-4.23,4.181a.766.766,0,0,0-.006,1.083l.051.052a.766.766,0,0,0,1.083.006l3.6-3.554a.914.914,0,0,1,1.557.65v6.44a.92.92,0,0,1-.008.121L48.48,43.24c0,.012,0,.024,0,.036Zm-.9-7.02.5-3.759v-4.19l-1.119,1.106v2.258ZM25.893,34.866a.9.9,0,0,1,1.771,0L30.17,44.5a1.093,1.093,0,0,0,1.2.808l.339-.046a1.093,1.093,0,0,0,.938-1.228L31.128,32.68a.9.9,0,0,1-.008-.121v-6.44a.914.914,0,0,1,1.557-.65l3.6,3.554a.766.766,0,0,0,1.083-.006l.051-.052a.765.765,0,0,0-.006-1.083L33.171,23.7a5.175,5.175,0,0,0-3.638-1.495H24.049A5.175,5.175,0,0,0,20.411,23.7l-4.23,4.181a.766.766,0,0,0-.006,1.083l.051.052a.766.766,0,0,0,1.083.006l3.6-3.554a.914.914,0,0,1,1.557.65v6.44a.921.921,0,0,1-.008.121L20.932,44.03a1.093,1.093,0,0,0,.938,1.228l.336.045a1.093,1.093,0,0,0,1.2-.81Zm.9-22.91A3.346,3.346,0,1,0,30.137,15.3,3.347,3.347,0,0,0,26.791,11.956Zm27.442,0A3.346,3.346,0,1,0,57.578,15.3,3.348,3.348,0,0,0,54.232,11.956Zm1.823,60.563q-5.256,0-10.512,0h0a2.2,2.2,0,0,1-2.2-2.2h0l0-3.257a2.2,2.2,0,0,1,2.2-2.2h.55c.469-1.872.933-3.744,1.374-5.622h0c.522-2.211,1.039-3.869,2.422-5.157a9.676,9.676,0,0,1,4.09-2.071l4.64-3.333a3.563,3.563,0,0,1,2.65-.624l3.092-7.295c1.418-3.348,3.249-4.334,4.673-4.264a3.436,3.436,0,0,1,2.5,1.372,4.625,4.625,0,0,1,.806,4.186L68.4,54.012h0c-.678,2.05-1.559,4.811-3.416,6.087l-5.372,3.691a2.663,2.663,0,0,0-.927,1.072h.12a2.2,2.2,0,0,1,2.2,2.2h0l0,3.261a2.2,2.2,0,0,1-2.2,2.2H56.084l0,0ZM58.8,66.692H45.546a.371.371,0,0,0-.37.37h0l0,3.257a.375.375,0,0,0,.37.374q6.631-.005,13.258,0a.369.369,0,0,0,.37-.367h0l0-3.261a.357.357,0,0,0-.11-.261l0,0a.347.347,0,0,0-.256-.105Zm-2.059-1.829a4.414,4.414,0,0,1,1.83-2.579l5.372-3.691a5.222,5.222,0,0,0,1.627-2.175,27.427,27.427,0,0,0,1.088-2.978L70.6,41.482a2.741,2.741,0,0,0-.5-2.477,1.621,1.621,0,0,0-1.153-.683,1.763,1.763,0,0,0-1.239.547,7.305,7.305,0,0,0-1.661,2.6l-3.1,7.319a3.577,3.577,0,0,1-.15,5.7l-6.342,4.558a.914.914,0,1,1-1.067-1.485l6.342-4.558h0a1.753,1.753,0,0,0,.4-2.44h0a1.753,1.753,0,0,0-2.44-.4h0l-4.772,3.428a.915.915,0,0,1-.291.139,8.133,8.133,0,0,0-3.487,1.69c-1.126,1.049-1.464,2.438-1.889,4.239-.408,1.738-.836,3.471-1.269,5.2ZM40.482,8a5.432,5.432,0,1,1-5.432,5.432A5.435,5.435,0,0,1,40.482,8Zm0,1.829a3.6,3.6,0,1,0,3.6,3.6A3.605,3.605,0,0,0,40.482,9.829Z" transform="translate(0 0)" fill-rule="evenodd"/>
    </g>
  </g>
</svg>
