<svg xmlns="http://www.w3.org/2000/svg" xmlns:xlink="http://www.w3.org/1999/xlink" width="113" height="113" viewBox="0 0 113 113">
  <defs>
    <filter id="Trazado_982547" x="0" y="0" width="113" height="113" filterUnits="userSpaceOnUse">
      <feOffset dy="3" input="SourceAlpha"/>
      <feGaussianBlur stdDeviation="3" result="blur"/>
      <feFlood flood-opacity="0.161"/>
      <feComposite operator="in" in2="blur"/>
      <feComposite in="SourceGraphic"/>
    </filter>
  </defs>
  <g id="Grupo_1224469" data-name="Grupo 1224469" transform="translate(-1977.49 -3015.751)">
    <g id="Grupo_1224212" data-name="Grupo 1224212" transform="translate(1986.49 3021.751)">
      <g id="Grupo_1224085" data-name="Grupo 1224085" transform="translate(0 0)">
        <g id="Grupo_1223184" data-name="Grupo 1223184" transform="translate(0)">
          <g id="Grupo_1211216" data-name="Grupo 1211216">
            <g id="Grupo_1210737" data-name="Grupo 1210737">
              <g id="Grupo_1210537" data-name="Grupo 1210537">
                <g id="Grupo_1164202" data-name="Grupo 1164202">
                  <g id="Grupo_1158168" data-name="Grupo 1158168">
                    <g id="Grupo_1152576" data-name="Grupo 1152576">
                      <g id="Grupo_1148633" data-name="Grupo 1148633">
                        <g id="Grupo_1148525" data-name="Grupo 1148525">
                          <g transform="matrix(1, 0, 0, 1, -9, -6)" filter="url(#Trazado_982547)">
                            <g id="Trazado_982547-2" data-name="Trazado 982547" transform="translate(9 6)" fill="#fcf5f0">
                              <path d="M 47.49999618530273 93.5 C 41.28936767578125 93.5 35.26533126831055 92.28396606445312 29.59518241882324 89.88570404052734 C 24.11771583557129 87.56893157958984 19.19812965393066 84.251953125 14.97308921813965 80.02690124511719 C 10.74803638458252 75.80186462402344 7.431062698364258 70.88227844238281 5.114289283752441 65.40480804443359 C 2.716022968292236 59.73466110229492 1.499996185302734 53.71062469482422 1.499996185302734 47.49999618530273 C 1.499996185302734 41.28936767578125 2.716022968292236 35.26533126831055 5.114289283752441 29.59518241882324 C 7.431062698364258 24.11771583557129 10.74803638458252 19.19812965393066 14.97308921813965 14.97308921813965 C 19.19812965393066 10.74803638458252 24.11771583557129 7.431062698364258 29.59518241882324 5.114289283752441 C 35.26533126831055 2.716022968292236 41.28936767578125 1.499996185302734 47.49999618530273 1.499996185302734 C 53.71062469482422 1.499996185302734 59.73466110229492 2.716022968292236 65.40480804443359 5.114289283752441 C 70.88227844238281 7.431062698364258 75.80186462402344 10.74803638458252 80.02690124511719 14.97308921813965 C 84.251953125 19.19812965393066 87.56893157958984 24.11771583557129 89.88570404052734 29.59518241882324 C 92.28396606445312 35.26533126831055 93.5 41.28936767578125 93.5 47.49999618530273 C 93.5 53.71062469482422 92.28396606445312 59.73466110229492 89.88570404052734 65.40480804443359 C 87.56893157958984 70.88227844238281 84.251953125 75.80186462402344 80.02690124511719 80.02690124511719 C 75.80186462402344 84.251953125 70.88227844238281 87.56893157958984 65.40480804443359 89.88570404052734 C 59.73466110229492 92.28396606445312 53.71062469482422 93.5 47.49999618530273 93.5 Z" stroke="none"/>
                              <path d="M 47.49999618530273 2.999992370605469 C 41.4912109375 2.999992370605469 35.66376495361328 4.1761474609375 30.17950439453125 6.495796203613281 C 24.88084411621094 8.736953735351562 20.12152099609375 11.94598388671875 16.03375244140625 16.03375244140625 C 11.94598388671875 20.12152099609375 8.736953735351562 24.88084411621094 6.495796203613281 30.17950439453125 C 4.1761474609375 35.66376495361328 2.999992370605469 41.4912109375 2.999992370605469 47.49999618530273 C 2.999992370605469 53.50878143310547 4.1761474609375 59.33622741699219 6.495796203613281 64.82048797607422 C 8.736953735351562 70.11914825439453 11.94598388671875 74.87847137451172 16.03375244140625 78.96623992919922 C 20.12152099609375 83.05400848388672 24.88084411621094 86.26304626464844 30.17950439453125 88.50419616699219 C 35.66376495361328 90.82384490966797 41.4912109375 92 47.49999618530273 92 C 53.50878143310547 92 59.33622741699219 90.82384490966797 64.82048797607422 88.50419616699219 C 70.11914825439453 86.26304626464844 74.87847137451172 83.05400848388672 78.96623992919922 78.96623992919922 C 83.05400848388672 74.87847137451172 86.26304626464844 70.11914825439453 88.50419616699219 64.82048797607422 C 90.82384490966797 59.33622741699219 92 53.50878143310547 92 47.49999618530273 C 92 41.4912109375 90.82384490966797 35.66376495361328 88.50419616699219 30.17950439453125 C 86.26304626464844 24.88084411621094 83.05400848388672 20.12152099609375 78.96623992919922 16.03375244140625 C 74.87847137451172 11.94598388671875 70.11914825439453 8.736953735351562 64.82048797607422 6.495796203613281 C 59.33622741699219 4.1761474609375 53.50878143310547 2.999992370605469 47.49999618530273 2.999992370605469 M 47.49999618530273 -7.62939453125e-06 C 73.7335205078125 -7.62939453125e-06 95 21.26647186279297 95 47.49999618530273 C 95 73.7335205078125 73.7335205078125 95 47.49999618530273 95 C 21.26647186279297 95 -7.62939453125e-06 73.7335205078125 -7.62939453125e-06 47.49999618530273 C -7.62939453125e-06 21.26647186279297 21.26647186279297 -7.62939453125e-06 47.49999618530273 -7.62939453125e-06 Z" stroke="none" fill="#eca675"/>
                            </g>
                          </g>
                        </g>
                      </g>
                    </g>
                  </g>
                </g>
              </g>
            </g>
          </g>
        </g>
      </g>
    </g>
    <g id="Layer_18" data-name="Layer 18" transform="translate(2001.748 3036.748)">
      <circle id="Elipse_14745" data-name="Elipse 14745" cx="16" cy="16" r="16" transform="translate(27.252 12.252)" fill="#4d8c28"/>
      <path id="Trazado_1180470" data-name="Trazado 1180470" d="M26,59.061l20.081-1a6.762,6.762,0,0,0,5.028-2.24L57.421,48.8a2.766,2.766,0,0,0,.709-1.848v-.194a2.762,2.762,0,0,0-4.842-1.818l-6.209,5.239c0-.052.006-.105.006-.159a2.008,2.008,0,0,0-2.008-2.008H38.049A3.633,3.633,0,0,0,34.8,46.008H33.5a8.412,8.412,0,0,0-5.948,2.464A24.073,24.073,0,0,0,26,51.028Z" transform="translate(0.102 0.175)" fill="#fbe1ca"/>
      <path id="Trazado_1180471" data-name="Trazado 1180471" d="M45.028,53.012H38V51h7.028a1,1,0,0,0,1-1h2.008a3.012,3.012,0,0,1-3.012,3.012Z" transform="translate(0.151 0.199)" fill="#f2b9a1"/>
      <path id="Trazado_1180472" data-name="Trazado 1180472" d="M16,46H26.041V62.065H16Z" transform="translate(0.061 0.183)" fill="#c8cded"/>
      <path id="Trazado_1180473" data-name="Trazado 1180473" d="M23.028,57.045V46H16V59.053h5.02A2.008,2.008,0,0,0,23.028,57.045Z" transform="translate(0.061 0.183)" fill="#e2e7f6"/>
      <path id="Trazado_1180474" data-name="Trazado 1180474" d="M16.057,47H2V61.057H16.057" transform="translate(0.004 0.187)" fill="#5e87ca"/>
      <path id="Trazado_1180475" data-name="Trazado 1180475" d="M13.045,55.033V47H2V58.045h8.033A3.012,3.012,0,0,0,13.045,55.033Z" transform="translate(0.004 0.187)" fill="#78a0d4"/>
      <circle id="Elipse_14746" data-name="Elipse 14746" cx="12" cy="12" r="12" transform="translate(31.252 16.252)" fill="#e2e7f6"/>
      <path id="Trazado_1180476" data-name="Trazado 1180476" d="M53.09,27.045a12.027,12.027,0,0,0-5.695-10.223A12.037,12.037,0,0,0,36.7,38.273,12.028,12.028,0,0,0,53.09,27.045Z" transform="translate(0.122 0.061)" fill="#f2f2f2"/>
      <path id="Trazado_1180477" data-name="Trazado 1180477" d="M35,29.028l6.024,6.024L51.065,25.012,48.053,22l-7.028,7.028-3.012-3.012Z" transform="translate(0.138 0.085)" fill="#559b2d"/>
      <g id="Grupo_1224468" data-name="Grupo 1224468" transform="translate(24.094 2.004)">
        <path id="Trazado_1180478" data-name="Trazado 1180478" d="M54,10.033,58.016,2l4.016,4.016Z" transform="translate(-23.878 -2)" fill="#e2e7f6"/>
        <path id="Trazado_1180479" data-name="Trazado 1180479" d="M32.033,10.033,28.016,2,24,6.016Z" transform="translate(-24 -2)" fill="#e2e7f6"/>
        <path id="Trazado_1180480" data-name="Trazado 1180480" d="M43.012,9.028,40,2h6.024Z" transform="translate(-23.935 -2)" fill="#e2e7f6"/>
      </g>
      <path id="Trazado_1180481" data-name="Trazado 1180481" d="M55.469,43a3.76,3.76,0,0,0-2.78,1.226l-4.971,4.2a3.006,3.006,0,0,0-2.538-1.406H38.722a4.609,4.609,0,0,0-3.815-2.008H33.6a9.351,9.351,0,0,0-6.5,2.611V46.012a1,1,0,0,0-1-1H16.061a1,1,0,0,0-1,1H2a1,1,0,0,0-1,1V61.073a1,1,0,0,0,1,1H15.057a1,1,0,0,0,1,1H26.1a1,1,0,0,0,1-1V60.02l19.077-.955a7.777,7.777,0,0,0,5.773-2.572l6.313-7.013a3.762,3.762,0,0,0,.967-2.52v-.193A3.771,3.771,0,0,0,55.469,43ZM3.008,60.069V48.02H15.057V60.069Zm22.089,1H17.065V47.016H25.1Zm32.13-14.114a1.754,1.754,0,0,1-.451,1.177l-6.313,7.013a5.8,5.8,0,0,1-4.332,1.908l-19.027.952V51.29a22.733,22.733,0,0,1,1.258-2.109A7.366,7.366,0,0,1,33.6,47.016h1.3a2.611,2.611,0,0,1,2.346,1.453,1,1,0,0,0,.9.555h7.028a1,1,0,0,1,0,2.008H38.151v2.008h7.028A3.012,3.012,0,0,0,48.1,50.724l5.935-5.013a1.1,1.1,0,0,0,.109-.106,1.758,1.758,0,0,1,3.081,1.162Z" transform="translate(0 0.171)"/>
      <path id="Trazado_1180482" data-name="Trazado 1180482" d="M43.053,15A13.053,13.053,0,1,0,56.106,28.053,13.053,13.053,0,0,0,43.053,15Zm0,24.1A11.045,11.045,0,1,1,54.1,28.053,11.045,11.045,0,0,1,43.053,39.1Z" transform="translate(0.118 0.057)"/>
      <path id="Trazado_1180483" data-name="Trazado 1180483" d="M43.069,11A17.069,17.069,0,1,0,60.138,28.069,17.069,17.069,0,0,0,43.069,11Zm0,32.13A15.061,15.061,0,1,1,58.13,28.069,15.061,15.061,0,0,1,43.069,43.13Z" transform="translate(0.102 0.041)"/>
      <path id="Trazado_1180484" data-name="Trazado 1180484" d="M47.347,21.293l-6.319,6.319-2.3-2.3a1,1,0,0,0-1.42,0l-3.012,3.012a1,1,0,0,0,0,1.421l6.024,6.024a1,1,0,0,0,1.42,0L51.779,25.726a1,1,0,0,0,0-1.421l-3.012-3.012A1,1,0,0,0,47.347,21.293ZM41.028,33.637l-4.6-4.6,1.592-1.592,2.3,2.3a1,1,0,0,0,1.42,0l6.319-6.319,1.592,1.592Z" transform="translate(0.134 0.081)"/>
      <path id="Trazado_1180485" data-name="Trazado 1180485" d="M62.746,5.309,58.73,1.293a1,1,0,0,0-1.607.261L53.107,9.587a1,1,0,0,0,1.347,1.347l8.033-4.016a1,1,0,0,0,.261-1.607Zm-6.5,2.482L58.3,3.7l2.046,2.046Z" transform="translate(0.212 0)"/>
      <path id="Trazado_1180486" data-name="Trazado 1180486" d="M23.555,6.918l8.033,4.016A1,1,0,0,0,32.94,9.587L28.924,1.554a1,1,0,0,0-1.607-.261L23.3,5.309a1,1,0,0,0,.261,1.607ZM27.745,3.7l2.046,4.093L25.7,5.745Z" transform="translate(0.09 0)"/>
      <path id="Trazado_1180487" data-name="Trazado 1180487" d="M42.094,9.428a1,1,0,0,0,1.845,0L46.951,2.4A1,1,0,0,0,46.028,1H40a1,1,0,0,0-.923,1.4Zm2.412-6.42L43.016,6.483,41.527,3.008Z" transform="translate(0.155 0)"/>
    </g>
  </g>
</svg>
