<svg xmlns="http://www.w3.org/2000/svg" xmlns:xlink="http://www.w3.org/1999/xlink" width="113" height="113" viewBox="0 0 113 113">
  <defs>
    <filter id="Trazado_982547" x="0" y="0" width="113" height="113" filterUnits="userSpaceOnUse">
      <feOffset dy="3" input="SourceAlpha"/>
      <feGaussianBlur stdDeviation="3" result="blur"/>
      <feFlood flood-opacity="0.161"/>
      <feComposite operator="in" in2="blur"/>
      <feComposite in="SourceGraphic"/>
    </filter>
  </defs>
  <g id="Grupo_1224475" data-name="Grupo 1224475" transform="translate(-271 -4347.154)">
    <g id="Grupo_1224220" data-name="Grupo 1224220" transform="translate(0 2392.403)">
      <g id="Grupo_1224091" data-name="Grupo 1224091" transform="translate(-84.49 -2620.317)">
        <g id="Grupo_1223183" data-name="Grupo 1223183" transform="translate(364.49 4581.069)">
          <g id="Grupo_1211217" data-name="Grupo 1211217" transform="translate(0)">
            <g id="Grupo_1210736" data-name="Grupo 1210736">
              <g id="Grupo_1210537" data-name="Grupo 1210537">
                <g id="Grupo_1164202" data-name="Grupo 1164202">
                  <g id="Grupo_1158168" data-name="Grupo 1158168">
                    <g id="Grupo_1152576" data-name="Grupo 1152576">
                      <g id="Grupo_1148633" data-name="Grupo 1148633">
                        <g id="Grupo_1148525" data-name="Grupo 1148525">
                          <g transform="matrix(1, 0, 0, 1, -9, -6)" filter="url(#Trazado_982547)">
                            <g id="Trazado_982547-2" data-name="Trazado 982547" transform="translate(9 6)" fill="#fcf5f0">
                              <path d="M 47.49999618530273 93.5 C 41.28936767578125 93.5 35.26533126831055 92.28396606445312 29.59518241882324 89.88570404052734 C 24.11771583557129 87.56893157958984 19.19812965393066 84.251953125 14.97308921813965 80.02690124511719 C 10.74803638458252 75.80186462402344 7.431062698364258 70.88227844238281 5.114289283752441 65.40480804443359 C 2.716022968292236 59.73466110229492 1.499996185302734 53.71062469482422 1.499996185302734 47.49999618530273 C 1.499996185302734 41.28936767578125 2.716022968292236 35.26533126831055 5.114289283752441 29.59518241882324 C 7.431062698364258 24.11771583557129 10.74803638458252 19.19812965393066 14.97308921813965 14.97308921813965 C 19.19812965393066 10.74803638458252 24.11771583557129 7.431062698364258 29.59518241882324 5.114289283752441 C 35.26533126831055 2.716022968292236 41.28936767578125 1.499996185302734 47.49999618530273 1.499996185302734 C 53.71062469482422 1.499996185302734 59.73466110229492 2.716022968292236 65.40480804443359 5.114289283752441 C 70.88227844238281 7.431062698364258 75.80186462402344 10.74803638458252 80.02690124511719 14.97308921813965 C 84.251953125 19.19812965393066 87.56893157958984 24.11771583557129 89.88570404052734 29.59518241882324 C 92.28396606445312 35.26533126831055 93.5 41.28936767578125 93.5 47.49999618530273 C 93.5 53.71062469482422 92.28396606445312 59.73466110229492 89.88570404052734 65.40480804443359 C 87.56893157958984 70.88227844238281 84.251953125 75.80186462402344 80.02690124511719 80.02690124511719 C 75.80186462402344 84.251953125 70.88227844238281 87.56893157958984 65.40480804443359 89.88570404052734 C 59.73466110229492 92.28396606445312 53.71062469482422 93.5 47.49999618530273 93.5 Z" stroke="none"/>
                              <path d="M 47.49999618530273 2.999992370605469 C 41.4912109375 2.999992370605469 35.66376495361328 4.1761474609375 30.17950439453125 6.495796203613281 C 24.88084411621094 8.736953735351562 20.12152099609375 11.94598388671875 16.03375244140625 16.03375244140625 C 11.94598388671875 20.12152099609375 8.736953735351562 24.88084411621094 6.495796203613281 30.17950439453125 C 4.1761474609375 35.66376495361328 2.999992370605469 41.4912109375 2.999992370605469 47.49999618530273 C 2.999992370605469 53.50878143310547 4.1761474609375 59.33622741699219 6.495796203613281 64.82048797607422 C 8.736953735351562 70.11914825439453 11.94598388671875 74.87847137451172 16.03375244140625 78.96623992919922 C 20.12152099609375 83.05400848388672 24.88084411621094 86.26304626464844 30.17950439453125 88.50419616699219 C 35.66376495361328 90.82384490966797 41.4912109375 92 47.49999618530273 92 C 53.50878143310547 92 59.33622741699219 90.82384490966797 64.82048797607422 88.50419616699219 C 70.11914825439453 86.26304626464844 74.87847137451172 83.05400848388672 78.96623992919922 78.96623992919922 C 83.05400848388672 74.87847137451172 86.26304626464844 70.11914825439453 88.50419616699219 64.82048797607422 C 90.82384490966797 59.33622741699219 92 53.50878143310547 92 47.49999618530273 C 92 41.4912109375 90.82384490966797 35.66376495361328 88.50419616699219 30.17950439453125 C 86.26304626464844 24.88084411621094 83.05400848388672 20.12152099609375 78.96623992919922 16.03375244140625 C 74.87847137451172 11.94598388671875 70.11914825439453 8.736953735351562 64.82048797607422 6.495796203613281 C 59.33622741699219 4.1761474609375 53.50878143310547 2.999992370605469 47.49999618530273 2.999992370605469 M 47.49999618530273 -7.62939453125e-06 C 73.7335205078125 -7.62939453125e-06 95 21.26647186279297 95 47.49999618530273 C 95 73.7335205078125 73.7335205078125 95 47.49999618530273 95 C 21.26647186279297 95 -7.62939453125e-06 73.7335205078125 -7.62939453125e-06 47.49999618530273 C -7.62939453125e-06 21.26647186279297 21.26647186279297 -7.62939453125e-06 47.49999618530273 -7.62939453125e-06 Z" stroke="none" fill="#eca675"/>
                            </g>
                          </g>
                        </g>
                      </g>
                    </g>
                  </g>
                </g>
              </g>
            </g>
          </g>
        </g>
      </g>
    </g>
    <g id="Layer_29" data-name="Layer 29" transform="translate(296 4365)">
      <path id="Trazado_1180498" data-name="Trazado 1180498" d="M52.92,57l8.46-8.5a2.12,2.12,0,0,0,0-3,2.09,2.09,0,0,0-3,0L57,46.9V36a2,2,0,0,0-4,0V34a2,2,0,0,0-4,0v2a2,2,0,0,0-4,0v2a2,2,0,0,0-4,0V50H40l-2,2v9H51V57Z" fill="#fdd9a1"/>
      <circle id="Elipse_14750" data-name="Elipse 14750" cx="17" cy="17" r="17" transform="translate(15 1)" fill="#bce4f8"/>
      <path id="Trazado_1180499" data-name="Trazado 1180499" d="M32,1A17,17,0,0,0,15,18a16.83,16.83,0,0,0,1.11,6H39a5,5,0,0,0,5-5V6A17,17,0,0,0,32,1Z" fill="#e4f5fd"/>
      <path id="Trazado_1180500" data-name="Trazado 1180500" d="M39.5,26.56,35,26l-3,2-3-2-4.5.56a4,4,0,0,0-3.5,4V31a17,17,0,0,0,22,0v-.42A4,4,0,0,0,39.5,26.56Z" fill="#ccc"/>
      <path id="Trazado_1180501" data-name="Trazado 1180501" d="M35,26V23.19a6,6,0,0,1-6,0V26l3,2Z" fill="#fddfb1"/>
      <path id="Trazado_1180502" data-name="Trazado 1180502" d="M35,26l-3,2-3-2-4.5.56a4,4,0,0,0-3.5,4V31c.44.37.89.72,1.37,1.05H36a4,4,0,0,0,4-4V26.67a4.48,4.48,0,0,0-.5-.11Z" fill="#f2f2f2"/>
      <g id="Grupo_1224474" data-name="Grupo 1224474">
        <path id="Trazado_1180503" data-name="Trazado 1180503" d="M34,10a3,3,0,0,0,3,3h1v5a6,6,0,0,1-12,0V13h5A3,3,0,0,0,34,10Z" fill="#fddfb1"/>
        <path id="Trazado_1180504" data-name="Trazado 1180504" d="M26,18V15H24a2,2,0,0,0,0,4h2.09A6.64,6.64,0,0,1,26,18Z" fill="#fddfb1"/>
        <path id="Trazado_1180505" data-name="Trazado 1180505" d="M40,15H38v3a6.64,6.64,0,0,1-.09,1H40a2,2,0,0,0,0-4Z" fill="#fddfb1"/>
      </g>
      <path id="Trazado_1180506" data-name="Trazado 1180506" d="M32,5a8,8,0,0,0-8,8v2h2V13h5a3,3,0,0,0,3-3,3,3,0,0,0,3,3h1v2h2V13A8,8,0,0,0,32,5Z" fill="#474747"/>
      <path id="Trazado_1180507" data-name="Trazado 1180507" d="M29,30l3-2-3-2-1.88.23Z" fill="#2763bb"/>
      <path id="Trazado_1180508" data-name="Trazado 1180508" d="M32,28l-1.91,1.27L31,32h2l.91-2.73Z" fill="#3079e6"/>
      <path id="Trazado_1180509" data-name="Trazado 1180509" d="M36.88,26.23,35,26l-3,2,3,2Z" fill="#2763bb"/>
      <path id="Trazado_1180510" data-name="Trazado 1180510" d="M30.42,34.92c.52,0,1,.08,1.58.08a10.068,10.068,0,0,0,1.58-.08L33,32H31Z" fill="#2763bb"/>
      <path id="Trazado_1180511" data-name="Trazado 1180511" d="M34,10a3,3,0,0,1-3,3H26v5a6,6,0,0,0,.81,3H33a3,3,0,0,0,3-3V12.82A3,3,0,0,1,34,10Z" fill="#feecd0"/>
      <path id="Trazado_1180512" data-name="Trazado 1180512" d="M13,57v4H26V52l-2-2H23V38a2,2,0,0,0-4,0V36a2,2,0,0,0-4,0V34a2,2,0,0,0-4,0v2a2,2,0,0,0-4,0V46.9L5.6,45.5a2.09,2.09,0,0,0-3,0,2.12,2.12,0,0,0,0,3L11.07,57Z" fill="#fdd9a1"/>
      <path id="Trazado_1180513" data-name="Trazado 1180513" d="M32,37A18,18,0,1,0,14,19,18,18,0,0,0,32,37ZM25,19H24a1,1,0,0,1,0-2h1Zm0-5a7,7,0,0,1,14,0,1,1,0,0,0-1-1H37a2,2,0,0,1-2-2,1,1,0,0,0-2,0,2,2,0,0,1-2,2H26A1,1,0,0,0,25,14Zm14,3h1a1,1,0,0,1,0,2H39ZM27,15h4a4,4,0,0,0,3-1.36A4,4,0,0,0,37,15v4a5,5,0,0,1-10,0Zm1.75,13,1.45,1-.81.54-.75-1.49Zm6.5,0h.11l-.75,1.49L33.8,29Zm-3.53,4-.44-1.32L32,30.2l.72.48L32.28,32ZM34,33.06l.41-1.23A1,1,0,0,0,35,32a1.15,1.15,0,0,0,.26,0,1,1,0,0,0,.63-.52l1.57-3.13,1.91.23A3,3,0,0,1,42,31.47a15.9,15.9,0,0,1-7.61,3.33ZM32,26a7.27,7.27,0,0,0,2-.29v.75L32,27.8l-2-1.34v-.75A7.27,7.27,0,0,0,32,26Zm-5.46,2.32,1.57,3.13a1,1,0,0,0,.63.52A1.15,1.15,0,0,0,29,32a1,1,0,0,0,.55-.17L30,33.06l-.35,1.74A15.9,15.9,0,0,1,22,31.47a3,3,0,0,1,2.62-2.92ZM31.62,35l.2-1h.36l.2,1h-.76ZM32,3A16,16,0,0,1,43.7,29.87a5,5,0,0,0-4.08-3.3L36,26.12V24.74A7.07,7.07,0,0,0,38.71,21H40a3,3,0,0,0,1-5.82V14a9,9,0,1,0-18,0v1.18A3,3,0,0,0,24,21h1.29A7.07,7.07,0,0,0,28,24.74v1.38l-3.62.45a5,5,0,0,0-4.08,3.3A16,16,0,0,1,32,3Z"/>
      <path id="Trazado_1180514" data-name="Trazado 1180514" d="M52,61V59h.92a1,1,0,0,0,.71-.3l8.46-8.49a3.14,3.14,0,0,0,0-4.42A3.079,3.079,0,0,0,58,45.54V37a3,3,0,0,0-4.12-2.78,3,3,0,0,0-5.76,0,3,3,0,0,0-4,2A3,3,0,0,0,40,39V50a1,1,0,0,0-.71.29l-2,2A1,1,0,0,0,37,53v8H27V53a1,1,0,0,0-.29-.71l-2-2A1,1,0,0,0,24,50V39a3,3,0,0,0-4.12-2.78,3,3,0,0,0-4-2,3,3,0,0,0-5.76,0A3,3,0,0,0,6,37v8.54a3.079,3.079,0,0,0-4.09.25,3.13,3.13,0,0,0,0,4.41l8.46,8.5a1,1,0,0,0,.71.3H12v2H1v2H63V61Zm3-25a1,1,0,0,1,1,1V47.49l-2,2V37A1,1,0,0,1,55,36Zm-5-1a1,1,0,0,1,2,0V50H50Zm-4,2a1,1,0,0,1,2,0V50H46Zm-4,2a1,1,0,0,1,2,0V50H42ZM39,53.41,40.41,52H53.92a1,1,0,0,0,.71-.29l4.48-4.51a1.08,1.08,0,0,1,.78-.32,1.1,1.1,0,0,1,.78.32,1.12,1.12,0,0,1,0,1.59L52.51,57H46v2h4v2H39ZM21,38a1,1,0,0,1,1,1V50H20V39A1,1,0,0,1,21,38Zm-4-2a1,1,0,0,1,1,1V50H16V37A1,1,0,0,1,17,36Zm-5-1a1,1,0,0,1,2,0V50H12ZM9,36a1,1,0,0,1,1,1V49.5l-2-2V37A1,1,0,0,1,9,36Zm5,23h4V57H11.49L3.33,48.79a1.12,1.12,0,0,1,0-1.59,1.1,1.1,0,0,1,.78-.32,1.08,1.08,0,0,1,.78.32l4.48,4.51a1,1,0,0,0,.71.29H23.59L25,53.41V61H14Z"/>
    </g>
  </g>
</svg>
