<svg xmlns="http://www.w3.org/2000/svg" xmlns:xlink="http://www.w3.org/1999/xlink" width="113" height="113" viewBox="0 0 113 113">
  <defs>
    <filter id="Trazado_982547" x="0" y="0" width="113" height="113" filterUnits="userSpaceOnUse">
      <feOffset dy="3" input="SourceAlpha"/>
      <feGaussianBlur stdDeviation="3" result="blur"/>
      <feFlood flood-opacity="0.161"/>
      <feComposite operator="in" in2="blur"/>
      <feComposite in="SourceGraphic"/>
    </filter>
  </defs>
  <g id="Grupo_1224491" data-name="Grupo 1224491" transform="translate(-900.509 -4347.154)">
    <g id="Grupo_1224223" data-name="Grupo 1224223" transform="translate(0 2392.403)">
      <g id="Grupo_1224093" data-name="Grupo 1224093" transform="translate(226.51 -2620.317)">
        <g id="Grupo_1223184" data-name="Grupo 1223184" transform="translate(683 4581.069)">
          <g id="Grupo_1211216" data-name="Grupo 1211216" transform="translate(0)">
            <g id="Grupo_1210737" data-name="Grupo 1210737">
              <g id="Grupo_1210537" data-name="Grupo 1210537">
                <g id="Grupo_1164202" data-name="Grupo 1164202">
                  <g id="Grupo_1158168" data-name="Grupo 1158168">
                    <g id="Grupo_1152576" data-name="Grupo 1152576">
                      <g id="Grupo_1148633" data-name="Grupo 1148633">
                        <g id="Grupo_1148525" data-name="Grupo 1148525">
                          <g transform="matrix(1, 0, 0, 1, -9, -6)" filter="url(#Trazado_982547)">
                            <g id="Trazado_982547-2" data-name="Trazado 982547" transform="translate(9 6)" fill="#fcf5f0">
                              <path d="M 47.49999618530273 93.5 C 41.28936767578125 93.5 35.26533126831055 92.28396606445312 29.59518241882324 89.88570404052734 C 24.11771583557129 87.56893157958984 19.19812965393066 84.251953125 14.97308921813965 80.02690124511719 C 10.74803638458252 75.80186462402344 7.431062698364258 70.88227844238281 5.114289283752441 65.40480804443359 C 2.716022968292236 59.73466110229492 1.499996185302734 53.71062469482422 1.499996185302734 47.49999618530273 C 1.499996185302734 41.28936767578125 2.716022968292236 35.26533126831055 5.114289283752441 29.59518241882324 C 7.431062698364258 24.11771583557129 10.74803638458252 19.19812965393066 14.97308921813965 14.97308921813965 C 19.19812965393066 10.74803638458252 24.11771583557129 7.431062698364258 29.59518241882324 5.114289283752441 C 35.26533126831055 2.716022968292236 41.28936767578125 1.499996185302734 47.49999618530273 1.499996185302734 C 53.71062469482422 1.499996185302734 59.73466110229492 2.716022968292236 65.40480804443359 5.114289283752441 C 70.88227844238281 7.431062698364258 75.80186462402344 10.74803638458252 80.02690124511719 14.97308921813965 C 84.251953125 19.19812965393066 87.56893157958984 24.11771583557129 89.88570404052734 29.59518241882324 C 92.28396606445312 35.26533126831055 93.5 41.28936767578125 93.5 47.49999618530273 C 93.5 53.71062469482422 92.28396606445312 59.73466110229492 89.88570404052734 65.40480804443359 C 87.56893157958984 70.88227844238281 84.251953125 75.80186462402344 80.02690124511719 80.02690124511719 C 75.80186462402344 84.251953125 70.88227844238281 87.56893157958984 65.40480804443359 89.88570404052734 C 59.73466110229492 92.28396606445312 53.71062469482422 93.5 47.49999618530273 93.5 Z" stroke="none"/>
                              <path d="M 47.49999618530273 2.999992370605469 C 41.4912109375 2.999992370605469 35.66376495361328 4.1761474609375 30.17950439453125 6.495796203613281 C 24.88084411621094 8.736953735351562 20.12152099609375 11.94598388671875 16.03375244140625 16.03375244140625 C 11.94598388671875 20.12152099609375 8.736953735351562 24.88084411621094 6.495796203613281 30.17950439453125 C 4.1761474609375 35.66376495361328 2.999992370605469 41.4912109375 2.999992370605469 47.49999618530273 C 2.999992370605469 53.50878143310547 4.1761474609375 59.33622741699219 6.495796203613281 64.82048797607422 C 8.736953735351562 70.11914825439453 11.94598388671875 74.87847137451172 16.03375244140625 78.96623992919922 C 20.12152099609375 83.05400848388672 24.88084411621094 86.26304626464844 30.17950439453125 88.50419616699219 C 35.66376495361328 90.82384490966797 41.4912109375 92 47.49999618530273 92 C 53.50878143310547 92 59.33622741699219 90.82384490966797 64.82048797607422 88.50419616699219 C 70.11914825439453 86.26304626464844 74.87847137451172 83.05400848388672 78.96623992919922 78.96623992919922 C 83.05400848388672 74.87847137451172 86.26304626464844 70.11914825439453 88.50419616699219 64.82048797607422 C 90.82384490966797 59.33622741699219 92 53.50878143310547 92 47.49999618530273 C 92 41.4912109375 90.82384490966797 35.66376495361328 88.50419616699219 30.17950439453125 C 86.26304626464844 24.88084411621094 83.05400848388672 20.12152099609375 78.96623992919922 16.03375244140625 C 74.87847137451172 11.94598388671875 70.11914825439453 8.736953735351562 64.82048797607422 6.495796203613281 C 59.33622741699219 4.1761474609375 53.50878143310547 2.999992370605469 47.49999618530273 2.999992370605469 M 47.49999618530273 -7.62939453125e-06 C 73.7335205078125 -7.62939453125e-06 95 21.26647186279297 95 47.49999618530273 C 95 73.7335205078125 73.7335205078125 95 47.49999618530273 95 C 21.26647186279297 95 -7.62939453125e-06 73.7335205078125 -7.62939453125e-06 47.49999618530273 C -7.62939453125e-06 21.26647186279297 21.26647186279297 -7.62939453125e-06 47.49999618530273 -7.62939453125e-06 Z" stroke="none" fill="#eca675"/>
                            </g>
                          </g>
                        </g>
                      </g>
                    </g>
                  </g>
                </g>
              </g>
            </g>
          </g>
        </g>
      </g>
    </g>
    <g id="eco-friendly_17607983" transform="translate(849.576 4253.575)">
      <path id="Trazado_1180531" data-name="Trazado 1180531" d="M420.774,678.966q-.119.144-.246.277a4.627,4.627,0,0,1-5.556.843l-12.2-6.693a1.05,1.05,0,1,1,1.007-1.841l12.2,6.7a2.526,2.526,0,0,0,3.169-.611l.009-.012a1.1,1.1,0,0,1,.086-.093,1.05,1.05,0,0,1,1.531,1.434Z" transform="translate(-301.844 -513.983)"/>
      <path id="Trazado_1180532" data-name="Trazado 1180532" d="M272.29,559.87a4.676,4.676,0,0,1-3.711,4.557l-23.28,4.85a13.157,13.157,0,0,1-9.623-1.687l-11.071-6.827-5,3.026-.507.31a1.05,1.05,0,1,1-1.085-1.8l1.594-.965,4.462-2.7a1.048,1.048,0,0,1,1.095,0l11.62,7.163a11.059,11.059,0,0,0,8.092,1.419l23.28-4.85a2.56,2.56,0,0,0-1.03-5.016l-17,3.439-.344.07a1.05,1.05,0,0,1-1.033-1.679l.009-.012a2.527,2.527,0,0,0-.664-3.761l-15.463-9.26a7.424,7.424,0,0,0-7.958.228l-5.069,3.444-.458.31a1.05,1.05,0,0,1-1.18-1.737l1.582-1.075,3.946-2.681a9.494,9.494,0,0,1,4.984-1.627,9.65,9.65,0,0,1,2.2.173,9.459,9.459,0,0,1,3.035,1.162l15.415,9.236.044.027a4.626,4.626,0,0,1,2.176,4.794L266.7,555.3a4.677,4.677,0,0,1,5.589,4.573Z" transform="translate(-131.442 -395.533)"/>
      <path id="Trazado_1180533" data-name="Trazado 1180533" d="M88.1,574.8a2.556,2.556,0,0,0-2.491-2.009H77.55A2.556,2.556,0,0,0,75,575.34v16.824a2.556,2.556,0,0,0,2.55,2.549h8.063a2.556,2.556,0,0,0,2.55-2.549V575.34A2.542,2.542,0,0,0,88.1,574.8Zm-2.042,17.366a.456.456,0,0,1-.449.45H77.55a.456.456,0,0,1-.45-.45V575.34a.456.456,0,0,1,.45-.45h8.063a.456.456,0,0,1,.45.45Z" transform="translate(0 -423.006)"/>
      <rect id="Rectángulo_422088" data-name="Rectángulo 422088" width="8.962" height="17.725" transform="translate(77.1 151.884)" fill="#b4dd7f"/>
      <path id="Trazado_1180534" data-name="Trazado 1180534" d="M295.458,584.866a2.568,2.568,0,0,1-2.039,2.5l-23.28,4.85a11.059,11.059,0,0,1-8.092-1.419l-11.62-7.164a1.048,1.048,0,0,0-1.095,0l-4.462,2.7V574.822l5.069-3.443a7.424,7.424,0,0,1,7.958-.228l15.466,9.26a2.527,2.527,0,0,1,.664,3.761l-.009.012a2.526,2.526,0,0,1-3.169.611l-12.2-6.7a1.05,1.05,0,1,0-1.007,1.841l12.2,6.7a4.627,4.627,0,0,0,5.556-.843l16.994-3.442a2.557,2.557,0,0,1,3.026,2.044A2.586,2.586,0,0,1,295.458,584.866Z" transform="translate(-156.711 -420.529)" fill="#f9c38f"/>
      <path id="Trazado_1180535" data-name="Trazado 1180535" d="M364.13,311.192c-.168.1-.336.2-.5.31q-.339.216-.664.452a14.663,14.663,0,0,0-6.081,11.367q-.019.553,0,1.112v.008q.019.493.071.982a14.391,14.391,0,0,0,.381,2.109q.077.31.174.62a1.05,1.05,0,1,1-2.008.614q-.213-.7-.363-1.406a16.657,16.657,0,0,1-.352-2.828v-.06a16.762,16.762,0,0,1,6.943-14.209l.01-.007c.432-.31.881-.605,1.335-.871a1.05,1.05,0,0,1,1.061,1.812Z" transform="translate(-258.1 -179.872)"/>
      <path id="Trazado_1180536" data-name="Trazado 1180536" d="M557.971,282.4a1.05,1.05,0,0,1-1.049,1.03h-.363a1.05,1.05,0,0,1-1.05-1.037,1.076,1.076,0,0,1,.018-.208c.009-.035.018-.07.026-.106v-.009a1.034,1.034,0,0,1,.183-.346,1.049,1.049,0,0,1,.807-.4h.4a1.053,1.053,0,0,1,.983.74.884.884,0,0,1,.026.111A.959.959,0,0,1,557.971,282.4Z" transform="translate(-443.285 -154.125)"/>
      <path id="Trazado_1180537" data-name="Trazado 1180537" d="M623.774,326.463a16.677,16.677,0,0,1-6.748,10.931c-.445.322-.9.62-1.366.889l-.022.013c-.019.012-.037.023-.057.033l-.016.009A16.691,16.691,0,0,1,613.1,339.5a16.2,16.2,0,0,1-1.565.5,1.022,1.022,0,0,1-.271.036,1.05,1.05,0,0,1-.269-2.065q.225-.059.446-.127a14.613,14.613,0,0,0,2.422-.968q.338-.174.669-.363l.024-.015a13.954,13.954,0,0,0,1.185-.765l.057-.04a14.7,14.7,0,0,0,2.092-21.988q-.27-.287-.553-.558l-.023-.021q-.493-.469-1.028-.889c-.368-.29-.751-.562-1.144-.813-.165-.107-.332-.209-.5-.31A1.051,1.051,0,0,1,615.7,309.3a15.77,15.77,0,0,1,1.346.879,16.593,16.593,0,0,1,1.692,1.4l.025.022a16.855,16.855,0,0,1,2.06,2.361A16.671,16.671,0,0,1,623.774,326.463Z" transform="translate(-493.75 -179.795)"/>
      <path id="Trazado_1180538" data-name="Trazado 1180538" d="M636.866,380.313a14.591,14.591,0,0,1-5.9,9.563l-.057.04-1.389-5.54a3.854,3.854,0,0,0-1.327-2.061l-.888-.7a1.731,1.731,0,0,1-.113-2.606l1.549-1.472a3.843,3.843,0,0,0,.465-5.016,1.728,1.728,0,0,1,.472-2.47l3.377-2.157a14.711,14.711,0,0,1,3.815,12.423Z" transform="translate(-508.915 -233.98)" fill="#29abe2"/>
      <path id="Trazado_1180539" data-name="Trazado 1180539" d="M608.746,338.957l-.713.456-3.377,2.155a1.728,1.728,0,0,0-.472,2.47,3.843,3.843,0,0,1-.465,5.016l-1.549,1.472a1.731,1.731,0,0,0,.114,2.608l.888.708A3.854,3.854,0,0,1,604.5,355.9l1.389,5.54.356,1.421a1.049,1.049,0,0,1-.437,1.13l-.023.013c-.019.012-.037.023-.057.033l-.015.009a1.007,1.007,0,0,1-.229.087,1.05,1.05,0,0,1-1.274-.763l-.2-.789-1.549-6.172a1.737,1.737,0,0,0-.6-.93l-.888-.708a3.831,3.831,0,0,1-.251-5.77l1.549-1.472a1.737,1.737,0,0,0,.211-2.266,3.83,3.83,0,0,1,1.043-5.468l2.9-1.855,1.187-.758a1.05,1.05,0,0,1,1.263.1l.025.022a1.052,1.052,0,0,1-.155,1.646Z" transform="translate(-483.899 -205.502)"/>
      <path id="Trazado_1180540" data-name="Trazado 1180540" d="M374.182,311.276,374,312.288l-.092.512-.226,1.261a3.032,3.032,0,0,1-2.19,2.382l-.485.13a.914.914,0,0,0-.664.71l-.41,2.08a3.015,3.015,0,0,1-4.493,2.014.919.919,0,0,0-1.356.583l-.366,1.53a3.021,3.021,0,0,1-2.655,2.3l-3.959.369-1.023.1c-.033,0-.066,0-.1,0a1.05,1.05,0,0,1-1.044-.953v-.1a1.05,1.05,0,0,1,.953-1.043l1.143-.1,3.835-.357a.919.919,0,0,0,.807-.7l.366-1.531a3.021,3.021,0,0,1,4.461-1.908.9.9,0,0,0,.465.129.924.924,0,0,0,.9-.743l.411-2.08a3,3,0,0,1,2.179-2.331l.486-.131a.922.922,0,0,0,.667-.724l.4-2.254.094-.527a1.05,1.05,0,0,1,1.219-.848l.05.01.048.012c.033.009.064.019.094.031a1.039,1.039,0,0,1,.339.212l.009.008A1.05,1.05,0,0,1,374.182,311.276Z" transform="translate(-258.254 -180.615)"/>
      <path id="Trazado_1180541" data-name="Trazado 1180541" d="M560.1,128.057c-.009-.036-.018-.074-.026-.111a5.421,5.421,0,0,1-.135-1.239,8,8,0,0,1-.049.892,6.647,6.647,0,0,1-.374,1.607,1.044,1.044,0,0,1-.445.1h-.363a1.047,1.047,0,0,1-.445-.1,5.42,5.42,0,0,0,.627,1.206,4.946,4.946,0,0,0,.31.405l.094-.527a1.05,1.05,0,0,1,1.219-.847l.05.01.048.012c.032.009.063.019.094.031l.084-.055a3.508,3.508,0,0,1-.689-1.384Zm12.886-12.885a1.05,1.05,0,0,0-1.223-.893c-.347.061-8.526,1.549-11.511,5.639a13.52,13.52,0,0,0-1.36,2.308,10.966,10.966,0,0,0-1.043,4.106c0,.111-.007.222-.008.331v.073a8.236,8.236,0,0,0,.049.863,6.642,6.642,0,0,0,.375,1.605,5.424,5.424,0,0,0,.627,1.206A4.958,4.958,0,0,0,560,131.562l.053.04.019.014a4.947,4.947,0,0,0,1.017.567,5.437,5.437,0,0,0,2.092.4,7.479,7.479,0,0,0,2.569-.486,9.472,9.472,0,0,0,1.074-.473,11.142,11.142,0,0,0,1.817-1.175l.085-.068a13.348,13.348,0,0,0,2.4-2.528C574.106,123.771,573.036,115.523,572.985,115.172Zm-3.559,11.446c-1.814,2.484-4.4,3.951-6.43,3.857a3.076,3.076,0,0,1-1.7-.566,2.558,2.558,0,0,1-.232-.193l-.009-.009a2.676,2.676,0,0,1-.255-.267,3.507,3.507,0,0,1-.689-1.384c-.009-.036-.018-.074-.026-.111a5.418,5.418,0,0,1-.135-1.239c0-.093,0-.187.006-.283a9.864,9.864,0,0,1,2-5.262c1.909-2.615,6.845-4.042,9.064-4.571.049.637.1,1.5.1,2.463C571.11,121.542,570.8,124.734,569.426,126.618Z" transform="translate(-445.435)"/>
      <path id="Trazado_1180542" data-name="Trazado 1180542" d="M402.611,357.737l1.549,6.172a14.614,14.614,0,0,1-2.428.974l-15.416-9.233a9.46,9.46,0,0,0-3.035-1.162,14.4,14.4,0,0,1-.381-2.109l3.959-.369a3.021,3.021,0,0,0,2.654-2.3l.367-1.533a.919.919,0,0,1,1.358-.578,3.015,3.015,0,0,0,4.493-2.014l.41-2.08a.914.914,0,0,1,.664-.71l.485-.13a3.032,3.032,0,0,0,2.19-2.382l.226-1.261a5.438,5.438,0,0,0,2.092.4,7.48,7.48,0,0,0,2.569-.487,9.481,9.481,0,0,0,1.074-.473q.59.378,1.144.813l-2.9,1.855a3.83,3.83,0,0,0-1.044,5.468,1.737,1.737,0,0,1-.211,2.266l-1.549,1.472a3.831,3.831,0,0,0,.251,5.77l.888.708A1.737,1.737,0,0,1,402.611,357.737Z" transform="translate(-284.048 -206.829)" fill="#009245"/>
      <path id="Trazado_1180543" data-name="Trazado 1180543" d="M596.192,146.781c0,2.49-.31,5.681-1.684,7.565-1.813,2.484-4.4,3.951-6.43,3.857a13.512,13.512,0,0,0,4.761-5.526,5.8,5.8,0,0,0,.475-3.392l-2.041.493v-.009a4.171,4.171,0,0,1-.448,2.283c-.557,1.244-1.868,3.109-4.946,5.118a3.507,3.507,0,0,1-.689-1.384.907.907,0,0,0-.026-.111,5.414,5.414,0,0,1-.135-1.239c0-.093,0-.187.006-.283a9.864,9.864,0,0,1,2-5.262c1.909-2.615,6.845-4.042,9.064-4.571C596.146,144.954,596.192,145.815,596.192,146.781Z" transform="translate(-470.518 -27.729)" fill="#8cc63f"/>
      <path id="Trazado_1180544" data-name="Trazado 1180544" d="M588.993,211.812a13.5,13.5,0,0,1-4.761,5.526q-.827.6-1.775,1.179l-.035.019a1.033,1.033,0,0,1-.509.133,1.05,1.05,0,0,1-.6-.188l-.019-.014-.053-.04a1.063,1.063,0,0,1-.225-.261,1.051,1.051,0,0,1,.351-1.443q.3-.183.581-.365l.084-.055c3.079-2.009,4.389-3.873,4.946-5.118a4.189,4.189,0,0,0,.448-2.283v.009l2.046-.491A5.863,5.863,0,0,1,588.993,211.812Z" transform="translate(-466.674 -86.863)"/>
      <path id="Trazado_1180545" data-name="Trazado 1180545" d="M400.231,129.232a1.051,1.051,0,0,1-.6-.937,1.079,1.079,0,0,1,.018-.208,3.5,3.5,0,0,1-.688,1.38q.32.209.665.42a1.05,1.05,0,0,1,.352,1.443c-.013.022-.027.043-.041.063a.281.281,0,0,1-.025.033l-.028.035-.018.021a.3.3,0,0,1-.03.033.413.413,0,0,1-.032.032c-.016.016-.033.031-.05.046a4.962,4.962,0,0,0,1.109-1.153A5.421,5.421,0,0,1,400.231,129.232Zm1.669-2.872a10.986,10.986,0,0,0-1.042-4.106,13.52,13.52,0,0,0-1.361-2.308c-2.984-4.088-11.164-5.578-11.51-5.639a1.05,1.05,0,0,0-1.224.891c-.047.352-1.119,8.6,1.863,12.684a13.3,13.3,0,0,0,2.4,2.529,11.122,11.122,0,0,0,1.9,1.243,9.5,9.5,0,0,0,1.071.471,7.48,7.48,0,0,0,2.569.487,5.216,5.216,0,0,0,3.1-.967c.889-.642.012-.008.018-.012l.053-.04a4.962,4.962,0,0,0,1.109-1.153,5.469,5.469,0,0,0,.627-1.205,6.647,6.647,0,0,0,.374-1.607,7.971,7.971,0,0,0,.054-.894c0-.126-.006-.249-.012-.373Zm-5.33,4.146c-2,0-4.489-1.453-6.248-3.862-1.911-2.615-1.764-7.761-1.589-10.035,2.634.62,7.292,2.144,9.068,4.576a9.864,9.864,0,0,1,2,5.262c0,.082.005.163.005.243v.073a5.4,5.4,0,0,1-.134,1.208v.009c-.009.036-.017.071-.026.106a3.5,3.5,0,0,1-.688,1.38,2.808,2.808,0,0,1-.5.469,3.076,3.076,0,0,1-1.7.566C396.694,130.5,396.632,130.506,396.57,130.506Zm3.661-1.274a1.051,1.051,0,0,1-.6-.937,1.079,1.079,0,0,1,.018-.208,3.5,3.5,0,0,1-.688,1.38q.32.209.665.42a1.05,1.05,0,0,1,.352,1.443c-.013.022-.027.043-.041.063a.282.282,0,0,1-.025.033l-.028.035-.018.021a.3.3,0,0,1-.03.033.413.413,0,0,1-.032.032c-.016.016-.033.031-.05.046a4.962,4.962,0,0,0,1.109-1.153,5.421,5.421,0,0,1-.629-1.206Z" transform="translate(-287.403 -0.027)"/>
      <path id="Trazado_1180546" data-name="Trazado 1180546" d="M424.823,154.292v.073a5.394,5.394,0,0,1-.134,1.209v.008c-.009.036-.017.071-.026.106a3.5,3.5,0,0,1-.688,1.38c-3.079-2.009-4.389-3.873-4.946-5.118a4.188,4.188,0,0,1-.448-2.283s0,.006,0,.009l-2.041-.493a5.818,5.818,0,0,0,.475,3.392,13.5,13.5,0,0,0,4.762,5.526c-.061,0-.123,0-.185,0-2,0-4.489-1.453-6.248-3.862-1.917-2.615-1.769-7.761-1.594-10.035,2.634.62,7.292,2.144,9.068,4.576a9.864,9.864,0,0,1,2,5.262C424.821,154.13,424.823,154.212,424.823,154.292Z" transform="translate(-312.418 -27.628)" fill="#8cc63f"/>
      <path id="Trazado_1180547" data-name="Trazado 1180547" d="M396.984,323.194l-.405,2.26a.922.922,0,0,1-.667.724l-.486.131a3,3,0,0,0-2.179,2.331l-.411,2.08a.924.924,0,0,1-.9.743.9.9,0,0,1-.465-.129,3.021,3.021,0,0,0-4.465,1.9l-.366,1.531a.919.919,0,0,1-.807.7l-3.829.36a14.663,14.663,0,0,1,6.084-11.364q.325-.232.664-.452a9.509,9.509,0,0,0,1.071.471,7.48,7.48,0,0,0,2.569.486,5.217,5.217,0,0,0,3.1-.967c.889-.642.012-.008.018-.012l.053-.04a4.964,4.964,0,0,0,1.109-1.154A4.958,4.958,0,0,0,396.984,323.194Z" transform="translate(-283.217 -192.373)" fill="#29abe2"/>
      <path id="Trazado_1180548" data-name="Trazado 1180548" d="M458.419,218.149c-.013.022-.027.043-.041.063a.284.284,0,0,1-.025.033l-.028.035-.018.021a.311.311,0,0,1-.03.033.427.427,0,0,1-.032.032c-.016.016-.033.031-.05.046l-.053.04-.018.012h0a1.049,1.049,0,0,1-1.146.035q-.95-.577-1.775-1.179a13.513,13.513,0,0,1-4.762-5.526,5.817,5.817,0,0,1-.475-3.392l2.041.493s0-.006,0-.009a4.173,4.173,0,0,0,.448,2.283c.557,1.244,1.868,3.109,4.946,5.118q.32.209.665.42a1.05,1.05,0,0,1,.352,1.445Z" transform="translate(-345.847 -86.845)"/>
    </g>
  </g>
</svg>
